<?xml version="1.0" standalone="no"?>
<!DOCTYPE svg PUBLIC "-//W3C//DTD SVG 1.1//EN" "http://www.w3.org/Graphics/SVG/1.1/DTD/svg11.dtd" >
<svg xmlns="http://www.w3.org/2000/svg">
<metadata></metadata>
<defs>
<font id="quadonblack" horiz-adv-x="1024" >
<font-face units-per-em="2048" ascent="1638" descent="-410" />
<missing-glyph horiz-adv-x="477" />
<glyph horiz-adv-x="2048" />
<glyph horiz-adv-x="2048" />
<glyph unicode="&#xd;" horiz-adv-x="2048" />
<glyph unicode=" "  horiz-adv-x="477" />
<glyph unicode="&#x09;" horiz-adv-x="477" />
<glyph unicode="&#xa0;" horiz-adv-x="477" />
<glyph unicode="!" horiz-adv-x="548" d="M512 1434v-295l-113 -619h-249l-111 619v295h473zM274 -14q-120 0 -177.5 52.5t-57.5 164.5t57.5 165.5t177.5 53.5t178 -53.5t58 -165.5t-57.5 -164.5t-178.5 -52.5z" />
<glyph unicode="&#x22;" horiz-adv-x="901" d="M428 1434v-213q0 -169 -186 -453h-211v666h397zM868 1434v-213q0 -169 -186 -453h-211v666h397z" />
<glyph unicode="#" horiz-adv-x="1118" d="M907 879h123v-277h-162l-26 -170h-277l25 170h-135l-25 -170h-278l24 170h-147v277h186l14 100h-157v278h196l27 177h278l-24 -177h133l27 177h276l-24 -177h108v-278h-147zM508 979l-14 -100h135l14 100h-135z" />
<glyph unicode="$" horiz-adv-x="1314" d="M729 911l250 -59q161 -40 225 -116.5t64 -231.5v-84q0 -198 -110.5 -300.5t-346.5 -119.5v-131h-324v131q-63 4 -130.5 16t-116 23.5t-174.5 44.5v387h370l47 -139q68 -13 125 -15v222l-299 73q-152 43 -207 121.5t-55 263.5v17q0 204 110 305.5t349 116.5v155h323v-157 q163 -12 398 -62v-424h-353l-47 148q-41 16 -98 16v-201zM608 940v172q-56 0 -77 -16t-21 -60v-12q0 -62 72 -78zM825 397v19q0 35 -19 53.5t-77 38.5v-191q55 4 74 20.5t22 59.5z" />
<glyph unicode="%" horiz-adv-x="2086" d="M1096 711l-457 -750h-156l494 750l473 776h156zM399 1462h150q191 -1 265.5 -81.5t74.5 -278.5v-195q-3 -195 -78 -273.5t-262 -78.5h-150q-193 0 -271 78.5t-81 271.5v197q0 199 77.5 279.5t274.5 80.5zM516 1202h-96q-49 0 -65.5 -19.5t-16.5 -72.5v-207 q0 -51 16.5 -68.5t65.5 -17.5h96q46 0 63.5 17.5t18.5 68.5v207q0 53 -17.5 72.5t-64.5 19.5zM1548 879h152q189 -1 263.5 -82t74.5 -279v-196q-3 -194 -78 -272.5t-260 -78.5h-152q-193 0 -270 78.5t-80 272.5v196q0 199 77.5 280t272.5 81zM1667 616h-98q-47 0 -63.5 -19 t-16.5 -73v-207q0 -50 16.5 -68t63.5 -18h98q46 0 63 18t19 68v207q0 54 -17.5 73t-64.5 19z" />
<glyph unicode="&#x26;" horiz-adv-x="1570" d="M1552 907v-305q-11 -1 -87 -10.5t-119 -13.5v-33q0 -287 -135.5 -425t-424.5 -138h-137q-175 0 -290.5 22.5t-190.5 76t-107 138t-32 213.5v37q0 133 49.5 208t152.5 101q-75 86 -75 279v24q0 203 109.5 292t342.5 89h43q72 0 147.5 -13t227.5 -50v-373h-299l-25 94 q-24 8 -75 8h-47q-72 0 -72 -65v-55q0 -101 100 -101h133v-305h-204q-59 0 -84 -22.5t-25 -81.5v-60q0 -63 24 -84.5t101 -21.5h207q120 0 171.5 48.5t51.5 158.5v43q-119 15 -152 20v305h721z" />
<glyph unicode="'" horiz-adv-x="460" d="M428 1434v-213q0 -169 -186 -453h-211v666h397z" />
<glyph unicode="(" horiz-adv-x="622" d="M401 1075v-969q0 -37 4 -65.5t16.5 -52.5t21.5 -38.5t35.5 -35t41 -29.5t53.5 -33q19 -12 29 -18l-92 -186q-191 67 -263 104q-157 83 -202 213q-22 61 -22 137v977q0 60 15.5 112t35 89t62 72.5t72.5 56t93.5 47.5t96 39t106.5 37q4 1 6 2l92 -186q-102 -63 -124 -82 q-61 -50 -73 -131q-4 -27 -4 -60z" />
<glyph unicode=")" horiz-adv-x="647" d="M246 106v969q0 55 -9 92t-37 68t-50 46.5t-78 49.5q-18 11 -27 17l92 186q194 -66 272 -108q160 -88 201 -229q15 -54 15 -118v-977q0 -69 -17 -125.5t-51 -98.5t-74 -74t-98 -59t-109 -47t-121 -44q-4 -1 -6 -2t-5.5 -2t-6.5 -2l-92 186q10 6 29 18q44 26 63 39 t45.5 36.5t37 45t18.5 55.5t8 78z" />
<glyph unicode="*" horiz-adv-x="886" d="M866 903l-118 -203l-115 72l-123 127l51 -170v-135h-235v135l51 172l-121 -129l-117 -72l-119 203l121 72l164 41l-164 37l-121 69l119 203l117 -70l119 -125l-49 166v138h235v-138l-49 -163l121 122l115 70l118 -203l-121 -69l-163 -37l163 -41z" />
<glyph unicode="+" horiz-adv-x="1187" d="M51 539v346h363v358h362v-358h361v-346h-361v-361h-362v361h-363z" />
<glyph unicode="," horiz-adv-x="509" d="M31 47l53 238q29 127 160 106q130 -21 182.5 -60.5t52.5 -127.5q0 -75 -31 -155t-82 -149t-102.5 -123.5t-105.5 -97.5l-109 80q30 67 42 96.5t25 69.5t19 76z" />
<glyph unicode="-" horiz-adv-x="790" d="M741 813v-344h-692v344h692z" />
<glyph unicode="." horiz-adv-x="532" d="M266 -14q-120 0 -177.5 52.5t-57.5 164.5t57.5 165.5t177.5 53.5t178 -53.5t58 -165.5t-57.5 -164.5t-178.5 -52.5z" />
<glyph unicode="/" horiz-adv-x="983" d="M1004 1602l-803 -1745h-240l803 1745h240z" />
<glyph unicode="0" horiz-adv-x="1300" d="M711 -29h-101q-309 0 -437 124t-134 433v359q0 318 128 446.5t443 128.5h99q155 -1 259 -31t171 -99.5t96 -176.5t29 -268v-357q-7 -309 -131 -434t-422 -125zM637 336h25q86 0 120.5 35t36.5 123v442q0 93 -34 129.5t-123 36.5h-25q-86 0 -121 -37t-35 -129v-442 q0 -88 35 -123t121 -35z" />
<glyph unicode="1" horiz-adv-x="954" d="M737 1452v-1106q112 -14 178 -31v-315h-847v315q111 27 227 35v692l-256 -8v318l459 100h239z" />
<glyph unicode="2" horiz-adv-x="1200" d="M1141 459v-459h-1094v307q0 61 5 108.5t12 83t24 65t31.5 49t44.5 41.5t53.5 35.5t67.5 37.5q93 50 278 129q92 39 127 62.5t35 54.5v53q0 49 -20 66.5t-74 17.5q-123 0 -178 -10l-27 -101h-336v394q225 44 325.5 56.5t260.5 12.5q248 0 361.5 -107.5t113.5 -346.5v-56 q0 -43 -4.5 -77.5t-11 -63t-21.5 -53t-28 -42.5t-40 -36.5t-48 -31.5t-60.5 -30t-69 -29t-81.5 -32q-3 -1 -4 -1.5t-3 -1t-4 -1.5q-31 -12 -90.5 -34.5t-95 -37t-55.5 -26.5q-41 -22 -50.5 -44.5t-9.5 -84.5h338l33 133h295z" />
<glyph unicode="3" horiz-adv-x="1124" d="M1063 1434v-357l-295 -252h43q85 0 138.5 -19t84 -65t42 -111t11.5 -167v-109q0 -191 -114.5 -280.5t-354.5 -89.5h-43q-240 0 -544 53v383h299l28 -103q35 -6 80 -6h135q58 0 77.5 17t19.5 67v51q0 29 -1.5 46.5t-7.5 31.5t-13.5 20.5t-26.5 11t-38 5t-55 0.5h-206 l-95 193l367 311h-528v369h997z" />
<glyph unicode="4" horiz-adv-x="1314" d="M14 721l631 713h445v-713h178v-283l-178 -32v-78q117 -15 178 -31v-297h-811v297q85 21 188 33v76h-631v315zM408 721h237v287z" />
<glyph unicode="5" horiz-adv-x="1196" d="M1108 1024h-295l-14 74h-353l-10 -258q44 45 108 68.5t132 23.5h92q93 0 159 -14.5t120 -49.5t81 -101t27 -163v-246q0 -196 -116 -291.5t-361 -95.5q-264 0 -639 66v373h297l29 -103q138 -6 270 -6q55 0 79.5 22t24.5 68v150q0 37 -22 58.5t-60 21.5h-98q-15 0 -28.5 -2 t-23.5 -4t-22 -8l-18 -9t-18 -12.5t-16 -12.5t-17.5 -15t-16.5 -15l-338 94l23 797h1024v-410z" />
<glyph unicode="6" horiz-adv-x="1310" d="M784 915h101q214 0 305.5 -77t91.5 -260v-220q0 -200 -125 -288t-381 -88h-149q-292 0 -438 139t-150 432v332q0 577 610 577q140 0 245 -13t318 -50v-393h-370l-47 79q-89 13 -144 13q-86 0 -128 -42.5t-42 -131.5v-148q67 55 135 88t168 51zM481 553v-72 q0 -74 42.5 -112.5t115.5 -36.5h131q48 2 71 23.5t23 68.5v92q0 88 -92 88h-67q-136 0 -224 -51z" />
<glyph unicode="7" horiz-adv-x="1198" d="M1180 1098l-428 -1098h-527v68l533 1026h-393l-52 -131h-293v471h1160v-336z" />
<glyph unicode="8" horiz-adv-x="1351" d="M1260 1096v-105q0 -116 -40.5 -180.5t-134.5 -93.5q126 -27 179 -100t53 -209v-35q0 -213 -117.5 -307.5t-382.5 -94.5h-256q-276 0 -398.5 94.5t-127.5 307.5v35q0 135 55.5 207.5t185.5 101.5q-98 29 -140 93.5t-42 180.5v105q3 189 115 272.5t364 83.5h230 q243 0 350 -83.5t107 -272.5zM485 1055v-92q0 -45 23.5 -62.5t79.5 -17.5h182q54 0 75 17t21 63v92q0 49 -20.5 67.5t-73.5 20.5h-184q-56 0 -79.5 -19.5t-23.5 -68.5zM872 418v92q0 46 -21.5 65t-76.5 19h-190q-57 0 -81 -19t-24 -65v-92q0 -52 24 -73t81 -21h192 q54 0 75 21t21 73z" />
<glyph unicode="9" horiz-adv-x="1310" d="M526 520h-100q-214 0 -305.5 77.5t-91.5 258.5v219q0 184 124 285.5t347 101.5h221q287 0 417 -140.5t136 -440.5v-334q0 -298 -148 -437t-471 -139q-29 0 -57.5 1t-50.5 1.5t-52 3.5t-47.5 4.5t-52 6.5t-49.5 7t-56.5 9t-56.5 9.5t-65.5 11.5t-69.5 12v395h408l10 -82 q96 -14 137 -14q91 0 133.5 41t42.5 131v115q-66 -52 -134.5 -77.5t-168.5 -25.5zM829 862v92q0 155 -157 152h-131q-97 -3 -97 -96v-92q0 -42 24 -64.5t69 -22.5h69q167 0 223 31z" />
<glyph unicode=":" horiz-adv-x="532" d="M266 686q-120 0 -177.5 52.5t-57.5 164.5t57.5 165.5t177.5 53.5t178 -53.5t58 -165.5t-57.5 -164.5t-178.5 -52.5zM266 -14q-120 0 -177.5 52.5t-57.5 164.5t57.5 165.5t177.5 53.5t178 -53.5t58 -165.5t-57.5 -164.5t-178.5 -52.5z" />
<glyph unicode=";" horiz-adv-x="532" d="M266 686q-120 0 -177.5 52.5t-57.5 164.5t57.5 165.5t177.5 53.5t178 -53.5t58 -165.5t-57.5 -164.5t-178.5 -52.5zM31 47l53 238q29 127 160 106q130 -21 182.5 -60.5t52.5 -127.5q0 -75 -31 -155t-82 -149t-102.5 -123.5t-105.5 -97.5l-109 80q30 67 42 96.5t25 69.5 t19 76z" />
<glyph unicode="&#x3c;" horiz-adv-x="960" d="M924 961l-490 -261v-8l490 -254v-270h-168l-725 405v234l727 403h166v-249z" />
<glyph unicode="=" horiz-adv-x="1124" d="M1071 1106v-348h-1020v348h1020zM1071 633v-348h-1020v348h1020z" />
<glyph unicode="&#x3e;" horiz-adv-x="960" d="M203 1210l727 -403v-234l-725 -405h-168v270l489 254v8l-489 261v249h166z" />
<glyph unicode="?" horiz-adv-x="1112" d="M25 1018v375q229 44 325 56.5t258 12.5q475 0 475 -399v-35q0 -85 -13 -144.5t-41 -96t-61 -57t-83 -36.5q-52 -15 -144.5 -38.5t-126.5 -32.5v-136h-356l-39 355q258 64 330 86q59 19 83.5 37.5t24.5 44.5v34q0 50 -19.5 67t-74.5 17q-110 0 -176 -10l-29 -100h-333z M440 -14q-120 0 -177.5 52.5t-57.5 164.5t57.5 165.5t177.5 53.5t178 -53.5t58 -165.5t-57.5 -164.5t-178.5 -52.5z" />
<glyph unicode="@" horiz-adv-x="1986" d="M1511 1032l-100 -614q-8 -86 9 -123t81 -37q118 0 189 113.5t71 328.5q0 619 -661 619q-177 0 -323 -44t-248 -121t-171.5 -184t-102 -231t-32.5 -264q0 -339 195.5 -509.5t554.5 -170.5q324 0 598 137l55 -118q-126 -72 -295 -116t-368 -44q-420 0 -658.5 208 t-238.5 609q0 169 42.5 318.5t128 272.5t208.5 212t291 137.5t368 48.5q392 0 604.5 -190t212.5 -547q0 -300 -149 -467.5t-435 -167.5q-39 0 -61.5 1t-57.5 4t-57 11.5t-46.5 22t-41 36t-26.5 52.5q-63 -67 -125.5 -99t-161.5 -32h-27q-60 0 -111.5 18.5t-93 58t-59 111 t-4.5 166.5l35 285q24 149 113 227t208 78h29q81 0 132.5 -12.5t135.5 -44.5l8 61h385zM1044 418l41 321q-62 19 -116 19h-17q-54 0 -76.5 -34t-35.5 -142l-6 -50q-12 -99 4.5 -130t74.5 -31h11q59 0 118 35z" />
<glyph unicode="A" horiz-adv-x="1652" d="M1114 1434l348 -1090q81 -8 166 -29v-315h-784v315q68 17 125 25l-25 86h-340l-16 -84q5 -1 112 -27v-315h-675v315q62 17 155 31l226 748q-41 7 -119 24v316h827zM776 1065h-4l-96 -311h196z" />
<glyph unicode="B" horiz-adv-x="1384" d="M1325 999v-10q0 -182 -143 -262q166 -73 166 -270v-56q0 -84 -11.5 -145t-38 -106t-64.5 -73.5t-98.5 -45.5t-131 -23.5t-170.5 -7.5h-787v315q75 18 131 27v748q-53 8 -139 28v316h786q145 -1 238.5 -22.5t153 -74t84 -133t24.5 -205.5zM623 850h143q68 0 96.5 19 t28.5 67v39q0 54 -25 76t-92 22h-151v-223zM895 463v41q-1 46 -31.5 65t-97.5 19h-143v-228h143q68 0 98.5 24.5t30.5 78.5z" />
<glyph unicode="C" horiz-adv-x="1308" d="M1272 461v-344q-130 -68 -268 -107t-254 -39h-150q-285 0 -416 141t-137 441v332q0 285 141.5 431t417.5 146h117q116 0 236.5 -14.5t310.5 -50.5v-484h-371l-47 185q-98 10 -203 10q-157 0 -157 -176v-428q0 -76 42.5 -123.5t114.5 -46.5h78q119 0 176 127h369z" />
<glyph unicode="D" horiz-adv-x="1437" d="M39 1434h809q293 -2 423 -136t130 -436v-307q-6 -295 -135 -425t-416 -130h-803v315q54 13 131 29v746q-49 7 -139 28v316zM958 516v395q0 77 -41.5 119.5t-117.5 42.5h-176v-713h176q73 0 115 41t44 115z" />
<glyph unicode="E" horiz-adv-x="1310" d="M1262 1434v-494h-277l-51 141h-313v-188h282v-361h-282v-180h317l51 142h275v-494h-1217v315q82 17 131 27v750q-69 9 -139 26v316h1223z" />
<glyph unicode="F" horiz-adv-x="1296" d="M1264 1434v-494h-275l-51 141h-317v-229h393v-360h-393v-150q157 -19 186 -27v-315h-760v315q68 16 131 27v750q-72 10 -139 26v316h1225z" />
<glyph unicode="G" horiz-adv-x="1390" d="M1354 788v-366q0 -79 -22 -145.5t-57 -112t-83.5 -81t-98 -56t-103.5 -34t-96.5 -18t-80.5 -4.5h-209q-287 0 -419.5 141.5t-137.5 440.5v319q0 285 145 437.5t420 152.5h131q195 0 570 -65v-494h-373l-47 178q-105 11 -234 11q-78 0 -122.5 -50t-44.5 -137v-403 q0 -72 43 -113t118 -41h176q52 0 84.5 24.5t32.5 73.5v27q-118 14 -274 39v276h682z" />
<glyph unicode="H" horiz-adv-x="1628" d="M1591 1434v-316q-66 -17 -141 -26v-750q106 -19 141 -27v-315h-686v315q59 13 103 21v205h-385v-205q46 -8 100 -21v-315h-684v315q24 6 139 27v750q-80 10 -139 26v316h684v-316q-40 -10 -100 -20v-213h385v213q-70 12 -103 20v316h686z" />
<glyph unicode="I" horiz-adv-x="798" d="M760 1434v-316q-62 -17 -139 -26v-750q70 -9 139 -27v-315h-713v315q68 16 131 27v750q-82 10 -139 26v316h721z" />
<glyph unicode="J" horiz-adv-x="1202" d="M1167 1434v-316q-59 -16 -139 -26v-596q0 -284 -107.5 -402.5t-349.5 -118.5h-67q-256 0 -481 123v344h346q21 -66 40 -88t62 -22h27q55 0 70.5 24.5t15.5 94.5v641q-11 1 -58 6t-83 10t-58 10v316h782z" />
<glyph unicode="K" horiz-adv-x="1589" d="M1130 829l304 -489q84 -13 131 -25v-315h-676v281q20 2 55 10l-160 260l-163 -141v-68q70 -9 139 -27v-315h-713v315q68 16 131 27v750q-82 10 -139 26v316h721v-316q-62 -17 -139 -26v-283l346 291q-70 9 -105 18v316h680v-316q-13 -4 -28 -7t-32.5 -6t-27.5 -5z" />
<glyph unicode="L" horiz-adv-x="1286" d="M1264 0h-1217v315q75 18 131 27v750q-84 13 -139 26v316h784v-316q-89 -24 -202 -33v-733h299l51 180h293v-532z" />
<glyph unicode="M" horiz-adv-x="1986" d="M1950 1434v-316q-105 -24 -142 -31v-745q37 -5 131 -27v-315h-657v315q83 19 100 21v559l-299 -895h-272l-279 895v-553q52 -11 119 -27v-315h-604v315q72 18 131 27v743q-16 3 -36.5 7.5t-51 12.5t-51.5 13v316h688l244 -756h4l244 756h731z" />
<glyph unicode="N" horiz-adv-x="1638" d="M1599 1434v-316q-78 -20 -139 -28v-1090h-452l-441 694v-358q29 -3 101 -21v-315h-621v315q69 18 131 27v745q-52 8 -139 31v316h547l485 -742v404q-28 5 -102 22v316h630z" />
<glyph unicode="O" horiz-adv-x="1425" d="M831 -29h-217q-298 0 -434 137t-141 433v333q0 306 136 447t439 141h215q293 -1 426.5 -142.5t133.5 -445.5v-331q-5 -296 -138 -434t-420 -138zM641 340h141q159 0 162 164v418q0 172 -162 172h-141q-79 0 -119.5 -44t-40.5 -128v-418q0 -164 160 -164z" />
<glyph unicode="P" horiz-adv-x="1370" d="M39 1434h786q282 -1 397 -104.5t115 -352.5v-105q-3 -230 -118 -325.5t-392 -95.5h-204v-107q70 -8 157 -29v-315h-733v315q68 16 131 27v748q-53 8 -139 28v316zM922 897v55q0 68 -28 94.5t-101 26.5h-170v-289h170q69 0 97.5 25t31.5 88z" />
<glyph unicode="Q" horiz-adv-x="1425" d="M610 1462h226q286 -1 419.5 -142.5t133.5 -440.5v-340q-6 -341 -177 -467q41 -68 164 -219l-186 -177q-152 96 -241 165t-140 130h-47h-152q-292 0 -430 137t-141 429v342q0 301 138 442t433 141zM786 1098h-149q-72 0 -114 -47t-42 -129v-418q0 -77 42 -122.5t114 -45.5 h149q71 0 114.5 46t43.5 122v418q0 82 -42.5 129t-115.5 47z" />
<glyph unicode="R" horiz-adv-x="1513" d="M39 1434h833q285 0 399.5 -96t114.5 -343v-90q0 -78 -12 -139t-39.5 -111t-75.5 -79.5t-116 -36.5q62 -100 149 -199q9 -1 82 -10t99 -15v-315h-459q-98 131 -172 275.5t-107 263.5h-37v276h125q67 0 91.5 18.5t27.5 67.5v70q0 54 -30 78t-99 24h-190v-739q41 -5 94 -19 v-315h-670v315q57 13 131 27v748q-53 8 -139 28v316z" />
<glyph unicode="S" horiz-adv-x="1314" d="M436 461l47 -144q74 -14 168 -14h37q82 0 108 16t29 66v18q0 42 -27.5 63.5t-119.5 47.5l-369 94q-103 31 -157.5 73.5t-79.5 119t-25 207.5v16q0 230 131.5 334t421.5 104h80q142 0 265.5 -16t281.5 -51v-439h-353l-47 152q-39 18 -131 18h-88q-56 0 -77 -17t-21 -62 v-13q0 -33 16.5 -52t55.5 -28l397 -98q161 -41 225 -120.5t64 -239.5v-88q0 -226 -133 -331.5t-420 -105.5h-117q-141 0 -233.5 16.5t-298.5 71.5v402h370z" />
<glyph unicode="T" horiz-adv-x="1431" d="M1413 932h-297l-45 160h-133v-750q81 -10 145 -27v-315h-725v315q37 9 138 27v750h-136l-43 -160h-297v502h1393v-502z" />
<glyph unicode="U" horiz-adv-x="1517" d="M1489 1434v-316q-37 -10 -111 -22v-557q-2 -166 -29 -272.5t-92.5 -174t-167.5 -94.5t-262 -27h-90q-165 0 -270.5 27t-173.5 94.5t-96.5 173t-30.5 271.5v555q-94 16 -137 26v316h731v-316q-63 -16 -150 -26v-600q0 -74 41 -117t115 -43h49q72 0 114 43t44 117v606 q-35 4 -105 20v316h621z" />
<glyph unicode="V" horiz-adv-x="1589" d="M1567 1434v-316q-60 -16 -135 -26l-324 -1092h-631l-336 1094q-63 10 -116 24v316h747v-316q-22 -5 -127 -24l176 -639h19l172 639q-71 10 -127 24v316h682z" />
<glyph unicode="W" horiz-adv-x="2054" d="M2048 1434v-316q-63 -17 -109 -22l-278 -1096h-549l-102 606h-6l-121 -606h-508l-271 1098q-62 11 -98 20v316h682v-316q-16 -4 -106 -20l108 -576h15l188 912h336l176 -899h12l127 563q-86 16 -104 20v316h608z" />
<glyph unicode="X" horiz-adv-x="1503" d="M1073 711l316 -377q37 -5 92 -19v-315h-686v315q27 4 45 9l-131 182h-2l-101 -172q73 -15 88 -19v-315h-635v315q68 17 117 25l273 362l-340 398q-83 17 -86 18v316h731v-316l-66 -12l137 -186h4l115 178q-51 9 -98 20v316h635v-316q-53 -12 -123 -26z" />
<glyph unicode="Y" horiz-adv-x="1470" d="M682 1434v-316q-12 -2 -36 -7t-36 -7l138 -285h4l157 281q-43 6 -90 18v316h627v-316q-78 -20 -141 -28l-361 -607v-141q70 -9 139 -27v-315h-712v315q68 16 131 27v123l-363 629q-59 9 -114 24v316h657z" />
<glyph unicode="Z" horiz-adv-x="1290" d="M1241 1434v-301l-616 -795h272l55 229h305v-567h-1224v248q0 105 69 180l603 670h-312l-55 -195h-305v531h1208z" />
<glyph unicode="[" horiz-adv-x="626" d="M606 1491v-279h-188v-1245h188v-268h-567v1792h567z" />
<glyph unicode="\" horiz-adv-x="983" d="M1022 -143h-240l-802 1745h239z" />
<glyph unicode="]" horiz-adv-x="626" d="M588 1491v-1792h-568v268h189v1245h-189v279h568z" />
<glyph unicode="^" horiz-adv-x="897" d="M549 1434l321 -394v-141h-241l-170 203h-8l-168 -203h-258v141l331 394h193z" />
<glyph unicode="_" horiz-adv-x="1218" d="M1223 -111v-206h-1227v206h1227z" />
<glyph unicode="`" d="M543 1610l239 -316l-174 -108l-372 217v55z" />
<glyph unicode="a" horiz-adv-x="1292" d="M1260 1108v-297q-95 -22 -111 -25v-462q16 -3 111 -25v-299h-537v123q-62 -43 -99.5 -66.5t-103.5 -48t-127 -24.5h-31q-141 0 -226 104t-85 322v368q0 89 26.5 156t73 107t104.5 59.5t126 19.5h31q62 0 120.5 -15.5t92.5 -31.5t98 -51v86h537zM580 344h26q46 0 117 33 v375q-55 24 -117 24h-26q-43 0 -63.5 -12.5t-30 -50t-9.5 -115.5v-68q0 -122 17 -154t86 -32z" />
<glyph unicode="b" horiz-adv-x="1327" d="M590 1434v-383q13 5 46 19t45 18.5t39.5 14.5t44.5 14t43 9t51.5 7t55.5 2h31q68 0 126.5 -21.5t104.5 -64t72.5 -111.5t26.5 -158v-370q0 -426 -387 -426h-23q-187 0 -702 26v1102q-35 6 -109 25v297h535zM850 506v76q0 139 -17 181t-83 42h-27q-67 0 -133 -27v-450 q88 -9 129 -9h26q70 0 87.5 32.5t17.5 154.5z" />
<glyph unicode="c" horiz-adv-x="1138" d="M1090 391v-291q-216 -129 -459 -129h-86q-250 0 -372 113.5t-122 341.5v289q0 205 124 312.5t355 107.5h123q104 0 192 -11.5t234 -38.5v-446h-317l-37 182q-41 4 -125 4q-123 0 -123 -127v-305q0 -67 30.5 -93t82.5 -26h33q92 0 112 80l10 37h345z" />
<glyph unicode="d" horiz-adv-x="1306" d="M1163 1434v-1110q16 -3 111 -25v-297h-537v141q-42 -34 -75 -57t-78.5 -49t-93.5 -39.5t-97 -13.5h-31q-141 0 -226 104t-85 322v348q0 174 95.5 272t234.5 98h31q98 0 160 -20t165 -74v111q-79 20 -112 26v263h538zM580 344h26q61 0 131 39v373q-61 24 -131 24h-26 q-66 0 -84.5 -29t-18.5 -100v-121q0 -122 17 -154t86 -32z" />
<glyph unicode="e" horiz-adv-x="1210" d="M586 1135h69q258 0 380 -109.5t122 -339.5v-252h-684v-65q0 -59 33 -86t84 -27h72q92 0 114 74l10 55h340v-285q-201 -129 -456 -129h-78q-299 0 -420 115.5t-121 400.5v179q0 241 131 355t404 114zM772 655v101q0 49 -32.5 76.5t-84.5 27.5h-57q-58 0 -91.5 -29 t-33.5 -81v-95h299z" />
<glyph unicode="f" horiz-adv-x="935" d="M592 799v-471q84 -9 168 -31v-297h-703v297q35 10 109 22v480h-127v272q51 11 127 23v90q0 129 85.5 221t227.5 117q141 25 348 39l37 -291q-7 -2 -85.5 -16t-125.5 -29q-61 -17 -61 -82v-35h303v-309h-303z" />
<glyph unicode="g" horiz-adv-x="1277" d="M1253 1108v-297q-27 -7 -90 -20v-750q0 -217 -127.5 -328.5t-373.5 -111.5h-109q-262 0 -461 131v258h346l11 -39q18 -45 112 -45h68q48 0 78 26.5t30 85.5v127q-167 -104 -362 -104h-31q-155 0 -224 72.5t-69 238.5v432q0 89 26 156t72 107t104 59.5t126 19.5h31 q50 0 93 -7.5t90.5 -28.5t67.5 -31t76 -41v90h516zM578 401h26q67 0 133 35v314q-56 30 -133 30h-26q-62 0 -81.5 -32.5t-19.5 -143.5v-53q0 -94 17 -122t84 -28z" />
<glyph unicode="h" horiz-adv-x="1425" d="M1278 322l113 -25v-297h-537v594q0 122 -14.5 151t-83.5 29h-25q-58 0 -139 -43v-412q72 -12 110 -22v-297h-645v297q34 9 109 22v793q-44 8 -107 25v297h533v-463q217 164 371 164h26q133 0 211 -82t78 -224v-507z" />
<glyph unicode="i" horiz-adv-x="735" d="M379 1180q-99 0 -167.5 59t-68.5 154t68.5 154t167.5 59t166 -59t67 -154t-67 -154t-166 -59zM592 1108v-789q72 -12 110 -22v-297h-645v297q34 9 109 22v467q-44 8 -107 25v297h533z" />
<glyph unicode="j" horiz-adv-x="673" d="M377 1606q100 0 166.5 -59t66.5 -154t-66.5 -154t-166.5 -59q-99 0 -167.5 59t-68.5 154t68.5 154t167.5 59zM602 1108v-881q0 -137 -45.5 -217.5t-185.5 -193.5q-36 -28 -62.5 -48t-49 -35t-35 -23t-38.5 -23.5t-41 -24.5l-168 174q84 106 101 129q60 80 79 131t19 135 v553q-60 10 -119 27v297h545z" />
<glyph unicode="k" horiz-adv-x="1421" d="M592 1434v-781l231 135q-65 12 -104 23v297h643v-297q-44 -12 -109 -23l-215 -141l228 -325q32 -5 112 -25v-297h-557v289l-112 160l-117 -76v-54q72 -12 110 -22v-297h-645v297q34 9 109 22v793q-44 8 -107 25v297h533z" />
<glyph unicode="l" horiz-adv-x="739" d="M592 1434v-1115q72 -12 110 -22v-297h-645v297q34 9 109 22v793q-44 8 -107 25v297h533z" />
<glyph unicode="m" horiz-adv-x="2052" d="M1905 829v-507q74 -15 112 -25v-297h-536v594q0 122 -15 151t-84 29h-24q-50 0 -119 -37v-413q18 -4 113 -27v-297h-539v594q0 123 -14 151.5t-82 28.5h-25q-36 0 -100 -31v-424q72 -12 110 -22v-297h-645v297q34 9 109 22v467q-44 8 -107 25v297h533v-111 q185 138 332 138h26q97 0 164 -43.5t98 -126.5q97 75 189 122.5t188 47.5h27q133 0 211 -82t78 -224z" />
<glyph unicode="n" horiz-adv-x="1425" d="M1278 829v-505q18 -4 113 -27v-297h-537v594q0 122 -14.5 151t-83.5 29h-25q-58 0 -139 -43v-412q72 -12 110 -22v-297h-645v297q34 9 109 22v467q-44 8 -107 25v297h533v-137q217 164 371 164h26q133 0 211 -82t78 -224z" />
<glyph unicode="o" horiz-adv-x="1282" d="M686 -29h-68q-166 0 -271.5 26t-172.5 92t-94 169t-29 266v39q0 169 26 275t93 174.5t173 95.5t275 27h66q130 -1 220 -19t155 -57t102 -107.5t53.5 -161.5t16.5 -227v-39q-2 -163 -28 -266t-90.5 -169t-165.5 -92t-261 -26zM604 272h70q71 0 101 28t30 97v299 q0 77 -29 107.5t-102 30.5h-70q-70 0 -98.5 -30.5t-28.5 -107.5v-299q0 -69 28.5 -97t98.5 -28z" />
<glyph unicode="p" horiz-adv-x="1329" d="M938 1135h31q141 0 225 -103.5t84 -320.5v-373q0 -174 -93.5 -264t-236.5 -90h-28q-41 0 -75 3t-71.5 13t-54.5 15t-65 23t-62 23v-141q109 -18 129 -22v-299h-664v299q74 16 109 22v866q-44 8 -107 25v297h533v-125q50 36 76.5 53.5t76.5 45.5t97 40.5t96 12.5zM854 518 v70q0 123 -16.5 154.5t-85.5 31.5h-25q-65 0 -135 -39v-395q66 -27 133 -27h27q69 0 85.5 35t16.5 170z" />
<glyph unicode="q" horiz-adv-x="1304" d="M1161 1108v-1188q18 -3 111 -22v-299h-660v299q28 4 67.5 11.5t55.5 10.5v141q-18 -6 -62 -23t-63 -23t-54.5 -15t-69 -12.5t-74.5 -3.5h-31q-91 0 -164 36.5t-119.5 118.5t-46.5 199v373q0 424 387 424h23q165 0 700 -27zM578 313h26q65 0 131 27v444q-88 9 -127 9h-26 q-70 0 -87.5 -32.5t-17.5 -154.5v-69q0 -138 17.5 -181t83.5 -43z" />
<glyph unicode="r" horiz-adv-x="1013" d="M592 1108v-190q8 11 28 39t31.5 43t32 39t38 37.5t40.5 28.5t48.5 21.5t53.5 6.5h125v-398q-226 -14 -268 -18q-76 -3 -129 -39v-359q74 -12 117 -22v-297h-652v297q34 9 109 22v467q-44 8 -107 25v297h533z" />
<glyph unicode="s" horiz-adv-x="1130" d="M43 756v41q0 173 114.5 255.5t352.5 82.5h39q299 0 500 -66v-319h-349l-28 98q-52 8 -121 8q-56 0 -81.5 -12t-25.5 -41v-10q0 -30 38.5 -43t198.5 -43q19 -3 30 -5t29 -5.5t34 -6.5q167 -31 240 -97t73 -169v-74q0 -196 -113.5 -287.5t-350.5 -91.5h-80q-335 0 -500 107 v317h342l10 -69q13 -35 51.5 -54.5t81.5 -19.5h56q42 0 63 19.5t21 52.5v12q0 40 -47 57.5t-259 55.5q-95 17 -158.5 44t-98 67t-48.5 86t-14 110z" />
<glyph unicode="t" horiz-adv-x="956" d="M680 332h20q131 0 199 6v-250q-65 -47 -192 -82t-236 -35h-27q-131 0 -207.5 81.5t-76.5 223.5v523h-125v282h47q64 0 111 61t47 150v78q82 18 141 26t87 9t118 2v-299h303v-309h-303v-295q0 -116 14 -144t80 -28z" />
<glyph unicode="u" horiz-adv-x="1409" d="M1262 1108v-784q29 -5 110 -25v-297h-536v156q-45 -32 -81 -54.5t-86.5 -49t-101.5 -40.5t-100 -14h-29q-155 0 -220.5 69.5t-65.5 235.5v481q-3 0 -113 25v297h536v-567q0 -122 15 -151.5t84 -29.5h24q61 0 138 43v383l-111 25v297h537z" />
<glyph unicode="v" horiz-adv-x="1343" d="M1329 1108v-297q-85 -23 -143 -31l-305 -780h-451l-293 784q-59 9 -123 27v297h629v-297q-16 -2 -42 -7t-36 -7l131 -449h2l170 440q-12 2 -98 23v297h559z" />
<glyph unicode="w" horiz-adv-x="1847" d="M1825 1108v-297q-37 -11 -101 -23l-196 -788h-504l-141 432l-119 -432h-445l-196 788q-52 10 -100 23v297h552v-297q-12 -3 -36 -8t-37 -8l78 -410h4l178 723h321l207 -723h2l80 403q-15 3 -31 6.5t-36.5 8.5t-32.5 8v297h553z" />
<glyph unicode="x" horiz-adv-x="1323" d="M985 543l176 -217q53 -7 139 -29v-297h-653v297q8 2 26 5t27 5l-94 127h-2l-88 -123q9 -2 33 -7t39 -7v-297h-565v297q69 19 104 25l219 227l-188 233q-79 14 -135 29v297h653v-297q-42 -8 -55 -10l92 -127h2l94 121q-27 5 -74 16v297h565v-297q-50 -13 -106 -23z" />
<glyph unicode="y" horiz-adv-x="1312" d="M1262 1108v-1061q0 -221 -126.5 -333.5t-373.5 -112.5h-96q-274 0 -476 131v258h347l10 -39q10 -26 39 -35.5t86 -9.5h57q48 0 77.5 28t29.5 91v108q-184 -92 -363 -92h-31q-155 0 -222.5 72.5t-67.5 238.5v434q-35 6 -113 25v297h536v-557q0 -94 17.5 -122t85.5 -28h27 q65 0 131 35v350q-41 8 -111 25v297h537z" />
<glyph unicode="z" horiz-adv-x="1167" d="M1124 1108v-297l-538 -512h256l47 127h235v-426h-1085v217q0 125 100 201l479 393h-276l-23 -111h-239v408h1044z" />
<glyph unicode="{" horiz-adv-x="811" d="M565 1075v-969q0 -37 4 -65.5t16.5 -52.5t21.5 -38.5t35.5 -35t41 -29.5t53.5 -33q19 -12 29 -18l-92 -186q-191 67 -263 104q-157 83 -203 211q-22 62 -22 139v310l-159 43v307l159 43v274q0 60 14.5 111.5t37 89.5t60.5 71.5t74.5 57t91 47t98 39.5t106.5 37q4 1 6 2 l92 -186q-102 -63 -124 -82q-61 -50 -73 -131q-4 -27 -4 -60z" />
<glyph unicode="|" horiz-adv-x="542" d="M356 1602v-1895h-170v1895h170z" />
<glyph unicode="}" horiz-adv-x="811" d="M246 106v969q0 55 -9 92t-37 68t-50 46.5t-78 49.5q-18 11 -27 17l92 186q194 -66 272 -108q160 -88 201 -229q15 -54 15 -118v-274l159 -43v-307l-159 -43v-310q0 -69 -17 -125.5t-51 -98.5t-74 -74t-98 -59t-109 -47t-121 -44q-4 -1 -6 -2t-5.5 -2t-6.5 -2l-92 186 q10 6 29 18q44 26 63 39t45.5 36.5t37 45t18.5 55.5t8 78z" />
<glyph unicode="&#xa1;" horiz-adv-x="548" d="M274 1290q121 0 178.5 -52.5t57.5 -164.5t-58 -165.5t-178 -53.5t-177.5 53.5t-57.5 165.5t57.5 164.5t177.5 52.5zM39 -158v295l111 619h249l113 -619v-295h-473z" />
<glyph unicode="&#xa2;" horiz-adv-x="1138" d="M1090 391v-291q-151 -91 -324 -118v-113h-324v108q-391 43 -391 449v289q0 189 105 295t305 123v110h323v-113q72 -6 295 -45v-446h-317l-37 182q-50 4 -70 4v-549q62 12 80 78l10 37h345zM477 698v-305q0 -110 90 -117v547q-90 -15 -90 -125z" />
<glyph unicode="&#xa3;" horiz-adv-x="1280" d="M1245 0h-1198v315q7 8 33 33.5t37.5 40t29 39.5t24 52.5t5.5 58.5l-2 28h-147v240h151l-6 115q-1 69 1 119.5t12.5 110t30.5 101.5t57 84t88.5 67.5t127.5 41.5t173 16h34q214 0 557 -65l-55 -428h-334l-28 133q-47 8 -148 8q-55 0 -72.5 -36.5t-9.5 -117.5l15 -149h290 l-37 -240h-237l4 -37q0 -21 -6 -40.5t-12 -31.5t-25 -31t-26 -24.5t-34.5 -26.5t-31.5 -24h395l49 180h295v-532z" />
<glyph unicode="&#xa5;" horiz-adv-x="1470" d="M1446 1434v-316q-78 -20 -141 -28l-164 -277h159v-149h-249l-45 -76h294v-150h-356v-96q70 -9 139 -27v-315h-712v315q68 16 131 27v96h-332v150h260l-43 76h-217v149h131l-162 281q-59 9 -114 24v316h657v-316q-12 -2 -36 -7t-36 -7l138 -285h4l157 281q-43 6 -90 18 v316h627z" />
<glyph unicode="&#xa7;" horiz-adv-x="1335" d="M596 1063l412 -70q58 -10 95 -18.5t73 -22t56 -31t36 -44.5t22 -62.5t6 -85.5v-80q0 -134 -141 -184q29 -52 29 -143v-23q0 -128 -40.5 -197.5t-135 -100t-269.5 -30.5h-63q-217 0 -471 68v305h309l16 -68q48 -20 129 -20h72q48 0 65 11.5t17 41.5v17q0 23 -9.5 31 t-45.5 14l-418 69q-58 10 -95.5 18.5t-73 22.5t-55.5 31.5t-36 44.5t-22.5 63t-6.5 85v79q0 123 164 185q-47 50 -47 143v23q0 128 39 197t132.5 99.5t268.5 30.5h60q219 0 473 -65v-305h-299l-15 63q-8 8 -70 15.5t-104 7.5h-39q-47 0 -61 -11t-14 -41v-18q0 -23 9.5 -30 t47.5 -15zM373 784v-39q0 -28 9 -36.5t46 -14.5l436 -73q8 -1 41 -7.5t41 -7.5q29 13 29 45v37q0 28 -9 36.5t-46 14.5l-471 82l-43 6q-30 -12 -33 -43z" />
<glyph unicode="&#xa8;" d="M287 1223q-82 0 -138.5 47t-56.5 123t57 125t138 49q79 0 133.5 -48.5t54.5 -125.5q0 -76 -54 -123t-134 -47zM735 1223q-79 0 -132.5 47t-53.5 123q0 77 54 125.5t132 48.5q83 0 139 -48.5t56 -125.5q0 -76 -55.5 -123t-139.5 -47z" />
<glyph unicode="&#xa9;" horiz-adv-x="874" d="M438 643q-195 0 -303 108.5t-108 303.5q0 194 108 301.5t303 107.5q194 0 302 -108t108 -301q0 -195 -108 -303.5t-302 -108.5zM438 725q157 0 239.5 84t82.5 246t-82.5 245.5t-239.5 83.5q-159 0 -241 -83.5t-82 -245.5t82 -246t241 -84zM618 997v-114q-85 -45 -163 -45 h-43q-80 0 -126.5 46t-47.5 128v86q0 82 45.5 128t128.5 46h34q44 0 172 -23v-157h-122l-15 53q-21 6 -49 6q-47 0 -47 -55v-84q0 -45 47 -45h10q44 0 54 30h122z" />
<glyph unicode="&#xaa;" horiz-adv-x="950" d="M528 612v97q-2 -1 -19.5 -14.5t-21.5 -16t-21 -14.5t-23.5 -15.5t-22.5 -13t-25 -13t-24.5 -9.5t-28 -8.5t-27.5 -4.5t-30 -2h-23q-35 0 -54.5 1t-47.5 5t-43.5 12.5t-34 25t-27.5 40t-15.5 59.5t-6.5 82v49q0 51 13.5 88t33 58.5t54 35.5t65 19.5t77.5 9.5 q180 17 252 17v41q0 84 -90 84q-73 0 -98 -4l-8 -72h-234v264q187 35 383 35h78q128 0 203.5 -80.5t75.5 -214.5v-307q6 -1 84 -17v-217h-394zM408 821h18q46 0 102 29v137q-93 -12 -120 -18q-64 -12 -64 -66v-29q0 -30 14 -41.5t50 -11.5z" />
<glyph unicode="&#xab;" horiz-adv-x="1198" d="M438 530l156 -290v-129h-260l-289 419v25l289 420h260v-133l-156 -287v-25zM924 530l155 -290v-129h-260l-289 419v25l289 420h260v-133l-155 -287v-25z" />
<glyph unicode="&#xad;" horiz-adv-x="790" d="M741 813v-344h-692v344h692z" />
<glyph unicode="&#xae;" horiz-adv-x="870" d="M434 1464q195 0 303.5 -107.5t108.5 -301.5q0 -195 -108.5 -303.5t-303.5 -108.5q-194 0 -301.5 108.5t-107.5 303.5q0 193 107.5 301t301.5 108zM434 1384q-157 0 -239 -83.5t-82 -245.5t82 -246t239 -84q159 0 241.5 84t82.5 246t-82.5 245.5t-241.5 83.5zM240 1266 h243q72 0 109 -32.5t37 -92.5v-29q0 -84 -56 -106l27 -43q3 -1 45 -11v-92h-164v31q-8 29 -37 102h-36v-37l24 -4v-92h-190v92l37 9v204q-18 3 -39 9v92zM408 1161v-76h51q35 0 35 25v25q0 14 -7.5 20t-27.5 6h-51z" />
<glyph unicode="&#xaf;" d="M836 1470v-233h-648v233h648z" />
<glyph unicode="&#xb0;" horiz-adv-x="931" d="M543 659h-148q-168 0 -255 86t-89 252v119q0 346 344 346h148q167 -1 252.5 -89.5t85.5 -256.5v-119q-5 -167 -89.5 -252.5t-248.5 -85.5zM426 883h78q55 0 82 26t32 82v131q0 65 -27.5 96t-86.5 31h-78q-61 0 -89 -31t-28 -96v-131q0 -56 28 -82t89 -26z" />
<glyph unicode="&#xb2;" horiz-adv-x="833" d="M776 885v-297h-727v198q0 102 29.5 163.5t93.5 97.5q54 30 205 65q96 23 113 34q18 12 18 34v10q0 23 -9 30t-42 7q-95 0 -142 -4l-20 -68h-217v256q149 28 212 35.5t185 7.5q167 0 237 -53t70 -199v-59q0 -30 -5 -53.5t-20.5 -56t-54.5 -59.5t-98 -44q-72 -17 -96 -25 q-23 -6 -55 -13t-48.5 -11t-37 -11t-30 -15t-16 -21t-6.5 -31h246l23 82h192z" />
<glyph unicode="&#xb3;" horiz-adv-x="815" d="M764 1214v-30q0 -161 -129 -201q69 -8 99 -40t30 -107v-21q0 -130 -79 -183.5t-267 -53.5q-183 0 -375 34v256h203l20 -65q57 -4 158 -4q36 0 48.5 10.5t12.5 40.5v18q0 32 -20 43t-72 11h-160v184h162q50 0 70 11t20 40v23q0 29 -13 40t-48 11q-64 0 -166 -4l-20 -66 h-193v256q202 37 373 37q194 0 270 -52t76 -188z" />
<glyph unicode="&#xb4;" d="M838 1458v-55l-373 -217l-174 108l239 316z" />
<glyph unicode="&#xb6;" horiz-adv-x="1314" d="M1288 1434v-316q-78 -23 -135 -35v-1267h-297v1331h-92v-1331h-297v684h-10q-211 0 -319 98t-111 320v79q0 232 108 334.5t322 102.5h831z" />
<glyph unicode="&#xb7;" horiz-adv-x="532" d="M266 334q-120 0 -177.5 52.5t-57.5 164.5t57.5 165.5t177.5 53.5t178 -53.5t58 -165.5t-57.5 -164.5t-178.5 -52.5z" />
<glyph unicode="&#xb8;" d="M496 -66h82q85 0 126 -32t41 -105v-37q0 -53 -10.5 -85.5t-37 -51.5t-63.5 -25.5t-99 -7.5q-53 0 -128.5 10.5t-125.5 26.5v117h239q33 0 33 29v6q0 26 -31 26h-190l22 195h142v-66z" />
<glyph unicode="&#xb9;" horiz-adv-x="690" d="M526 1454v-645q64 -6 121 -18v-203h-579v203q69 16 151 22v397l-170 -8v182l303 70h174z" />
<glyph unicode="&#xba;" horiz-adv-x="913" d="M489 592h-51q-122 0 -199 18.5t-126 66.5t-68.5 123t-21.5 195v41q0 124 19 201.5t67.5 127t126.5 68.5t202 19h49q120 0 195.5 -19.5t123.5 -69.5t66.5 -127t18.5 -200v-41q-2 -120 -22 -195t-67.5 -123t-121.5 -66.5t-191 -18.5zM430 813h51q54 0 76 20.5t23 75.5v219 q0 60 -21 82.5t-78 22.5h-51q-57 0 -77.5 -22.5t-20.5 -82.5v-219q0 -56 20.5 -76t77.5 -20z" />
<glyph unicode="&#xbb;" horiz-adv-x="1198" d="M127 842v133h260l289 -420v-25l-289 -419h-260v129l156 290v25zM612 842v133h260l289 -420v-25l-289 -419h-260v129l156 290v25z" />
<glyph unicode="&#xbc;" horiz-adv-x="1728" d="M1415 1487l-510 -776l-456 -750h-156l493 750l474 776h155zM526 1454v-645q68 -6 123 -18v-203h-583v203q69 16 153 22v397l-170 -8v182l303 70h174zM1559 256v-45q61 -6 118 -18v-193h-553v193q43 9 127 20v43h-405v207l405 385h308v-385h118v-184zM1251 651l-161 -188 h161v188z" />
<glyph unicode="&#xbd;" horiz-adv-x="1806" d="M915 711l-456 -750h-156l494 750l473 776h155zM526 1454v-645q68 -6 123 -18v-203h-583v203q69 16 153 22v397l-170 -8v182l303 70h174zM1749 297v-297h-727v199q0 104 26.5 164.5t88.5 95.5q63 34 213 65q79 16 105 28.5t26 39.5v10q0 23 -9 30t-42 7q-95 0 -142 -4 l-20 -68h-217v256q149 28 212 35.5t185 7.5q167 0 237 -53t70 -199v-73q0 -147 -178 -199l-96 -25q-19 -5 -47 -11.5t-43 -10t-34 -9.5t-28.5 -12t-19.5 -15t-13.5 -20.5t-3.5 -27.5h242l22 86h193z" />
<glyph unicode="&#xbe;" horiz-adv-x="1787" d="M1464 1487l-510 -776l-456 -750h-156l494 750l473 776h155zM764 1214v-30q0 -161 -129 -201q69 -8 99 -40t30 -107v-21q0 -130 -79 -183.5t-267 -53.5q-183 0 -375 34v256h203l20 -65q57 -4 158 -4q36 0 48.5 10.5t12.5 40.5v18q0 32 -20 44t-72 12h-160v182h162 q50 0 70 11t20 40v23q0 29 -13 40t-48 11q-64 0 -166 -4l-20 -66h-193v256q202 37 373 37q194 0 270 -52t76 -188zM1618 256v-45q63 -6 119 -18v-193h-553v193q43 9 127 20v43h-406v207l406 385h307v-385h119v-184zM1311 651l-162 -188h162v188z" />
<glyph unicode="&#xbf;" horiz-adv-x="1112" d="M672 1290q120 0 177.5 -52.5t57.5 -164.5t-57.5 -165.5t-177.5 -53.5t-178 53.5t-58 165.5t57.5 164.5t178.5 52.5zM1087 258v-375q-229 -44 -325 -56.5t-258 -12.5q-475 0 -475 399v35q0 85 13 144.5t41 96t61 57t83 36.5q52 15 144.5 38.5t126.5 32.5v135h356l39 -354 q-258 -64 -330 -86q-59 -19 -83.5 -37.5t-24.5 -44.5v-35q0 -50 19.5 -67t74.5 -17q103 0 176 11l29 100h333z" />
<glyph unicode="&#xc0;" horiz-adv-x="1652" d="M995 1614l-174 -109l-372 217v56l307 151zM1114 1434l348 -1090q81 -8 166 -29v-315h-784v315q68 17 125 25l-25 86h-340l-16 -84q5 -1 112 -27v-315h-675v315q62 17 155 31l226 748q-41 7 -119 24v316h827zM772 1065l-96 -311h196l-96 311h-4z" />
<glyph unicode="&#xc1;" horiz-adv-x="1652" d="M1102 1780v-58l-389 -227l-183 113l250 329zM1114 1434l348 -1090q81 -8 166 -29v-315h-784v315q68 17 125 25l-25 86h-340l-16 -84q5 -1 112 -27v-315h-675v315q62 17 155 31l226 748q-41 7 -119 24v316h827zM772 1065l-96 -311h196l-96 311h-4z" />
<glyph unicode="&#xc2;" horiz-adv-x="1652" d="M1038 1503l-262 168l-262 -168l-129 113l254 285h274l254 -285zM1114 1434l348 -1090q81 -8 166 -29v-315h-784v315q68 17 125 25l-25 86h-340l-16 -84q5 -1 112 -27v-315h-675v315q62 17 155 31l226 748q-41 7 -119 24v316h827zM772 1065l-96 -311h196l-96 311h-4z" />
<glyph unicode="&#xc3;" horiz-adv-x="1652" d="M1206 1749l-162 -180q-48 -53 -139 -53q-18 0 -28.5 0.5t-25 4.5t-21.5 7t-27 16t-32 21.5t-46 33t-61 43.5l-189 -112l-127 112l135 156q75 84 164 84q24 0 42 -3t30.5 -5.5t33.5 -16t32 -21.5t47.5 -35.5t60.5 -45.5l186 107zM1114 1434l348 -1090q81 -8 166 -29v-315 h-784v315q68 17 125 25l-25 86h-340l-16 -84q5 -1 112 -27v-315h-675v315q62 17 155 31l226 748q-41 7 -119 24v316h827zM772 1065l-96 -311h196l-96 311h-4z" />
<glyph unicode="&#xc4;" horiz-adv-x="1652" d="M530 1522q-90 0 -150.5 52.5t-60.5 135.5q0 86 60.5 139.5t150.5 53.5q88 0 147.5 -53.5t59.5 -139.5q0 -83 -59.5 -135.5t-147.5 -52.5zM1024 1522q-87 0 -146 52.5t-59 135.5q0 86 59 139.5t146 53.5q91 0 151 -53.5t60 -139.5q0 -84 -60 -136t-151 -52zM1114 1434 l348 -1090q81 -8 166 -29v-315h-784v315q68 17 125 25l-25 86h-340l-16 -84q5 -1 112 -27v-315h-675v315q62 17 155 31l226 748q-41 7 -119 24v316h827zM772 1065l-96 -311h196l-96 311h-4z" />
<glyph unicode="&#xc5;" horiz-adv-x="1652" d="M827 1473h-100q-95 0 -147 49.5t-52 146.5v68q0 198 199 198h100q97 0 148 -50.5t51 -147.5v-68q-3 -196 -199 -196zM743 1622h66q48 0 55 53v58q0 59 -55 59h-66q-55 0 -55 -59v-58q0 -30 14 -41.5t41 -11.5zM1114 1434l348 -1090q81 -8 166 -29v-315h-784v315 q68 17 125 25l-25 86h-340l-16 -84q5 -1 112 -27v-315h-675v315q62 17 155 31l226 748q-41 7 -119 24v316h827zM772 1065l-96 -311h196l-96 311h-4z" />
<glyph unicode="&#xc6;" horiz-adv-x="2131" d="M1444 889h282v-352h-282v-185h315l51 142h277v-494h-1217v315q68 15 129 27v127h-309l-67 -133q49 -9 96 -21v-315h-694v315q87 23 161 31l389 739q-47 6 -163 33v316h1671v-494h-277l-49 141h-313v-192zM999 1081h-18l-188 -391h206v391z" />
<glyph unicode="&#xc7;" horiz-adv-x="1308" d="M655 -29l-2 -37h82q86 0 127 -32t41 -105v-37q0 -53 -10.5 -85.5t-37 -51.5t-64 -25.5t-99.5 -7.5q-53 0 -128.5 10.5t-125.5 26.5v117h240q33 0 33 29v6q0 26 -31 26h-191l21 170q-236 21 -346.5 162t-116.5 416v332q0 285 141.5 431t417.5 146h117q116 0 236.5 -14.5 t310.5 -50.5v-484h-371l-47 185q-98 10 -203 10q-157 0 -157 -176v-428q0 -76 42.5 -123.5t114.5 -46.5h78q119 0 176 127h369v-344q-130 -68 -268 -107t-254 -39h-95z" />
<glyph unicode="&#xc8;" horiz-adv-x="1310" d="M874 1614l-174 -109l-372 217v56l307 151zM1262 940h-277l-51 141h-313v-188h282v-361h-282v-180h317l51 142h275v-494h-1217v315q82 17 131 27v750q-69 9 -139 26v316h1223v-494z" />
<glyph unicode="&#xc9;" horiz-adv-x="1310" d="M981 1780v-58l-389 -227l-182 113l249 329zM1262 940h-277l-51 141h-313v-188h282v-361h-282v-180h317l51 142h275v-494h-1217v315q82 17 131 27v750q-69 9 -139 26v316h1223v-494z" />
<glyph unicode="&#xca;" horiz-adv-x="1310" d="M915 1503l-262 168l-262 -168l-129 113l254 285h275l253 -285zM1262 940h-277l-51 141h-313v-188h282v-361h-282v-180h317l51 142h275v-494h-1217v315q82 17 131 27v750q-69 9 -139 26v316h1223v-494z" />
<glyph unicode="&#xcb;" horiz-adv-x="1310" d="M408 1522q-90 0 -150.5 52.5t-60.5 135.5q0 86 60.5 139.5t150.5 53.5q88 0 147 -53.5t59 -139.5q0 -83 -59 -135.5t-147 -52.5zM901 1522q-87 0 -146 52.5t-59 135.5q0 86 59 139.5t146 53.5q91 0 151 -53.5t60 -139.5q0 -84 -60 -136t-151 -52zM1262 940h-277l-51 141 h-313v-188h282v-361h-282v-180h317l51 142h275v-494h-1217v315q82 17 131 27v750q-69 9 -139 26v316h1223v-494z" />
<glyph unicode="&#xcc;" horiz-adv-x="798" d="M618 1614l-174 -109l-372 217v56l307 151zM760 1434v-316q-62 -17 -139 -26v-750q70 -9 139 -27v-315h-713v315q68 16 131 27v750q-82 10 -139 26v316h721z" />
<glyph unicode="&#xcd;" horiz-adv-x="798" d="M725 1780v-58l-389 -227l-182 113l249 329zM760 1434v-316q-62 -17 -139 -26v-750q70 -9 139 -27v-315h-713v315q68 16 131 27v750q-82 10 -139 26v316h721z" />
<glyph unicode="&#xce;" horiz-adv-x="798" d="M659 1503l-262 168l-262 -168l-129 113l254 285h275l253 -285zM760 1434v-316q-62 -17 -139 -26v-750q70 -9 139 -27v-315h-713v315q68 16 131 27v750q-82 10 -139 26v316h721z" />
<glyph unicode="&#xcf;" horiz-adv-x="798" d="M152 1522q-90 0 -150.5 52.5t-60.5 135.5q0 86 60.5 139.5t150.5 53.5q88 0 147 -53.5t59 -139.5q0 -83 -59 -135.5t-147 -52.5zM645 1522q-87 0 -146 52.5t-59 135.5q0 86 59 139.5t146 53.5q91 0 151 -53.5t60 -139.5q0 -84 -60 -136t-151 -52zM760 1434v-316 q-62 -17 -139 -26v-750q70 -9 139 -27v-315h-713v315q68 16 131 27v750q-82 10 -139 26v316h721z" />
<glyph unicode="&#xd0;" horiz-adv-x="1437" d="M39 1434h809q293 -2 423 -136t130 -436v-307q-6 -295 -135 -425t-416 -130h-803v315q54 13 131 29v244h-135v246h135v256q-49 7 -139 28v316zM958 516v395q0 77 -41.5 119.5t-117.5 42.5h-176v-239h108v-246h-108v-228h176q73 0 115 41t44 115z" />
<glyph unicode="&#xd1;" horiz-adv-x="1638" d="M1239 1749l-162 -180q-48 -53 -139 -53q-16 0 -26.5 1t-20 2t-21 6.5t-20 9.5t-26 16t-31 21.5t-43.5 31t-54 38.5l-188 -112l-127 112l135 156q75 84 164 84q24 0 42 -3t30.5 -5.5t33.5 -16t32 -21.5t47.5 -35.5t60.5 -45.5l186 107zM1599 1434v-316q-78 -20 -139 -28 v-1090h-452l-441 694v-358q29 -3 101 -21v-315h-621v315q69 18 131 27v745q-52 8 -139 31v316h547l485 -742v404q-28 5 -102 22v316h630z" />
<glyph unicode="&#xd2;" horiz-adv-x="1425" d="M932 1614l-174 -109l-373 217v56l307 151zM831 -29h-217q-298 0 -434 137t-141 433v333q0 306 136 447t439 141h215q293 -1 426.5 -142.5t133.5 -445.5v-331q-5 -296 -138 -434t-420 -138zM641 340h141q159 0 162 164v418q0 172 -162 172h-141q-79 0 -119.5 -44 t-40.5 -128v-418q0 -164 160 -164z" />
<glyph unicode="&#xd3;" horiz-adv-x="1425" d="M1038 1780v-58l-389 -227l-182 113l250 329zM831 -29h-217q-298 0 -434 137t-141 433v333q0 306 136 447t439 141h215q293 -1 426.5 -142.5t133.5 -445.5v-331q-5 -296 -138 -434t-420 -138zM641 340h141q159 0 162 164v418q0 172 -162 172h-141q-79 0 -119.5 -44 t-40.5 -128v-418q0 -164 160 -164z" />
<glyph unicode="&#xd4;" horiz-adv-x="1425" d="M975 1503l-262 168l-262 -168l-129 113l253 285h275l254 -285zM831 -29h-217q-298 0 -434 137t-141 433v333q0 306 136 447t439 141h215q293 -1 426.5 -142.5t133.5 -445.5v-331q-5 -296 -138 -434t-420 -138zM641 340h141q159 0 162 164v418q0 172 -162 172h-141 q-79 0 -119.5 -44t-40.5 -128v-418q0 -164 160 -164z" />
<glyph unicode="&#xd5;" horiz-adv-x="1425" d="M1143 1749l-162 -180q-48 -53 -139 -53q-16 0 -26.5 1t-20 2t-21 6.5t-20 9.5t-26 16t-31 21.5t-43.5 31t-54 38.5l-188 -112l-127 112l135 156q75 84 164 84q24 0 42 -3t30.5 -5.5t33 -16t32 -21.5t47 -35.5t60.5 -45.5l187 107zM831 -29h-217q-298 0 -434 137t-141 433 v333q0 306 136 447t439 141h215q293 -1 426.5 -142.5t133.5 -445.5v-331q-5 -296 -138 -434t-420 -138zM641 340h141q159 0 162 164v418q0 172 -162 172h-141q-79 0 -119.5 -44t-40.5 -128v-418q0 -164 160 -164z" />
<glyph unicode="&#xd6;" horiz-adv-x="1425" d="M467 1522q-90 0 -150.5 52.5t-60.5 135.5q0 86 60.5 139.5t150.5 53.5q88 0 147.5 -53.5t59.5 -139.5q0 -83 -59.5 -135.5t-147.5 -52.5zM961 1522q-87 0 -146 52.5t-59 135.5q0 86 59 139.5t146 53.5q91 0 150.5 -53.5t59.5 -139.5q0 -84 -59.5 -136t-150.5 -52z M831 -29h-217q-298 0 -434 137t-141 433v333q0 306 136 447t439 141h215q293 -1 426.5 -142.5t133.5 -445.5v-331q-5 -296 -138 -434t-420 -138zM641 340h141q159 0 162 164v418q0 172 -162 172h-141q-79 0 -119.5 -44t-40.5 -128v-418q0 -164 160 -164z" />
<glyph unicode="&#xd7;" horiz-adv-x="1167" d="M301 195l-225 225l286 278l-288 281l233 231l281 -286l280 286l224 -223l-287 -280l287 -281l-232 -231l-280 286z" />
<glyph unicode="&#xd8;" horiz-adv-x="1425" d="M1389 1487l-132 -170q132 -141 132 -443v-331q-5 -296 -138 -434t-420 -138h-217q-206 0 -338 66l-69 -90h-148l123 159q-137 131 -143 435v333q0 306 136 447t439 141h215q206 0 336 -71l74 96h150zM481 504v-6l424 553q-40 43 -123 43h-141q-79 0 -119.5 -44 t-40.5 -128v-418zM944 907l-412 -536q39 -31 109 -31h141q159 0 162 164v403z" />
<glyph unicode="&#xd9;" horiz-adv-x="1517" d="M1004 1614l-175 -109l-372 217v56l307 151zM1489 1434v-316q-37 -10 -111 -22v-557q-2 -166 -29 -272.5t-92.5 -174t-167.5 -94.5t-262 -27h-90q-165 0 -270.5 27t-173.5 94.5t-96.5 173t-30.5 271.5v555q-94 16 -137 26v316h731v-316q-63 -16 -150 -26v-600 q0 -74 41 -117t115 -43h49q72 0 114 43t44 117v606q-35 4 -105 20v316h621z" />
<glyph unicode="&#xda;" horiz-adv-x="1517" d="M1108 1780v-58l-389 -227l-182 113l249 329zM1489 1434v-316q-37 -10 -111 -22v-557q-2 -166 -29 -272.5t-92.5 -174t-167.5 -94.5t-262 -27h-90q-165 0 -270.5 27t-173.5 94.5t-96.5 173t-30.5 271.5v555q-94 16 -137 26v316h731v-316q-63 -16 -150 -26v-600 q0 -74 41 -117t115 -43h49q72 0 114 43t44 117v606q-35 4 -105 20v316h621z" />
<glyph unicode="&#xdb;" horiz-adv-x="1517" d="M1044 1503l-262 168l-262 -168l-129 113l254 285h275l254 -285zM1489 1434v-316q-37 -10 -111 -22v-557q-2 -166 -29 -272.5t-92.5 -174t-167.5 -94.5t-262 -27h-90q-165 0 -270.5 27t-173.5 94.5t-96.5 173t-30.5 271.5v555q-94 16 -137 26v316h731v-316 q-63 -16 -150 -26v-600q0 -74 41 -117t115 -43h49q72 0 114 43t44 117v606q-35 4 -105 20v316h621z" />
<glyph unicode="&#xdc;" horiz-adv-x="1517" d="M537 1522q-90 0 -150.5 52.5t-60.5 135.5q0 86 60.5 139.5t150.5 53.5q88 0 147 -53.5t59 -139.5q0 -83 -59 -135.5t-147 -52.5zM1030 1522q-87 0 -146 52.5t-59 135.5q0 86 59 139.5t146 53.5q91 0 151 -53.5t60 -139.5q0 -84 -60 -136t-151 -52zM1489 1434v-316 q-37 -10 -111 -22v-557q-2 -166 -29 -272.5t-92.5 -174t-167.5 -94.5t-262 -27h-90q-165 0 -270.5 27t-173.5 94.5t-96.5 173t-30.5 271.5v555q-94 16 -137 26v316h731v-316q-63 -16 -150 -26v-600q0 -74 41 -117t115 -43h49q72 0 114 43t44 117v606q-35 4 -105 20v316h621z " />
<glyph unicode="&#xdd;" horiz-adv-x="1470" d="M1071 1780v-58l-389 -227l-182 113l250 329zM682 1434v-316q-12 -2 -36 -7t-36 -7l138 -285h4l157 281q-43 6 -90 18v316h627v-316q-78 -20 -141 -28l-361 -607v-141q70 -9 139 -27v-315h-712v315q68 16 131 27v123l-363 629q-59 9 -114 24v316h657z" />
<glyph unicode="&#xde;" horiz-adv-x="1363" d="M621 1198h202q99 0 169 -6.5t129.5 -23.5t97 -45.5t64 -74t37.5 -106.5t11 -145v-205q-1 -93 -19.5 -156.5t-53.5 -105.5t-97.5 -64.5t-140.5 -31.5t-195 -9h-204v-225h-574v315q57 15 131 29v746q-61 8 -139 28v316h582v-236zM915 616v156q0 57 -18 76.5t-84 19.5h-192 v-340h192q63 0 81.5 18t20.5 70z" />
<glyph unicode="&#xdf;" horiz-adv-x="1435" d="M1321 1151v-64q0 -252 -193 -307q65 -5 110.5 -19t83 -44t56.5 -83t19 -130v-94q0 -238 -79.5 -332t-283.5 -94q-103 0 -187.5 21t-197.5 63v276h254q38 0 53 17t15 57v133q0 48 -22 68t-68 20h-121q-47 0 -69.5 18t-22.5 58v184l168 37q52 10 72 35.5t20 70.5v43 q0 55 -30 77t-105 22h-60q-77 0 -109 -35t-32 -117v-1032h-535v297q34 9 109 22v465l-107 27v297h107v37q0 131 61.5 208.5t199 113.5t370.5 36h114q219 0 314.5 -89t95.5 -263z" />
<glyph unicode="&#xe0;" horiz-adv-x="1292" d="M868 1294l-174 -108l-372 217v55l307 152zM1260 1108v-297q-95 -22 -111 -25v-462q16 -3 111 -25v-299h-537v123q-62 -43 -99.5 -66.5t-103.5 -48t-127 -24.5h-31q-141 0 -226 104t-85 322v368q0 89 26.5 156t73 107t104.5 59.5t126 19.5h31q62 0 120.5 -15.5t92.5 -31.5 t98 -51v86h537zM580 344h26q46 0 117 33v375q-55 24 -117 24h-26q-43 0 -63.5 -12.5t-30 -50t-9.5 -115.5v-68q0 -122 17 -154t86 -32z" />
<glyph unicode="&#xe1;" horiz-adv-x="1292" d="M950 1458v-55l-372 -217l-175 108l240 316zM1260 1108v-297q-95 -22 -111 -25v-462q16 -3 111 -25v-299h-537v123q-62 -43 -99.5 -66.5t-103.5 -48t-127 -24.5h-31q-141 0 -226 104t-85 322v368q0 89 26.5 156t73 107t104.5 59.5t126 19.5h31q62 0 120.5 -15.5 t92.5 -31.5t98 -51v86h537zM580 344h26q46 0 117 33v375q-55 24 -117 24h-26q-43 0 -63.5 -12.5t-30 -50t-9.5 -115.5v-68q0 -122 17 -154t86 -32z" />
<glyph unicode="&#xe2;" horiz-adv-x="1292" d="M893 1194l-252 162l-252 -162l-121 109l244 268h258l244 -268zM1260 1108v-297q-95 -22 -111 -25v-462q16 -3 111 -25v-299h-537v123q-62 -43 -99.5 -66.5t-103.5 -48t-127 -24.5h-31q-141 0 -226 104t-85 322v368q0 89 26.5 156t73 107t104.5 59.5t126 19.5h31 q62 0 120.5 -15.5t92.5 -31.5t98 -51v86h537zM580 344h26q46 0 117 33v375q-55 24 -117 24h-26q-43 0 -63.5 -12.5t-30 -50t-9.5 -115.5v-68q0 -122 17 -154t86 -32z" />
<glyph unicode="&#xe3;" horiz-adv-x="1292" d="M1049 1434l-154 -174q-52 -52 -135 -52q-35 0 -76 19.5t-66 38t-88 67.5l-182 -110l-121 106l150 172q51 58 137 58q22 0 45 -6t39.5 -12.5t41 -22.5t35.5 -24t38.5 -29.5t34.5 -26.5l180 102zM1260 1108v-297q-95 -22 -111 -25v-462q16 -3 111 -25v-299h-537v123 q-62 -43 -99.5 -66.5t-103.5 -48t-127 -24.5h-31q-141 0 -226 104t-85 322v368q0 89 26.5 156t73 107t104.5 59.5t126 19.5h31q62 0 120.5 -15.5t92.5 -31.5t98 -51v86h537zM580 344h26q46 0 117 33v375q-55 24 -117 24h-26q-43 0 -63.5 -12.5t-30 -50t-9.5 -115.5v-68 q0 -122 17 -154t86 -32z" />
<glyph unicode="&#xe4;" horiz-adv-x="1292" d="M418 1223q-82 0 -138.5 47t-56.5 123t57 125t138 49q79 0 133.5 -48.5t54.5 -125.5q0 -76 -54 -123t-134 -47zM866 1223q-79 0 -132.5 47t-53.5 123q0 77 54 125.5t132 48.5q83 0 139 -48.5t56 -125.5q0 -76 -55.5 -123t-139.5 -47zM1260 1108v-297q-95 -22 -111 -25 v-462q16 -3 111 -25v-299h-537v123q-62 -43 -99.5 -66.5t-103.5 -48t-127 -24.5h-31q-141 0 -226 104t-85 322v368q0 89 26.5 156t73 107t104.5 59.5t126 19.5h31q62 0 120.5 -15.5t92.5 -31.5t98 -51v86h537zM580 344h26q46 0 117 33v375q-55 24 -117 24h-26 q-43 0 -63.5 -12.5t-30 -50t-9.5 -115.5v-68q0 -122 17 -154t86 -32z" />
<glyph unicode="&#xe5;" horiz-adv-x="1292" d="M690 1194h-96q-86 0 -132 45t-46 133v62q0 180 178 180h96q88 0 133 -46t45 -134v-62q0 -88 -46 -133t-132 -45zM610 1329h60q46 0 51 49v52q0 55 -51 55h-60q-49 0 -49 -55v-52q0 -27 12.5 -38t36.5 -11zM1260 1108v-297q-95 -22 -111 -25v-462q16 -3 111 -25v-299h-537 v123q-62 -43 -99.5 -66.5t-103.5 -48t-127 -24.5h-31q-141 0 -226 104t-85 322v368q0 89 26.5 156t73 107t104.5 59.5t126 19.5h31q62 0 120.5 -15.5t92.5 -31.5t98 -51v86h537zM580 344h26q46 0 117 33v375q-55 24 -117 24h-26q-43 0 -63.5 -12.5t-30 -50t-9.5 -115.5v-68 q0 -122 17 -154t86 -32z" />
<glyph unicode="&#xe6;" horiz-adv-x="1888" d="M152 733v357q258 45 520 45h102q114 0 187 -54q117 54 305 54h67q277 0 389.5 -98t112.5 -339v-262h-696v-71q0 -59 32 -86t82 -27h88q89 0 113 78l10 55h340v-285q-201 -129 -450 -129h-129q-184 0 -291.5 44.5t-157.5 146.5q-45 -36 -82 -62t-87.5 -55.5t-102.5 -45 t-101 -15.5h-30q-33 0 -53 0.5t-48.5 2.5t-45.5 6.5t-40 12t-37 19t-30 28t-25 39t-17.5 51t-12 65.5t-3.5 81v69q0 51 9.5 91.5t24.5 68.5t41 49t50.5 33.5t62.5 21t68 12t74 7.5q183 15 340 23v53q0 112 -121 112q-72 0 -125 -6l-16 -90h-317zM1446 653v105q0 50 -29 79 t-80 29h-73q-56 0 -90.5 -31t-34.5 -83v-99h307zM571 289h27q66 0 137 41q-4 31 -4 100v68q-126 -18 -168 -29q-42 -9 -59 -24.5t-17 -49.5v-39q0 -37 18.5 -52t65.5 -15z" />
<glyph unicode="&#xe7;" horiz-adv-x="1138" d="M565 -29l-2 -37h82q86 0 127 -32t41 -105v-37q0 -53 -10.5 -85.5t-37 -51.5t-64 -25.5t-99.5 -7.5q-53 0 -128.5 10.5t-125.5 26.5v117h240q33 0 33 29v6q0 26 -31 26h-191l21 175q-369 52 -369 446v289q0 205 124 312.5t355 107.5h123q104 0 192 -11.5t234 -38.5v-446 h-317l-37 182q-41 4 -125 4q-123 0 -123 -127v-305q0 -67 30.5 -93t82.5 -26h33q92 0 112 80l10 37h345v-291q-216 -129 -459 -129h-66z" />
<glyph unicode="&#xe8;" horiz-adv-x="1210" d="M836 1294l-174 -108l-373 217v55l307 152zM586 1135h69q258 0 380 -109.5t122 -339.5v-252h-684v-65q0 -59 33 -86t84 -27h72q92 0 114 74l10 55h340v-285q-201 -129 -456 -129h-78q-299 0 -420 115.5t-121 400.5v179q0 241 131 355t404 114zM772 655v101 q0 49 -32.5 76.5t-84.5 27.5h-57q-58 0 -91.5 -29t-33.5 -81v-95h299z" />
<glyph unicode="&#xe9;" horiz-adv-x="1210" d="M930 1458v-55l-373 -217l-174 108l240 316zM586 1135h69q258 0 380 -109.5t122 -339.5v-252h-684v-65q0 -59 33 -86t84 -27h72q92 0 114 74l10 55h340v-285q-201 -129 -456 -129h-78q-299 0 -420 115.5t-121 400.5v179q0 241 131 355t404 114zM772 655v101 q0 49 -32.5 76.5t-84.5 27.5h-57q-58 0 -91.5 -29t-33.5 -81v-95h299z" />
<glyph unicode="&#xea;" horiz-adv-x="1210" d="M870 1194l-252 162l-251 -162l-121 109l243 268h259l243 -268zM586 1135h69q258 0 380 -109.5t122 -339.5v-252h-684v-65q0 -59 33 -86t84 -27h72q92 0 114 74l10 55h340v-285q-201 -129 -456 -129h-78q-299 0 -420 115.5t-121 400.5v179q0 241 131 355t404 114zM772 655 v101q0 49 -32.5 76.5t-84.5 27.5h-57q-58 0 -91.5 -29t-33.5 -81v-95h299z" />
<glyph unicode="&#xeb;" horiz-adv-x="1210" d="M397 1223q-82 0 -138 47t-56 123t56.5 125t137.5 49q80 0 134.5 -48.5t54.5 -125.5q0 -76 -54.5 -123t-134.5 -47zM846 1223q-79 0 -133 47t-54 123t54.5 125t132.5 49q83 0 138.5 -48.5t55.5 -125.5t-55.5 -123.5t-138.5 -46.5zM586 1135h69q258 0 380 -109.5 t122 -339.5v-252h-684v-65q0 -59 33 -86t84 -27h72q92 0 114 74l10 55h340v-285q-201 -129 -456 -129h-78q-299 0 -420 115.5t-121 400.5v179q0 241 131 355t404 114zM772 655v101q0 49 -32.5 76.5t-84.5 27.5h-57q-58 0 -91.5 -29t-33.5 -81v-95h299z" />
<glyph unicode="&#xec;" horiz-adv-x="735" d="M586 1294l-174 -108l-373 217v55l307 152zM592 1108v-789q72 -12 110 -22v-297h-645v297q34 9 109 22v467q-44 8 -107 25v297h533z" />
<glyph unicode="&#xed;" horiz-adv-x="735" d="M678 1458v-55l-373 -217l-174 108l240 316zM592 1108v-789q72 -12 110 -22v-297h-645v297q34 9 109 22v467q-44 8 -107 25v297h533z" />
<glyph unicode="&#xee;" horiz-adv-x="735" d="M621 1194l-252 162l-252 -162l-121 109l244 268h258l243 -268zM592 1108v-789q72 -12 110 -22v-297h-645v297q34 9 109 22v467q-44 8 -107 25v297h533z" />
<glyph unicode="&#xef;" horiz-adv-x="735" d="M145 1223q-82 0 -138 47t-56 123t56.5 125t137.5 49q80 0 134.5 -48.5t54.5 -125.5q0 -76 -54.5 -123t-134.5 -47zM594 1223q-79 0 -132.5 47t-53.5 123q0 77 54 125.5t132 48.5q83 0 138.5 -48.5t55.5 -125.5t-55.5 -123.5t-138.5 -46.5zM592 1108v-789q72 -12 110 -22 v-297h-645v297q34 9 109 22v467q-44 8 -107 25v297h533z" />
<glyph unicode="&#xf0;" horiz-adv-x="1298" d="M1180 1450l67 -221q-37 -16 -125 -49q109 -189 109 -410v-244q-2 -113 -13 -194t-37 -145t-65 -104t-101.5 -66t-141.5 -36t-189 -10h-61q-167 0 -278.5 28.5t-176 89.5t-91 145.5t-26.5 207.5v207q0 178 95.5 268.5t244.5 90.5h31q106 0 189.5 -21.5t193.5 -68.5v16 q-4 97 -33 162q-316 -59 -330 -62l-67 223l284 62q-46 37 -127 65l86 134q218 -15 340 -121zM805 403v244q-98 31 -189 31h-26q-62 0 -87.5 -31t-25.5 -104v-142q0 -74 28 -99.5t103 -25.5h66q74 0 102 25.5t29 101.5z" />
<glyph unicode="&#xf1;" horiz-adv-x="1425" d="M1124 1434l-153 -174q-52 -52 -135 -52q-35 0 -76 19.5t-66 38t-88 67.5l-182 -110l-121 106l150 172q51 58 137 58q26 0 49.5 -5.5t54 -23.5t40.5 -24.5t49 -36.5t40 -31l181 102zM1278 829v-505q18 -4 113 -27v-297h-537v594q0 122 -14.5 151t-83.5 29h-25 q-58 0 -139 -43v-412q72 -12 110 -22v-297h-645v297q34 9 109 22v467q-44 8 -107 25v297h533v-137q217 164 371 164h26q133 0 211 -82t78 -224z" />
<glyph unicode="&#xf2;" horiz-adv-x="1282" d="M856 1294l-174 -108l-373 217v55l307 152zM686 -29h-68q-166 0 -271.5 26t-172.5 92t-94 169t-29 266v39q0 169 26 275t93 174.5t173 95.5t275 27h66q130 -1 220 -19t155 -57t102 -107.5t53.5 -161.5t16.5 -227v-39q-2 -163 -28 -266t-90.5 -169t-165.5 -92t-261 -26z M604 272h70q71 0 101 28t30 97v299q0 77 -29 107.5t-102 30.5h-70q-70 0 -98.5 -30.5t-28.5 -107.5v-299q0 -69 28.5 -97t98.5 -28z" />
<glyph unicode="&#xf3;" horiz-adv-x="1282" d="M952 1458v-55l-372 -217l-174 108l239 316zM686 -29h-68q-166 0 -271.5 26t-172.5 92t-94 169t-29 266v39q0 169 26 275t93 174.5t173 95.5t275 27h66q130 -1 220 -19t155 -57t102 -107.5t53.5 -161.5t16.5 -227v-39q-2 -163 -28 -266t-90.5 -169t-165.5 -92t-261 -26z M604 272h70q71 0 101 28t30 97v299q0 77 -29 107.5t-102 30.5h-70q-70 0 -98.5 -30.5t-28.5 -107.5v-299q0 -69 28.5 -97t98.5 -28z" />
<glyph unicode="&#xf4;" horiz-adv-x="1282" d="M893 1194l-252 162l-252 -162l-121 109l244 268h258l244 -268zM686 -29h-68q-166 0 -271.5 26t-172.5 92t-94 169t-29 266v39q0 169 26 275t93 174.5t173 95.5t275 27h66q130 -1 220 -19t155 -57t102 -107.5t53.5 -161.5t16.5 -227v-39q-2 -163 -28 -266t-90.5 -169 t-165.5 -92t-261 -26zM604 272h70q71 0 101 28t30 97v299q0 77 -29 107.5t-102 30.5h-70q-70 0 -98.5 -30.5t-28.5 -107.5v-299q0 -69 28.5 -97t98.5 -28z" />
<glyph unicode="&#xf5;" horiz-adv-x="1282" d="M1053 1434l-154 -174q-52 -52 -135 -52q-33 0 -71 17t-62 34.5t-80 61.5q-11 8 -16 12l-183 -110l-121 106l150 172q51 58 137 58q22 0 45 -6t39.5 -12.5t41 -22.5t35.5 -24t38.5 -29.5t34.5 -26.5l180 102zM686 -29h-68q-166 0 -271.5 26t-172.5 92t-94 169t-29 266v39 q0 169 26 275t93 174.5t173 95.5t275 27h66q130 -1 220 -19t155 -57t102 -107.5t53.5 -161.5t16.5 -227v-39q-2 -163 -28 -266t-90.5 -169t-165.5 -92t-261 -26zM604 272h70q71 0 101 28t30 97v299q0 77 -29 107.5t-102 30.5h-70q-70 0 -98.5 -30.5t-28.5 -107.5v-299 q0 -69 28.5 -97t98.5 -28z" />
<glyph unicode="&#xf6;" horiz-adv-x="1282" d="M418 1223q-82 0 -138.5 47t-56.5 123t57 125t138 49q79 0 133.5 -48.5t54.5 -125.5q0 -76 -54 -123t-134 -47zM866 1223q-79 0 -132.5 47t-53.5 123q0 77 54 125.5t132 48.5q83 0 139 -48.5t56 -125.5q0 -76 -55.5 -123t-139.5 -47zM686 -29h-68q-166 0 -271.5 26 t-172.5 92t-94 169t-29 266v39q0 169 26 275t93 174.5t173 95.5t275 27h66q130 -1 220 -19t155 -57t102 -107.5t53.5 -161.5t16.5 -227v-39q-2 -163 -28 -266t-90.5 -169t-165.5 -92t-261 -26zM604 272h70q71 0 101 28t30 97v299q0 77 -29 107.5t-102 30.5h-70 q-70 0 -98.5 -30.5t-28.5 -107.5v-299q0 -69 28.5 -97t98.5 -28z" />
<glyph unicode="&#xf7;" horiz-adv-x="1187" d="M594 954q-109 0 -162 48.5t-53 150.5q0 203 215 203q110 0 163.5 -50t53.5 -153q0 -102 -53 -150.5t-164 -48.5zM51 868h1086v-311h-1086v311zM594 72q-109 0 -162 48t-53 150q0 104 53 153.5t162 49.5q111 0 164 -49.5t53 -153.5q0 -102 -53 -150t-164 -48z" />
<glyph unicode="&#xf8;" horiz-adv-x="1318" d="M1268 1161l-131 -149q60 -66 86 -174t26 -275v-39q-2 -163 -28 -266t-90 -169t-165 -92t-261 -26h-68q-241 0 -361 60l-73 -84h-150l131 149q-60 63 -86 166t-28 262v39q0 169 26 275t93 174.5t173 95.5t275 27h65q220 0 342 -58l74 84h150zM496 451l303 348 q-25 35 -107 35h-69q-70 0 -98.5 -30.5t-28.5 -107.5v-245zM823 655l-305 -348q28 -35 105 -35h69q71 0 101 28t30 97v258z" />
<glyph unicode="&#xf9;" horiz-adv-x="1409" d="M881 1294l-174 -108l-373 217v55l307 152zM1262 1108v-784q29 -5 110 -25v-297h-536v156q-45 -32 -81 -54.5t-86.5 -49t-101.5 -40.5t-100 -14h-29q-155 0 -220.5 69.5t-65.5 235.5v481q-3 0 -113 25v297h536v-567q0 -122 15 -151.5t84 -29.5h24q61 0 138 43v383l-111 25 v297h537z" />
<glyph unicode="&#xfa;" horiz-adv-x="1409" d="M977 1458v-55l-373 -217l-174 108l240 316zM1262 1108v-784q29 -5 110 -25v-297h-536v156q-45 -32 -81 -54.5t-86.5 -49t-101.5 -40.5t-100 -14h-29q-155 0 -220.5 69.5t-65.5 235.5v481q-3 0 -113 25v297h536v-567q0 -122 15 -151.5t84 -29.5h24q61 0 138 43v383 l-111 25v297h537z" />
<glyph unicode="&#xfb;" horiz-adv-x="1409" d="M918 1194l-252 162l-252 -162l-121 109l244 268h258l243 -268zM1262 1108v-784q29 -5 110 -25v-297h-536v156q-45 -32 -81 -54.5t-86.5 -49t-101.5 -40.5t-100 -14h-29q-155 0 -220.5 69.5t-65.5 235.5v481q-3 0 -113 25v297h536v-567q0 -122 15 -151.5t84 -29.5h24 q61 0 138 43v383l-111 25v297h537z" />
<glyph unicode="&#xfc;" horiz-adv-x="1409" d="M444 1223q-82 0 -138 47t-56 123t56.5 125t137.5 49q80 0 134.5 -48.5t54.5 -125.5q0 -76 -54.5 -123t-134.5 -47zM893 1223q-79 0 -132.5 47t-53.5 123q0 77 54 125.5t132 48.5q83 0 138.5 -48.5t55.5 -125.5t-55.5 -123.5t-138.5 -46.5zM1262 1108v-784q29 -5 110 -25 v-297h-536v156q-45 -32 -81 -54.5t-86.5 -49t-101.5 -40.5t-100 -14h-29q-155 0 -220.5 69.5t-65.5 235.5v481q-3 0 -113 25v297h536v-567q0 -122 15 -151.5t84 -29.5h24q61 0 138 43v383l-111 25v297h537z" />
<glyph unicode="&#xfd;" horiz-adv-x="1312" d="M971 1458v-55l-373 -217l-174 108l240 316zM1262 1108v-1061q0 -221 -126.5 -333.5t-373.5 -112.5h-96q-274 0 -476 131v258h347l10 -39q10 -26 39 -35.5t86 -9.5h57q48 0 77.5 28t29.5 91v108q-184 -92 -363 -92h-31q-155 0 -222.5 72.5t-67.5 238.5v434q-35 6 -113 25 v297h536v-557q0 -94 17.5 -122t85.5 -28h27q65 0 131 35v350q-41 8 -111 25v297h537z" />
<glyph unicode="&#xfe;" horiz-adv-x="1329" d="M938 1135h31q141 0 225 -103.5t84 -320.5v-373q0 -174 -93.5 -264t-236.5 -90h-28q-30 0 -56 1.5t-52.5 7t-43 9t-45 14t-40 15t-46 18.5t-45.5 19v-148q33 -5 110 -22v-299h-645v299q74 16 109 22v1192q-44 8 -107 25v297h533v-457q59 47 102 75.5t111.5 55.5t132.5 27z M854 518v70q0 123 -16.5 154.5t-85.5 31.5h-25q-65 0 -135 -39v-395q66 -27 133 -27h27q69 0 85.5 35t16.5 170z" />
<glyph unicode="&#xff;" horiz-adv-x="1312" d="M440 1223q-82 0 -138 47t-56 123t56.5 125t137.5 49q80 0 134.5 -48.5t54.5 -125.5q0 -76 -54.5 -123t-134.5 -47zM889 1223q-79 0 -133 47t-54 123t54.5 125t132.5 49q83 0 138.5 -48.5t55.5 -125.5t-55.5 -123.5t-138.5 -46.5zM1262 1108v-1061q0 -221 -126.5 -333.5 t-373.5 -112.5h-96q-274 0 -476 131v258h347l10 -39q10 -26 39 -35.5t86 -9.5h57q48 0 77.5 28t29.5 91v108q-184 -92 -363 -92h-31q-155 0 -222.5 72.5t-67.5 238.5v434q-35 6 -113 25v297h536v-557q0 -94 17.5 -122t85.5 -28h27q65 0 131 35v350q-41 8 -111 25v297h537z " />
<glyph unicode="&#x131;" horiz-adv-x="735" d="M592 1108v-789q72 -12 110 -22v-297h-645v297q34 9 109 22v467q-44 8 -107 25v297h533z" />
<glyph unicode="&#x152;" horiz-adv-x="1943" d="M1253 893h283v-361h-283v-180h318l49 142h276v-494h-1265q-312 0 -450 120.5t-142 405.5v363q0 295 137.5 420t454.5 125h1263v-494h-276l-51 141h-314v-188zM811 1073h-154q-88 0 -132 -42t-44 -120v-397q0 -154 176 -154h154v713z" />
<glyph unicode="&#x153;" horiz-adv-x="1964" d="M1231 434v-65q0 -59 33 -86t84 -27h71q93 0 115 74l10 55h340v-285q-201 -129 -457 -129h-77q-208 0 -328 54q-120 -54 -336 -54h-68q-166 0 -271.5 26t-172.5 92t-94 169t-29 266v39q0 169 26 275t93 174.5t173 95.5t275 27h66q220 0 342 -58q122 58 317 58h70 q258 0 380 -109.5t122 -339.5v-252h-684zM1231 655h299v101q0 49 -32.5 76.5t-84.5 27.5h-57q-58 0 -91.5 -29t-33.5 -81v-95zM805 397v299q0 77 -29 107.5t-102 30.5h-70q-70 0 -98.5 -30.5t-28.5 -107.5v-299q0 -69 28.5 -97t98.5 -28h70q71 0 101 28t30 97z" />
<glyph unicode="&#x178;" horiz-adv-x="1470" d="M500 1522q-90 0 -150.5 52.5t-60.5 135.5q0 86 60.5 139.5t150.5 53.5q88 0 147.5 -53.5t59.5 -139.5q0 -83 -59.5 -135.5t-147.5 -52.5zM993 1522q-87 0 -146 52.5t-59 135.5q0 86 59 139.5t146 53.5q91 0 151 -53.5t60 -139.5q0 -84 -60 -136t-151 -52zM682 1434v-316 q-12 -2 -36 -7t-36 -7l138 -285h4l157 281q-43 6 -90 18v316h627v-316q-78 -20 -141 -28l-361 -607v-141q70 -9 139 -27v-315h-712v315q68 16 131 27v123l-363 629q-59 9 -114 24v316h657z" />
<glyph unicode="&#x192;" horiz-adv-x="1077" d="M993 944v-328h-280l-51 -311q-28 -160 -98 -235t-216 -103q-41 -8 -85.5 -12t-72 -4t-70 1t-54.5 1l-50 229l76 23q71 22 89 35.5t28 46.5l55 329h-127v291q139 26 180 29l31 192q28 161 98.5 236.5t217.5 101.5q133 27 362 39l37 -291q-49 -12 -158 -45 q-69 -22 -89.5 -36t-27.5 -46l-22 -143h227z" />
<glyph unicode="&#x2c6;" d="M762 1194l-252 162l-252 -162l-121 109l244 268h258l244 -268z" />
<glyph unicode="&#x2c7;" d="M641 1194h-258l-244 268l121 109l252 -162l252 162l121 -109z" />
<glyph unicode="&#x2d8;" d="M864 1542v-57q0 -132 -94 -212.5t-258 -80.5q-165 0 -259.5 80.5t-94.5 212.5v57h229v-10q0 -88 125 -88t125 88v10h227z" />
<glyph unicode="&#x2d9;" d="M508 1196q-90 0 -151.5 55t-61.5 142t61.5 142.5t151.5 55.5q94 0 156.5 -55t62.5 -143t-62.5 -142.5t-156.5 -54.5z" />
<glyph unicode="&#x2da;" d="M559 1176h-96q-86 0 -132 45t-46 133v61q0 180 178 180h96q88 0 133 -46t45 -134v-61q0 -88 -46 -133t-132 -45zM479 1311h60q46 0 51 49v51q0 55 -51 55h-60q-49 0 -49 -55v-51q0 -27 12.5 -38t36.5 -11z" />
<glyph unicode="&#x2db;" d="M520 18h133q-63 -66 -86.5 -95.5t-23.5 -45.5v-10q0 -29 35 -29q62 0 129 6l55 -116q-56 -41 -126.5 -70t-117.5 -29h-51q-84 0 -129 39.5t-45 114.5v47q0 61 60 109.5t167 78.5z" />
<glyph unicode="&#x2dc;" d="M930 1434l-154 -174q-52 -52 -135 -52q-33 0 -71 17t-62 34.5t-80 61.5q-11 8 -16 12l-183 -110l-120 106l149 172q51 58 137 58q22 0 45 -6t39.5 -12.5t41 -22.5t35.5 -24t38.5 -29.5t34.5 -26.5l180 102z" />
<glyph unicode="&#x2dd;" d="M549 1499v-51l-303 -240l-148 103l224 299zM926 1499v-51l-299 -240l-152 103l227 299z" />
<glyph unicode="&#x2000;" horiz-adv-x="968" />
<glyph unicode="&#x2001;" horiz-adv-x="1937" />
<glyph unicode="&#x2002;" horiz-adv-x="968" />
<glyph unicode="&#x2003;" horiz-adv-x="1937" />
<glyph unicode="&#x2004;" horiz-adv-x="645" />
<glyph unicode="&#x2005;" horiz-adv-x="484" />
<glyph unicode="&#x2006;" horiz-adv-x="322" />
<glyph unicode="&#x2007;" horiz-adv-x="322" />
<glyph unicode="&#x2008;" horiz-adv-x="242" />
<glyph unicode="&#x2009;" horiz-adv-x="149" />
<glyph unicode="&#x200a;" horiz-adv-x="1110" />
<glyph unicode="&#x2010;" horiz-adv-x="790" d="M741 813v-344h-692v344h692z" />
<glyph unicode="&#x2011;" horiz-adv-x="790" d="M741 813v-344h-692v344h692z" />
<glyph unicode="&#x2012;" horiz-adv-x="790" d="M741 813v-344h-692v344h692z" />
<glyph unicode="&#x2013;" horiz-adv-x="917" d="M868 805v-328h-819v328h819z" />
<glyph unicode="&#x2014;" horiz-adv-x="1255" d="M1206 805v-328h-1157v328h1157z" />
<glyph unicode="&#x2018;" horiz-adv-x="489" d="M457 1098l-51 -228q-14 -58 -53 -85t-101 -17q-124 21 -174.5 59t-50.5 121q0 72 30 148.5t78.5 142.5t97.5 117.5t101 93.5l104 -76q-28 -62 -40 -92t-24 -67t-18 -72z" />
<glyph unicode="&#x2019;" horiz-adv-x="489" d="M29 1120l51 228q14 58 52.5 85t100.5 17q124 -21 175 -59t51 -121q0 -72 -30 -148.5t-78.5 -142.5t-97.5 -117.5t-101 -93.5l-105 76q28 62 40 92t24 67t18 72z" />
<glyph unicode="&#x201a;" horiz-adv-x="532" d="M31 47l53 238q29 127 160 106q130 -21 182.5 -60.5t52.5 -127.5q0 -75 -31 -155t-82 -149t-102.5 -123.5t-105.5 -97.5l-109 80q30 67 42 96.5t25 69.5t19 76z" />
<glyph unicode="&#x201c;" horiz-adv-x="948" d="M463 1087l-53 -237q-14 -61 -54.5 -89t-105.5 -18q-129 21 -182.5 61t-53.5 128q0 75 31 155t82.5 148.5t103 123t105.5 97.5l108 -80q-31 -69 -42.5 -96.5t-24.5 -68t-19 -76.5zM918 1087l-54 -237q-29 -128 -159 -107q-129 21 -182.5 61t-53.5 128q0 75 31 155 t82.5 148.5t103 123t105.5 97.5l108 -80q-31 -69 -42.5 -96.5t-24.5 -68t-19 -76.5z" />
<glyph unicode="&#x201d;" horiz-adv-x="948" d="M18 1110l54 238q29 127 159 106t183 -60.5t53 -127.5q0 -75 -31.5 -155t-82.5 -149t-102.5 -123.5t-105.5 -97.5l-108 80q30 67 42 96.5t25 69.5t19 76zM471 1110l53 238q29 127 160 106q130 -21 183 -60.5t53 -127.5q0 -75 -31.5 -155t-82.5 -149t-102.5 -123.5 t-105.5 -97.5l-109 80q30 67 42 96.5t25 69.5t19 76z" />
<glyph unicode="&#x201e;" horiz-adv-x="968" d="M31 47l53 238q29 127 160 106q130 -21 182.5 -60.5t52.5 -127.5q0 -75 -31 -155t-82 -149t-102.5 -123.5t-105.5 -97.5l-109 80q30 67 42 96.5t25 69.5t19 76zM489 47l54 238q29 127 159 106t183 -60.5t53 -127.5q0 -75 -31.5 -155t-82.5 -149t-102.5 -123.5 t-105.5 -97.5l-108 80q30 67 42 96.5t25 69.5t19 76z" />
<glyph unicode="&#x2020;" horiz-adv-x="894" d="M866 860h-135l-229 98l98 -223v-96l-123 -707h-59l-125 707v96l100 226l-231 -101h-135v307h135l229 -98l-98 227v138h307v-138l-98 -227l229 98h135v-307z" />
<glyph unicode="&#x2021;" horiz-adv-x="894" d="M502 958l98 -223v-112l-98 -224l229 99h135v-308h-135l-229 99l98 -228v-137h-307v137l98 230l-229 -101h-135v308h135l231 -99l-100 224v112l100 226l-231 -101h-135v307h135l229 -98l-98 227v138h307v-138l-98 -227l229 98h135v-307h-135z" />
<glyph unicode="&#x2022;" horiz-adv-x="655" d="M367 274q-190 0 -280.5 83t-90.5 259q0 178 91 262.5t280 84.5q191 0 281.5 -84.5t90.5 -262.5q0 -177 -90.5 -259.5t-281.5 -82.5z" />
<glyph unicode="&#x2026;" horiz-adv-x="1605" d="M266 422q120 0 178 -53.5t58 -165.5t-57.5 -164.5t-178.5 -52.5q-120 0 -177.5 52.5t-57.5 164.5t57.5 165.5t177.5 53.5zM803 422q120 0 177.5 -53.5t57.5 -165.5t-57.5 -164.5t-177.5 -52.5q-121 0 -178.5 52.5t-57.5 164.5t58 165.5t178 53.5zM1339 422 q120 0 178 -53.5t58 -165.5t-57.5 -164.5t-178.5 -52.5q-120 0 -177.5 52.5t-57.5 164.5t57.5 165.5t177.5 53.5z" />
<glyph unicode="&#x202f;" horiz-adv-x="387" />
<glyph unicode="&#x2030;" horiz-adv-x="2988" d="M639 -39h-156l494 750l473 776h156l-510 -776zM399 1462h150q191 -1 265.5 -81.5t74.5 -278.5v-195q-3 -195 -78 -273.5t-262 -78.5h-150q-193 0 -271 78.5t-81 271.5v197q0 199 77.5 279.5t274.5 80.5zM516 1202h-96q-49 0 -65.5 -19.5t-16.5 -72.5v-207 q0 -51 16.5 -68.5t65.5 -17.5h96q46 0 63.5 17.5t18.5 68.5v207q0 53 -17.5 72.5t-64.5 19.5zM1548 879h152q189 -1 263.5 -82t74.5 -279v-196q-3 -194 -78 -272.5t-260 -78.5h-152q-193 0 -270 78.5t-80 272.5v196q0 199 77.5 280t272.5 81zM2599 -29h-150 q-193 0 -271 78.5t-81 272.5v196q0 199 77.5 280t274.5 81h150q191 -1 265.5 -82t74.5 -279v-196q-3 -194 -78 -272.5t-262 -78.5zM1667 616h-98q-47 0 -63.5 -19t-16.5 -73v-207q0 -50 16.5 -68t63.5 -18h98q46 0 63 18t19 68v207q0 54 -17.5 73t-64.5 19zM2468 231h98 q46 0 63 18t19 68v207q0 54 -17.5 73t-64.5 19h-98q-47 0 -63.5 -19t-16.5 -73v-207q0 -50 16.5 -68t63.5 -18z" />
<glyph unicode="&#x2039;" horiz-adv-x="628" d="M432 530l156 -290v-129h-260l-289 419v25l289 420h260v-133l-156 -287v-25z" />
<glyph unicode="&#x203a;" horiz-adv-x="628" d="M195 555l-156 287v133h260l289 -420v-25l-289 -419h-260v129l156 290v25z" />
<glyph unicode="&#x2044;" horiz-adv-x="493" d="M817 1487l-510 -776l-457 -750h-155l493 750l474 776h155z" />
<glyph unicode="&#x205f;" horiz-adv-x="484" />
<glyph unicode="&#x20ac;" horiz-adv-x="1280" d="M926 1006l-13 88q-49 16 -190 16q-75 0 -119.5 -36.5t-44.5 -108.5v-39h385l-39 -168h-346v-74h332l-37 -168h-295v-31q1 -75 42.5 -115t115.5 -38h39q64 0 104.5 25t67.5 85h309v-288q-131 -97 -238.5 -140t-222.5 -43h-108q-551 0 -551 506v39h-99v168h97v74h-97v168 h97v14q0 270 142 396t419 126h74q232 0 491 -65v-391h-315z" />
<glyph unicode="&#x2122;" horiz-adv-x="1427" d="M586 1204h-117l-18 76h-52v-238q9 -2 30 -5t32 -5v-153h-305v153q13 3 51 8v240h-49l-17 -76h-116v230h561v-230zM1403 1434v-142q-9 -1 -27.5 -4t-27.5 -4v-244q38 -5 51 -8v-153h-283v153l41 6v217l-106 -376h-109l-108 376v-217l36 -6v-153h-260v153q10 2 29.5 5 t28.5 5v240q-11 1 -62 10v142h299l90 -271h4l86 271h318z" />
<glyph unicode="&#xe000;" horiz-adv-x="1105" d="M0 1106h1106v-1106h-1106v1106z" />
<glyph unicode="&#xfb01;" horiz-adv-x="1560" d="M1204 1180q-99 0 -167 59t-68 154t68 154t167 59t166.5 -59t67.5 -154t-67.5 -154t-166.5 -59zM1417 1108v-789q69 -11 109 -22v-297h-645v297q23 6 110 25v477h-399v-471q84 -9 168 -31v-297h-703v297q35 10 109 22v480h-127v272q51 11 127 23v90q0 129 85.5 221 t227.5 117q141 25 348 39l37 -291q-7 -2 -85.5 -16t-125.5 -29q-61 -17 -61 -82v-35h825z" />
<glyph unicode="&#xfb02;" horiz-adv-x="1634" d="M592 799v-471q84 -9 168 -31v-297h-703v297q35 10 109 22v480h-127v272q51 11 127 23v90q0 129 85.5 221t227.5 117q141 25 348 39l37 -291q-7 -2 -85.5 -16t-125.5 -29q-61 -17 -61 -82v-35h303v-309h-303zM1487 1434v-1115q71 -12 110 -22v-297h-645v297q34 9 109 22 v793q-44 8 -107 25v297h533z" />
<glyph unicode="&#xfb03;" horiz-adv-x="2394" d="M2038 1180q-99 0 -167.5 59t-68.5 154t68.5 154t167.5 59q100 0 167.5 -59t67.5 -154t-67.5 -154t-167.5 -59zM2251 1108v-786q87 -19 110 -25v-297h-645v297q40 11 109 22v480h-400v-471q84 -9 168 -31v-297h-702v297q36 10 108 22v480h-407v-471q84 -9 168 -31v-297 h-703v297q35 10 109 22v480h-127v272q51 11 127 23v90q0 129 85.5 221t227.5 117q141 25 348 39l37 -291q-7 -2 -85.5 -16t-125.5 -29q-61 -17 -61 -82v-35h407v76q0 129 85.5 221t228.5 117q141 25 348 39l37 -291q-7 -2 -85.5 -16t-125.5 -29q-62 -17 -62 -82v-35h826z " />
<glyph unicode="&#xfb04;" horiz-adv-x="2461" d="M1425 1108h304v-309h-304v-471q84 -9 168 -31v-297h-702v297q36 10 108 22v480h-407v-471q84 -9 168 -31v-297h-703v297q35 10 109 22v480h-127v272q51 11 127 23v90q0 129 85.5 221t227.5 117q141 25 348 39l37 -291q-7 -2 -85.5 -16t-125.5 -29q-61 -17 -61 -82v-35 h407v76q0 129 85.5 221t228.5 117q141 25 348 39l37 -291q-7 -2 -85.5 -16t-125.5 -29q-62 -17 -62 -82v-35zM2314 1434v-1115q74 -12 111 -22v-297h-645v297q35 10 108 22v793q-41 7 -106 25v297h532z" />
</font>
</defs>
</svg>
