<?xml version="1.0" standalone="no"?>
<!DOCTYPE svg PUBLIC "-//W3C//DTD SVG 1.1//EN" "http://www.w3.org/Graphics/SVG/1.1/DTD/svg11.dtd" >
<svg xmlns="http://www.w3.org/2000/svg">
<metadata></metadata>
<defs>
<font id="quadonbolditalic" horiz-adv-x="1024" >
<font-face units-per-em="2048" ascent="1638" descent="-410" />
<missing-glyph horiz-adv-x="344" />
<glyph horiz-adv-x="2048" />
<glyph horiz-adv-x="2048" />
<glyph unicode="&#xd;" horiz-adv-x="2048" />
<glyph unicode=" "  horiz-adv-x="344" />
<glyph unicode="&#x09;" horiz-adv-x="344" />
<glyph unicode="&#xa0;" horiz-adv-x="344" />
<glyph unicode="!" horiz-adv-x="493" d="M524 1434l-30 -228l-179 -751h-157l35 751l30 228h301zM180 -10q-166 0 -145 157q9 70 50 103t118 33q166 0 145 -162q-10 -68 -51 -99.5t-117 -31.5z" />
<glyph unicode="&#x22;" horiz-adv-x="733" d="M453 1434l-21 -152q-25 -177 -186 -446l-133 8l82 590h258zM788 1434l-20 -152q-22 -171 -186 -446l-133 8l81 590h258z" />
<glyph unicode="#" horiz-adv-x="1079" d="M868 879h164l-26 -179h-189l-59 -196h-185l60 196h-211l-60 -196h-182l58 196h-158l26 179h183l55 182h-170l25 180h196l58 193h184l-57 -193h211l57 193h182l-55 -193h133l-25 -180h-161zM528 1061l-55 -182h211l55 182h-211z" />
<glyph unicode="$" horiz-adv-x="1325" d="M1022 991v199q-70 33 -219 37l-51 -367l225 -53q151 -37 203 -114.5t30 -231.5l-12 -86q-26 -198 -146.5 -286.5t-371.5 -94.5l-21 -135h-208l20 137q-102 6 -188.5 28t-225.5 72l43 348h234v-192q92 -42 237 -45l60 422l-213 51q-163 46 -216 122t-30 238l4 23 q28 195 146 283.5t364 95.5l21 149h206l-20 -153q192 -11 399 -80l-47 -367h-223zM666 881l49 346q-118 0 -176 -37.5t-68 -124.5l-2 -21q-9 -62 11 -92t85 -47zM715 608l-56 -401q131 2 188.5 40t72.5 134l4 47q12 76 -18 108t-136 58z" />
<glyph unicode="%" horiz-adv-x="1925" d="M1655 1464l-629 -747l-602 -740h-113l627 740l602 747h115zM516 1458h135q171 -1 228 -84t30 -270l-22 -162q-27 -184 -101.5 -260t-244.5 -76h-135q-175 0 -234.5 82t-34.5 268l23 162q18 126 55 198t109 107t192 35zM616 1286h-102q-80 0 -116.5 -43.5t-49.5 -138.5 l-22 -160q-13 -95 6.5 -130.5t99.5 -35.5h103q78 0 113.5 42.5t49.5 137.5l23 160q13 96 -7 132t-98 36zM1442 827h135q171 -1 228 -84.5t32 -269.5l-22 -162q-28 -185 -103.5 -260.5t-245.5 -75.5h-135q-173 0 -232.5 82.5t-35.5 268.5l22 159q27 189 104 265.5t253 76.5z M1542 655h-102q-80 0 -116 -43.5t-50 -140.5l-21 -158q-14 -94 5.5 -130t99.5 -36h102q79 0 115.5 43t50.5 138l21 157q14 96 -5.5 133t-99.5 37z" />
<glyph unicode="&#x26;" horiz-adv-x="1544" d="M1546 856l-22 -194q-25 -2 -65.5 -6t-73.5 -6.5t-64 -4.5l-21 -110q-42 -290 -184.5 -419.5t-429.5 -129.5h-135q-305 0 -423 99t-85 343l4 35q40 276 309 321q-46 45 -65.5 119t-7.5 164l4 37q27 190 138.5 271t322.5 81h36q78 0 152 -14.5t190 -48.5l-34 -297h-193 l4 127q-56 18 -155 18h-37q-175 0 -199 -162l-8 -55q-11 -76 27 -122t116 -46h178l-26 -197h-256q-95 0 -160.5 -48.5t-79.5 -149.5l-4 -39q-18 -123 30 -167t185 -44h178q178 0 266 79.5t113 256.5l19 100q-30 1 -166 15l22 194h600z" />
<glyph unicode="'" horiz-adv-x="395" d="M453 1434l-21 -152q-25 -177 -186 -446l-133 8l82 590h258z" />
<glyph unicode="(" horiz-adv-x="589" d="M379 1069l-137 -977q-5 -37 -4.5 -66t4.5 -53t15.5 -45t25 -38t37.5 -35.5t47.5 -34t60.5 -37.5l-68 -115q-99 42 -157.5 74t-116 83t-77.5 119.5t-7 159.5l137 981q8 53 25.5 98.5t40 80.5t57.5 66.5t68.5 54.5t83.5 47t91.5 41t102.5 40l54 -127q-76 -39 -117.5 -65 t-80.5 -63t-57.5 -81.5t-27.5 -107.5z" />
<glyph unicode=")" horiz-adv-x="604" d="M240 106l137 977q5 37 5 66.5t-4 53t-16 45t-25.5 38t-38 35.5t-48 34.5t-60.5 37.5l68 114q78 -32 128.5 -57t103.5 -63.5t81 -80t41.5 -101.5t3.5 -134l-137 -979q-7 -53 -24.5 -99t-39.5 -81t-58 -67t-68.5 -54.5t-84 -47t-91.5 -41t-103 -40.5l-53 127 q76 39 118.5 65.5t80.5 63t56.5 81t27.5 107.5z" />
<glyph unicode="*" horiz-adv-x="825" d="M827 946l-92 -133l-84 55l-133 123l6 -190l-12 -105h-154l13 105l63 192l-160 -125l-100 -55l-63 133l100 55l188 64l-168 63l-88 54l95 133l84 -53l133 -121l-6 184l12 109h153l-12 -109l-61 -184l157 121l101 53l63 -133l-100 -54l-187 -63l166 -64z" />
<glyph unicode="+" horiz-adv-x="1204" d="M98 604l33 221h395l56 406h233l-55 -406h395l-33 -221h-395l-55 -403h-234l56 403h-396z" />
<glyph unicode="," horiz-adv-x="438" d="M-4 31l53 162q26 78 117 65q87 -14 121.5 -43.5t25.5 -93.5q-22 -169 -288 -402l-68 62q91 133 117 223z" />
<glyph unicode="-" horiz-adv-x="774" d="M725 739l-31 -221h-618l30 221h619z" />
<glyph unicode="." horiz-adv-x="450" d="M160 -10q-167 0 -146 157q9 70 50 103t118 33q165 0 144 -162q-9 -68 -49.5 -99.5t-116.5 -31.5z" />
<glyph unicode="/" horiz-adv-x="911" d="M1083 1602l-1048 -1745h-164l1049 1745h163z" />
<glyph unicode="0" horiz-adv-x="1316" d="M639 -25h-96q-271 0 -378 124.5t-73 398.5l62 440q40 280 175 399t412 119h95q269 0 372.5 -126.5t65.5 -405.5l-62 -439q-43 -274 -176 -392t-397 -118zM584 215h49q260 0 297 272l65 476q20 138 -29.5 200t-179.5 62h-51q-259 0 -299 -277l-65 -475q-19 -135 31 -196.5 t182 -61.5z" />
<glyph unicode="1" horiz-adv-x="854" d="M729 1446l-178 -1227q83 -3 186 -20l-22 -199h-701l25 203q96 13 229 20l142 959l-260 -37l28 203l395 98h156z" />
<glyph unicode="2" horiz-adv-x="1216" d="M1090 403l-56 -403h-1007l30 207q16 115 34.5 188.5t49.5 126t69 84.5t101 66q38 20 84.5 41.5t74 33t109 45t117.5 48.5q109 44 153.5 77t51.5 84l8 60q15 105 -17 137.5t-144 32.5q-162 0 -275 -49l-45 -131h-213l39 317q175 52 282 70t250 18q243 0 334 -97t60 -323 l-11 -59q-9 -63 -26 -108.5t-41 -78.5t-68 -61t-91.5 -49.5t-127.5 -50.5q-28 -11 -122 -46t-149.5 -57.5t-86.5 -40.5q-70 -40 -96 -90t-46 -184h535l49 192h191z" />
<glyph unicode="3" horiz-adv-x="1144" d="M1149 1434l-31 -230l-426 -397h78q130 0 193 -33t79 -109t-4 -200l-16 -121q-29 -196 -140.5 -276t-351.5 -80h-30q-200 0 -494 63l39 318h186v-144q113 -26 207 -26h86q124 0 173.5 39t64.5 145l12 86q5 42 6.5 65.5t-4.5 44t-16 29.5t-35.5 16t-54.5 8t-82 1h-193 l-49 131l471 434h-618l32 236h918z" />
<glyph unicode="4" horiz-adv-x="1269" d="M33 600l813 834h284l-116 -834h192l-26 -182l-197 -23l-29 -184q48 -4 191 -23l-21 -188h-678l23 190q88 14 211 21l27 184h-703zM328 600h403l76 526z" />
<glyph unicode="5" horiz-adv-x="1179" d="M1141 1092h-189l6 127h-501l-82 -404q147 72 313 72h121q167 0 246 -75.5t55 -246.5l-29 -200q-29 -211 -146.5 -298t-377.5 -87q-224 0 -555 71l39 311h186v-145q162 -24 314 -24q98 0 155.5 21t85 64t39.5 119l19 146q24 143 -117 143h-125q-74 0 -127.5 -21.5 t-136.5 -74.5l-215 67l139 777h930z" />
<glyph unicode="6" horiz-adv-x="1277" d="M788 885h84q212 0 291.5 -83.5t53.5 -277.5l-25 -162q-27 -200 -154 -288t-366 -88h-117q-531 0 -465 510l64 432q70 528 606 528q143 0 241.5 -14.5t266.5 -52.5l-39 -316h-232l-14 123q-119 29 -235 29q-133 0 -213.5 -75t-100.5 -216l-26 -162q102 61 183 88.5 t197 24.5zM391 594l-24 -152q-18 -122 36.5 -173.5t180.5 -51.5h108q215 3 244 199l12 88q13 101 -22 139.5t-138 38.5h-65q-159 0 -332 -88z" />
<glyph unicode="7" horiz-adv-x="1171" d="M1225 1219l-703 -1219h-332l5 51l757 1153h-581l-58 -174h-190l55 404h1075z" />
<glyph unicode="8" horiz-adv-x="1355" d="M1288 1096l-14 -86q-18 -125 -75.5 -192.5t-178.5 -94.5q138 -24 193 -105t36 -221l-6 -35q-28 -202 -151.5 -294.5t-372.5 -92.5h-215q-253 0 -358.5 98.5t-79.5 301.5l4 37q21 140 95.5 214.5t227.5 100.5q-215 55 -178 297l12 86q26 178 144.5 259t353.5 81h166 q228 0 324 -86.5t73 -267.5zM471 1071l-8 -78q-13 -88 29 -121.5t157 -33.5h137q109 0 167 40.5t71 129.5l10 77q12 90 -29 126t-151 38h-137q-112 0 -172 -43.5t-74 -134.5zM965 395l12 76q12 91 -32 131.5t-157 40.5h-176q-229 0 -254 -184l-12 -78q-12 -98 32.5 -141 t160.5 -43h176q225 0 250 198z" />
<glyph unicode="9" horiz-adv-x="1277" d="M541 553h-86q-212 0 -291 82t-53 274l22 164q28 191 155 287t347 96h162q266 0 370 -125t68 -393l-59 -436q-40 -279 -187 -400.5t-442 -121.5q-84 0 -167 10.5t-130 20t-182 40.5l38 326h256l-14 -133q124 -31 211 -31q153 0 231.5 65.5t100.5 213.5l27 149 q-74 -31 -116.5 -46t-113 -28.5t-147.5 -13.5zM934 829l29 166q17 125 -32.5 179t-185.5 53h-108q-104 0 -167.5 -52.5t-78.5 -154.5l-12 -86q-13 -101 22 -140.5t138 -39.5h65q177 0 330 75z" />
<glyph unicode=":" horiz-adv-x="450" d="M272 793q-166 0 -145 159q10 70 50 101.5t116 31.5q169 0 145 -161q-17 -131 -166 -131zM160 -10q-167 0 -146 157q9 70 50 103t118 33q165 0 144 -162q-9 -68 -49.5 -99.5t-116.5 -31.5z" />
<glyph unicode=";" horiz-adv-x="450" d="M272 793q-166 0 -145 159q10 70 50 101.5t116 31.5q169 0 145 -161q-17 -131 -166 -131zM-4 31l53 162q28 81 117 65q87 -16 121.5 -45t25.5 -92q-22 -169 -288 -402l-68 62q91 133 117 223z" />
<glyph unicode="&#x3c;" horiz-adv-x="1069" d="M1055 1042l-690 -331l-3 -9l594 -329l-22 -172h-113l-739 428l18 147l865 430h110z" />
<glyph unicode="=" horiz-adv-x="1128" d="M1110 1057l-29 -226h-950l31 226h948zM1044 580l-32 -224h-949l33 224h948z" />
<glyph unicode="&#x3e;" horiz-adv-x="1069" d="M289 1206l743 -430l-18 -147l-856 -428h-117l20 172l691 329l2 9l-594 331l22 164h107z" />
<glyph unicode="?" horiz-adv-x="1058" d="M109 1063l36 305q182 54 284 71t247 17q238 0 334 -90t67 -297l-8 -47q-20 -140 -72 -210t-147 -99q-28 -8 -134 -37.5t-165 -48.5l-33 -193h-219l12 338q224 65 334 111q77 30 112 61t42 80l6 47q13 105 -18.5 137.5t-147.5 32.5q-154 0 -272 -47l-43 -131h-215z M356 -10q-167 0 -143 157q9 70 49 103t117 33q166 0 145 -162q-10 -68 -51 -99.5t-117 -31.5z" />
<glyph unicode="@" horiz-adv-x="2080" d="M1577 1028l-182 -676q-22 -89 -1.5 -118t85.5 -29q149 0 258.5 137.5t142.5 376.5q44 305 -113 472t-493 167q-222 0 -410 -68.5t-320.5 -189.5t-217 -284t-111.5 -355q-47 -339 136 -522t548 -183q334 0 641 148l37 -94q-138 -70 -316.5 -113t-361.5 -43 q-206 0 -366.5 55.5t-264.5 160.5t-146.5 262t-15.5 353q30 213 125 392.5t243 308.5t352.5 201.5t443.5 72.5q387 0 580.5 -200t142.5 -555q-40 -288 -199.5 -452.5t-409.5 -164.5q-32 0 -55.5 1t-52.5 5t-49.5 13t-39 22.5t-29 36t-11.5 51.5q-86 -79 -159 -114t-189 -35 h-33q-145 0 -215.5 96t-22.5 285l64 247q40 154 143 243t228 89h43q90 0 153 -19t146 -61l24 80h248zM1163 362l111 437q-90 53 -211 53h-37q-164 0 -225 -248l-27 -115q-30 -132 -4 -182.5t123 -50.5h22q48 0 92 14.5t70 30.5t76 51z" />
<glyph unicode="A" horiz-adv-x="1636" d="M1128 1434l236 -1215q79 -3 178 -20l-20 -199h-639l24 203q55 7 144 14l-37 205h-471l-90 -205q25 -3 56.5 -9t49.5 -9l-22 -199h-572l25 203q94 13 174 16l481 998l-149 18l24 199h608zM887 1198h-4l-250 -536h356z" />
<glyph unicode="B" horiz-adv-x="1388" d="M1335 1032l-2 -20q-15 -111 -67.5 -179t-147.5 -102q91 -24 133.5 -104.5t24.5 -210.5l-6 -31q-15 -113 -50.5 -186.5t-99.5 -117.5t-150.5 -62t-215.5 -19h-760l24 203q42 5 99.5 10t62.5 6l150 995q-19 3 -73.5 9.5t-90.5 11.5l24 199h723q251 0 351.5 -97.5 t70.5 -304.5zM553 836h266q111 0 167.5 38t68.5 127l4 29q14 98 -16.5 135t-143.5 37h-293zM991 436l4 33q13 89 -33.5 120.5t-162.5 31.5h-277l-53 -390h266q128 0 183.5 44.5t72.5 160.5z" />
<glyph unicode="C" horiz-adv-x="1325" d="M1217 379l-27 -221q-107 -88 -242.5 -135.5t-269.5 -47.5h-141q-259 0 -367 129t-74 392l62 432q74 528 594 528h86q249 0 503 -76l-51 -401h-235l4 223q-40 12 -91.5 17.5t-88 6.5t-108.5 1h-23q-129 0 -208.5 -75.5t-99.5 -215.5l-67 -479q-34 -246 215 -246h98 q194 0 295 176z" />
<glyph unicode="D" horiz-adv-x="1470" d="M190 1434h795q263 -1 370 -127t70 -389l-59 -426q-38 -257 -174 -374.5t-395 -117.5h-803l24 203q74 9 162 18l150 993q-14 2 -68.5 8.5t-95.5 12.5zM1085 485l66 473q34 244 -215 244h-330l-137 -971h319q123 0 200.5 66.5t96.5 187.5z" />
<glyph unicode="E" horiz-adv-x="1316" d="M1329 1434l-57 -416h-174l-11 190h-487l-51 -366h381l-35 -242h-379l-53 -375h498l61 191h178l-57 -416h-1149l24 203q39 5 91 10t65 6l152 998q-19 3 -69.5 8t-90.5 10l24 199h1139z" />
<glyph unicode="F" horiz-adv-x="1286" d="M1343 1434l-57 -416h-174l-10 190h-502l-57 -407h446l-35 -242h-446l-51 -342q21 -3 114.5 -8.5t122.5 -9.5l-22 -199h-678l24 203q108 12 156 16l152 995q-23 2 -160 21l24 199h1153z" />
<glyph unicode="G" horiz-adv-x="1413" d="M1343 743l-49 -354q-11 -76 -42.5 -140t-76 -108.5t-98 -77.5t-112.5 -51.5t-114 -27.5t-108 -9h-188q-533 0 -457 523l56 397q37 265 198 413t418 148h88q73 0 234.5 -21.5t296.5 -54.5l-54 -407h-233v209q-88 24 -324 24q-134 0 -229 -87.5t-115 -227.5l-59 -428 q-17 -119 43 -178.5t190 -59.5h170q101 0 176 55.5t90 145.5l13 82q-164 10 -383 29l24 206h645z" />
<glyph unicode="H" horiz-adv-x="1624" d="M1686 1434l-25 -203q-127 -14 -162 -17l-151 -997l153 -18l-20 -199h-574l25 203q20 3 42.5 5t50 4t42.5 3l57 387h-604l-57 -387q41 -4 127 -16l-23 -199h-573l24 203q112 12 162 16l150 995q-65 7 -164 21l24 199h578l-25 -203q-19 -3 -41 -5t-48.5 -4t-41.5 -3 l-57 -381h604l58 381q-40 4 -132 16l23 199h578z" />
<glyph unicode="I" horiz-adv-x="727" d="M791 1434l-25 -203q-130 -15 -160 -17l-149 -995q45 -3 155 -20l-22 -199h-596l24 203q108 12 156 16l152 995q-42 3 -160 21l24 199h601z" />
<glyph unicode="J" horiz-adv-x="1173" d="M1251 1434l-24 -203q-130 -15 -160 -17l-102 -696q-21 -154 -61.5 -258.5t-105 -166t-147.5 -87.5t-198 -26h-52q-143 0 -245.5 43t-175.5 135l26 211l242 -9q10 -89 48.5 -121t133.5 -32h25q104 0 152.5 65.5t68.5 206.5l108 735q-137 9 -211 21l25 199h653z" />
<glyph unicode="K" horiz-adv-x="1560" d="M975 825l313 -608q143 -12 185 -18l-23 -199h-573l20 199l100 6l-233 463l-268 -228l-39 -221q90 -10 155 -20l-22 -199h-596l24 203q108 12 156 16l152 995q-42 3 -160 21l24 199h601l-25 -203q-130 -15 -160 -17l-80 -526l629 535q-106 6 -149 12l22 199h600l-22 -203 q-46 -6 -138 -10z" />
<glyph unicode="L" horiz-adv-x="1282" d="M1143 0h-1149l24 203q130 14 156 16l152 998q-147 16 -160 18l24 199h637l-22 -203q-102 -16 -199 -19l-143 -987h487l66 224h190z" />
<glyph unicode="M" horiz-adv-x="1961" d="M2023 1434l-22 -203q-155 -16 -168 -17l-150 -995q44 -3 158 -20l-22 -199h-564l25 203q8 1 131 12l129 875l-569 -1090h-183l-213 1090l-129 -873q13 -2 61.5 -7.5t76.5 -10.5l-23 -199h-567l24 203q123 13 162 16l150 993q-22 1 -164 23l24 199h529l221 -1006h4 l535 1006h544z" />
<glyph unicode="N" horiz-adv-x="1622" d="M1683 1434l-24 -203q-102 -14 -164 -19l-174 -1212h-293l-487 991l-111 -776q26 -3 127 -16l-22 -199h-541l24 203q112 12 162 16l150 995q-43 5 -164 21l24 199h428l512 -1033l117 818q-28 3 -133 16l23 199h546z" />
<glyph unicode="O" horiz-adv-x="1447" d="M752 -25h-191q-261 0 -380 147t-85 408l54 375q37 266 191 408.5t419 142.5h190q258 0 373.5 -149t79.5 -416l-53 -373q-36 -261 -188.5 -402t-409.5 -141zM602 227h146q138 0 217 69.5t102 215.5l59 418q20 147 -35.5 211.5t-195.5 64.5h-145q-135 0 -216.5 -75.5 t-101.5 -215.5l-57 -417q-21 -144 33.5 -207.5t193.5 -63.5z" />
<glyph unicode="P" horiz-adv-x="1353" d="M190 1434h750q242 -1 342.5 -107t69.5 -323l-17 -119q-29 -206 -153 -301t-363 -95h-313l-43 -270q70 -2 170 -20l-23 -199h-616l24 203q104 12 162 16l150 995q-19 3 -73.5 9.5t-90.5 11.5zM1077 936l8 63q15 105 -30 154t-158 49h-291l-69 -479h282q128 0 184.5 47.5 t73.5 165.5z" />
<glyph unicode="Q" horiz-adv-x="1445" d="M709 1456h260q226 0 347 -155.5t87 -399.5l-57 -395q-24 -169 -95.5 -293.5t-187.5 -179.5q6 -13 13 -26t18.5 -30t18 -27.5t23 -33.5t23 -31.5t28 -37.5t27.5 -37l-129 -107q-209 164 -288 281q-37 -9 -72 -9h-182q-232 0 -357.5 153t-91.5 392l58 395q36 248 182 394.5 t375 146.5zM915 1217h-180q-118 0 -200 -83t-101 -206l-61 -441q-19 -120 36 -196t173 -76h180q120 0 201.5 81t99.5 206l63 440q18 121 -37.5 198t-173.5 77z" />
<glyph unicode="R" horiz-adv-x="1454" d="M190 1434h787q243 0 343 -101t71 -319l-15 -99q-51 -335 -368 -360q50 -151 157 -344q70 3 197 -12l-23 -199l-370 6q-145 269 -207 551h-121l27 197h202q111 0 161.5 42.5t66.5 133.5l10 80q14 97 -33 144.5t-157 47.5h-312l-145 -989q49 -2 133 -14l-23 -199h-577 l24 203q100 11 162 16l150 995q-19 3 -73.5 9.5t-90.5 11.5z" />
<glyph unicode="S" horiz-adv-x="1325" d="M332 438v-196q58 -26 122 -35.5t160 -9.5h31q140 0 199 38t74 138l6 49q12 77 -18 108.5t-138 61.5l-350 86q-111 32 -167.5 74.5t-75 111.5t-1.5 183l2 24q31 207 160.5 296t398.5 89h60q247 0 497 -86l-47 -375h-221v203q-80 39 -244 39h-61q-119 0 -177.5 -38.5 t-70.5 -127.5l-2 -20q-9 -63 11 -94.5t85 -49.5l412 -98q150 -38 202.5 -117t30.5 -235l-12 -88q-29 -212 -157.5 -302t-399.5 -90h-80q-145 0 -247.5 23t-258.5 84l43 354h234z" />
<glyph unicode="T" horiz-adv-x="1415" d="M1427 997h-196l12 205h-299l-143 -983q85 -7 170 -20l-23 -199h-626l24 203q64 8 172 16l144 983h-302l-47 -205h-194l59 437h1309z" />
<glyph unicode="U" horiz-adv-x="1550" d="M1618 1434l-25 -203q-16 -2 -64.5 -8t-72.5 -9l-106 -716q-38 -270 -177.5 -396.5t-398.5 -126.5h-115q-263 0 -374 133t-74 404l104 705q-143 16 -155 18l24 199h607l-25 -203q-147 -15 -168 -17l-113 -751q-17 -122 37 -189t176 -67h90q120 0 200 73.5t97 196.5 l109 742q-30 3 -139 16l22 199h541z" />
<glyph unicode="V" horiz-adv-x="1562" d="M1653 1434l-23 -203q-133 -16 -149 -17l-576 -1214h-407l-224 1217q-65 6 -137 18l23 199h616l-22 -203q-30 -3 -86 -7t-86 -7l147 -930h37l408 930q-96 8 -166 18l24 199h621z" />
<glyph unicode="W" horiz-adv-x="2072" d="M2175 1434l-25 -203q-34 -5 -131 -14l-495 -1217h-344l-70 918h-6l-334 -918h-379l-141 1219q-19 2 -125 16l25 199h589l-24 -203q-29 -3 -90.5 -7t-73.5 -5l74 -891h22l416 1106h225l111 -1100h20l346 885q-93 8 -159 16l24 199h545z" />
<glyph unicode="X" horiz-adv-x="1464" d="M963 717l292 -504q38 -2 125 -14l-22 -199h-580l23 201l110 6l-196 379h-2l-271 -373q44 -2 129 -14l-22 -199h-572l25 203q42 5 139 14l420 496l-307 508q-29 1 -123 14l25 199h606l-25 -203q-43 -4 -121 -8l201 -371h4l277 367q-18 2 -135 16l22 199h574l-25 -203 q-128 -16 -143 -17z" />
<glyph unicode="Y" horiz-adv-x="1458" d="M723 1434l-25 -203q-44 -4 -120 -8l180 -512h8l332 510q-31 2 -129 14l24 199h555l-22 -203q-98 -14 -156 -19l-510 -710l-47 -283q51 -4 154 -20l-23 -199h-594l25 203q111 13 155 16l45 273l-299 725q-60 5 -139 18l23 199h563z" />
<glyph unicode="Z" horiz-adv-x="1288" d="M1335 1434l-26 -195l-901 -1020h532l66 242h198l-63 -461h-1139l27 180q3 40 34 74l900 965h-557l-66 -222h-197l60 437h1132z" />
<glyph unicode="[" horiz-adv-x="653" d="M729 1468l-24 -182h-261l-196 -1397h260l-25 -176h-501l245 1755h502z" />
<glyph unicode="\" horiz-adv-x="911" d="M846 -143h-158l-557 1745h158z" />
<glyph unicode="]" horiz-adv-x="653" d="M440 -287h-501l22 176h260l197 1397h-260l26 182h502z" />
<glyph unicode="^" horiz-adv-x="839" d="M608 1436l260 -398l-12 -94h-151l-181 270h-8l-256 -270h-164l13 94l374 398h125z" />
<glyph unicode="_" horiz-adv-x="1179" d="M1083 -176l-18 -137h-1188l19 137h1187z" />
<glyph unicode="`" d="M815 1262l-117 -70l-274 217l2 39l211 96z" />
<glyph unicode="a" horiz-adv-x="1259" d="M160 758l37 289q104 25 238 39t235 14h84q176 0 253 -102.5t52 -284.5l-62 -416q-8 -57 10 -82t74 -25h82l-26 -174q-98 -34 -193 -34q-28 0 -53 3t-56.5 14.5t-53.5 30t-36.5 52.5t-13.5 80q-119 -97 -210.5 -137.5t-207.5 -40.5h-34q-52 0 -90 4.5t-73 17t-54.5 34 t-35 55.5t-15 82t6.5 112l7 33q10 70 32.5 120t49.5 79.5t72.5 50t84.5 29t101 17.5q71 8 133 14.5t140 15t138 14.5l12 51q17 111 -19.5 150.5t-139.5 39.5q-131 0 -232 -29l-37 -116h-200zM416 180h30q126 0 283 139l37 195q-78 -9 -281 -37q-88 -12 -129 -44t-51 -99 l-2 -31q-12 -72 12 -97.5t101 -25.5z" />
<glyph unicode="b" horiz-adv-x="1277" d="M596 1434l-68 -445q124 64 202 87.5t194 23.5h34q139 0 213 -90.5t50 -259.5l-54 -385q-28 -200 -129.5 -290.5t-269.5 -90.5h-29q-191 0 -610 26l172 1219q-41 4 -127 16l23 189h399zM905 428l29 213q21 140 -1.5 194t-109.5 54h-35q-72 0 -130 -17.5t-146 -64.5 l-94 -608q106 -13 250 -13h30q91 0 140 55.5t67 186.5z" />
<glyph unicode="c" horiz-adv-x="1116" d="M1006 319l-23 -200q-91 -65 -204.5 -104.5t-225.5 -39.5h-117q-222 0 -308.5 110t-53.5 337l35 256q30 207 159 314.5t334 107.5h94q177 0 394 -68l-43 -338h-203l4 178q-89 23 -219 23q-109 0 -172 -58t-80 -188l-39 -258q-9 -50 -3 -85.5t17 -58.5t36 -36t53.5 -18 t68.5 -5h57q70 0 124.5 27.5t82.5 81.5l14 22h218z" />
<glyph unicode="d" horiz-adv-x="1261" d="M1180 1434l-164 -1137q-6 -57 11.5 -82t74.5 -25h86l-23 -159q-41 -22 -80.5 -33.5t-64 -13.5t-62.5 -2q-34 0 -69 8t-72.5 27t-60 58.5t-21.5 94.5l2 10q-10 -7 -63 -45t-69 -48.5t-61.5 -37.5t-72.5 -36.5t-67.5 -19t-79.5 -9.5h-35q-139 0 -206.5 97.5t-39.5 295.5 l51 373q24 169 119.5 257.5t232.5 88.5h35q117 0 184 -23t183 -92l41 266q-141 21 -144 21l19 166h416zM442 213h31q65 0 124.5 26.5t152.5 86.5l77 481q-78 46 -124 56.5t-128 10.5h-34q-86 0 -129.5 -52t-57.5 -154l-32 -228q-19 -133 6 -180t114 -47z" />
<glyph unicode="e" horiz-adv-x="1177" d="M643 1100h68q231 0 328.5 -109.5t66.5 -331.5l-35 -243h-737l-6 -56q-27 -188 178 -188h82q153 0 207 98l16 33h215l-22 -184q-85 -73 -201 -108.5t-240 -35.5h-61q-261 0 -359.5 118t-62.5 378l26 180q32 231 164.5 340t372.5 109zM858 606l16 123q13 92 -37 137 t-151 45h-61q-102 0 -169.5 -54.5t-80.5 -151.5l-13 -99h496z" />
<glyph unicode="f" horiz-adv-x="831" d="M104 877l19 176q31 4 85 7.5t62 4.5l23 119q52 258 276 295q82 14 289 37l6 -189q-19 -5 -54 -12.5t-68.5 -16t-69.5 -18.5q-56 -17 -81.5 -50t-31.5 -91l-10 -64h311l-26 -198h-314l-131 -877h-270l131 877h-146z" />
<glyph unicode="g" horiz-adv-x="1280" d="M1303 1075l-19 -168q-97 -17 -141 -26q14 -48 4 -113l-12 -78q-23 -168 -129 -235.5t-326 -67.5h-119q-114 0 -186 35q-48 -26 -58 -39q-10 -12 -12 -31l-4 -16q-4 -33 23.5 -42t111.5 -9h418q160 0 223.5 -64.5t44.5 -204.5l-8 -45q-25 -184 -160.5 -262t-371.5 -78 h-222q-169 0 -256.5 21.5t-116 65.5t-18.5 124l6 41q11 78 51 135.5t130 110.5q-77 39 -64 141l6 37q9 64 44.5 105.5t109.5 85.5q-89 73 -66 237l9 51q24 178 136 246t363 68h45q142 0 240 -25h324zM889 721l10 80q11 82 -26.5 107.5t-139.5 25.5h-37q-109 0 -168.5 -33 t-70.5 -115l-13 -79q-5 -34 1.5 -57t20 -36.5t41.5 -20.5t56 -9t74 -2h22q106 0 161.5 28t68.5 111zM778 80h-346q-62 0 -108 -4q-102 -59 -113 -127l-4 -29q-9 -64 17.5 -83t125.5 -19h279q120 0 180.5 31.5t69.5 101.5l4 31q10 63 -10 80.5t-95 17.5z" />
<glyph unicode="h" horiz-adv-x="1392" d="M1290 190l-22 -165q-92 -43 -213 -43q-28 0 -55 4.5t-61 20t-57 42t-35.5 75.5t-4.5 114l63 434q7 48 9.5 75.5t1 52.5t-7.5 36.5t-20.5 20.5t-33.5 11t-51 2h-25q-116 0 -309 -122l-104 -748h-271l174 1229q-37 3 -127 16l23 189h397l-78 -521q128 87 238.5 137 t218.5 50h23q276 0 231 -297l-74 -506q-8 -57 10 -82t74 -25h86z" />
<glyph unicode="i" horiz-adv-x="663" d="M446 1505q69 0 110 -44t32 -113q-9 -57 -55 -92t-109 -35q-70 0 -111 43t-32 110q9 60 55.5 95.5t109.5 35.5zM532 1075l-114 -778q-6 -57 11.5 -82t74.5 -25h82l-25 -167q-59 -26 -104.5 -33.5t-102.5 -7.5q-47 0 -87.5 13t-74.5 41t-48.5 81t-2.5 125l97 626 q-23 1 -65.5 8t-59.5 9l20 190h399z" />
<glyph unicode="j" horiz-adv-x="602" d="M459 1505q71 0 112.5 -43.5t32.5 -113.5q-9 -57 -56 -92t-110 -35q-69 0 -110.5 43t-32.5 110q9 60 55.5 95.5t108.5 35.5zM553 1075l-125 -895q-10 -69 -23.5 -112.5t-45.5 -87t-68.5 -77.5t-112.5 -96q-98 -79 -180 -129l-102 123q15 16 50 49t58 56q85 78 113.5 132.5 t42.5 158.5l100 671q-31 3 -133 17l20 190h406z" />
<glyph unicode="k" horiz-adv-x="1384" d="M1360 1075l-23 -192q-84 -11 -131 -13l-354 -241l211 -336q34 -56 72 -79.5t96 -23.5h76l-23 -172q-12 -5 -23.5 -9.5t-20.5 -7.5t-19.5 -5.5t-17 -4t-16.5 -2.5t-14 -1.5t-14 -1t-13 -0.5h-13.5h-12.5q-31 0 -55.5 4t-57.5 19.5t-63.5 41.5t-67.5 73.5t-75 113.5 l-162 272l-176 -121l-33 -184q18 -1 39.5 -3.5t49.5 -7t44 -6.5l-20 -188h-543l23 190q75 12 137 15l153 1024q-37 3 -127 16l23 189h397l-121 -859l445 295q-20 1 -61 7t-62 8l20 190h533z" />
<glyph unicode="l" horiz-adv-x="677" d="M565 1434l-164 -1137q-8 -57 10 -82t76 -25h86l-24 -170q-88 -38 -211 -38q-49 0 -89.5 13t-74 41t-47.5 81t-2 125l147 987q-37 3 -127 16l23 189h397z" />
<glyph unicode="m" horiz-adv-x="2062" d="M1980 190l-20 -174q-87 -34 -215 -34q-28 0 -55 4t-60 18.5t-56 37.5t-36 66.5t-6 100.5l63 463q7 48 9.5 75.5t1 52.5t-7.5 36.5t-20.5 20.5t-33.5 11t-51 2h-25q-64 0 -130.5 -30t-155.5 -90l-123 -750h-258l94 672q7 48 9.5 75.5t1 52.5t-7.5 36.5t-20.5 20.5 t-33.5 11t-51 2h-25q-61 0 -125.5 -29.5t-150.5 -88.5l-117 -752h-271l134 868q-23 1 -65.5 8t-59.5 9l20 190h399l-24 -145q115 82 215.5 126t204.5 44h26q109 0 164 -47t58 -150q124 93 232.5 145t221.5 52h25q271 0 229 -297l-74 -506q-6 -57 11 -82t73 -25h86z" />
<glyph unicode="n" horiz-adv-x="1392" d="M532 1075l-28 -162q128 87 238.5 137t218.5 50h22q276 0 231 -297l-73 -506q-8 -57 10 -82t74 -25h82l-23 -174q-98 -34 -209 -34q-28 0 -55 4t-60 18.5t-56 37.5t-36 66.5t-6 100.5l64 463q8 57 10 88t-1 56t-17.5 35t-35.5 14.5t-59 4.5h-24q-117 0 -310 -122 l-114 -748h-271l134 868q-23 1 -65.5 8t-59.5 9l20 190h399z" />
<glyph unicode="o" horiz-adv-x="1236" d="M596 -25h-90q-256 0 -359 120.5t-67 371.5l20 145q36 255 165.5 371.5t387.5 116.5h88q252 0 351 -123t63 -379l-20 -145q-35 -249 -162.5 -363.5t-376.5 -114.5zM514 178h92q104 0 169.5 53.5t80.5 151.5l43 317q29 199 -180 199h-92q-104 0 -168 -56t-78 -157l-45 -315 q-15 -98 29 -145.5t149 -47.5z" />
<glyph unicode="p" horiz-adv-x="1290" d="M954 1100h33q139 0 203.5 -97t36.5 -296l-56 -385q-22 -170 -115 -254t-233 -84h-32q-30 0 -58.5 2.5t-49.5 5t-48.5 10.5t-42 12t-44 16t-40 17t-45.5 21.5t-47 21.5l-39 -256q7 -1 81 -6.5t103 -9.5l-22 -191h-592l20 195l139 12l156 1034q-23 1 -65.5 8t-59.5 9 l21 190h399l-22 -127q63 37 101 58t95 46t111.5 36.5t111.5 11.5zM920 446l28 197q18 135 -3.5 181t-108.5 46h-31q-69 0 -136.5 -25.5t-150.5 -78.5l-80 -496q71 -47 123.5 -61t130.5 -14h35q88 0 130.5 56t62.5 195z" />
<glyph unicode="q" horiz-adv-x="1251" d="M1141 1075l-174 -1241q28 -3 133 -16l-23 -191h-575l22 193q51 2 181 14l34 242q-92 -38 -133 -53t-106 -27t-144 -12h-34q-138 0 -211.5 90.5t-49.5 261.5l54 385q28 198 129 288.5t268 90.5h33q135 0 596 -25zM459 195h33q71 0 124 16.5t142 64.5l94 592 q-127 13 -242 13h-30q-92 0 -139 -54.5t-66 -185.5l-29 -199q-19 -141 3 -194t110 -53z" />
<glyph unicode="r" horiz-adv-x="942" d="M557 1075l-29 -190q93 103 171.5 154t177.5 51h104l-31 -250q-76 -4 -182 -13q-73 -2 -133.5 -28.5t-126.5 -89.5l-109 -709h-270l133 868q-23 1 -65.5 8t-59.5 9l21 190h399z" />
<glyph unicode="s" horiz-adv-x="1110" d="M121 766l6 47q22 151 132.5 219t324.5 68h37q100 0 224 -19.5t212 -56.5l-31 -264h-219v129q-76 31 -203 31q-219 0 -237 -121v-13q-8 -54 25.5 -71.5t171.5 -44.5q25 -5 39 -8t38.5 -7.5t46.5 -9.5q188 -35 257 -98t54 -182l-8 -58q-24 -177 -133.5 -254.5t-320.5 -77.5 h-80q-265 0 -428 154l32 217h205v-125q61 -55 199 -55h65q188 0 205 143l4 23q8 51 -24 74q-35 25 -188 57q-26 5 -85 17h-1h-1h-1l-1 1h-2q-137 24 -210 62.5t-95 90t-10 132.5z" />
<glyph unicode="t" horiz-adv-x="862" d="M522 205h19q124 0 196 4l-12 -154q-68 -36 -162.5 -58t-181.5 -22h-23q-125 0 -180 75.5t-33 223.5l86 600h-133l27 201h96q62 0 68 60l37 227q111 16 241 22l-39 -309h310l-27 -201h-309l-70 -487q-13 -75 -8.5 -115.5t24.5 -53.5t74 -13z" />
<glyph unicode="u" horiz-adv-x="1386" d="M1251 1075l-114 -778q-6 -57 11.5 -82t74.5 -25h88l-23 -174q-98 -34 -209 -34q-199 0 -213 178l2 18q-72 -42 -109.5 -62.5t-106 -53.5t-128 -47.5t-116.5 -14.5h-25q-149 0 -201.5 66.5t-29.5 230.5l86 571q-34 5 -144 17l21 190h415l-90 -647q-8 -56 -10 -87.5 t1 -56.5t17.5 -35t35.5 -15t59 -5h24q115 0 307 123l82 516q-36 6 -141 17l21 190h415z" />
<glyph unicode="v" horiz-adv-x="1314" d="M1364 1075l-23 -192q-64 -11 -155 -19l-473 -864h-285l-215 868q-18 2 -39.5 4.5t-49.5 6.5t-44 6l20 190h537l-21 -192q-25 -1 -66 -4.5t-58 -4.5l120 -645h2l351 641q-21 1 -63 7t-62 8l20 190h504z" />
<glyph unicode="w" horiz-adv-x="1814" d="M1860 1075l-21 -192q-109 -14 -129 -15l-367 -868h-321l-100 647l-295 -647h-308l-116 870q-11 1 -52 7t-67 8l20 190h488l-23 -192q-25 -1 -69 -6.5t-54 -6.5l64 -618h4l358 823h209l142 -823h2l254 618q-21 1 -63 7t-64 8l20 190h488z" />
<glyph unicode="x" horiz-adv-x="1282" d="M1296 1075l-20 -192q-97 -11 -141 -13l-310 -333l164 -269q31 -52 58.5 -65t89.5 -13h80l-27 -192q-96 -16 -203 -16q-33 0 -57.5 7t-58 30.5t-72 74t-84.5 131.5l-137 236h-3l-219 -262q21 -2 62.5 -4.5t62.5 -4.5l-20 -190h-506l22 190q40 8 117 17l326 330l-195 329 l-141 19l20 190h547l-22 -192l-107 -6l137 -256h3l212 253q-20 2 -55 6t-49 5l21 190h505z" />
<glyph unicode="y" horiz-adv-x="1290" d="M1276 1075l-146 -1030q-29 -209 -150.5 -307t-334.5 -98h-74q-286 0 -424 153l19 158h219v-35q20 -45 68 -63.5t141 -18.5h47q86 0 145.5 53t73.5 162l19 88q-117 -48 -210 -71t-204 -23h-35q-148 0 -207.5 80t-36.5 246l76 499q-6 1 -57 7t-86 10l20 190h416l-84 -598 q-15 -117 8.5 -161t110.5 -44h35q72 0 130.5 18t143.5 68l82 510q-136 17 -141 17l20 190h416z" />
<glyph unicode="z" horiz-adv-x="1144" d="M1141 1075l-25 -192l-760 -680h475l66 176h152l-58 -379h-1001l22 174q9 48 56 84l723 621h-465l-43 -162h-156l53 358h961z" />
<glyph unicode="{" horiz-adv-x="761" d="M537 1069l-138 -977q-5 -37 -5 -66.5t4 -53t16 -45t25 -37.5t37.5 -35.5t47.5 -34.5t60 -37l-68 -115q-99 42 -156.5 74t-115.5 83t-78.5 119.5t-7.5 159.5l53 375l-166 27l27 196l176 27l49 356q9 62 29 112.5t54 90.5t70.5 70.5t92.5 59t103.5 48.5t119.5 47l53 -127 q-76 -39 -117.5 -65.5t-80 -63t-57 -81t-27.5 -107.5z" />
<glyph unicode="|" horiz-adv-x="503" d="M459 1597l-262 -1869h-119l264 1869h117z" />
<glyph unicode="}" horiz-adv-x="761" d="M240 106l137 977q5 37 5 66.5t-4 53t-16 45t-25.5 38t-38 35.5t-48 34.5t-60.5 37.5l68 114q78 -32 128.5 -57t103.5 -63.5t81 -80t41.5 -101.5t3.5 -134l-47 -342l166 -27l-26 -196l-174 -27l-56 -387q-7 -53 -24.5 -99t-39.5 -81t-58 -67t-68.5 -54.5t-84 -47 t-91.5 -41t-103 -40.5l-53 127q76 39 118.5 65.5t80.5 63t56.5 81t27.5 107.5z" />
<glyph unicode="&#xa1;" horiz-adv-x="493" d="M344 1290q167 0 143 -160q-14 -133 -165 -133q-168 0 -144 162q9 67 49 99t117 32zM31 72l178 753h158l-35 -753l-31 -226h-301z" />
<glyph unicode="&#xa2;" horiz-adv-x="1116" d="M844 694l4 178q-77 20 -182 23l-99 -707q70 0 124.5 27.5t82.5 81.5l14 22h218l-23 -200q-174 -127 -379 -142l-18 -118h-207l16 116q-199 10 -275.5 120.5t-45.5 326.5l35 256q29 197 147 304t307 116l17 129h206l-16 -129q130 -7 320 -66l-43 -338h-203zM377 649 l-39 -258q-11 -80 6 -125t54 -61t102 -17l98 705q-193 -13 -221 -244z" />
<glyph unicode="&#xa3;" horiz-adv-x="1257" d="M1128 0h-1138l24 207q50 39 81 66.5t68 70.5t55 91.5t18 103.5v39h-181l23 157h180v215q6 117 32 203.5t81.5 157.5t153.5 108t237 37h69q222 0 476 -76l-80 -368h-211l8 186q-39 16 -93.5 24t-82.5 8.5t-88 0.5q-109 0 -167.5 -72.5t-55.5 -206.5l4 -217h393l-47 -157 h-348v-50q-1 -50 -17.5 -93.5t-50.5 -82.5t-65.5 -66.5t-83.5 -66.5l612 6l67 224h191z" />
<glyph unicode="&#xa5;" horiz-adv-x="1458" d="M1548 1434l-22 -203q-98 -14 -156 -19l-362 -503h245l-14 -105h-305l-74 -102l-2 -19h365l-17 -104h-366l-27 -160q51 -4 154 -20l-23 -199h-594l25 203q111 13 155 16l27 160h-354l16 104h354l2 9l-47 112h-292l14 105h235l-211 508q-59 5 -137 18l23 199h563l-25 -203 q-40 -4 -120 -8l180 -512h8l332 510q-31 2 -129 14l24 199h555z" />
<glyph unicode="&#xa7;" horiz-adv-x="1370" d="M625 1032l424 -74q159 -27 212.5 -75.5t36.5 -169.5l-10 -68q-11 -72 -51 -118.5t-119 -75.5q45 -51 27 -160l-2 -19q-16 -112 -63 -174t-145.5 -91.5t-270.5 -29.5h-50q-228 0 -448 86l35 271h196l-6 -125q82 -47 234 -47h51q116 0 168.5 33.5t60.5 97.5l2 14 q6 45 -11 66t-73 30l-444 72q-159 27 -213 76.5t-37 169.5l10 67q16 123 201 195q-63 47 -47 160l2 18q16 113 60.5 175t139 91t261.5 29h47q234 0 446 -84l-32 -270h-189l8 125q-30 22 -105.5 33.5t-154.5 11.5h-33q-112 0 -157.5 -32t-55.5 -97l-2 -17q-6 -49 12 -65.5 t85 -28.5zM348 774l-6 -39q-7 -49 13.5 -66.5t95.5 -31.5l454 -72q9 -1 37 -5.5t35 -4.5q95 30 102 107l6 38q6 48 -13.5 66t-94.5 31l-459 75q-12 2 -29 6t-24 5q-51 -18 -81.5 -47.5t-35.5 -61.5z" />
<glyph unicode="&#xa8;" d="M420 1245q-58 0 -94 36.5t-29 92.5q7 48 45.5 77.5t89.5 29.5q59 0 94.5 -37.5t26.5 -95.5q-6 -46 -43.5 -74.5t-89.5 -28.5zM821 1245q-57 0 -91.5 36.5t-27.5 92.5q6 48 43.5 77.5t88.5 29.5q59 0 94 -37.5t28 -95.5q-6 -47 -44 -75t-91 -28z" />
<glyph unicode="&#xa9;" horiz-adv-x="880" d="M471 678q-189 0 -280.5 108t-63.5 299q25 180 139 279.5t295 99.5q189 0 279.5 -107t64.5 -298q-25 -181 -139.5 -281t-294.5 -100zM461 741q168 0 262.5 85t120.5 259q22 156 -48.5 237t-222.5 81q-169 0 -264.5 -85t-120.5 -259q-23 -157 48 -237.5t225 -80.5z M672 1001l-4 -86q-69 -53 -162 -53h-35q-166 0 -147 172l12 86q23 162 184 162h29q55 0 156 -29l-15 -131h-84l4 68q-29 10 -73 10q-89 0 -101 -98l-12 -80q-6 -38 9 -55t54 -17h25q53 0 78 51h82z" />
<glyph unicode="&#xaa;" horiz-adv-x="999" d="M641 598l14 98q-65 -39 -100 -58t-92.5 -36.5t-116.5 -17.5h-27q-36 0 -61.5 2t-51 8t-40.5 16t-30 27t-18.5 40.5t-6.5 56.5t6 75l2 31q18 122 80.5 172t183.5 61q260 21 328 23l6 55q12 90 -15.5 121t-107.5 31q-102 0 -191 -25l-26 -96h-150l25 223q80 21 184 33 t180 12h66q137 0 195.5 -80t37.5 -221l-59 -397q22 -1 61 -6.5t46 -6.5l-17 -141h-305zM418 733h24q101 0 228 80l28 186q-164 -12 -235 -24q-60 -6 -95.5 -37t-43.5 -82l-5 -27q-7 -63 10.5 -79.5t88.5 -16.5z" />
<glyph unicode="&#xab;" horiz-adv-x="1091" d="M342 535l188 -324l-10 -84h-164l-268 408v16l383 407h166l-10 -86l-277 -321zM758 535l188 -324l-10 -84h-164l-268 408v16l383 407h166l-11 -86l-278 -321z" />
<glyph unicode="&#xad;" horiz-adv-x="774" d="M725 739l-31 -221h-618l30 221h619z" />
<glyph unicode="&#xae;" horiz-adv-x="864" d="M551 1464q189 0 280.5 -107t65.5 -298q-26 -182 -140.5 -281.5t-295.5 -99.5q-189 0 -279.5 108t-64.5 299q26 180 139.5 279.5t294.5 99.5zM563 1403q-175 0 -266.5 -82t-116.5 -262q-22 -150 49.5 -234t219.5 -84q176 0 268.5 81.5t118.5 262.5q20 150 -52.5 234 t-220.5 84zM354 1282h215q65 0 98 -35t25 -94l-2 -20q-8 -45 -25.5 -71.5t-50.5 -39.5q20 -44 23 -72l21 -3q20 -3 30 -5l-4 -59h-135l6 35q-2 43 -33 100h-69l-11 -66l39 -4l-10 -65h-170l8 65l43 6l43 254q-35 8 -45 9zM477 1206l-16 -119h80q46 0 55 54l4 16q9 49 -47 49 h-76z" />
<glyph unicode="&#xaf;" d="M905 1399l-22 -158h-543l22 158h543z" />
<glyph unicode="&#xb0;" horiz-adv-x="866" d="M526 784h-108q-147 0 -210 75.5t-42 215.5l12 101q21 144 98.5 213t227.5 69h108q148 -1 210.5 -78t41.5 -219l-14 -98q-22 -142 -99.5 -210.5t-224.5 -68.5zM451 934h65q140 0 162 143l14 97q11 76 -13 108.5t-99 32.5h-66q-147 0 -166 -154l-14 -98q-9 -70 16 -99.5 t101 -29.5z" />
<glyph unicode="&#xb2;" horiz-adv-x="825" d="M786 862l-36 -264h-664l20 139q19 128 65 197t132 100q75 27 184 58q89 26 126.5 49.5t43.5 62.5l2 21q6 43 -16 60.5t-82 17.5q-122 0 -190 -23l-31 -86h-143l22 209q186 49 350 49q163 0 225.5 -51t45.5 -182l-4 -27q-6 -40 -16.5 -68.5t-33 -55.5t-62.5 -48.5 t-99 -38.5q-58 -18 -172 -49q-98 -34 -133 -68.5t-46 -122.5h355l30 121h127z" />
<glyph unicode="&#xb3;" horiz-adv-x="782" d="M801 1217l-4 -27q-11 -81 -44.5 -127t-101.5 -66q59 -9 83 -49t14 -117l-5 -22q-19 -125 -91.5 -172t-245.5 -47q-156 0 -336 41l22 211h133l-4 -92q90 -15 189 -15q79 0 114 25t43 84l2 22q8 55 -14.5 70.5t-89.5 15.5h-186l18 133h180q63 0 96.5 23.5t42.5 79.5l2 22 q7 52 -17.5 73.5t-92.5 21.5q-97 0 -197 -21l-30 -88h-129l24 213q188 43 330 43q183 0 248.5 -51.5t46.5 -183.5z" />
<glyph unicode="&#xb4;" d="M872 1448l-2 -39l-333 -217l-103 70l252 282z" />
<glyph unicode="&#xb6;" horiz-adv-x="1206" d="M1284 1434l-24 -203q-67 -12 -148 -23l-201 -1392h-194l201 1431h-121l-203 -1431h-197l107 766h-15q-106 0 -179.5 19.5t-124.5 64.5t-68.5 122.5t-3.5 190.5l6 57q17 118 54.5 196.5t100.5 122.5t140 61.5t186 17.5h684z" />
<glyph unicode="&#xb7;" horiz-adv-x="450" d="M221 428q-166 0 -145 160q9 69 49 101t117 32q166 0 145 -162q-17 -131 -166 -131z" />
<glyph unicode="&#xb8;" d="M391 -72h76q159 0 141 -137l-4 -27q-12 -82 -53.5 -110.5t-134.5 -30.5q-99 0 -226 29l5 76h213q28 0 48 17t23 42v8q5 25 -4.5 34t-42.5 9h-172l53 162h95z" />
<glyph unicode="&#xb9;" horiz-adv-x="673" d="M598 1452l-104 -709q92 -8 145 -14l-14 -131h-523l15 135q89 9 180 12l80 543l-203 -35l19 121l290 78h115z" />
<glyph unicode="&#xba;" horiz-adv-x="940" d="M520 582h-69q-197 0 -276 87t-56 277l20 146q28 193 126 276.5t296 83.5h72q195 0 271 -89.5t48 -283.5l-20 -147q-28 -188 -123.5 -269t-288.5 -81zM455 731h71q89 0 138 42t61 130l35 238q12 89 -21 126.5t-123 37.5h-71q-173 0 -197 -177l-35 -239q-12 -86 21 -122 t121 -36z" />
<glyph unicode="&#xbb;" horiz-adv-x="1091" d="M186 872l11 86h163l269 -407v-16l-383 -408h-166l10 84l277 324l6 16zM600 872l10 86h164l268 -407v-16l-383 -408h-165l10 84l276 324l6 16z" />
<glyph unicode="&#xbc;" horiz-adv-x="1685" d="M1559 1464l-631 -747l-600 -740h-115l629 740l602 747h115zM623 1452l-105 -709q103 -7 156 -14l-15 -131h-542l16 135q168 11 189 12l79 543l-202 -35l18 121l291 78h115zM1450 240l-16 -101q35 -1 137 -14l-12 -125h-500l14 129l164 12l16 97h-448l18 137l510 469h201 l-66 -469h146l-19 -123zM1317 702l-328 -327h279z" />
<glyph unicode="&#xbd;" horiz-adv-x="1767" d="M1538 1464l-631 -747l-600 -740h-114l628 740l602 747h115zM604 1452l-104 -709q100 -7 155 -14l-14 -131h-543l17 135q169 11 188 12l80 543l-203 -35l19 121l290 78h115zM1653 264l-37 -264h-664l21 139q17 119 69 199.5t160 114.5q113 33 152 43q89 24 126.5 47.5 t43.5 62.5l2 21q7 49 -12 63.5t-87 14.5q-122 0 -190 -23l-31 -86h-143l22 209q116 30 183 39.5t168 9.5q163 0 225 -51t45 -182l-10 -60q-7 -57 -51 -102t-154 -82q-16 -5 -47 -14.5t-70.5 -20.5t-54.5 -16q-93 -30 -124 -62.5t-44 -122.5h342l33 123h127z" />
<glyph unicode="&#xbe;" horiz-adv-x="1755" d="M1010 717l-600 -740h-115l629 740l602 747h114zM848 1217l-4 -27q-10 -78 -42.5 -117t-103.5 -59q58 -9 83 -56.5t14 -126.5l-4 -22q-19 -125 -92 -172t-246 -47q-156 0 -336 41l22 211h133l-4 -92q90 -15 189 -15q79 0 114 25t43 84l2 22q9 56 -14.5 73t-89.5 17h-186 l18 127h180q62 0 96.5 24t43.5 81l2 22q9 59 -13.5 77t-97.5 18q-97 0 -197 -21l-30 -88h-129l24 213q188 43 330 43q183 0 248.5 -51.5t46.5 -183.5zM1544 240l-16 -101q35 -1 137 -14l-12 -125h-500l14 129l164 12l17 97h-449l19 137l509 469h201l-65 -469h145l-18 -123z M1411 702l-328 -327h279z" />
<glyph unicode="&#xbf;" horiz-adv-x="1058" d="M731 1290q167 0 146 -160q-9 -69 -50 -101t-118 -32q-165 0 -144 162q17 131 166 131zM981 217l-39 -307q-180 -53 -281 -69.5t-249 -16.5q-237 0 -333 90t-67 295l6 49q21 138 73.5 207.5t148.5 99.5q56 18 155 45t144 41l30 193h222l-13 -336q-181 -54 -336 -111 q-75 -28 -109.5 -60t-41.5 -81l-6 -49q-14 -105 17.5 -137.5t146.5 -32.5q147 0 272 47l45 133h215z" />
<glyph unicode="&#xc0;" horiz-adv-x="1636" d="M1087 1591l-116 -69l-275 219l2 37l211 98zM1128 1434l236 -1215q79 -3 178 -20l-20 -199h-639l24 203q55 7 144 14l-37 205h-471l-90 -205q25 -3 56.5 -9t49.5 -9l-22 -199h-572l25 203q94 13 174 16l481 998l-149 18l24 199h608zM883 1198l-250 -536h356l-102 536h-4z " />
<glyph unicode="&#xc1;" horiz-adv-x="1636" d="M1217 1780l-5 -39l-342 -223l-110 73l262 291zM1128 1434l236 -1215q79 -3 178 -20l-20 -199h-639l24 203q55 7 144 14l-37 205h-471l-90 -205q25 -3 56.5 -9t49.5 -9l-22 -199h-572l25 203q94 13 174 16l481 998l-149 18l24 199h608zM883 1198l-250 -536h356l-102 536 h-4z" />
<glyph unicode="&#xc2;" horiz-adv-x="1636" d="M1174 1526l-220 176l-268 -176l-78 73l277 256h174l207 -256zM1128 1434l236 -1215q79 -3 178 -20l-20 -199h-639l24 203q55 7 144 14l-37 205h-471l-90 -205q25 -3 56.5 -9t49.5 -9l-22 -199h-572l25 203q94 13 174 16l481 998l-149 18l24 199h608zM883 1198l-250 -536 h356l-102 536h-4z" />
<glyph unicode="&#xc3;" horiz-adv-x="1636" d="M1339 1751l-172 -168q-48 -45 -112 -45q-32 0 -54.5 15t-66.5 58t-86 75l-211 -140l-76 74l152 152q69 63 131 63q36 0 61.5 -15.5t69.5 -60t78 -71.5l209 135zM1128 1434l236 -1215q79 -3 178 -20l-20 -199h-639l24 203q55 7 144 14l-37 205h-471l-90 -205 q25 -3 56.5 -9t49.5 -9l-22 -199h-572l25 203q94 13 174 16l481 998l-149 18l24 199h608zM883 1198l-250 -536h356l-102 536h-4z" />
<glyph unicode="&#xc4;" horiz-adv-x="1636" d="M729 1567q-64 0 -102 39t-31 100q9 53 50.5 84t98.5 31q63 0 100.5 -40t28.5 -102q-6 -51 -47.5 -81.5t-97.5 -30.5zM1155 1567q-61 0 -98.5 39.5t-30.5 99.5q7 52 49.5 83.5t98.5 31.5q64 0 102 -40t29 -102q-7 -51 -49.5 -81.5t-100.5 -30.5zM1128 1434l236 -1215 q79 -3 178 -20l-20 -199h-639l24 203q55 7 144 14l-37 205h-471l-90 -205q25 -3 56.5 -9t49.5 -9l-22 -199h-572l25 203q94 13 174 16l481 998l-149 18l24 199h608zM883 1198l-250 -536h356l-102 536h-4z" />
<glyph unicode="&#xc5;" horiz-adv-x="1636" d="M963 1503h-70q-79 0 -120.5 46.5t-29.5 127.5l7 52q23 157 186 157h72q79 0 119 -47t28 -127l-6 -51q-23 -158 -186 -158zM905 1604h60q35 0 53 16t22 53l9 53q4 36 -11 51t-51 15h-41q-43 0 -63 -17t-25 -55l-8 -53q-4 -36 9 -49.5t46 -13.5zM1128 1434l236 -1215 q79 -3 178 -20l-20 -199h-639l24 203q55 7 144 14l-37 205h-471l-90 -205q25 -3 56.5 -9t49.5 -9l-22 -199h-572l25 203q94 13 174 16l481 998l-149 18l24 199h608zM883 1198l-250 -536h356l-102 536h-4z" />
<glyph unicode="&#xc6;" horiz-adv-x="2183" d="M1415 834h379l-31 -226h-379l-55 -383h498l61 191h178l-57 -416h-1149l25 203q39 5 90.5 10t64.5 6l39 242h-458l-175 -248q44 -2 125 -14l-22 -199h-584l25 203q97 13 174 16l706 993q-63 6 -176 23l25 199h1476l-57 -416h-174l-10 190h-488zM1184 1208h-58l-358 -524 h342z" />
<glyph unicode="&#xc7;" horiz-adv-x="1325" d="M1055 979l4 223q-40 12 -91.5 17.5t-88 6.5t-108.5 1h-23q-129 0 -208.5 -75.5t-99.5 -215.5l-67 -479q-34 -246 215 -246h98q194 0 295 176l236 -8l-27 -221q-107 -88 -242.5 -135.5t-269.5 -47.5h-113l-10 -47h76q159 0 141 -137l-4 -27q-12 -82 -53.5 -110.5 t-134.5 -30.5q-99 0 -226 29l4 76h213q28 0 48.5 17t23.5 42v8q5 25 -4.5 34t-42.5 9h-172l45 139q-222 17 -313.5 145t-59.5 374l62 432q74 528 594 528h86q249 0 503 -76l-51 -401h-235z" />
<glyph unicode="&#xc8;" horiz-adv-x="1316" d="M954 1591l-116 -69l-275 219l2 37l211 98zM1272 1018h-174l-11 190h-487l-51 -366h381l-35 -242h-379l-53 -375h498l61 191h178l-57 -416h-1149l24 203q39 5 91 10t65 6l152 998q-19 3 -69.5 8t-90.5 10l24 199h1139z" />
<glyph unicode="&#xc9;" horiz-adv-x="1316" d="M1081 1780l-4 -39l-342 -223l-110 73l262 291zM1272 1018h-174l-11 190h-487l-51 -366h381l-35 -242h-379l-53 -375h498l61 191h178l-57 -416h-1149l24 203q39 5 91 10t65 6l152 998q-19 3 -69.5 8t-90.5 10l24 199h1139z" />
<glyph unicode="&#xca;" horiz-adv-x="1316" d="M1040 1526l-219 176l-268 -176l-78 73l277 256h174l207 -256zM1272 1018h-174l-11 190h-487l-51 -366h381l-35 -242h-379l-53 -375h498l61 191h178l-57 -416h-1149l24 203q39 5 91 10t65 6l152 998q-19 3 -69.5 8t-90.5 10l24 199h1139z" />
<glyph unicode="&#xcb;" horiz-adv-x="1316" d="M596 1567q-64 0 -102 39t-31 100q9 53 50.5 84t98.5 31q63 0 100.5 -40t28.5 -102q-6 -51 -47.5 -81.5t-97.5 -30.5zM1022 1567q-61 0 -98.5 39.5t-30.5 99.5q7 52 49 83.5t98 31.5q64 0 102 -40t29 -102q-7 -51 -49 -81.5t-100 -30.5zM1272 1018h-174l-11 190h-487 l-51 -366h381l-35 -242h-379l-53 -375h498l61 191h178l-57 -416h-1149l24 203q39 5 91 10t65 6l152 998q-19 3 -69.5 8t-90.5 10l24 199h1139z" />
<glyph unicode="&#xcc;" horiz-adv-x="727" d="M664 1591l-117 -69l-275 219l2 37l211 98zM791 1434l-25 -203q-130 -15 -160 -17l-149 -995q45 -3 155 -20l-22 -199h-596l24 203q108 12 156 16l152 995q-42 3 -160 21l24 199h601z" />
<glyph unicode="&#xcd;" horiz-adv-x="727" d="M791 1780l-5 -39l-342 -223l-110 73l262 291zM791 1434l-25 -203q-130 -15 -160 -17l-149 -995q45 -3 155 -20l-22 -199h-596l24 203q108 12 156 16l152 995q-42 3 -160 21l24 199h601z" />
<glyph unicode="&#xce;" horiz-adv-x="727" d="M750 1526l-220 176l-268 -176l-78 73l277 256h174l207 -256zM791 1434l-25 -203q-130 -15 -160 -17l-149 -995q45 -3 155 -20l-22 -199h-596l24 203q108 12 156 16l152 995q-42 3 -160 21l24 199h601z" />
<glyph unicode="&#xcf;" horiz-adv-x="727" d="M305 1567q-64 0 -102 39t-31 100q9 53 51 84t99 31q63 0 100.5 -40t28.5 -102q-6 -51 -48 -81.5t-98 -30.5zM731 1567q-61 0 -98.5 39.5t-30.5 99.5q7 52 49.5 83.5t98.5 31.5q64 0 102 -40t29 -102q-7 -51 -49.5 -81.5t-100.5 -30.5zM791 1434l-25 -203 q-130 -15 -160 -17l-149 -995q45 -3 155 -20l-22 -199h-596l24 203q108 12 156 16l152 995q-42 3 -160 21l24 199h601z" />
<glyph unicode="&#xd0;" horiz-adv-x="1470" d="M190 1434h795q263 -1 370 -127t70 -389l-59 -426q-38 -257 -174 -374.5t-395 -117.5h-803l24 203q74 9 162 18l62 402h-148l23 161h147l66 430q-14 2 -68.5 8.5t-95.5 12.5zM1085 485l66 473q34 244 -215 244h-330l-59 -418h162l-23 -161h-162l-55 -392h319 q123 0 200.5 66.5t96.5 187.5z" />
<glyph unicode="&#xd1;" horiz-adv-x="1622" d="M1356 1751l-172 -168q-48 -45 -113 -45q-32 0 -54.5 15t-66.5 58t-86 75l-211 -140l-75 74l151 152q69 63 131 63q36 0 61.5 -15.5t69.5 -60t78 -71.5l209 135zM1683 1434l-24 -203q-102 -14 -164 -19l-174 -1212h-293l-487 991l-111 -776q26 -3 127 -16l-22 -199h-541 l24 203q112 12 162 16l150 995q-43 5 -164 21l24 199h428l512 -1033l117 818q-28 3 -133 16l23 199h546z" />
<glyph unicode="&#xd2;" horiz-adv-x="1447" d="M1024 1591l-117 -69l-274 219l2 37l211 98zM752 -25h-191q-261 0 -380 147t-85 408l54 375q37 266 191 408.5t419 142.5h190q258 0 373.5 -149t79.5 -416l-53 -373q-36 -261 -188.5 -402t-409.5 -141zM602 227h146q138 0 217 69.5t102 215.5l59 418q20 147 -35.5 211.5 t-195.5 64.5h-145q-135 0 -216.5 -75.5t-101.5 -215.5l-57 -417q-21 -144 33.5 -207.5t193.5 -63.5z" />
<glyph unicode="&#xd3;" horiz-adv-x="1447" d="M1153 1780l-4 -39l-342 -223l-111 73l262 291zM752 -25h-191q-261 0 -380 147t-85 408l54 375q37 266 191 408.5t419 142.5h190q258 0 373.5 -149t79.5 -416l-53 -373q-36 -261 -188.5 -402t-409.5 -141zM602 227h146q138 0 217 69.5t102 215.5l59 418 q20 147 -35.5 211.5t-195.5 64.5h-145q-135 0 -216.5 -75.5t-101.5 -215.5l-57 -417q-21 -144 33.5 -207.5t193.5 -63.5z" />
<glyph unicode="&#xd4;" horiz-adv-x="1447" d="M1110 1526l-219 176l-268 -176l-78 73l276 256h174l207 -256zM752 -25h-191q-261 0 -380 147t-85 408l54 375q37 266 191 408.5t419 142.5h190q258 0 373.5 -149t79.5 -416l-53 -373q-36 -261 -188.5 -402t-409.5 -141zM602 227h146q138 0 217 69.5t102 215.5l59 418 q20 147 -35.5 211.5t-195.5 64.5h-145q-135 0 -216.5 -75.5t-101.5 -215.5l-57 -417q-21 -144 33.5 -207.5t193.5 -63.5z" />
<glyph unicode="&#xd5;" horiz-adv-x="1447" d="M1276 1751l-172 -168q-48 -45 -113 -45q-32 0 -54.5 15t-66.5 58t-86 75l-211 -140l-75 74l151 152q69 63 131 63q36 0 61.5 -15.5t69.5 -60t78 -71.5l209 135zM752 -25h-191q-261 0 -380 147t-85 408l54 375q37 266 191 408.5t419 142.5h190q258 0 373.5 -149t79.5 -416 l-53 -373q-36 -261 -188.5 -402t-409.5 -141zM602 227h146q138 0 217 69.5t102 215.5l59 418q20 147 -35.5 211.5t-195.5 64.5h-145q-135 0 -216.5 -75.5t-101.5 -215.5l-57 -417q-21 -144 33.5 -207.5t193.5 -63.5z" />
<glyph unicode="&#xd6;" horiz-adv-x="1447" d="M666 1567q-64 0 -102.5 39t-31.5 100q9 53 51 84t99 31q63 0 100.5 -40t28.5 -102q-6 -51 -47.5 -81.5t-97.5 -30.5zM1092 1567q-61 0 -98.5 39.5t-30.5 99.5q7 52 49 83.5t98 31.5q64 0 102 -40t29 -102q-7 -51 -49 -81.5t-100 -30.5zM752 -25h-191q-261 0 -380 147 t-85 408l54 375q37 266 191 408.5t419 142.5h190q258 0 373.5 -149t79.5 -416l-53 -373q-36 -261 -188.5 -402t-409.5 -141zM602 227h146q138 0 217 69.5t102 215.5l59 418q20 147 -35.5 211.5t-195.5 64.5h-145q-135 0 -216.5 -75.5t-101.5 -215.5l-57 -417 q-21 -144 33.5 -207.5t193.5 -63.5z" />
<glyph unicode="&#xd7;" horiz-adv-x="1183" d="M225 238l-127 145l375 326l-285 323l168 152l281 -330l371 332l129 -148l-377 -325l284 -326l-167 -149l-279 329z" />
<glyph unicode="&#xd8;" horiz-adv-x="1447" d="M1505 1491l-174 -199q103 -145 68 -401l-53 -373q-36 -261 -188.5 -402t-409.5 -141h-191q-195 0 -311 84l-105 -118h-108l151 172q-127 145 -92 417l53 375q37 266 191.5 408.5t419.5 142.5h190q214 0 328 -102l121 137h110zM428 915l-57 -417q-15 -104 8 -164l708 807 q-56 65 -196 65h-146q-135 0 -216 -75.5t-101 -215.5zM1063 512l59 418q9 74 0 127l-692 -789q52 -41 168 -41h145q138 0 217.5 69.5t102.5 215.5z" />
<glyph unicode="&#xd9;" horiz-adv-x="1550" d="M1090 1591l-117 -69l-275 219l2 37l211 98zM1618 1434l-25 -203q-16 -2 -64.5 -8t-72.5 -9l-106 -716q-38 -270 -177.5 -396.5t-398.5 -126.5h-115q-263 0 -374 133t-74 404l104 705q-143 16 -155 18l24 199h607l-25 -203q-147 -15 -168 -17l-113 -751q-17 -122 37 -189 t176 -67h90q120 0 200 73.5t97 196.5l109 742q-30 3 -139 16l22 199h541z" />
<glyph unicode="&#xda;" horiz-adv-x="1550" d="M1219 1780l-5 -39l-342 -223l-110 73l262 291zM1618 1434l-25 -203q-16 -2 -64.5 -8t-72.5 -9l-106 -716q-38 -270 -177.5 -396.5t-398.5 -126.5h-115q-263 0 -374 133t-74 404l104 705q-143 16 -155 18l24 199h607l-25 -203q-147 -15 -168 -17l-113 -751 q-17 -122 37 -189t176 -67h90q120 0 200 73.5t97 196.5l109 742q-30 3 -139 16l22 199h541z" />
<glyph unicode="&#xdb;" horiz-adv-x="1550" d="M1176 1526l-220 176l-268 -176l-78 73l277 256h174l207 -256zM1618 1434l-25 -203q-16 -2 -64.5 -8t-72.5 -9l-106 -716q-38 -270 -177.5 -396.5t-398.5 -126.5h-115q-263 0 -374 133t-74 404l104 705q-143 16 -155 18l24 199h607l-25 -203q-147 -15 -168 -17l-113 -751 q-17 -122 37 -189t176 -67h90q120 0 200 73.5t97 196.5l109 742q-30 3 -139 16l22 199h541z" />
<glyph unicode="&#xdc;" horiz-adv-x="1550" d="M731 1567q-64 0 -102 39t-31 100q9 53 51 84t99 31q63 0 100.5 -40t28.5 -102q-6 -51 -48 -81.5t-98 -30.5zM1157 1567q-61 0 -98.5 39.5t-30.5 99.5q7 52 49.5 83.5t98.5 31.5q64 0 102 -40t29 -102q-7 -51 -49.5 -81.5t-100.5 -30.5zM1618 1434l-25 -203 q-16 -2 -64.5 -8t-72.5 -9l-106 -716q-38 -270 -177.5 -396.5t-398.5 -126.5h-115q-263 0 -374 133t-74 404l104 705q-143 16 -155 18l24 199h607l-25 -203q-147 -15 -168 -17l-113 -751q-17 -122 37 -189t176 -67h90q120 0 200 73.5t97 196.5l109 742q-30 3 -139 16l22 199 h541z" />
<glyph unicode="&#xdd;" horiz-adv-x="1458" d="M1163 1780l-4 -39l-342 -223l-110 73l262 291zM723 1434l-25 -203q-44 -4 -120 -8l180 -512h8l332 510q-31 2 -129 14l24 199h555l-22 -203q-98 -14 -156 -19l-510 -710l-47 -283q51 -4 154 -20l-23 -199h-594l25 203q111 13 155 16l45 273l-299 725q-60 5 -139 18 l23 199h563z" />
<glyph unicode="&#xde;" horiz-adv-x="1325" d="M594 1165h293q245 0 339 -91.5t64 -307.5l-20 -145q-32 -204 -144.5 -283.5t-355.5 -79.5h-301l-37 -258h-438l24 203q45 7 156 16l152 995q-114 13 -160 21l24 199h443zM1012 670l14 94q12 98 -20.5 137t-139.5 39h-303l-65 -455h293q106 0 156.5 45t64.5 140z" />
<glyph unicode="&#xdf;" horiz-adv-x="1406" d="M287 1075l6 41q28 198 166.5 290.5t419.5 92.5h104q393 0 344 -352l-8 -70q-21 -139 -77 -207.5t-150 -91.5q56 -6 97 -23t71 -50.5t40.5 -88t-0.5 -129.5l-16 -122q-28 -205 -118.5 -291t-276.5 -86q-73 0 -143 8.5t-112.5 18.5t-111.5 28l21 174h284q166 0 191 168 l18 129q13 92 -23 126t-124 34h-133q-44 0 -70.5 24.5t-21.5 61.5l18 119l184 14q94 6 142.5 54.5t62.5 142.5l4 32q12 92 -29.5 132t-150.5 40h-72q-116 0 -185.5 -67.5t-86.5 -192.5l-145 -1044q-15 -72 -41.5 -126t-54 -83.5t-61.5 -47.5t-59.5 -23t-52.5 -5 q-113 0 -209 16l31 193h29q65 0 98.5 16.5t40.5 59.5l131 876l-127 17l27 192h129z" />
<glyph unicode="&#xe0;" horiz-adv-x="1259" d="M791 1192l-275 217l2 39l211 96l178 -282zM160 758l37 289q104 25 238 39t235 14h84q176 0 253 -102.5t52 -284.5l-62 -416q-8 -57 10 -82t74 -25h82l-26 -174q-98 -34 -193 -34q-28 0 -53 3t-56.5 14.5t-53.5 30t-36.5 52.5t-13.5 80q-119 -97 -210.5 -137.5 t-207.5 -40.5h-34q-52 0 -90 4.5t-73 17t-54.5 34t-35 55.5t-15 82t6.5 112l7 33q10 70 32.5 120t49.5 79.5t72.5 50t84.5 29t101 17.5q71 8 133 14.5t140 15t138 14.5l12 51q17 111 -19.5 150.5t-139.5 39.5q-131 0 -232 -29l-37 -116h-200zM416 180h30q126 0 283 139 l37 195q-78 -9 -281 -37q-88 -12 -129 -44t-51 -99l-2 -31q-12 -72 12 -97.5t101 -25.5z" />
<glyph unicode="&#xe1;" horiz-adv-x="1259" d="M961 1448l-3 -39l-333 -217l-103 70l252 282zM160 758l37 289q104 25 238 39t235 14h84q176 0 253 -102.5t52 -284.5l-62 -416q-8 -57 10 -82t74 -25h82l-26 -174q-98 -34 -193 -34q-28 0 -53 3t-56.5 14.5t-53.5 30t-36.5 52.5t-13.5 80q-119 -97 -210.5 -137.5 t-207.5 -40.5h-34q-52 0 -90 4.5t-73 17t-54.5 34t-35 55.5t-15 82t6.5 112l7 33q10 70 32.5 120t49.5 79.5t72.5 50t84.5 29t101 17.5q71 8 133 14.5t140 15t138 14.5l12 51q17 111 -19.5 150.5t-139.5 39.5q-131 0 -232 -29l-37 -116h-200zM416 180h30q126 0 283 139 l37 195q-78 -9 -281 -37q-88 -12 -129 -44t-51 -99l-2 -31q-12 -72 12 -97.5t101 -25.5z" />
<glyph unicode="&#xe2;" horiz-adv-x="1259" d="M911 1200l-215 172l-260 -172l-74 70l269 250h164l202 -250zM160 758l37 289q104 25 238 39t235 14h84q176 0 253 -102.5t52 -284.5l-62 -416q-8 -57 10 -82t74 -25h82l-26 -174q-98 -34 -193 -34q-28 0 -53 3t-56.5 14.5t-53.5 30t-36.5 52.5t-13.5 80 q-119 -97 -210.5 -137.5t-207.5 -40.5h-34q-52 0 -90 4.5t-73 17t-54.5 34t-35 55.5t-15 82t6.5 112l7 33q10 70 32.5 120t49.5 79.5t72.5 50t84.5 29t101 17.5q71 8 133 14.5t140 15t138 14.5l12 51q17 111 -19.5 150.5t-139.5 39.5q-131 0 -232 -29l-37 -116h-200z M416 180h30q126 0 283 139l37 195q-78 -9 -281 -37q-88 -12 -129 -44t-51 -99l-2 -31q-12 -72 12 -97.5t101 -25.5z" />
<glyph unicode="&#xe3;" horiz-adv-x="1259" d="M1112 1438l-164 -164q-51 -43 -108 -43q-31 0 -61.5 20.5t-74.5 63.5t-69 63l-205 -139l-72 70l164 161q50 50 111 50q35 0 68.5 -22.5t76 -65.5t60.5 -58l202 133zM160 758l37 289q104 25 238 39t235 14h84q176 0 253 -102.5t52 -284.5l-62 -416q-8 -57 10 -82t74 -25 h82l-26 -174q-98 -34 -193 -34q-28 0 -53 3t-56.5 14.5t-53.5 30t-36.5 52.5t-13.5 80q-119 -97 -210.5 -137.5t-207.5 -40.5h-34q-52 0 -90 4.5t-73 17t-54.5 34t-35 55.5t-15 82t6.5 112l7 33q10 70 32.5 120t49.5 79.5t72.5 50t84.5 29t101 17.5q71 8 133 14.5t140 15 t138 14.5l12 51q17 111 -19.5 150.5t-139.5 39.5q-131 0 -232 -29l-37 -116h-200zM416 180h30q126 0 283 139l37 195q-78 -9 -281 -37q-88 -12 -129 -44t-51 -99l-2 -31q-12 -72 12 -97.5t101 -25.5z" />
<glyph unicode="&#xe4;" horiz-adv-x="1259" d="M485 1245q-58 0 -94 36.5t-29 92.5q7 48 46 77.5t90 29.5q59 0 94 -37.5t26 -95.5q-6 -46 -43.5 -74.5t-89.5 -28.5zM887 1245q-57 0 -91.5 36.5t-27.5 92.5q6 48 43 77.5t88 29.5q59 0 94.5 -37.5t28.5 -95.5q-6 -47 -44 -75t-91 -28zM160 758l37 289q104 25 238 39 t235 14h84q176 0 253 -102.5t52 -284.5l-62 -416q-8 -57 10 -82t74 -25h82l-26 -174q-98 -34 -193 -34q-28 0 -53 3t-56.5 14.5t-53.5 30t-36.5 52.5t-13.5 80q-119 -97 -210.5 -137.5t-207.5 -40.5h-34q-52 0 -90 4.5t-73 17t-54.5 34t-35 55.5t-15 82t6.5 112l7 33 q10 70 32.5 120t49.5 79.5t72.5 50t84.5 29t101 17.5q71 8 133 14.5t140 15t138 14.5l12 51q17 111 -19.5 150.5t-139.5 39.5q-131 0 -232 -29l-37 -116h-200zM416 180h30q126 0 283 139l37 195q-78 -9 -281 -37q-88 -12 -129 -44t-51 -99l-2 -31q-12 -72 12 -97.5 t101 -25.5z" />
<glyph unicode="&#xe5;" horiz-adv-x="1259" d="M707 1198h-64q-73 0 -110 43t-27 119l6 45q21 147 172 147h64q73 0 109.5 -43.5t27.5 -117.5l-8 -45q-18 -148 -170 -148zM653 1290h56q32 0 48.5 15t22.5 49l6 49q4 33 -9.5 47t-47.5 14h-39q-40 0 -57.5 -15t-22.5 -50l-8 -49q-4 -33 8.5 -46.5t42.5 -13.5zM160 758 l37 289q104 25 238 39t235 14h84q176 0 253 -102.5t52 -284.5l-62 -416q-8 -57 10 -82t74 -25h82l-26 -174q-98 -34 -193 -34q-28 0 -53 3t-56.5 14.5t-53.5 30t-36.5 52.5t-13.5 80q-119 -97 -210.5 -137.5t-207.5 -40.5h-34q-52 0 -90 4.5t-73 17t-54.5 34t-35 55.5 t-15 82t6.5 112l7 33q10 70 32.5 120t49.5 79.5t72.5 50t84.5 29t101 17.5q71 8 133 14.5t140 15t138 14.5l12 51q17 111 -19.5 150.5t-139.5 39.5q-131 0 -232 -29l-37 -116h-200zM416 180h30q126 0 283 139l37 195q-78 -9 -281 -37q-88 -12 -129 -44t-51 -99l-2 -31 q-12 -72 12 -97.5t101 -25.5z" />
<glyph unicode="&#xe6;" horiz-adv-x="1898" d="M205 758l37 289q104 25 238 39t235 14h76q178 0 223 -119q119 119 350 119h66q242 0 336 -97.5t65 -310.5l-37 -260h-737l-13 -84q-13 -97 34.5 -139.5t146.5 -42.5h84q149 0 207 104l16 33h215l-25 -184q-165 -144 -422 -144h-116q-331 0 -385 201 q-128 -95 -228.5 -143.5t-212.5 -48.5h-34q-40 0 -69.5 2t-59.5 7t-50.5 14t-39.5 24t-29.5 36.5t-16.5 50.5t-5.5 67.5t7.5 86.5l9 50q10 70 32 120.5t51 81t72.5 50t85 27.5t99.5 13q184 16 413 21l11 78q15 111 -21.5 150.5t-138.5 39.5q-130 0 -232 -29l-36 -116h-201z M1571 612l16 123q27 191 -168 191h-63q-102 0 -173.5 -58t-86.5 -157l-15 -99h490zM461 180h31q71 0 138 28.5t154 90.5q0 30 11 98l12 88q-239 -16 -315 -34q-41 -6 -63 -12t-43 -19t-31 -35.5t-15 -58.5l-2 -23q-11 -75 13 -99t110 -24z" />
<glyph unicode="&#xe7;" horiz-adv-x="1116" d="M844 694l4 178q-89 23 -219 23q-109 0 -172 -58t-80 -188l-39 -258q-9 -50 -3 -85.5t17 -58.5t36 -36t53.5 -18t68.5 -5h57q70 0 124.5 27.5t82.5 81.5l14 22h218l-23 -200q-91 -65 -204.5 -104.5t-225.5 -39.5h-94l-10 -47h75q80 0 115.5 -34t26.5 -103l-4 -27 q-12 -82 -54 -110.5t-135 -30.5q-98 0 -225 29l4 76h213q28 0 48.5 17t23.5 42v8q5 25 -5 34t-43 9h-172l48 142q-181 17 -251 125.5t-40 316.5l35 256q30 207 159 314.5t334 107.5h94q177 0 394 -68l-43 -338h-203z" />
<glyph unicode="&#xe8;" horiz-adv-x="1177" d="M842 1262l-117 -70l-274 217l2 39l211 96zM643 1100h68q231 0 328.5 -109.5t66.5 -331.5l-35 -243h-737l-6 -56q-27 -188 178 -188h82q153 0 207 98l16 33h215l-22 -184q-85 -73 -201 -108.5t-240 -35.5h-61q-261 0 -359.5 118t-62.5 378l26 180q32 231 164.5 340 t372.5 109zM858 606l16 123q13 92 -37 137t-151 45h-61q-102 0 -169.5 -54.5t-80.5 -151.5l-13 -99h496z" />
<glyph unicode="&#xe9;" horiz-adv-x="1177" d="M934 1448l-2 -39l-334 -217l-102 70l252 282zM643 1100h68q231 0 328.5 -109.5t66.5 -331.5l-35 -243h-737l-6 -56q-27 -188 178 -188h82q153 0 207 98l16 33h215l-22 -184q-85 -73 -201 -108.5t-240 -35.5h-61q-261 0 -359.5 118t-62.5 378l26 180q32 231 164.5 340 t372.5 109zM858 606l16 123q13 92 -37 137t-151 45h-61q-102 0 -169.5 -54.5t-80.5 -151.5l-13 -99h496z" />
<glyph unicode="&#xea;" horiz-adv-x="1177" d="M938 1200l-215 172l-260 -172l-74 70l268 250h164l203 -250zM643 1100h68q231 0 328.5 -109.5t66.5 -331.5l-35 -243h-737l-6 -56q-27 -188 178 -188h82q153 0 207 98l16 33h215l-22 -184q-85 -73 -201 -108.5t-240 -35.5h-61q-261 0 -359.5 118t-62.5 378l26 180 q32 231 164.5 340t372.5 109zM858 606l16 123q13 92 -37 137t-151 45h-61q-102 0 -169.5 -54.5t-80.5 -151.5l-13 -99h496z" />
<glyph unicode="&#xeb;" horiz-adv-x="1177" d="M512 1245q-58 0 -94 36.5t-29 92.5q7 48 45.5 77.5t89.5 29.5q59 0 94.5 -37.5t26.5 -95.5q-6 -46 -43.5 -74.5t-89.5 -28.5zM913 1245q-56 0 -90.5 36.5t-27.5 92.5q6 48 43 77.5t88 29.5q59 0 94.5 -37.5t28.5 -95.5q-6 -46 -44.5 -74.5t-91.5 -28.5zM643 1100h68 q231 0 328.5 -109.5t66.5 -331.5l-35 -243h-737l-6 -56q-27 -188 178 -188h82q153 0 207 98l16 33h215l-22 -184q-85 -73 -201 -108.5t-240 -35.5h-61q-261 0 -359.5 118t-62.5 378l26 180q32 231 164.5 340t372.5 109zM858 606l16 123q13 92 -37 137t-151 45h-61 q-102 0 -169.5 -54.5t-80.5 -151.5l-13 -99h496z" />
<glyph unicode="&#xec;" horiz-adv-x="663" d="M506 1262l-117 -70l-274 217l2 39l211 96zM516 1075l-115 -778q-6 -57 11.5 -82t74.5 -25h82l-22 -192q-96 -16 -209 -16q-49 0 -89.5 13t-74 41t-47.5 81t-2 125l96 626q-23 1 -65.5 8t-59.5 9l21 190h399z" />
<glyph unicode="&#xed;" horiz-adv-x="663" d="M692 1448l-2 -39l-334 -217l-102 70l252 282zM516 1075l-115 -778q-6 -57 11.5 -82t74.5 -25h82l-22 -192q-96 -16 -209 -16q-49 0 -89.5 13t-74 41t-47.5 81t-2 125l96 626q-23 1 -65.5 8t-59.5 9l21 190h399z" />
<glyph unicode="&#xee;" horiz-adv-x="663" d="M672 1200l-215 172l-260 -172l-74 70l268 250h164l203 -250zM516 1075l-115 -778q-6 -57 11.5 -82t74.5 -25h82l-22 -192q-96 -16 -209 -16q-49 0 -89.5 13t-74 41t-47.5 81t-2 125l96 626q-23 1 -65.5 8t-59.5 9l21 190h399z" />
<glyph unicode="&#xef;" horiz-adv-x="663" d="M246 1245q-58 0 -94 36.5t-29 92.5q7 48 45.5 77.5t89.5 29.5q59 0 94.5 -37.5t26.5 -95.5q-6 -46 -43.5 -74.5t-89.5 -28.5zM647 1245q-57 0 -91.5 36.5t-27.5 92.5q6 48 43 77.5t88 29.5q59 0 94.5 -37.5t28.5 -95.5q-6 -47 -44 -75t-91 -28zM516 1075l-115 -778 q-6 -57 11.5 -82t74.5 -25h82l-22 -192q-96 -16 -209 -16q-49 0 -89.5 13t-74 41t-47.5 81t-2 125l96 626q-23 1 -65.5 8t-59.5 9l21 190h399z" />
<glyph unicode="&#xf0;" horiz-adv-x="1257" d="M1247 1423l35 -149q-67 -22 -141 -47q77 -183 47 -391l-51 -367q-22 -149 -54.5 -239t-94 -148.5t-150 -80t-228.5 -21.5h-84q-278 0 -381 109t-71 339l32 229q25 189 125 273t275 84h33q113 0 192.5 -26.5t196.5 -88.5l6 47q8 74 2 120t-33 105q-94 -26 -297 -75l-24 90 l256 90q-54 36 -174 78l61 135q216 -57 319 -137zM858 410l49 321q-76 37 -136.5 54.5t-133.5 17.5h-33q-110 0 -165 -51.5t-74 -171.5l-25 -189q-17 -117 28.5 -159t168.5 -42h69q114 0 173 49t79 171z" />
<glyph unicode="&#xf1;" horiz-adv-x="1392" d="M1198 1438l-164 -164q-51 -43 -108 -43q-31 0 -61.5 20.5t-74.5 63.5t-69 63l-205 -139l-72 70l164 161q50 50 111 50q35 0 68.5 -22.5t76 -65.5t60.5 -58l202 133zM532 1075l-28 -162q128 87 238.5 137t218.5 50h22q276 0 231 -297l-73 -506q-8 -57 10 -82t74 -25h82 l-23 -174q-98 -34 -209 -34q-28 0 -55 4t-60 18.5t-56 37.5t-36 66.5t-6 100.5l64 463q8 57 10 88t-1 56t-17.5 35t-35.5 14.5t-59 4.5h-24q-117 0 -310 -122l-114 -748h-271l134 868q-23 1 -65.5 8t-59.5 9l20 190h399z" />
<glyph unicode="&#xf2;" horiz-adv-x="1236" d="M829 1262l-116 -70l-275 217l2 39l211 96zM596 -25h-90q-256 0 -359 120.5t-67 371.5l20 145q36 255 165.5 371.5t387.5 116.5h88q252 0 351 -123t63 -379l-20 -145q-35 -249 -162.5 -363.5t-376.5 -114.5zM514 178h92q104 0 169.5 53.5t80.5 151.5l43 317 q29 199 -180 199h-92q-104 0 -168 -56t-78 -157l-45 -315q-15 -98 29 -145.5t149 -47.5z" />
<glyph unicode="&#xf3;" horiz-adv-x="1236" d="M985 1448l-2 -39l-334 -217l-102 70l252 282zM596 -25h-90q-256 0 -359 120.5t-67 371.5l20 145q36 255 165.5 371.5t387.5 116.5h88q252 0 351 -123t63 -379l-20 -145q-35 -249 -162.5 -363.5t-376.5 -114.5zM514 178h92q104 0 169.5 53.5t80.5 151.5l43 317 q29 199 -180 199h-92q-104 0 -168 -56t-78 -157l-45 -315q-15 -98 29 -145.5t149 -47.5z" />
<glyph unicode="&#xf4;" horiz-adv-x="1236" d="M954 1200l-215 172l-260 -172l-73 70l268 250h164l202 -250zM596 -25h-90q-256 0 -359 120.5t-67 371.5l20 145q36 255 165.5 371.5t387.5 116.5h88q252 0 351 -123t63 -379l-20 -145q-35 -249 -162.5 -363.5t-376.5 -114.5zM514 178h92q104 0 169.5 53.5t80.5 151.5 l43 317q29 199 -180 199h-92q-104 0 -168 -56t-78 -157l-45 -315q-15 -98 29 -145.5t149 -47.5z" />
<glyph unicode="&#xf5;" horiz-adv-x="1236" d="M1112 1438l-164 -164q-51 -43 -108 -43q-31 0 -61.5 20.5t-74.5 63.5t-69 63l-205 -139l-72 70l164 161q50 50 111 50q35 0 68.5 -22.5t76 -65.5t60.5 -58l202 133zM596 -25h-90q-256 0 -359 120.5t-67 371.5l20 145q36 255 165.5 371.5t387.5 116.5h88q252 0 351 -123 t63 -379l-20 -145q-35 -249 -162.5 -363.5t-376.5 -114.5zM514 178h92q104 0 169.5 53.5t80.5 151.5l43 317q29 199 -180 199h-92q-104 0 -168 -56t-78 -157l-45 -315q-15 -98 29 -145.5t149 -47.5z" />
<glyph unicode="&#xf6;" horiz-adv-x="1236" d="M528 1245q-58 0 -93.5 36.5t-28.5 92.5q7 48 45.5 77.5t89.5 29.5q59 0 94.5 -37.5t26.5 -95.5q-6 -46 -44 -74.5t-90 -28.5zM930 1245q-57 0 -91.5 36.5t-27.5 92.5q6 48 43 77.5t88 29.5q59 0 94.5 -37.5t28.5 -95.5q-6 -47 -44 -75t-91 -28zM596 -25h-90 q-256 0 -359 120.5t-67 371.5l20 145q36 255 165.5 371.5t387.5 116.5h88q252 0 351 -123t63 -379l-20 -145q-35 -249 -162.5 -363.5t-376.5 -114.5zM514 178h92q104 0 169.5 53.5t80.5 151.5l43 317q29 199 -180 199h-92q-104 0 -168 -56t-78 -157l-45 -315 q-15 -98 29 -145.5t149 -47.5z" />
<glyph unicode="&#xf7;" horiz-adv-x="1204" d="M684 1014q-159 0 -137 151q7 65 44.5 95t110.5 30q159 0 138 -153q-9 -63 -47 -93t-109 -30zM129 817h1024l-29 -201h-1024zM563 154q-79 0 -114.5 38.5t-24.5 112.5q11 66 48 95.5t110 29.5q155 0 137 -154q-17 -122 -156 -122z" />
<glyph unicode="&#xf8;" horiz-adv-x="1257" d="M1255 1137l-151 -160q101 -122 63 -379l-20 -145q-35 -249 -162.5 -363.5t-376.5 -114.5h-90q-190 0 -299 68l-96 -102h-111l148 155q-106 121 -68 371l21 145q36 255 165.5 371.5t387.5 116.5h88q189 0 293 -70l100 107h108zM393 686l-45 -315q-7 -50 -2 -78l533 561 q-45 45 -148 45h-92q-104 0 -168 -56t-78 -157zM868 383l43 317q5 38 2 76l-528 -559q45 -39 141 -39h92q104 0 169.5 53.5t80.5 151.5z" />
<glyph unicode="&#xf9;" horiz-adv-x="1386" d="M891 1262l-117 -70l-274 217l2 39l211 96zM1251 1075l-114 -778q-6 -57 11.5 -82t74.5 -25h88l-23 -174q-98 -34 -209 -34q-199 0 -213 178l2 18q-72 -42 -109.5 -62.5t-106 -53.5t-128 -47.5t-116.5 -14.5h-25q-149 0 -201.5 66.5t-29.5 230.5l86 571q-34 5 -144 17 l21 190h415l-90 -647q-8 -56 -10 -87.5t1 -56.5t17.5 -35t35.5 -15t59 -5h24q115 0 307 123l82 516q-36 6 -141 17l21 190h415z" />
<glyph unicode="&#xfa;" horiz-adv-x="1386" d="M1032 1448l-2 -39l-334 -217l-102 70l252 282zM1251 1075l-114 -778q-6 -57 11.5 -82t74.5 -25h88l-23 -174q-98 -34 -209 -34q-199 0 -213 178l2 18q-72 -42 -109.5 -62.5t-106 -53.5t-128 -47.5t-116.5 -14.5h-25q-149 0 -201.5 66.5t-29.5 230.5l86 571q-34 5 -144 17 l21 190h415l-90 -647q-8 -56 -10 -87.5t1 -56.5t17.5 -35t35.5 -15t59 -5h24q115 0 307 123l82 516q-36 6 -141 17l21 190h415z" />
<glyph unicode="&#xfb;" horiz-adv-x="1386" d="M1014 1200l-215 172l-260 -172l-74 70l268 250h164l203 -250zM1251 1075l-114 -778q-6 -57 11.5 -82t74.5 -25h88l-23 -174q-98 -34 -209 -34q-199 0 -213 178l2 18q-72 -42 -109.5 -62.5t-106 -53.5t-128 -47.5t-116.5 -14.5h-25q-149 0 -201.5 66.5t-29.5 230.5l86 571 q-34 5 -144 17l21 190h415l-90 -647q-8 -56 -10 -87.5t1 -56.5t17.5 -35t35.5 -15t59 -5h24q115 0 307 123l82 516q-36 6 -141 17l21 190h415z" />
<glyph unicode="&#xfc;" horiz-adv-x="1386" d="M588 1245q-58 0 -94 36.5t-29 92.5q7 48 45.5 77.5t89.5 29.5q59 0 94.5 -37.5t26.5 -95.5q-6 -46 -43.5 -74.5t-89.5 -28.5zM989 1245q-57 0 -91.5 36.5t-27.5 92.5q6 48 43 77.5t88 29.5q59 0 94.5 -37.5t28.5 -95.5q-6 -47 -44 -75t-91 -28zM1251 1075l-114 -778 q-6 -57 11.5 -82t74.5 -25h88l-23 -174q-98 -34 -209 -34q-199 0 -213 178l2 18q-72 -42 -109.5 -62.5t-106 -53.5t-128 -47.5t-116.5 -14.5h-25q-149 0 -201.5 66.5t-29.5 230.5l86 571q-34 5 -144 17l21 190h415l-90 -647q-8 -56 -10 -87.5t1 -56.5t17.5 -35t35.5 -15 t59 -5h24q115 0 307 123l82 516q-36 6 -141 17l21 190h415z" />
<glyph unicode="&#xfd;" horiz-adv-x="1290" d="M1008 1409l-334 -217l-103 70l252 282l187 -96zM1276 1075l-146 -1030q-29 -209 -150.5 -307t-334.5 -98h-74q-286 0 -424 153l19 158h219v-35q20 -45 68 -63.5t141 -18.5h47q86 0 145.5 53t73.5 162l19 88q-117 -48 -210 -71t-204 -23h-35q-148 0 -207.5 80t-36.5 246 l76 499q-6 1 -57 7t-86 10l20 190h416l-84 -598q-15 -117 8.5 -161t110.5 -44h35q72 0 130.5 18t143.5 68l82 510q-136 17 -141 17l20 190h416z" />
<glyph unicode="&#xfe;" horiz-adv-x="1290" d="M954 1100h33q139 0 203.5 -97t36.5 -296l-56 -385q-22 -170 -115 -254t-233 -84h-32q-116 0 -191 25t-184 91l-39 -266q18 -2 135 -16l-23 -191h-542l20 195l139 12l207 1395q-37 3 -127 16l23 189h397l-71 -500q118 82 214 124t205 42zM920 446l28 197q18 135 -3.5 181 t-108.5 46h-31q-69 0 -137 -25t-154 -79l-74 -496q69 -47 121.5 -61t130.5 -14h35q88 0 130.5 56t62.5 195z" />
<glyph unicode="&#xff;" horiz-adv-x="1290" d="M586 1245q-58 0 -94 36.5t-29 92.5q7 48 45.5 77.5t89.5 29.5q59 0 94.5 -37.5t26.5 -95.5q-6 -46 -43.5 -74.5t-89.5 -28.5zM987 1245q-57 0 -91.5 36.5t-27.5 92.5q6 48 43 77.5t88 29.5q59 0 94.5 -37.5t28.5 -95.5q-6 -47 -44 -75t-91 -28zM1276 1075l-146 -1030 q-29 -209 -150.5 -307t-334.5 -98h-74q-286 0 -424 153l19 158h219v-35q20 -45 68 -63.5t141 -18.5h47q86 0 145.5 53t73.5 162l19 88q-117 -48 -210 -71t-204 -23h-35q-148 0 -207.5 80t-36.5 246l76 499q-6 1 -57 7t-86 10l20 190h416l-84 -598q-15 -117 8.5 -161 t110.5 -44h35q72 0 130.5 18t143.5 68l82 510q-136 17 -141 17l20 190h416z" />
<glyph unicode="&#x131;" horiz-adv-x="663" d="M516 1075l-115 -778q-6 -57 11.5 -82t74.5 -25h82l-22 -192q-96 -16 -209 -16q-49 0 -89.5 13t-74 41t-47.5 81t-2 125l96 626q-23 1 -65.5 8t-59.5 9l21 190h399z" />
<glyph unicode="&#x152;" horiz-adv-x="2009" d="M1243 842h381l-35 -242h-379l-53 -375h498l59 191h180l-57 -416h-1241q-287 0 -412 124t-94 365l64 459q36 245 189 365.5t443 120.5h1237l-57 -416h-176l-8 190h-488zM1012 1204h-232q-159 0 -250 -67t-106 -191l-68 -477q-17 -122 50.5 -181t228.5 -59h242z" />
<glyph unicode="&#x153;" horiz-adv-x="1966" d="M1438 1100h67q232 0 330 -110t66 -331l-33 -243h-738l-8 -56q-25 -188 181 -188h81q153 0 205 98l17 33h215l-23 -184q-85 -73 -200 -108.5t-238 -35.5h-62q-240 0 -344 101q-128 -101 -358 -101h-90q-256 0 -359 120.5t-67 371.5l20 145q36 255 165.5 371.5t387.5 116.5 h88q232 0 332 -103q132 103 365 103zM1653 606l16 123q15 92 -35.5 137t-152.5 45h-60q-103 0 -170.5 -54.5t-79.5 -151.5l-14 -99h496zM514 176h92q104 0 169.5 54.5t80.5 152.5l43 317q29 199 -180 199h-92q-104 0 -168 -56t-78 -157l-45 -317q-14 -98 30 -145.5 t148 -47.5z" />
<glyph unicode="&#x178;" horiz-adv-x="1458" d="M676 1567q-64 0 -102 39t-31 100q9 53 50.5 84t98.5 31q63 0 100.5 -40t28.5 -102q-6 -51 -47.5 -81.5t-97.5 -30.5zM1102 1567q-61 0 -98.5 39.5t-30.5 99.5q7 52 49 83.5t98 31.5q64 0 102 -40t29 -102q-7 -51 -49 -81.5t-100 -30.5zM723 1434l-25 -203q-44 -4 -120 -8 l180 -512h8l332 510q-31 2 -129 14l24 199h555l-22 -203q-98 -14 -156 -19l-510 -710l-47 -283q51 -4 154 -20l-23 -199h-594l25 203q111 13 155 16l45 273l-299 725q-60 5 -139 18l23 199h563z" />
<glyph unicode="&#x192;" horiz-adv-x="1011" d="M973 911l-29 -211h-293l-129 -446q-43 -140 -106 -207t-185 -88q-60 -9 -140 -13.5t-103 -6.5l-23 149q23 5 40 9.5t36.5 10t36.5 9.5q41 11 67 24t42.5 33.5t25 37t20.5 50.5l134 438h-152l21 189q142 14 188 16l74 246q42 138 104 203.5t184 91.5q86 15 295 35l9 -187 q-27 -6 -162 -47q-54 -15 -84 -34.5t-43.5 -42t-26.5 -64.5l-59 -195h258z" />
<glyph unicode="&#x2c6;" d="M846 1200l-215 172l-260 -172l-74 70l268 250h164l203 -250z" />
<glyph unicode="&#x2c7;" d="M690 1200h-164l-204 248l88 72l213 -172l262 172l71 -72z" />
<glyph unicode="&#x2d8;" d="M940 1491l-8 -49q-15 -117 -98.5 -181.5t-219.5 -64.5q-143 0 -214 71t-54 189l4 35h152l-2 -18q-10 -63 20 -89t96 -26q71 0 118 32.5t54 96.5l3 4h149z" />
<glyph unicode="&#x2d9;" d="M616 1231q-64 0 -102 40.5t-29 102.5q7 56 50 89.5t100 33.5q67 0 105.5 -42t29.5 -107q-7 -53 -50.5 -85t-103.5 -32z" />
<glyph unicode="&#x2da;" d="M639 1186h-64q-73 0 -110 43t-27 119l6 45q21 147 172 147h64q73 0 109.5 -44t27.5 -118l-8 -45q-18 -147 -170 -147zM586 1278h55q32 0 49 14.5t23 48.5l6 50q4 33 -9.5 47t-47.5 14h-39q-39 0 -57 -15t-23 -51l-8 -49q-4 -33 8.5 -46t42.5 -13z" />
<glyph unicode="&#x2db;" d="M449 16l104 -6q-17 -12 -50.5 -36t-48.5 -35t-34.5 -28t-28 -30.5t-10.5 -27.5v-11q-3 -28 9.5 -38.5t49.5 -10.5q78 0 150 27l39 -84q-57 -37 -120.5 -58.5t-109.5 -21.5h-34q-81 0 -120.5 39.5t-31.5 109.5l2 13q10 74 71 120.5t163 77.5z" />
<glyph unicode="&#x2dc;" d="M1010 1438l-164 -164q-51 -43 -109 -43q-31 0 -61.5 20.5t-74.5 63.5t-69 63l-204 -139l-72 70l164 161q50 50 110 50q35 0 68.5 -22.5t76 -65.5t60.5 -58l203 133z" />
<glyph unicode="&#x2dd;" d="M672 1473l-4 -35l-293 -234l-86 68l239 272zM971 1473l-4 -35l-289 -234l-90 68l241 272z" />
<glyph unicode="&#x2000;" horiz-adv-x="943" />
<glyph unicode="&#x2001;" horiz-adv-x="1886" />
<glyph unicode="&#x2002;" horiz-adv-x="943" />
<glyph unicode="&#x2003;" horiz-adv-x="1886" />
<glyph unicode="&#x2004;" horiz-adv-x="628" />
<glyph unicode="&#x2005;" horiz-adv-x="471" />
<glyph unicode="&#x2006;" horiz-adv-x="314" />
<glyph unicode="&#x2007;" horiz-adv-x="314" />
<glyph unicode="&#x2008;" horiz-adv-x="235" />
<glyph unicode="&#x2009;" horiz-adv-x="172" />
<glyph unicode="&#x200a;" horiz-adv-x="712" />
<glyph unicode="&#x2010;" horiz-adv-x="774" d="M725 739l-31 -221h-618l30 221h619z" />
<glyph unicode="&#x2011;" horiz-adv-x="774" d="M725 739l-31 -221h-618l30 221h619z" />
<glyph unicode="&#x2012;" horiz-adv-x="774" d="M725 739l-31 -221h-618l30 221h619z" />
<glyph unicode="&#x2013;" horiz-adv-x="974" d="M926 733l-31 -211h-819l30 211h820z" />
<glyph unicode="&#x2014;" horiz-adv-x="1470" d="M1419 733l-30 -211h-1313l30 211h1313z" />
<glyph unicode="&#x2018;" horiz-adv-x="423" d="M428 1151l-53 -160q-25 -80 -113 -61q-83 16 -116.5 44t-24.5 89q23 166 278 389l66 -61q-84 -124 -111 -215z" />
<glyph unicode="&#x2019;" horiz-adv-x="423" d="M162 1225l53 157q24 75 113 62q84 -11 117 -39.5t24 -91.5q-19 -160 -279 -391l-65 61q90 133 111 217z" />
<glyph unicode="&#x201a;" horiz-adv-x="450" d="M-4 31l53 162q26 78 117 65q87 -14 121.5 -43.5t25.5 -93.5q-22 -169 -288 -402l-68 62q91 133 117 223z" />
<glyph unicode="&#x201c;" horiz-adv-x="772" d="M432 1143l-55 -160q-26 -84 -115 -68q-88 19 -122 47.5t-25 92.5q26 173 288 399l70 -61q-97 -141 -117 -224zM778 1143l-55 -160q-26 -84 -115 -68q-88 19 -122 47.5t-25 92.5q23 169 289 399l67 -61q-92 -134 -117 -224z" />
<glyph unicode="&#x201d;" horiz-adv-x="772" d="M154 1217l55 161q26 85 115 66q88 -16 122 -44.5t25 -92.5q-22 -168 -289 -402l-65 64q89 133 114 223zM500 1217l55 161q26 85 115 66q87 -16 121.5 -44.5t25.5 -92.5q-25 -170 -289 -402l-67 64q56 84 79.5 131t34.5 92z" />
<glyph unicode="&#x201e;" horiz-adv-x="786" d="M-4 31l53 162q26 78 117 65q87 -14 121.5 -43.5t25.5 -93.5q-22 -169 -288 -402l-68 62q91 133 117 223zM344 31l53 162q26 78 117 65q87 -14 122 -43.5t26 -93.5q-22 -168 -289 -402l-68 62q91 133 117 223z" />
<glyph unicode="&#x2020;" horiz-adv-x="835" d="M848 967h-109l-217 63l33 -201l-10 -81l-160 -590h-37v590l10 81l95 203l-238 -65h-106l28 196h107l219 -61l-31 223l12 109h197l-12 -109l-97 -223l236 61h109z" />
<glyph unicode="&#x2021;" horiz-adv-x="835" d="M522 1030l33 -201l-10 -100l-90 -199l233 62h107l-27 -197h-109l-219 64l31 -226l-14 -106h-197l14 106l95 228l-234 -66h-104l26 197h107l221 -62l-37 199l10 100l95 203l-238 -65h-106l28 196h107l219 -61l-31 223l12 109h197l-12 -109l-97 -223l236 61h109l-29 -196 h-109z" />
<glyph unicode="&#x2022;" horiz-adv-x="657" d="M385 328q-207 0 -295.5 94t-62.5 285q26 186 134.5 274t307.5 88q406 0 354 -389q-26 -180 -134 -266t-304 -86z" />
<glyph unicode="&#x2026;" horiz-adv-x="1273" d="M182 283q165 0 144 -162q-9 -68 -49.5 -99.5t-116.5 -31.5q-167 0 -146 157q9 70 50 103t118 33zM592 283q164 0 143 -162q-9 -68 -49.5 -99.5t-116.5 -31.5q-166 0 -145 157q9 70 50 103t118 33zM1004 283q166 0 145 -162q-10 -68 -51 -99.5t-117 -31.5q-167 0 -143 157 q9 70 49 103t117 33z" />
<glyph unicode="&#x202f;" horiz-adv-x="377" />
<glyph unicode="&#x2030;" horiz-adv-x="2750" d="M1655 1464l-629 -747l-602 -740h-113l627 740l602 747h115zM516 1458h135q171 -1 228 -84t30 -270l-22 -162q-27 -184 -101.5 -260t-244.5 -76h-135q-175 0 -234.5 82t-34.5 268l23 162q18 126 55 198t109 107t192 35zM616 1286h-102q-80 0 -116.5 -43.5t-49.5 -138.5 l-22 -160q-13 -95 6.5 -130.5t99.5 -35.5h103q78 0 113.5 42.5t49.5 137.5l23 160q13 96 -7 132t-98 36zM1442 827h135q171 -1 228 -84.5t32 -269.5l-22 -162q-28 -185 -103.5 -260.5t-245.5 -75.5h-135q-173 0 -232.5 82.5t-35.5 268.5l22 159q27 189 104 265.5t253 76.5z M2294 -25h-135q-175 0 -235 82.5t-36 268.5l23 159q27 189 103.5 265.5t252.5 76.5h135q173 -1 230 -84.5t30 -269.5l-22 -162q-28 -186 -102 -261t-244 -75zM1542 655h-102q-80 0 -116 -43.5t-50 -140.5l-21 -158q-14 -94 5.5 -130t99.5 -36h102q79 0 115.5 43t50.5 138 l21 157q14 96 -5.5 133t-99.5 37zM2183 147h105q78 0 113.5 42.5t49.5 138.5l23 157q13 96 -6.5 133t-97.5 37h-105q-79 0 -116.5 -44t-49.5 -140l-22 -158q-13 -94 7.5 -130t98.5 -36z" />
<glyph unicode="&#x2039;" horiz-adv-x="628" d="M319 535l189 -324l-10 -84h-164l-268 408v16l383 407h165l-10 -86l-278 -321z" />
<glyph unicode="&#x203a;" horiz-adv-x="628" d="M113 872l10 86h162l268 -407v-16l-381 -408h-166l10 84l277 324l6 16z" />
<glyph unicode="&#x2044;" horiz-adv-x="460" d="M934 1464l-631 -747l-600 -740h-115l629 740l602 747h115z" />
<glyph unicode="&#x205f;" horiz-adv-x="471" />
<glyph unicode="&#x20ac;" horiz-adv-x="1271" d="M1042 1034l15 160q-13 7 -27 12t-31 9t-30 7t-33.5 4.5t-31 2.5t-33.5 1.5t-30 0.5h-31.5h-27.5q-125 0 -214.5 -82t-108.5 -215l-6 -51h505l-43 -115h-479l-14 -106h442l-43 -117h-418l-12 -99q-17 -125 37 -182t178 -57h60q100 0 170.5 41t121.5 127l197 -6l-22 -189 q-214 -205 -476 -205h-102q-251 0 -364 118.5t-78 357.5l10 94h-111l17 117h110l15 106h-111l16 115h111l8 53q36 257 189 388.5t405 131.5h47q258 0 467 -76l-43 -346h-201z" />
<glyph unicode="&#x2122;" horiz-adv-x="1427" d="M678 1241h-82v88h-111l-53 -342q26 0 84 -8l-10 -100h-293l8 104q58 4 82 4l53 342h-110l-23 -88h-84l27 193h539zM1513 1434l-10 -97q-8 -1 -22 -2.5t-25.5 -2.5t-21.5 -1l-60 -344q22 0 68 -8l-8 -100h-254l14 102l59 6l45 322l-215 -430h-82l-96 430l-47 -322l57 -6 l-14 -102h-242l9 104q54 4 75 4l58 344q-22 0 -76 8l10 95h236l94 -365h4l195 365h249z" />
<glyph unicode="&#xe000;" horiz-adv-x="1075" d="M0 1075h1075v-1075h-1075v1075z" />
<glyph unicode="&#xfb01;" horiz-adv-x="1443" d="M1362 190l-23 -192q-96 -16 -209 -16q-47 0 -86.5 13t-73.5 41t-48.5 81t-3.5 125l98 635h-467l-141 -893q-18 -72 -45 -125.5t-54.5 -83t-60 -47.5t-57 -23.5t-50.5 -5.5q-97 0 -209 16l29 195h55q61 0 86 15.5t35 60.5l142 891h-146l19 176q31 4 85 7.5t62 4.5l23 119 q52 258 276 295q82 14 289 37l6 -189q-1 0 -73 -16.5t-120 -30.5q-56 -17 -81 -49.5t-31 -91.5l-10 -64h731l-113 -778q-8 -57 10 -82t74 -25h82zM1196 1221q-70 0 -112 43t-33 110q9 60 56.5 95.5t109.5 35.5q70 0 111 -43.5t32 -113.5q-9 -57 -55 -92t-109 -35z" />
<glyph unicode="&#xfb02;" horiz-adv-x="1482" d="M133 877l19 176q31 4 85 7.5t62 4.5l23 119q52 258 276 295q82 14 289 37l6 -189q-1 0 -73 -16.5t-120 -30.5q-56 -17 -81 -49.5t-31 -91.5l-10 -64h311l-27 -198h-313l-141 -893q-18 -72 -45 -125.5t-54.5 -83t-60 -47.5t-57 -23.5t-50.5 -5.5q-97 0 -209 16l29 195h55 q61 0 86 15.5t35 60.5l142 891h-146zM1370 1434l-164 -1137q-8 -57 10 -82t76 -25h86l-24 -170q-88 -38 -211 -38q-49 0 -89.5 13t-74 41t-47.5 81t-2 125l147 987q-37 3 -127 16l23 189h397z" />
<glyph unicode="&#xfb03;" horiz-adv-x="2183" d="M2048 1075l-113 -778q-6 -57 11 -82t73 -25h82l-22 -192q-96 -16 -209 -16q-47 0 -87 13t-74 41t-48.5 81t-3.5 125l96 635h-465l-141 -893q-18 -72 -45 -125.5t-54 -83t-59.5 -47.5t-57 -23.5t-50.5 -5.5q-97 0 -209 16l28 195h56q61 0 86 15.5t35 60.5l141 891h-469 l-141 -893q-18 -72 -45 -125.5t-54.5 -83t-60 -47.5t-57 -23.5t-50.5 -5.5q-97 0 -209 16l29 195h55q61 0 86 15.5t35 60.5l142 891h-146l19 176q31 4 85 7.5t62 4.5l23 119q52 258 276 295q82 14 289 37l6 -189q-1 0 -73 -16.5t-120 -30.5q-56 -17 -81 -49.5t-31 -91.5 l-10 -64h462l21 109q52 258 276 295q82 14 289 37l6 -189q-19 -5 -54 -12.5t-68.5 -16t-69.5 -18.5q-56 -17 -81.5 -50t-31.5 -91l-10 -64h731zM1958 1505q70 0 111 -43.5t32 -113.5q-9 -58 -55.5 -92.5t-110.5 -34.5q-69 0 -110.5 43t-32.5 110q9 60 56.5 95.5t109.5 35.5z " />
<glyph unicode="&#xfb04;" horiz-adv-x="2191" d="M1626 1516l6 -189q-19 -5 -54 -12.5t-68.5 -16t-69.5 -18.5q-56 -17 -81.5 -50t-31.5 -91l-10 -64h311l-26 -198h-314l-141 -893q-18 -72 -45 -125.5t-54 -83t-59.5 -47.5t-57 -23.5t-50.5 -5.5q-97 0 -209 16l28 195h56q61 0 86 15.5t35 60.5l141 891h-469l-141 -893 q-18 -72 -45 -125.5t-54.5 -83t-60 -47.5t-57 -23.5t-50.5 -5.5q-97 0 -209 16l29 195h55q61 0 86 15.5t35 60.5l142 891h-146l19 176q31 4 85 7.5t62 4.5l23 119q52 258 276 295q82 14 289 37l6 -189q-1 0 -73 -16.5t-120 -30.5q-56 -17 -81 -49.5t-31 -91.5l-10 -64h462 l21 109q52 258 276 295q82 14 289 37zM2087 190l-25 -170q-88 -38 -211 -38q-49 0 -89.5 13t-74 41t-47.5 81t-2 125l148 987q-37 3 -127 16l22 189h398l-164 -1137q-8 -57 10 -82t76 -25h86z" />
</font>
</defs>
</svg>
