<?xml version="1.0" standalone="no"?>
<!DOCTYPE svg PUBLIC "-//W3C//DTD SVG 1.1//EN" "http://www.w3.org/Graphics/SVG/1.1/DTD/svg11.dtd" >
<svg xmlns="http://www.w3.org/2000/svg">
<metadata></metadata>
<defs>
<font id="corbertbold" horiz-adv-x="1277" >
<font-face units-per-em="2048" ascent="1638" descent="-410" />
<missing-glyph horiz-adv-x="589" />
<glyph unicode="&#xfb01;" horiz-adv-x="1343" d="M801 1529v-188q-166 5 -248 -59q-50 -37 -72.5 -98.5t-22.5 -159.5h748v-1024h-253v834h-495v-834h-253v834h-155v190h155q0 299 191 423q127 85 325 85q38 0 80 -3z" />
<glyph unicode="&#xfb02;" horiz-adv-x="1513" d="M1198 1531v-1107q0 -128 66 -190q63 -58 196 -56v-190q-36 -2 -53 -2q-200 0 -316 88q-147 111 -147 350v917h-142q-167 5 -249 -59q-50 -37 -72.5 -98.5t-22.5 -159.5h286v-190h-286v-834h-253v834h-155v190h155q0 299 191 423q128 86 325 86q43 0 65 -2h412z" />
<glyph horiz-adv-x="2048" />
<glyph horiz-adv-x="2048" />
<glyph unicode="&#xd;" horiz-adv-x="2048" />
<glyph unicode=" "  horiz-adv-x="589" />
<glyph unicode="&#x09;" horiz-adv-x="589" />
<glyph unicode="&#xa0;" horiz-adv-x="589" />
<glyph unicode="!" horiz-adv-x="432" d="M346 388h-261v1045h261v-1045zM216 239q57 0 97.5 -37.5t40.5 -89.5t-40.5 -89t-97.5 -37t-98 37t-41 89t41 89.5t98 37.5z" />
<glyph unicode="&#x22;" horiz-adv-x="737" d="M287 904h-210v542h210v-542zM660 904h-209v542h209v-542z" />
<glyph unicode="#" horiz-adv-x="1366" d="M1114 1076h174l-40 -190h-174l-79 -368h174l-41 -191h-173l-70 -327h-226l69 327h-260l-69 -327h-227l70 327h-165l41 191h164l78 368h-163l41 190h163l76 358h226l-76 -358h260l76 358h227zM587 886l-78 -368h260l78 368h-260z" />
<glyph unicode="$" horiz-adv-x="1394" d="M821 1453l29 -2q226 -18 386 -112l-155 -184q-153 94 -366 94q-86 0 -157 -21t-118 -69t-47 -115q0 -26 7.5 -49t24.5 -40.5t34 -31.5t45.5 -26t49 -19.5t56 -16t54 -12t54.5 -10.5q226 -44 312 -73q189 -64 251 -191q36 -73 36 -174q0 -92 -40.5 -167.5t-110.5 -125 t-157 -79.5t-188 -41v-217h-239v213q-152 14 -287.5 64.5t-217.5 129.5l154 179q73 -75 203.5 -119t271.5 -44q66 0 124 12t105.5 36t75.5 65t28 94q0 26 -5.5 48t-13 39t-24 31.5t-30.5 24.5t-40 19.5t-45 15.5t-53 13t-57 11t-64.5 11t-67.5 12q-64 12 -112 23t-104.5 29 t-97 38.5t-80 51t-64 67t-39.5 86.5t-15 109q0 87 35.5 159.5t99 122.5t144 83t176.5 48v220h239v-210z" />
<glyph unicode="%" horiz-adv-x="1923" d="M613 -35h-252l946 1503h253zM434 1446q85 0 149 -22.5t103 -59.5t63 -91.5t32.5 -109.5t8.5 -123t-9 -124t-33.5 -110t-63.5 -90.5t-102.5 -59t-147.5 -22.5q-357 0 -357 406q0 67 8.5 122.5t33 110t63 91.5t103 59.5t149.5 22.5zM434 1292q-92 0 -126 -58.5t-34 -193.5 t34.5 -194t125.5 -59t125 58.5t34 194.5t-33.5 194t-125.5 58zM1489 800q85 0 149.5 -22.5t103 -59.5t63 -91t33 -109.5t8.5 -122.5q0 -407 -357 -407q-84 0 -147.5 22.5t-102.5 59.5t-63.5 91t-33.5 110t-9 124t8.5 123t32.5 109t63 91t103 59.5t149 22.5zM1489 646 q-92 0 -125.5 -57.5t-33.5 -193.5t34 -195t125 -59t125.5 59t34.5 195t-33.5 193.5t-126.5 57.5z" />
<glyph unicode="&#x26;" horiz-adv-x="1464" d="M378 804l-82 85q-42 48 -60 100.5t-18 123.5q0 345 459 345q458 0 458 -345q0 -109 -43.5 -180t-134.5 -116l-197 -83l328 -347q23 38 23 98q0 76 -40 118l130 88q113 -110 113 -290q0 -123 -50 -207l118 -128l5 -66h-265l-43 45q-132 -78 -376 -78q-626 0 -626 434 q0 249 212 364zM613 897l199 85q65 31 65 124q0 84 -50 115t-150 31q-101 0 -151 -31.5t-50 -114.5q0 -66 30 -97zM530 636l-90 -37q-112 -53 -112 -195q0 -68 24 -114.5t71.5 -71.5t106.5 -35.5t140 -10.5q174 0 243 56z" />
<glyph unicode="'" horiz-adv-x="364" d="M287 904h-210v542h210v-542z" />
<glyph unicode="(" horiz-adv-x="704" d="M624 1470v-203q-88 -12 -150 -68t-95.5 -152t-48 -213.5t-14.5 -272.5q0 -157 14.5 -275t49 -214t95.5 -150.5t150 -66.5v-203q-98 5 -177 33.5t-135.5 73t-98.5 110.5t-68 139t-41.5 166.5t-21.5 184.5t-6 202t6 202t21.5 185t41.5 167t68 139t98 110.5t135 72.5t177 33 z" />
<glyph unicode=")" horiz-adv-x="704" d="M80 1267v203q98 -5 177 -33t135 -72.5t98 -110.5t68 -139t41.5 -167t21.5 -185t6 -202t-6 -202t-21.5 -184.5t-41.5 -166.5t-68.5 -139t-99 -110.5t-136 -73t-177.5 -33.5v203q90 12 152 68.5t95.5 154t48 215t14.5 273.5q0 155 -15 272.5t-49 212t-95 149.5t-148 67z " />
<glyph unicode="*" horiz-adv-x="737" d="M447 1302l162 59l52 -160l-165 -47l106 -135l-137 -100l-96 143l-95 -143l-137 100l106 135l-166 47l53 160l161 -59l-6 172h169z" />
<glyph unicode="+" horiz-adv-x="1062" d="M634 702h351v-206h-351v-351h-206v351h-351v206h352v351h205v-351z" />
<glyph unicode="," horiz-adv-x="432" d="M240 -41l1 21q-27 -5 -35 -5q-60 0 -94.5 34.5t-34.5 81.5t34 81t95 34q78 0 112 -54q37 -51 37 -164q0 -109 -38.5 -168.5t-138.5 -59.5h-35l15 101h11q41 0 55 20t16 78z" />
<glyph unicode="-" horiz-adv-x="1001" d="M924 622h-847v206h847v-206z" />
<glyph unicode="." horiz-adv-x="411" d="M206 215q61 0 95 -34t34 -81t-34 -80.5t-95 -33.5t-95 33.5t-34 80.5t34 81t95 34z" />
<glyph unicode="/" horiz-adv-x="993" d="M317 -35h-252l613 1503h252z" />
<glyph unicode="0" horiz-adv-x="1411" d="M706 1406q147 0 257 -38.5t177 -102t108 -158.5t56 -194t15 -222q0 -124 -15.5 -224.5t-57.5 -195t-109.5 -158.5t-176.5 -102t-254 -38t-254 38t-176.5 102t-109.5 158.5t-57.5 195t-15.5 224.5q0 123 15 222t56 194t108 158.5t177 102t257 38.5zM706 1200 q-84 0 -145 -21.5t-101 -61t-63.5 -103.5t-33 -141t-9.5 -182q0 -131 16.5 -222t56 -158.5t108.5 -99.5t171 -32t171 32t108.5 99.5t55.5 158.5t16 222q0 132 -15.5 221.5t-54 157t-107.5 99t-174 31.5z" />
<glyph unicode="1" horiz-adv-x="727" d="M578 0h-262v1160l-259 -57v214l337 76h184v-1393z" />
<glyph unicode="2" horiz-adv-x="1294" d="M343 1008h-242q0 95 26.5 165.5t73 115.5t118.5 72.5t153 38t186 10.5q104 0 184 -10t152 -37.5t118.5 -72t73.5 -115.5t27 -167q0 -97 -22.5 -167.5t-62 -116.5t-105.5 -75t-141 -42.5t-180 -19.5q-201 -12 -286.5 -65.5t-85.5 -188.5v-118h871v-215h-1121v330 q0 119 42 205t124 137.5t187.5 78t247.5 33.5q152 8 219 52.5t67 164.5q0 61 -21.5 102.5t-64 64t-96.5 31.5t-129 9t-128.5 -9t-96.5 -31t-65 -62t-23 -98z" />
<glyph unicode="3" horiz-adv-x="1304" d="M355 1009h-250q2 92 31.5 162t77 114t116.5 71.5t144.5 38.5t167.5 11t168 -9.5t148.5 -35t122 -66.5t79.5 -107.5t30 -153.5q0 -237 -220 -316q254 -81 254 -347q0 -93 -31.5 -164t-84 -115t-129.5 -71t-158 -37.5t-179 -10.5q-99 0 -179.5 11.5t-155 41.5t-125 77 t-80.5 122t-31 173h246q1 -65 24 -109t67.5 -68t99.5 -33.5t133 -9.5t133.5 9.5t100 33.5t67 68.5t22.5 109.5t-22.5 109.5t-67 68.5t-100 33.5t-133.5 9.5h-227v195h228q142 0 214 41.5t72 151.5t-72 151.5t-214 41.5q-143 0 -213.5 -41t-73.5 -151z" />
<glyph unicode="4" horiz-adv-x="1327" d="M1100 489h151v-206h-151v-283h-258v283h-777v223l777 892h258v-909zM339 489h503v580z" />
<glyph unicode="5" horiz-adv-x="1284" d="M1136 1188h-746v-280h253q97 0 177.5 -12.5t155.5 -44.5t126 -84t81.5 -135t30.5 -192t-30.5 -192.5t-81.5 -135t-126 -84t-155 -45t-177 -12.5q-96 0 -175.5 12.5t-152.5 44.5t-123.5 82t-80.5 129.5t-31 182.5h272q5 -137 80 -190.5t220 -53.5q72 0 123.5 11t93 38.5 t62 78.5t20.5 127q0 80 -20.5 134t-61.5 83t-92.5 40.5t-124.5 11.5h-524v692h1007v-206z" />
<glyph unicode="6" horiz-adv-x="1339" d="M358 808v-48q91 137 383 137q84 0 157 -13.5t141 -47.5t116 -85.5t76.5 -133t28.5 -185.5q0 -90 -21 -162t-61 -121.5t-91.5 -84.5t-119 -54.5t-137.5 -28t-152 -8.5q-105 0 -190 20t-145.5 54.5t-105.5 88t-72 112t-43.5 134.5t-22.5 148.5t-6 160.5t5.5 159t21.5 147.5 t42.5 134.5t71 111t105 87.5t146.5 55t193 20.5q225 0 363.5 -89.5t195.5 -244.5l-251 -59q-36 100 -104.5 143.5t-203.5 43.5q-92 0 -153.5 -24.5t-96.5 -77.5t-50 -120.5t-20 -169.5zM682 709q-147 0 -228.5 -46t-97.5 -163q7 -77 26 -133t55.5 -99.5t97.5 -65.5t147 -22 q79 0 135.5 11.5t102 39.5t68 81t22.5 132t-22.5 132t-68 81.5t-102 40t-135.5 11.5z" />
<glyph unicode="7" horiz-adv-x="1222" d="M1146 1265l-678 -1265h-288l653 1192h-756v206h1069v-133z" />
<glyph unicode="8" horiz-adv-x="1398" d="M700 1406q95 0 174 -9.5t154.5 -35t127 -66.5t83 -107t31.5 -154q0 -227 -213 -306q248 -85 248 -346q0 -96 -33 -169t-87.5 -118t-134 -73t-164 -38.5t-186.5 -10.5q-607 0 -607 409q0 259 252 345q-216 80 -216 307q0 372 571 372zM699 1201q-144 0 -217.5 -42.5 t-73.5 -150.5t73 -150t218 -42q144 0 216.5 41.5t72.5 150.5q0 57 -19.5 95.5t-59.5 59.5t-90 29.5t-120 8.5zM700 611q-79 0 -135.5 -10t-101.5 -33.5t-67 -66.5t-22 -106t22 -106t67 -66.5t101.5 -33.5t135.5 -10q162 0 243 46.5t81 169.5t-81 169.5t-243 46.5z" />
<glyph unicode="9" horiz-adv-x="1339" d="M981 569v51q-96 -138 -378 -138q-85 0 -158.5 13.5t-142.5 47t-117 85t-77 133t-29 186.5q0 108 31 189.5t83 132t128.5 82t158 43.5t180.5 12q105 0 190 -20t145.5 -54.5t105.5 -88t72.5 -112t44 -134.5t22.5 -148.5t6 -160.5t-5.5 -159t-21.5 -147.5t-43 -134.5 t-71.5 -111t-105 -87.5t-146.5 -55t-193 -20.5q-225 0 -363 90t-195 245l250 59q36 -100 104.5 -144t203.5 -44q92 0 153.5 24.5t96.5 77.5t50.5 120t20.5 168zM657 1200q-79 0 -135.5 -11.5t-102 -39.5t-68 -81t-22.5 -132t22.5 -132t68 -81.5t102 -40t135.5 -11.5 q147 0 228 46t97 163q-7 77 -25.5 133t-55 99.5t-97.5 65.5t-147 22z" />
<glyph unicode=":" horiz-adv-x="413" d="M206 993q61 0 95 -33.5t34 -80.5t-34 -81t-95 -34t-95 34t-34 81t34 80.5t95 33.5zM207 215q61 0 95 -34t34 -81t-34 -80.5t-95 -33.5t-95 33.5t-34 80.5t34 81t95 34z" />
<glyph unicode=";" horiz-adv-x="434" d="M206 993q61 0 95 -33.5t34 -80.5t-34 -81t-95 -34t-95 34t-34 81t34 80.5t95 33.5zM242 -37v21q-11 -2 -35 -2q-61 0 -95 33.5t-34 80.5t34 81t95 34q78 0 112 -55q38 -52 38 -164q0 -110 -39 -169t-139 -59h-34l15 103h10q41 0 55.5 20t16.5 76z" />
<glyph unicode="&#x3c;" horiz-adv-x="962" d="M885 703v-265l-808 -433v239l556 326l-556 326v240z" />
<glyph unicode="=" horiz-adv-x="1062" d="M985 688h-908v205h908v-205zM985 270h-908v206h908v-206z" />
<glyph unicode="&#x3e;" horiz-adv-x="962" d="M885 896l-557 -326l557 -326v-239l-808 433v265l808 433v-240z" />
<glyph unicode="?" d="M338 1068h-261q0 90 29 158.5t78.5 111.5t122 70.5t151 38t173.5 10.5t174 -10t154.5 -37.5t127 -71t82.5 -114.5t31 -164q0 -55 -8.5 -102t-20.5 -82.5t-34 -66t-41.5 -51t-51 -39t-53 -29t-57 -21.5t-55 -15.5t-54.5 -12.5q-78 -17 -116 -49.5t-39 -110.5v-94h-262v194 q0 42 8.5 76t20 58t35.5 44t44 32.5t56 24.5t61 18t70 16q104 23 143 44q93 51 93 174q0 105 -75.5 144.5t-224.5 39.5t-225 -40.5t-76 -143.5zM538 239q57 0 98 -37.5t41 -89.5t-41 -89t-98 -37t-97.5 37t-40.5 89t40.5 89.5t97.5 37.5z" />
<glyph unicode="@" horiz-adv-x="2013" d="M1227 -217l59 -227q-126 -35 -279 -35q-283 0 -495.5 126.5t-323.5 345.5t-111 499q0 207 63.5 384t180.5 306.5t293.5 203t392.5 73.5q207 0 381.5 -67.5t294 -186t186.5 -284.5t67 -359q0 -226 -135.5 -364t-347.5 -138h-262l-9 106q-106 -124 -282 -124 q-167 0 -274.5 110t-107.5 318q0 130 57.5 228t150.5 146.5t206 48.5q138 0 235 -72v68h204v-593h98q106 4 168 74t62 192q0 298 -189.5 480t-502.5 182q-217 0 -375 -92.5t-238 -257t-80 -382.5q0 -220 82 -385.5t239.5 -258t371.5 -92.5q102 0 220 27zM1167 322v330 q-61 78 -183 78q-119 0 -191 -70.5t-72 -190.5q0 -127 63 -196.5t176 -69.5q62 0 112.5 26t94.5 93z" />
<glyph unicode="A" horiz-adv-x="1572" d="M1508 0h-274l-126 320h-643l-126 -320h-274l589 1434h265zM544 536h485l-243 612z" />
<glyph unicode="B" horiz-adv-x="1411" d="M162 1434h673q197 0 311 -105t114 -270q0 -102 -44 -181.5t-126 -125.5q107 -44 165.5 -136t58.5 -214q0 -178 -118 -290t-326 -112h-708v1434zM424 1225v-383h396q85 4 131.5 55.5t46.5 136.5q0 88 -50.5 139.5t-141.5 51.5h-382zM424 210h398q100 0 155.5 56t55.5 154 q0 96 -56 153t-155 57h-398v-420z" />
<glyph unicode="C" horiz-adv-x="1425" d="M1162 316l170 -174q-191 -162 -482 -162q-172 0 -312.5 57t-233 156.5t-142 234t-49.5 290.5t49.5 290.5t142 234t233 156.5t312.5 57q290 0 482 -163l-170 -174q-116 119 -312 119q-223 0 -349 -140t-126 -380t126 -380.5t349 -140.5q196 0 312 119z" />
<glyph unicode="D" horiz-adv-x="1509" d="M162 1434h495q172 0 312 -53t233 -148t143 -226.5t50 -288.5q0 -212 -85.5 -373t-254 -253t-398.5 -92h-495v1434zM424 217h233q230 0 353.5 130.5t123.5 370.5q0 236 -125 367t-352 131h-233v-999z" />
<glyph unicode="E" horiz-adv-x="1224" d="M1135 1218h-711v-373h652v-215h-652v-415h711v-215h-973v1434h973v-216z" />
<glyph unicode="F" horiz-adv-x="1191" d="M1103 1218h-679v-394h620v-216h-620v-608h-262v1434h941v-216z" />
<glyph unicode="G" horiz-adv-x="1597" d="M1450 823v-568q-95 -131 -247.5 -204.5t-352.5 -73.5q-170 0 -309.5 56.5t-232.5 156t-144 235t-51 293.5q0 156 49.5 290.5t142 234t233 156.5t312.5 57q347 0 550 -218l-155 -148q-169 148 -393 148q-215 0 -346 -139.5t-131 -380.5t127.5 -382t347.5 -141 q219 0 345 134v288h-345v206h600z" />
<glyph unicode="H" horiz-adv-x="1517" d="M1355 0h-262v609h-669v-609h-262v1434h262v-609h669v609h262v-1434z" />
<glyph unicode="I" horiz-adv-x="585" d="M424 0h-262v1434h262v-1434z" />
<glyph unicode="J" horiz-adv-x="1056" d="M895 1434v-866q0 -101 -16.5 -184.5t-56 -158t-102 -125.5t-159.5 -80.5t-223 -29.5q-160 0 -273 50l47 178q93 -23 226 -23q167 0 231 86.5t64 286.5v866h262z" />
<glyph unicode="K" horiz-adv-x="1372" d="M736 786l572 -786h-327l-410 585l-149 -180v-405h-260v1434h260v-651l522 651h323z" />
<glyph unicode="L" horiz-adv-x="1175" d="M424 206h686v-206h-948v1434h262v-1228z" />
<glyph unicode="M" horiz-adv-x="1845" d="M1682 0h-261v885l-386 -884h-239l-386 884v-885h-262v1434h306l461 -1125l462 1125h305v-1434z" />
<glyph unicode="N" horiz-adv-x="1480" d="M1334 0h-303l-621 965v-965h-262v1434h302l622 -966v966h262v-1434z" />
<glyph unicode="O" horiz-adv-x="1701" d="M850 1456q229 0 398.5 -98.5t255 -264t85.5 -375.5q0 -158 -49.5 -293t-141.5 -235t-233 -156.5t-315 -56.5q-170 0 -309.5 56.5t-232.5 156t-144 235t-51 293.5q0 156 49.5 290.5t142 234t233 156.5t312.5 57zM850 1238q-223 0 -349 -140t-126 -380q0 -241 127.5 -381.5 t347.5 -140.5q226 0 351.5 139.5t125.5 382.5q0 240 -127 380t-350 140z" />
<glyph unicode="P" horiz-adv-x="1396" d="M162 1434h618q239 0 377.5 -137.5t138.5 -354.5q0 -219 -137.5 -355.5t-378.5 -136.5h-356v-450h-262v1434zM424 1222v-561h327q134 0 208.5 75.5t74.5 205.5q0 129 -75 204.5t-208 75.5h-327z" />
<glyph unicode="Q" horiz-adv-x="1720" d="M1473 -78l-185 186q-178 -131 -438 -131q-170 0 -309.5 56.5t-232.5 156t-144 235t-51 293.5q0 156 49.5 290.5t142 234t233 156.5t312.5 57q229 0 398.5 -98.5t255 -264t85.5 -375.5q0 -264 -131 -448l181 -181zM850 1238q-223 0 -349 -140t-126 -380 q0 -241 127.5 -381.5t347.5 -140.5q226 0 351.5 139.5t125.5 382.5q0 240 -127 380t-350 140z" />
<glyph unicode="R" horiz-adv-x="1423" d="M162 1434h617q229 0 361 -131t132 -338q0 -167 -85 -284.5t-241 -158.5l390 -522h-309l-346 495h-257v-495h-262v1434zM423 1223v-517h328q123 0 191.5 69.5t68.5 189.5q0 119 -68.5 188.5t-191.5 69.5h-328z" />
<glyph unicode="S" horiz-adv-x="1409" d="M81 178l153 179q73 -75 204 -119t272 -44q66 0 124 12t105.5 36t75.5 65t28 94q0 26 -5.5 48t-13 39t-24 31.5t-30.5 24.5t-40 19.5t-45 15.5t-53 13t-57 11t-64.5 11t-67.5 12q-64 12 -112 23t-104.5 29t-97 38.5t-80 51t-64 67t-39.5 86.5t-15 109q0 106 52.5 190 t141 135t198 77.5t231.5 26.5q132 0 259.5 -31t226.5 -89l-155 -184q-153 94 -366 94q-86 0 -157 -21t-118 -69t-47 -115q0 -26 7.5 -49t24.5 -40.5t34 -31.5t45.5 -26t49 -19.5t56 -16t54 -12t54.5 -10.5q226 -44 312 -73q189 -64 251 -191q36 -73 36 -174q0 -106 -53 -190 t-142 -134t-197.5 -76t-227.5 -26q-180 0 -350.5 54.5t-269.5 148.5z" />
<glyph unicode="T" horiz-adv-x="1372" d="M1307 1218h-490v-1218h-262v1218h-490v216h1242v-216z" />
<glyph unicode="U" horiz-adv-x="1511" d="M1364 1434v-778q0 -121 -17.5 -219.5t-60 -186t-110 -147t-172 -94t-241.5 -34.5q-136 0 -240 33.5t-171.5 92.5t-110.5 146t-61 186.5t-18 222.5v778h262v-755q0 -245 76 -355t263 -110q189 0 264 110.5t75 354.5v755h262z" />
<glyph unicode="V" horiz-adv-x="1546" d="M897 0h-247l-585 1434h273l435 -1128l436 1128h273z" />
<glyph unicode="W" horiz-adv-x="2240" d="M1255 1434l309 -1019l323 1019h289l-496 -1434h-251l-309 981l-309 -981h-250l-496 1434h289l322 -1019l310 1019h269z" />
<glyph unicode="X" horiz-adv-x="1484" d="M913 725l507 -725h-300l-379 552l-377 -552h-300l507 728l-474 706h300l346 -533l345 533h300z" />
<glyph unicode="Y" horiz-adv-x="1509" d="M885 570v-570h-261v570l-560 864h301l390 -629l389 629h300z" />
<glyph unicode="Z" horiz-adv-x="1333" d="M1238 1296l-798 -1081h812v-215h-1171v137l799 1081h-733v216h1091v-138z" />
<glyph unicode="[" horiz-adv-x="651" d="M574 1280h-258v-1427h258v-187h-497v1802h497v-188z" />
<glyph unicode="\" horiz-adv-x="993" d="M930 -35h-252l-613 1503h251z" />
<glyph unicode="]" horiz-adv-x="651" d="M574 -334h-497v187h258v1427h-258v188h497v-1802z" />
<glyph unicode="^" horiz-adv-x="1275" d="M1198 766h-289l-271 433l-271 -433h-290l433 651h256z" />
<glyph unicode="_" horiz-adv-x="1138" d="M1062 -340h-985v205h985v-205z" />
<glyph unicode="`" horiz-adv-x="624" d="M548 1256l-126 -151l-345 289l127 151z" />
<glyph unicode="a" d="M1156 0h-224l-11 134q-63 -80 -157.5 -118.5t-197.5 -38.5q-210 0 -344.5 140t-134.5 397q0 253 132.5 394t344.5 141q99 0 180.5 -37t177.5 -122l10 134h224v-1024zM902 327v372q-75 84 -135.5 116t-137.5 32q-143 0 -216 -86t-73 -248q0 -157 78.5 -246t222.5 -89 q175 0 261 149z" />
<glyph unicode="b" horiz-adv-x="1286" d="M383 1473v-563q90 77 169.5 108t169.5 31q211 0 344 -141t133 -394q0 -257 -135 -397t-345 -140q-103 0 -197.5 38.5t-157.5 118.5l-11 -134h-224v1473h254zM383 698v-371q86 -149 261 -149q144 0 222.5 89t78.5 246q0 162 -72.5 248t-215.5 86q-77 0 -138.5 -32 t-135.5 -117z" />
<glyph unicode="c" horiz-adv-x="1067" d="M853 246l142 -157q-65 -54 -158.5 -84t-197.5 -30q-129 0 -234.5 42t-174.5 115t-106 170.5t-37 209.5q0 110 36.5 207t104.5 171t174 116.5t237 42.5q222 0 351 -112l-142 -157q-62 67 -192 67q-144 0 -230 -91t-86 -244q0 -155 86.5 -245t229.5 -90q56 0 109 17.5 t88 51.5z" />
<glyph unicode="d" horiz-adv-x="1286" d="M1156 0h-224l-11 134q-63 -80 -157.5 -118.5t-197.5 -38.5q-210 0 -344.5 140t-134.5 397q0 253 132.5 394t343.5 141q90 0 169.5 -31t169.5 -108v563h254v-1473zM902 327v372q-75 84 -135.5 116t-137.5 32q-143 0 -216 -86t-73 -248q0 -157 78.5 -246t222.5 -89 q175 0 261 149z" />
<glyph unicode="e" horiz-adv-x="1202" d="M960 252l108 -127q-164 -148 -433 -148q-130 0 -235 41.5t-173 115t-104 170.5t-36 210q0 111 35.5 208t102 170.5t170.5 115.5t234 42q167 0 282.5 -52t166.5 -145q52 -72 52 -164q0 -69 -29 -121t-74.5 -82.5t-112.5 -49.5t-133 -25.5t-146 -6.5q-64 0 -296 14 q22 -115 99.5 -180.5t196.5 -69.5q80 -5 165.5 17.5t159.5 66.5zM623 869q-134 0 -208.5 -76t-74.5 -200l1 -31q130 -22 255 -22q280 0 293 132q9 97 -66 147t-200 50z" />
<glyph unicode="f" horiz-adv-x="800" d="M801 1529v-188q-166 5 -248 -59q-50 -37 -72.5 -98.5t-22.5 -159.5h286v-190h-286v-834h-253v834h-155v190h155q0 299 191 423q127 85 325 85q38 0 80 -3z" />
<glyph unicode="g" horiz-adv-x="1286" d="M902 -119v245q-125 -136 -336 -136q-210 0 -344.5 138t-134.5 392q0 250 132.5 389.5t344.5 139.5q99 0 180.5 -36.5t177.5 -120.5l10 132h224v-1139q0 -97 -39.5 -173t-107.5 -122.5t-152.5 -70t-179.5 -23.5q-229 0 -435 111l60 153q66 -36 157.5 -60t176.5 -24 q110 0 187 53t79 152zM902 331v369q-74 84 -135 115.5t-138 31.5q-143 0 -216 -85.5t-73 -245.5q0 -156 78.5 -244.5t222.5 -88.5q174 0 261 148z" />
<glyph unicode="h" horiz-adv-x="1255" d="M397 1473v-577q87 79 162.5 117t171.5 38q76 0 147 -23.5t131 -69.5t96 -123t36 -175v-660h-254v608q0 119 -66.5 179t-164.5 60q-67 0 -124.5 -31.5t-134.5 -118.5v-697h-254v1473h254z" />
<glyph unicode="i" horiz-adv-x="540" d="M278 1434q57 0 98 -37t41 -89t-41 -89.5t-98 -37.5t-97.5 37.5t-40.5 89.5t40.5 89t97.5 37zM405 0h-254v1024h254v-1024z" />
<glyph unicode="j" horiz-adv-x="546" d="M284 1434q57 0 97.5 -37t40.5 -89t-40.5 -89.5t-97.5 -37.5t-98 37.5t-41 89.5t41 89t98 37zM410 1024v-1042q0 -302 -208 -414q-133 -87 -327 -84v190q124 6 199 70q83 70 83 238v1042h253z" />
<glyph unicode="k" horiz-adv-x="1163" d="M397 621l377 403h288l-383 -419l436 -605h-297l-293 424l-128 -130v-294h-254v1471h254v-850z" />
<glyph unicode="l" horiz-adv-x="712" d="M397 1473v-1049q0 -128 66 -190q63 -58 195 -56v-190q-36 -2 -52 -2q-200 0 -316 88q-147 111 -147 350v1049h254z" />
<glyph unicode="m" horiz-adv-x="1878" d="M353 1024l10 -130q82 79 154 118t164 39q96 0 184.5 -41.5t141.5 -120.5q91 85 170 123.5t179 38.5q76 0 146.5 -23.5t129.5 -69.5t95 -123t36 -175v-660h-254v608q0 119 -62 179t-153 60q-62 0 -112.5 -25t-119.5 -101q11 -44 11 -88v-633h-253v608q0 119 -62.5 179 t-153.5 60q-58 0 -107.5 -28.5t-113.5 -102.5v-716h-254v1024h224z" />
<glyph unicode="n" horiz-adv-x="1261" d="M353 1024l11 -134q90 81 170 121t183 40q80 0 154.5 -23.5t137 -69.5t100.5 -123t38 -175v-660h-254v608q0 119 -70.5 179t-173.5 60q-68 0 -127.5 -29.5t-138.5 -108.5v-709h-254v1024h224z" />
<glyph unicode="o" horiz-adv-x="1304" d="M652 1049q264 0 415 -150.5t151 -386.5q0 -114 -37 -211t-106.5 -170t-178 -114.5t-244.5 -41.5q-178 0 -308 73.5t-193.5 193.5t-63.5 270t63.5 270t193.5 193.5t308 73.5zM652 847q-143 0 -227.5 -90t-84.5 -245t84.5 -245t227.5 -90q146 0 229 88.5t83 246.5 q0 159 -84 247t-228 88z" />
<glyph unicode="p" horiz-adv-x="1298" d="M367 1024l11 -134q63 80 157.5 118.5t197.5 38.5q217 0 348.5 -138.5t131.5 -398.5q0 -253 -133 -394t-345 -141q-90 0 -168.5 31t-169.5 108v-563h-254v1473h224zM397 697v-372q74 -84 135.5 -116t138.5 -32q143 0 215.5 86t72.5 248q0 157 -78.5 246t-222.5 89 q-175 0 -261 -149z" />
<glyph unicode="q" horiz-adv-x="1286" d="M902 -449v563q-91 -77 -169.5 -108t-168.5 -31q-212 0 -344.5 141t-132.5 394q0 261 131 399t348 138q103 0 197.5 -38.5t157.5 -118.5l11 134h224v-1473h-254zM902 326v371q-86 149 -261 149q-144 0 -222.5 -89t-78.5 -246q0 -162 73 -248t216 -86q77 0 138 32t135 117z " />
<glyph unicode="r" horiz-adv-x="741" d="M704 1050v-204h-49q-165 0 -272 -157v-689h-254v1024h224l12 -154q137 177 327 180h12z" />
<glyph unicode="s" horiz-adv-x="1030" d="M61 126l72 162q56 -46 162.5 -80.5t213.5 -34.5q96 0 154 31.5t58 97.5q0 35 -14.5 58.5t-42.5 36.5t-58.5 20.5t-73.5 15.5q-17 2 -25 4q-63 11 -101 18t-87.5 20t-78 27t-60 36t-48 49t-27.5 65t-11 85q0 77 38.5 137.5t104.5 97t147 55.5t171 19q223 0 377 -96 l-70 -162q-61 31 -148 51t-164 20q-89 0 -147.5 -31t-58.5 -90q0 -24 9 -42t21.5 -29t35.5 -20t43 -13.5t51 -10.5q14 -2 41 -7q92 -16 136.5 -25.5t111 -33t97.5 -54t55 -83.5t24 -126q0 -76 -38 -136t-102.5 -96.5t-143.5 -55t-165 -18.5q-134 0 -259 36t-200 102z" />
<glyph unicode="t" horiz-adv-x="823" d="M468 1024h248v-190h-248v-413q0 -116 68 -178q65 -58 195 -66v-191q-235 -3 -367 96q-149 111 -149 339v413h-170v190h170v277h253v-277z" />
<glyph unicode="u" horiz-adv-x="1247" d="M1133 0h-225l-10 133q-90 -81 -170 -120.5t-183 -39.5q-80 0 -154.5 23.5t-137 69.5t-100.5 123t-38 175v660h254v-608q0 -119 70.5 -179t173.5 -60q68 0 127.5 29.5t138.5 108.5v709h254v-1024z" />
<glyph unicode="v" horiz-adv-x="1161" d="M711 0h-261l-414 1024h259l285 -762l286 762h259z" />
<glyph unicode="w" horiz-adv-x="1714" d="M1308 0h-255l-196 629l-196 -629h-256l-369 1024h258l239 -714l215 714h218l215 -714l239 714h258z" />
<glyph unicode="x" horiz-adv-x="1118" d="M717 512l366 -512h-273l-250 355l-252 -355h-272l369 513l-349 511h271l234 -342l231 342h271z" />
<glyph unicode="y" horiz-adv-x="1187" d="M1151 1024l-492 -1217q-74 -180 -222 -256q-123 -61 -323 -61v188q152 0 235 52q75 47 118 153l45 117h-32l-418 1024h258l287 -754l286 754h258z" />
<glyph unicode="z" horiz-adv-x="999" d="M924 930l-530 -740h542v-190h-878v97l528 737h-487v191h825v-95z" />
<glyph unicode="{" horiz-adv-x="778" d="M701 1466v-185q-127 -14 -188 -76.5t-61 -180.5v-231q0 -82 -38.5 -142t-105.5 -92q67 -32 105.5 -92t38.5 -142v-231q0 -118 62 -180t186 -76v-186q-110 5 -195 29.5t-152.5 74.5t-103.5 135.5t-36 203.5v230q0 125 -136 133v203q136 8 136 133v230q0 95 24.5 169 t67 123.5t105 82.5t133.5 48.5t158 18.5z" />
<glyph unicode="|" horiz-adv-x="415" d="M339 -295h-262v1831h262v-1831z" />
<glyph unicode="}" horiz-adv-x="778" d="M78 1281v185q87 -3 158 -18.5t133.5 -48.5t105 -82.5t67 -123.5t24.5 -169v-231q0 -125 135 -133v-202q-135 -8 -135 -133v-231q0 -118 -36 -203.5t-103.5 -135t-152.5 -74t-196 -29.5v186q128 14 189 76.5t61 180.5v230q0 82 38.5 142t104.5 92q-67 32 -105.5 92.5 t-38.5 142.5v230q0 118 -62 180t-187 77z" />
<glyph unicode="~" horiz-adv-x="1073" d="M199 475l-122 71q98 200 264 200q83 0 215 -69q115 -59 184 -59q102 0 134 93l122 -70q-84 -186 -247 -186q-84 0 -197 59q-131 69 -202 69q-103 0 -151 -108z" />
<glyph unicode="&#xa1;" horiz-adv-x="432" d="M216 1079q57 0 97.5 -37.5t40.5 -89.5t-40.5 -89t-97.5 -37t-98 37t-41 89t41 89.5t98 37.5zM339 -369h-247v1045h247v-1045z" />
<glyph unicode="&#xa2;" horiz-adv-x="1042" d="M698 1041l19 -1q160 -21 257 -103l-141 -157q-62 67 -193 67q-144 0 -229.5 -91t-85.5 -244q0 -155 86 -245t229 -90q56 0 109 17.5t88 51.5l142 -157q-104 -83 -262 -103l-19 -2v-170h-237v186q-183 42 -286.5 181.5t-103.5 330.5q0 189 103 330t287 183v186h237v-170z " />
<glyph unicode="&#xa3;" horiz-adv-x="1312" d="M80 797h144q-38 146 -38 250q8 413 507 413q116 0 204 -19.5t157.5 -64t107 -122.5t39.5 -188h-253q-6 97 -67.5 134.5t-177.5 37.5t-179.5 -50.5t-65.5 -165.5q0 -98 37 -225h504v-216h-463q3 -27 3 -55q0 -38 -7 -74q-15 -107 -111 -237h814v-215h-1156v215 q145 126 176 227q18 43 18 94q0 22 -3 45h-190v216z" />
<glyph unicode="&#xa4;" horiz-adv-x="1585" />
<glyph unicode="&#xa5;" horiz-adv-x="1509" d="M1035 796h145v-188h-258l-37 -78v-82h295v-187h-295v-261h-261v260h-295v188h295v81l-37 79h-258v188h145l-410 638h301l390 -629l389 629h300z" />
<glyph unicode="&#xa6;" horiz-adv-x="415" d="M339 749h-262v787h262v-787zM339 -295h-261v788h261v-788z" />
<glyph unicode="&#xa7;" horiz-adv-x="1179" d="M77 -172l114 179q62 -56 181 -99t240 -44q110 0 176.5 41.5t66.5 126.5q0 30 -7.5 53t-25.5 39.5t-35 27.5t-50.5 21t-56.5 15t-67 13q-56 10 -89.5 17t-80.5 18.5t-75 22t-63 26.5t-55.5 34t-42.5 43.5t-33.5 55t-19 68t-7.5 83.5q0 165 151 262q-73 40 -112 103.5 t-39 162.5q0 76 29 139t78 107t116 74.5t142 45t156 14.5q218 0 382 -91l-123 -182q-138 66 -291 66q-104 0 -172 -39t-68 -115q0 -33 13.5 -59t31.5 -41t51.5 -27.5t57 -17.5t65.5 -13q193 -36 265 -63q146 -55 194 -169q28 -68 28 -163q0 -157 -134 -252q134 -89 134 -276 q0 -94 -43.5 -168t-116.5 -118.5t-162 -67.5t-187 -23q-150 0 -291 44.5t-225 125.5zM593 736l-45 9q-72 -16 -115.5 -55.5t-43.5 -98.5q0 -31 11.5 -55t28 -39t46 -27t55.5 -18.5t66 -13.5q108 -20 141 -29q61 18 97 56t36 94q0 37 -12.5 64t-34.5 43.5t-53 28.5t-66 19.5 t-76 15.5q-23 4 -35 6z" />
<glyph unicode="&#xa8;" horiz-adv-x="913" d="M223 1409q61 0 95 -33.5t34 -80.5t-34 -81t-95 -34t-94.5 34t-33.5 81t33.5 80.5t94.5 33.5zM690 1409q61 0 95 -33.5t34 -80.5t-34 -81t-95 -34t-95 34t-34 81t34 80.5t95 33.5z" />
<glyph unicode="&#xa9;" horiz-adv-x="1628" d="M814 1454q150 0 286.5 -58.5t235 -157t157 -235t58.5 -286.5t-58.5 -286.5t-157 -235t-235 -157t-286.5 -58.5t-286.5 58.5t-235 157t-157 235t-58.5 286.5t58.5 286.5t157 235t235 157t286.5 58.5zM814 1286q-153 0 -283.5 -76.5t-206.5 -207t-76 -283.5t76 -283.5 t206.5 -207t283.5 -76.5t283.5 76.5t207 207t76.5 283.5t-76.5 283.5t-207 207t-283.5 76.5zM979 534l113 -116q-104 -97 -271 -97q-184 0 -291.5 113t-107.5 283t107.5 282.5t291.5 112.5q167 0 271 -97l-113 -116q-58 74 -158 74q-108 0 -168.5 -68.5t-60.5 -187.5 t60.5 -187.5t168.5 -68.5q101 0 158 73z" />
<glyph unicode="&#xaa;" horiz-adv-x="991" d="M235 1250l-47 116q142 80 306 80q66 0 124.5 -16.5t106 -49t75.5 -85.5t28 -120v-454h-168l-7 80q-94 -98 -237 -98q-110 0 -191.5 65t-81.5 176q0 80 45.5 136t112.5 80.5t147 24.5q104 0 190 -39v38q-4 63 -54.5 95.5t-122.5 32.5q-57 0 -119 -18t-107 -44zM639 920 v106q-66 40 -158 40q-70 0 -115.5 -27.5t-45.5 -83.5q0 -53 41.5 -82t103.5 -29q109 0 174 76z" />
<glyph unicode="&#xab;" horiz-adv-x="1230" d="M652 987l-291 -386l291 -385l-161 -126l-414 511l414 511zM1153 987l-291 -386l291 -385l-161 -126l-414 511l414 511z" />
<glyph unicode="&#xac;" horiz-adv-x="1585" />
<glyph unicode="&#xad;" horiz-adv-x="1001" d="M924 622h-847v206h847v-206z" />
<glyph unicode="&#xae;" horiz-adv-x="1628" d="M814 1454q150 0 286.5 -58.5t235 -157t157 -235t58.5 -286.5t-58.5 -286.5t-157 -235t-235 -157t-286.5 -58.5t-286.5 58.5t-235 157t-157 235t-58.5 286.5t58.5 286.5t157 235t235 157t286.5 58.5zM814 1286q-153 0 -283.5 -76.5t-206.5 -207t-76 -283.5t76 -283.5 t206.5 -207t283.5 -76.5t283.5 76.5t207 207t76.5 283.5t-76.5 283.5t-207 207t-283.5 76.5zM527 1083h312q115 0 183.5 -67.5t68.5 -170.5q0 -78 -40 -136.5t-112 -81.5l195 -261h-179l-152 234h-124v-234h-152v717zM678 728h148q54 0 83.5 31t29.5 86q0 54 -29.5 85 t-83.5 31h-148v-233z" />
<glyph unicode="&#xaf;" horiz-adv-x="792" d="M716 1311h-639v154h639v-154z" />
<glyph unicode="&#xb0;" horiz-adv-x="819" d="M410 1647q140 0 236 -91.5t96 -218.5t-96 -218.5t-236 -91.5t-236.5 91.5t-96.5 218.5t96.5 218.5t236.5 91.5zM410 1502q-64 0 -116 -47t-52 -118t52 -118t116 -47t115.5 46.5t51.5 118.5t-51.5 118.5t-115.5 46.5z" />
<glyph unicode="&#xb1;" horiz-adv-x="1062" d="M634 892h351v-206h-351v-331h-206v331h-351v206h352v331h205v-331zM985 -80h-908v205h908v-205z" />
<glyph unicode="&#xb2;" horiz-adv-x="780" d="M267 1202h-176q-4 70 17.5 119t65.5 75.5t98 38t125 11.5q68 0 120 -10t95.5 -34t66.5 -69t23 -109q0 -124 -71 -174t-211 -58q-83 -5 -120 -24t-38 -67v-52h434v-151h-616v187q0 231 327 248q69 4 92.5 20t23.5 67q0 50 -28 66t-99 16q-76 0 -102.5 -19t-26.5 -81z" />
<glyph unicode="&#xb3;" horiz-adv-x="786" d="M275 1226h-181q0 61 24.5 105.5t68 68.5t94 35t110.5 11t110.5 -9.5t95.5 -32t70.5 -65t25.5 -101.5q0 -108 -90 -157q107 -53 107 -174q0 -63 -27 -108t-74 -68.5t-100.5 -33.5t-117.5 -10q-65 0 -118 11.5t-98.5 37t-71 72.5t-26.5 113h179q1 -53 31 -71t103 -18 q74 0 104 17.5t30 71.5t-31 73.5t-103 19.5h-94v131h95q64 0 89.5 16.5t25.5 63.5q0 46 -25 60.5t-90 14.5t-90.5 -14.5t-25.5 -59.5z" />
<glyph unicode="&#xb4;" horiz-adv-x="624" d="M548 1394l-344 -289l-127 151l345 289z" />
<glyph unicode="&#xb6;" horiz-adv-x="1638" d="M1560 1228h-187v-1707h-261v1707h-251v-1707h-262v933h-67q-214 17 -334.5 150t-120.5 338q0 217 138.5 354.5t377.5 137.5h967v-206z" />
<glyph unicode="&#xb7;" horiz-adv-x="411" d="M206 735q61 0 95 -33.5t34 -80.5t-34 -81t-95 -34t-95 34t-34 81t34 80.5t95 33.5z" />
<glyph unicode="&#xb8;" horiz-adv-x="667" d="M425 35l-67 -131q9 2 29 2q89 -3 146.5 -53t57.5 -137q0 -105 -85 -165.5t-206 -60.5q-72 0 -131.5 25.5t-91.5 72.5l89 88q41 -49 126 -49q54 0 87.5 25.5t33.5 73.5q0 47 -34.5 73.5t-96.5 26.5q-22 0 -56 -8l-50 30l90 187h159z" />
<glyph unicode="&#xb9;" horiz-adv-x="471" d="M394 693h-187v574l-130 -29v151l193 43h124v-739z" />
<glyph unicode="&#xba;" horiz-adv-x="1099" d="M549 1446q183 0 288 -104.5t105 -266.5q0 -161 -103.5 -266t-289.5 -105q-123 0 -213.5 51t-134.5 134t-44 186t44 186t134.5 134t213.5 51zM549 1296q-94 0 -148.5 -58.5t-54.5 -162.5t54.5 -162.5t148.5 -58.5q97 0 150.5 57.5t53.5 163.5t-54.5 163.5t-149.5 57.5z " />
<glyph unicode="&#xbb;" horiz-adv-x="1230" d="M652 601l-414 -511l-161 126l291 385l-291 386l161 125zM1154 601l-414 -511l-161 126l290 385l-290 386l161 125z" />
<glyph unicode="&#xbc;" horiz-adv-x="1460" d="M373 -35h-252l883 1503h253zM401 693h-187v574l-129 -29v151l193 43h123v-739zM1308 287h75v-146h-75v-141h-165v141h-409v140l402 461h172v-455zM933 287h210v249z" />
<glyph unicode="&#xbd;" horiz-adv-x="1595" d="M373 -35h-252l883 1503h253zM401 693h-187v574l-129 -29v151l193 43h123v-739zM1082 504h-176q-4 70 17.5 118.5t65.5 75t98 38t125 11.5q54 0 97.5 -6t83.5 -21.5t66.5 -40t42.5 -63.5t16 -91q0 -64 -19.5 -108.5t-58.5 -69.5t-87.5 -37t-116.5 -16q-84 -5 -121 -24.5 t-38 -67.5v-52h435v-150h-617v186q0 232 327 249q69 4 93 20t24 67q0 50 -28.5 66t-99.5 16q-76 0 -102.5 -19t-26.5 -81z" />
<glyph unicode="&#xbe;" horiz-adv-x="1671" d="M585 -35h-252l883 1503h253zM275 1226h-181q0 61 24.5 105.5t68 68.5t94 35t110.5 11t110.5 -9.5t95.5 -32t70.5 -65t25.5 -101.5q0 -108 -90 -157q107 -53 107 -174q0 -63 -27 -108t-74 -68.5t-100.5 -33.5t-117.5 -10q-65 0 -118 11.5t-98.5 37t-71 72.5t-26.5 113h179 q1 -53 31 -71t103 -18q74 0 104 17.5t30 71.5t-31 73.5t-103 19.5h-94v131h95q64 0 89.5 16.5t25.5 63.5q0 46 -25 60.5t-90 14.5t-90.5 -14.5t-25.5 -59.5zM1519 287h76v-146h-76v-141h-164v141h-409v140l402 461h171v-455zM1144 287h211v249z" />
<glyph unicode="&#xbf;" d="M739 1120q57 0 98 -37.5t41 -89.5t-41 -89.5t-98 -37.5t-97.5 37.5t-40.5 89.5t40.5 89.5t97.5 37.5zM869 718v-193q0 -42 -8.5 -76t-20 -58t-35.5 -44t-44 -32.5t-56 -24.5t-61 -18t-70 -16q-104 -23 -144 -45q-91 -50 -91 -173q0 -54 20.5 -90.5t61.5 -56t92.5 -27.5 t124.5 -8q150 0 226 39t76 142h260q0 -90 -29 -158.5t-78.5 -111.5t-121.5 -70.5t-150.5 -38t-173.5 -10.5q-570 0 -570 397q0 55 8.5 102t20.5 82.5t34 66t41.5 51t51 39t53 29t57 21.5t55 15.5t54.5 12.5q78 17 116 50.5t39 113.5v90h262z" />
<glyph unicode="&#xc0;" horiz-adv-x="1572" d="M1018 1666l-126 -151l-344 289l126 151zM1508 0h-274l-126 320h-643l-126 -320h-275l590 1434h265zM544 536h485l-243 612z" />
<glyph unicode="&#xc1;" horiz-adv-x="1572" d="M1030 1804l-345 -289l-126 151l344 289zM1508 0h-274l-126 320h-643l-126 -320h-275l590 1434h265zM544 536h485l-243 612z" />
<glyph unicode="&#xc2;" horiz-adv-x="1572" d="M1123 1637l-127 -127l-216 229l-217 -229l-127 127l344 350zM1508 0h-274l-126 320h-643l-126 -320h-274l589 1434h265zM544 536h485l-243 612z" />
<glyph unicode="&#xc3;" horiz-adv-x="1572" d="M571 1612l-132 85q77 161 205 161q60 0 146 -42q38 -18 51 -24t37 -14t41 -8q54 0 94 72l133 -85q-72 -152 -198 -152q-65 0 -149 42q-3 2 -15.5 8t-16 7.5t-14 6.5t-15 6.5t-13.5 5.5t-14 5t-12 3t-13.5 2.5t-12.5 0.5q-57 0 -102 -80zM1508 0h-274l-126 320h-643 l-126 -320h-274l589 1434h265zM544 536h485l-243 612z" />
<glyph unicode="&#xc4;" horiz-adv-x="1572" d="M547 1819q61 0 95 -33.5t34 -80.5t-34 -81.5t-95 -34.5t-95 34.5t-34 81.5t34 80.5t95 33.5zM1013 1819q61 0 95 -33.5t34 -80.5t-34 -81.5t-95 -34.5t-95 34.5t-34 81.5t34 80.5t95 33.5zM1508 0h-274l-126 320h-643l-126 -320h-274l589 1434h265zM544 536h485l-243 612 z" />
<glyph unicode="&#xc5;" horiz-adv-x="1572" d="M782 2004q115 0 194 -75t79 -178t-79 -178t-194 -75t-194.5 75t-79.5 178t79.5 178t194.5 75zM782 1878q-49 0 -90 -35.5t-41 -91.5t41.5 -92t89.5 -36t89 36t41 92t-41 91.5t-89 35.5zM1508 0h-274l-126 320h-643l-126 -320h-274l589 1434h265zM544 536h485l-243 612z " />
<glyph unicode="&#xc6;" horiz-adv-x="1847" d="M1759 1218h-711v-373h652v-215h-652v-415h711v-215h-973v320h-321l-126 -320h-274l589 1434h1105v-216zM544 536h242v612z" />
<glyph unicode="&#xc7;" horiz-adv-x="1425" d="M557 -152l78 157q-247 61 -384.5 254t-137.5 459q0 156 49.5 290.5t142 234t233 156.5t312.5 57q290 0 482 -163l-170 -174q-116 119 -312 119q-223 0 -349 -140t-126 -380t126 -380.5t349 -140.5q196 0 312 119l170 -174q-174 -147 -437 -162q-25 0 -111 4l-45 -80 q12 2 35 2q91 -8 144.5 -56.5t53.5 -133.5q0 -105 -85 -165.5t-206 -60.5q-72 0 -131.5 25.5t-91.5 72.5l89 88q41 -49 126 -49q54 0 87.5 25.5t33.5 73.5q0 47 -34.5 73.5t-96.5 26.5q-22 0 -56 -8z" />
<glyph unicode="&#xc8;" horiz-adv-x="1224" d="M868 1666l-127 -151l-344 289l126 151zM1135 1218h-711v-373h652v-215h-652v-415h711v-215h-973v1434h973v-216z" />
<glyph unicode="&#xc9;" horiz-adv-x="1224" d="M879 1804l-344 -289l-127 151l345 289zM1135 1218h-711v-373h652v-215h-652v-415h711v-215h-973v1434h973v-216z" />
<glyph unicode="&#xca;" horiz-adv-x="1224" d="M973 1637l-128 -127l-216 229l-217 -229l-127 127l344 350zM1135 1218h-711v-373h652v-215h-652v-415h711v-215h-973v1434h973v-216z" />
<glyph unicode="&#xcb;" horiz-adv-x="1224" d="M396 1819q61 0 95 -33.5t34 -80.5t-34.5 -81.5t-94.5 -34.5t-94.5 34.5t-34.5 81.5t34 80.5t95 33.5zM862 1819q61 0 95 -33.5t34 -80.5t-34.5 -81.5t-94.5 -34.5t-94 34t-34 82q0 47 33.5 80.5t94.5 33.5zM1135 1218h-711v-373h652v-215h-652v-415h711v-215h-973v1434 h973v-216z" />
<glyph unicode="&#xcc;" horiz-adv-x="585" d="M528 1666l-126 -151l-345 289l127 151zM424 0h-262v1434h262v-1434z" />
<glyph unicode="&#xcd;" horiz-adv-x="585" d="M539 1804l-344 -289l-127 151l345 289zM424 0h-262v1434h262v-1434z" />
<glyph unicode="&#xce;" horiz-adv-x="585" d="M633 1637l-127 -127l-217 229l-217 -229l-125 127l342 350zM424 0h-262v1434h262v-1434z" />
<glyph unicode="&#xcf;" horiz-adv-x="585" d="M56 1819q61 0 95 -33.5t34 -80.5t-34.5 -81.5t-94.5 -34.5t-94 34t-34 82q0 47 33.5 80.5t94.5 33.5zM523 1819q61 0 95 -33.5t34 -80.5t-34 -81.5t-95 -34.5t-95 34.5t-34 81.5t34 80.5t95 33.5zM424 0h-262v1434h262v-1434z" />
<glyph unicode="&#xd0;" horiz-adv-x="1515" d="M170 1434h494q172 0 312 -53t233 -148t143.5 -226.5t50.5 -288.5q0 -212 -85.5 -373t-254.5 -253t-399 -92h-494v607h-184v206h184v621zM432 1216v-403h311v-206h-311v-390h232q230 0 353.5 130.5t123.5 370.5q0 236 -125 367t-352 131h-232z" />
<glyph unicode="&#xd1;" horiz-adv-x="1480" d="M533 1612l-132 85q77 161 206 161q59 0 145 -42q96 -46 130 -46q54 0 94 72l132 -85q-72 -152 -198 -152q-65 0 -149 42q-3 2 -15.5 8t-16 7.5t-14 6.5t-15 6.5t-13.5 5.5t-14 5t-12 3t-13.5 2.5t-12.5 0.5q-57 0 -102 -80zM1334 0h-303l-621 965v-965h-262v1434h302 l622 -966v966h262v-1434z" />
<glyph unicode="&#xd2;" horiz-adv-x="1701" d="M1090 1666l-126 -151l-345 289l127 151zM850 1456q229 0 398.5 -98.5t255 -264t85.5 -375.5q0 -158 -49.5 -293t-141.5 -235t-233 -156.5t-315 -56.5q-170 0 -309.5 56.5t-232.5 156t-144 235t-51 293.5q0 156 49.5 290.5t142 234t233 156.5t312.5 57zM850 1238 q-223 0 -349 -140t-126 -380q0 -241 127.5 -381.5t347.5 -140.5q226 0 351.5 139.5t125.5 382.5q0 240 -127 380t-350 140z" />
<glyph unicode="&#xd3;" horiz-adv-x="1701" d="M1101 1804l-344 -289l-126 151l344 289zM850 1456q229 0 398.5 -98.5t255 -264t85.5 -375.5q0 -158 -49.5 -293t-141.5 -235t-233 -156.5t-315 -56.5q-170 0 -309.5 56.5t-232.5 156t-144 235t-51 293.5q0 156 49.5 290.5t142 234t233 156.5t312.5 57zM850 1238 q-223 0 -349 -140t-126 -380q0 -241 127.5 -381.5t347.5 -140.5q226 0 351.5 139.5t125.5 382.5q0 240 -127 380t-350 140z" />
<glyph unicode="&#xd4;" horiz-adv-x="1701" d="M1195 1637l-127 -127l-217 229l-216 -229l-128 127l344 350zM850 1456q229 0 398.5 -98.5t255 -264t85.5 -375.5q0 -158 -49.5 -293t-141.5 -235t-233 -156.5t-315 -56.5q-170 0 -309.5 56.5t-232.5 156t-144 235t-51 293.5q0 156 49.5 290.5t142 234t233 156.5t312.5 57 zM850 1238q-223 0 -349 -140t-126 -380q0 -241 127.5 -381.5t347.5 -140.5q226 0 351.5 139.5t125.5 382.5q0 240 -127 380t-350 140z" />
<glyph unicode="&#xd5;" horiz-adv-x="1701" d="M642 1612l-132 85q77 161 206 161q60 0 146 -42q38 -18 51 -24t37 -14t41 -8q54 0 94 72l132 -85q-72 -152 -197 -152q-65 0 -149 42q-3 2 -15.5 8t-16 7.5t-14 6.5t-15 6.5t-13.5 5.5t-14 5t-12 3t-13.5 2.5t-12.5 0.5q-58 0 -103 -80zM850 1456q229 0 398.5 -98.5 t255 -264t85.5 -375.5q0 -158 -49.5 -293t-141.5 -235t-233 -156.5t-315 -56.5q-170 0 -309.5 56.5t-232.5 156t-144 235t-51 293.5q0 156 49.5 290.5t142 234t233 156.5t312.5 57zM850 1238q-223 0 -349 -140t-126 -380q0 -241 127.5 -381.5t347.5 -140.5 q226 0 351.5 139.5t125.5 382.5q0 240 -127 380t-350 140z" />
<glyph unicode="&#xd6;" horiz-adv-x="1701" d="M618 1819q61 0 95 -33.5t34 -80.5t-34.5 -81.5t-94.5 -34.5t-94 34t-34 82q0 47 33.5 80.5t94.5 33.5zM1085 1819q61 0 95 -33.5t34 -80.5t-34 -81.5t-95 -34.5t-95 34.5t-34 81.5t34 80.5t95 33.5zM850 1456q229 0 398.5 -98.5t255 -264t85.5 -375.5q0 -158 -49.5 -293 t-141.5 -235t-233 -156.5t-315 -56.5q-170 0 -309.5 56.5t-232.5 156t-144 235t-51 293.5q0 156 49.5 290.5t142 234t233 156.5t312.5 57zM850 1238q-223 0 -349 -140t-126 -380q0 -241 127.5 -381.5t347.5 -140.5q226 0 351.5 139.5t125.5 382.5q0 240 -127 380t-350 140z " />
<glyph unicode="&#xd7;" horiz-adv-x="942" d="M471 744l248 249l146 -146l-249 -248l249 -248l-146 -146l-248 249l-248 -249l-146 146l249 248l-249 249l146 145z" />
<glyph unicode="&#xd8;" horiz-adv-x="1701" d="M1311 1536l-71 -174q167 -93 258 -262.5t91 -381.5q0 -158 -49.5 -293t-141.5 -235t-233 -156.5t-315 -56.5q-84 0 -169 16l-38 -95h-253l71 173q-166 93 -257 263t-91 384q0 156 49.5 290.5t142 234t233 156.5t312.5 57q86 0 171 -16l39 96h251zM551 291l384 941 q-41 6 -85 6q-223 0 -349 -140t-126 -380q0 -288 176 -427zM1151 1143l-384 -942q34 -5 83 -5q226 0 351.5 139.5t125.5 382.5q0 286 -176 425z" />
<glyph unicode="&#xd9;" horiz-adv-x="1511" d="M993 1666l-127 -151l-344 289l126 151zM1364 1434v-778q0 -121 -17.5 -219.5t-60 -186t-110 -147t-172 -94t-241.5 -34.5q-136 0 -240 33.5t-171.5 92.5t-110.5 146t-61 186.5t-18 222.5v778h262v-755q0 -245 76 -355t263 -110q189 0 264 110.5t75 354.5v755h262z" />
<glyph unicode="&#xda;" horiz-adv-x="1511" d="M1004 1804l-344 -289l-127 151l345 289zM1364 1434v-778q0 -121 -17.5 -219.5t-60 -186t-110 -147t-172 -94t-241.5 -34.5q-136 0 -240 33.5t-171.5 92.5t-110.5 146t-61 186.5t-18 222.5v778h262v-755q0 -245 76 -355t263 -110q189 0 264 110.5t75 354.5v755h262z" />
<glyph unicode="&#xdb;" horiz-adv-x="1511" d="M1098 1637l-127 -127l-217 229l-216 -229l-128 127l344 350zM1364 1434v-778q0 -121 -17.5 -219.5t-60 -186t-110 -147t-172 -94t-241.5 -34.5q-136 0 -240 33.5t-171.5 92.5t-110.5 146t-61 186.5t-18 222.5v778h262v-755q0 -245 76 -355t263 -110q189 0 264 110.5 t75 354.5v755h262z" />
<glyph unicode="&#xdc;" horiz-adv-x="1511" d="M521 1819q61 0 95 -33.5t34 -80.5t-34 -81.5t-95 -34.5q-60 0 -94 34t-34 82q0 47 33.5 80.5t94.5 33.5zM988 1819q61 0 95 -33.5t34 -80.5t-34.5 -81.5t-94.5 -34.5t-94.5 34.5t-34.5 81.5t34 80.5t95 33.5zM1364 1434v-778q0 -121 -17.5 -219.5t-60 -186t-110 -147 t-172 -94t-241.5 -34.5q-136 0 -240 33.5t-171.5 92.5t-110.5 146t-61 186.5t-18 222.5v778h262v-755q0 -245 76 -355t263 -110q189 0 264 110.5t75 354.5v755h262z" />
<glyph unicode="&#xdd;" horiz-adv-x="1509" d="M1004 1804l-345 -289l-126 151l344 289zM885 570v-570h-261v570l-560 864h301l390 -629l389 629h300z" />
<glyph unicode="&#xde;" horiz-adv-x="1417" d="M424 1196h356q239 0 377.5 -137.5t138.5 -354.5q0 -219 -137.5 -355.5t-378.5 -136.5h-356v-212h-262v1434h262v-238zM424 423h327q134 0 208.5 75.5t74.5 205.5q0 129 -75 204.5t-208 75.5h-327v-561z" />
<glyph unicode="&#xdf;" horiz-adv-x="1374" d="M144 3v1060q8 396 510 396q109 0 194.5 -18t159 -60.5t114 -123t40.5 -194.5q0 -214 -155 -300q290 -80 290 -377q0 -99 -32.5 -173t-85 -117.5t-131 -70.5t-157 -36t-176.5 -9h-167v221h176q77 0 129.5 8t96.5 30t65 64t21 107q0 64 -21 107.5t-63.5 67t-94.5 33.5 t-126 10h-73v212l29 1q105 4 159 47.5t54 150.5q0 114 -62 156.5t-185 42.5q-121 0 -184 -41.5t-64 -149.5v-1044h-261z" />
<glyph unicode="&#xe0;" d="M878 1256l-126 -151l-345 289l127 151zM1156 0h-224l-11 134q-63 -80 -157.5 -118.5t-197.5 -38.5q-210 0 -344.5 140t-134.5 397q0 253 132.5 394t344.5 141q99 0 180.5 -37t177.5 -122l10 134h224v-1024zM902 327v372q-75 84 -135.5 116t-137.5 32q-143 0 -216 -86 t-73 -248q0 -157 78.5 -246t222.5 -89q175 0 261 149z" />
<glyph unicode="&#xe1;" d="M889 1394l-344 -289l-126 151l344 289zM1156 0h-224l-11 134q-63 -80 -157.5 -118.5t-197.5 -38.5q-210 0 -344.5 140t-134.5 397q0 253 132.5 394t344.5 141q99 0 180.5 -37t177.5 -122l10 134h224v-1024zM902 327v372q-75 84 -135.5 116t-137.5 32q-143 0 -216 -86 t-73 -248q0 -157 78.5 -246t222.5 -89q175 0 261 149z" />
<glyph unicode="&#xe2;" d="M983 1227l-127 -127l-217 229l-216 -229l-128 127l344 351zM1156 0h-224l-11 134q-63 -80 -157.5 -118.5t-197.5 -38.5q-210 0 -344.5 140t-134.5 397q0 253 132.5 394t344.5 141q99 0 180.5 -37t177.5 -122l10 134h224v-1024zM902 327v372q-75 84 -135.5 116t-137.5 32 q-143 0 -216 -86t-73 -248q0 -157 78.5 -246t222.5 -89q175 0 261 149z" />
<glyph unicode="&#xe3;" d="M430 1202l-132 85q77 161 206 161q60 0 146 -42q94 -45 129 -45q54 0 94 71l132 -84q-72 -153 -197 -153q-65 0 -149 42q-3 2 -15.5 8t-16 7.5t-14 6.5t-15 6.5t-13.5 5.5t-14 5t-12 3t-13.5 2.5t-12.5 0.5q-58 0 -103 -80zM1156 0h-224l-11 134q-63 -80 -157.5 -118.5 t-197.5 -38.5q-210 0 -344.5 140t-134.5 397q0 253 132.5 394t344.5 141q99 0 180.5 -37t177.5 -122l10 134h224v-1024zM902 327v372q-75 84 -135.5 116t-137.5 32q-143 0 -216 -86t-73 -248q0 -157 78.5 -246t222.5 -89q175 0 261 149z" />
<glyph unicode="&#xe4;" d="M406 1409q61 0 95 -33.5t34 -80.5t-34 -81t-95 -34q-60 0 -94 34t-34 81t33.5 80.5t94.5 33.5zM873 1409q61 0 95 -33.5t34 -80.5t-34 -81t-95 -34t-95 34t-34 81t34 80.5t95 33.5zM1156 0h-224l-11 134q-63 -80 -157.5 -118.5t-197.5 -38.5q-210 0 -344.5 140 t-134.5 397q0 253 132.5 394t344.5 141q99 0 180.5 -37t177.5 -122l10 134h224v-1024zM902 327v372q-75 84 -135.5 116t-137.5 32q-143 0 -216 -86t-73 -248q0 -157 78.5 -246t222.5 -89q175 0 261 149z" />
<glyph unicode="&#xe5;" d="M641 1594q115 0 194.5 -75t79.5 -178t-79.5 -178t-194.5 -75t-194 75t-79 178t79 178t194 75zM641 1469q-48 0 -89 -36t-41 -92t41 -92t89 -36t89.5 36t41.5 92t-41.5 92t-89.5 36zM1156 0h-224l-11 134q-63 -80 -157.5 -118.5t-197.5 -38.5q-210 0 -344.5 140 t-134.5 397q0 253 132.5 394t344.5 141q99 0 180.5 -37t177.5 -122l10 134h224v-1024zM902 327v372q-75 84 -135.5 116t-137.5 32q-143 0 -216 -86t-73 -248q0 -157 78.5 -246t222.5 -89q175 0 261 149z" />
<glyph unicode="&#xe6;" horiz-adv-x="2105" d="M1156 1024v-154q58 85 154 132.5t223 47.5q167 0 282 -52t166 -145q52 -72 52 -165q0 -86 -41.5 -144.5t-116.5 -87.5t-155 -40.5t-182 -11.5q-63 0 -295 14q22 -115 99.5 -180.5t196.5 -69.5q167 -9 324 84l108 -127q-164 -148 -432 -148q-129 0 -227 47.5t-156 133.5 v-158h-224l-11 134q-63 -80 -157.5 -118.5t-197.5 -38.5q-210 0 -344.5 140t-134.5 397q0 253 132.5 394t344.5 141q99 0 180.5 -37t177.5 -122l10 134h224zM1527 869q-131 0 -204 -72.5t-78 -195.5q-1 -19 0 -39q135 -23 255 -23q280 0 293 133q9 97 -66 147t-200 50z M902 327v372q-75 84 -135.5 116t-137.5 32q-143 0 -216 -86t-73 -248q0 -157 78.5 -246t222.5 -89q175 0 261 149z" />
<glyph unicode="&#xe7;" horiz-adv-x="1067" d="M387 -152l75 150q-177 49 -276 188t-99 326q0 110 36.5 207t104.5 171t174 116.5t237 42.5q222 0 351 -112l-142 -157q-62 67 -192 67q-144 0 -230 -91t-86 -244q0 -155 86.5 -245t229.5 -90q56 0 109 17.5t88 51.5l142 -157q-121 -99 -312 -112h-21q-18 0 -50 2l-43 -75 q11 2 33 2q91 -5 145.5 -54.5t54.5 -135.5q0 -106 -84.5 -166t-205.5 -60q-72 0 -132 25.5t-92 72.5l90 88q41 -49 125 -49q54 0 87.5 25.5t33.5 73.5q0 47 -34.5 73.5t-96.5 26.5q-22 0 -56 -8z" />
<glyph unicode="&#xe8;" horiz-adv-x="1202" d="M840 1256l-126 -151l-344 289l126 151zM960 252l108 -127q-164 -148 -433 -148q-130 0 -235 41.5t-173 115t-104 170.5t-36 210q0 111 35.5 208t102 170.5t170.5 115.5t234 42q167 0 282.5 -52t166.5 -145q49 -75 49 -165q0 -31 -6 -64q-48 -222 -473 -222q-85 0 -309 16 q22 -115 99.5 -180.5t196.5 -69.5q80 -5 165.5 17.5t159.5 66.5zM623 869q-134 0 -208.5 -76t-74.5 -200l1 -31q130 -22 255 -22q280 0 293 132q9 97 -66 147t-200 50z" />
<glyph unicode="&#xe9;" horiz-adv-x="1202" d="M852 1394l-345 -289l-126 151l344 289zM960 252l108 -127q-164 -148 -433 -148q-130 0 -235 41.5t-173 115t-104 170.5t-36 210q0 111 35.5 208t102 170.5t170.5 115.5t234 42q167 0 282.5 -52t166.5 -145q51 -77 51 -167q0 -69 -28 -120.5t-72.5 -82.5t-110 -49.5 t-130 -25t-142.5 -6.5q-50 0 -103.5 2.5t-119 7.5t-84.5 6q22 -115 99.5 -180.5t196.5 -69.5q80 -5 165.5 17.5t159.5 66.5zM623 869q-134 0 -208.5 -76t-74.5 -200l1 -31q130 -22 255 -22q280 0 293 132q9 97 -66 147t-200 50z" />
<glyph unicode="&#xea;" horiz-adv-x="1202" d="M945 1227l-127 -127l-216 229l-217 -229l-127 127l344 351zM960 252l108 -127q-164 -148 -433 -148q-130 0 -235 41.5t-173 115t-104 170.5t-36 210q0 111 35.5 208t102 170.5t170.5 115.5t234 42q167 0 282.5 -52t166.5 -145q50 -77 50 -166q0 -285 -488 -285 q-50 0 -102 2.5t-117 7.5t-82 6q22 -115 99.5 -180.5t196.5 -69.5q80 -5 165.5 17.5t159.5 66.5zM624 869q-135 0 -209.5 -76.5t-74.5 -199.5l1 -31q130 -22 255 -22q280 0 293 132q9 97 -65.5 147t-199.5 50z" />
<glyph unicode="&#xeb;" horiz-adv-x="1202" d="M369 1409q61 0 95 -33.5t34 -80.5t-34 -81t-95 -34t-95 34t-34 81t34 80.5t95 33.5zM835 1409q61 0 95 -33.5t34 -80.5t-34 -81t-95 -34t-95 34t-34 81t34 80.5t95 33.5zM960 252l108 -127q-164 -148 -433 -148q-130 0 -235 41.5t-173 115t-104 170.5t-36 210 q0 111 35.5 208t102 170.5t170.5 115.5t234 42q167 0 282.5 -52t166.5 -145q50 -77 50 -166q0 -31 -6 -62q-47 -223 -476 -223q-51 0 -104 2.5t-119 7.5t-84 6q22 -115 99.5 -180.5t196.5 -69.5q80 -5 165.5 17.5t159.5 66.5zM623 869q-134 0 -208.5 -76t-74.5 -200l1 -31 q130 -22 255 -22q280 0 293 132q9 97 -66 147t-200 50z" />
<glyph unicode="&#xec;" horiz-adv-x="518" d="M504 1256l-126 -151l-345 289l127 151zM393 0h-254v1024h254v-1024z" />
<glyph unicode="&#xed;" horiz-adv-x="518" d="M516 1394l-345 -289l-126 151l344 289zM393 0h-254v1024h254v-1024z" />
<glyph unicode="&#xee;" horiz-adv-x="518" d="M609 1227l-127 -127l-217 229l-216 -229l-129 127l345 351zM393 0h-254v1024h254v-1024z" />
<glyph unicode="&#xef;" horiz-adv-x="518" d="M33 1409q61 0 94.5 -33.5t33.5 -80.5t-33.5 -81t-94.5 -34q-60 0 -94.5 34t-34.5 81t34.5 80.5t94.5 33.5zM499 1409q61 0 95 -33.5t34 -80.5t-34 -81t-95 -34t-95 34t-34 81t34 80.5t95 33.5zM393 0h-254v1024h254v-1024z" />
<glyph unicode="&#xf0;" horiz-adv-x="1228" d="M300 1285l-99 165q122 86 219.5 118t225.5 32q281 0 417 -142l123 72l99 -157l-125 -72q71 -171 71 -546q0 -96 -6 -174t-22.5 -159.5t-43.5 -144.5t-72 -119.5t-105 -93.5t-145 -58.5t-191 -21.5q-100 0 -181.5 13.5t-158 48.5t-128.5 91t-83 146.5t-31 209.5 q0 115 28.5 203t76.5 142.5t118.5 89t146.5 47.5t169 13q133 0 223.5 -30.5t152.5 -114.5l1 78q0 174 -40 253l-163 -94l-98 156l156 91q-62 67 -189 67q-96 0 -174 -21.5t-172 -87.5zM646 786q-82 0 -140 -13t-104.5 -45t-69.5 -92t-23 -149t23 -149t70 -91.5t104.5 -44.5 t139.5 -13q90 0 153 25.5t100.5 76t56.5 115t26 154.5q-16 58 -39.5 98.5t-51 65.5t-67.5 39t-80.5 18.5t-97.5 4.5z" />
<glyph unicode="&#xf1;" horiz-adv-x="1261" d="M448 1202l-133 85q77 161 206 161q60 0 146 -42q94 -45 129 -45q54 0 94 71l133 -84q-72 -153 -198 -153q-65 0 -149 42q-3 2 -15.5 8t-16 7.5t-14 6.5t-15 6.5t-13.5 5.5t-14 5t-12 3t-13.5 2.5t-12.5 0.5q-57 0 -102 -80zM353 1024l11 -134q90 81 170 121t183 40 q80 0 154.5 -23.5t137 -69.5t100.5 -123t38 -175v-660h-254v608q0 119 -70.5 179t-173.5 60q-68 0 -127.5 -29.5t-138.5 -108.5v-709h-254v1024h224z" />
<glyph unicode="&#xf2;" horiz-adv-x="1304" d="M891 1256l-126 -151l-345 289l127 151zM652 1049q264 0 415 -150.5t151 -386.5q0 -114 -37 -211t-106.5 -170t-178 -114.5t-244.5 -41.5q-178 0 -308 73.5t-193.5 193.5t-63.5 270t63.5 270t193.5 193.5t308 73.5zM652 847q-143 0 -227.5 -90t-84.5 -245t84.5 -245 t227.5 -90q146 0 229 88.5t83 246.5q0 159 -84 247t-228 88z" />
<glyph unicode="&#xf3;" horiz-adv-x="1304" d="M902 1394l-344 -289l-126 151l344 289zM652 1049q264 0 415 -150.5t151 -386.5q0 -114 -37 -211t-106.5 -170t-178 -114.5t-244.5 -41.5q-178 0 -308 73.5t-193.5 193.5t-63.5 270t63.5 270t193.5 193.5t308 73.5zM652 847q-143 0 -227.5 -90t-84.5 -245t84.5 -245 t227.5 -90q146 0 229 88.5t83 246.5q0 159 -84 247t-228 88z" />
<glyph unicode="&#xf4;" horiz-adv-x="1304" d="M996 1227l-127 -127l-217 229l-216 -229l-128 127l344 351zM652 1049q264 0 415 -150.5t151 -386.5q0 -114 -37 -211t-106.5 -170t-178 -114.5t-244.5 -41.5q-178 0 -308 73.5t-193.5 193.5t-63.5 270t63.5 270t193.5 193.5t308 73.5zM652 847q-143 0 -227.5 -90 t-84.5 -245t84.5 -245t227.5 -90q146 0 229 88.5t83 246.5q0 159 -84 247t-228 88z" />
<glyph unicode="&#xf5;" horiz-adv-x="1304" d="M443 1202l-132 85q77 161 206 161q60 0 146 -42q94 -45 129 -45q54 0 94 71l132 -84q-72 -153 -197 -153q-65 0 -149 42q-3 2 -15.5 8t-16 7.5t-14 6.5t-15 6.5t-13.5 5.5t-14 5t-12 3t-13.5 2.5t-12.5 0.5q-58 0 -103 -80zM652 1049q264 0 415 -150.5t151 -386.5 q0 -114 -37 -211t-106.5 -170t-178 -114.5t-244.5 -41.5q-178 0 -308 73.5t-193.5 193.5t-63.5 270t63.5 270t193.5 193.5t308 73.5zM652 847q-143 0 -227.5 -90t-84.5 -245t84.5 -245t227.5 -90q146 0 229 88.5t83 246.5q0 159 -84 247t-228 88z" />
<glyph unicode="&#xf6;" horiz-adv-x="1304" d="M419 1409q61 0 95 -33.5t34 -80.5t-34 -81t-95 -34t-94.5 34t-33.5 81t33.5 80.5t94.5 33.5zM886 1409q61 0 95 -33.5t34 -80.5t-34 -81t-95 -34t-95 34t-34 81t34 80.5t95 33.5zM652 1049q264 0 415 -150.5t151 -386.5q0 -114 -37 -211t-106.5 -170t-178 -114.5 t-244.5 -41.5q-178 0 -308 73.5t-193.5 193.5t-63.5 270t63.5 270t193.5 193.5t308 73.5zM652 847q-143 0 -227.5 -90t-84.5 -245t84.5 -245t227.5 -90q146 0 229 88.5t83 246.5q0 159 -84 247t-228 88z" />
<glyph unicode="&#xf7;" horiz-adv-x="1062" d="M531 1161q61 0 95 -34t34 -81t-34 -80.5t-95 -33.5t-95 33.5t-34 80.5t34 81t95 34zM985 584h-908v206h908v-206zM531 442q61 0 95 -34t34 -81t-34 -81t-95 -34t-95 34t-34 81t34 81t95 34z" />
<glyph unicode="&#xf8;" horiz-adv-x="1304" d="M1010 1126l-59 -144q129 -67 198 -190t69 -280q0 -114 -37 -211t-106.5 -170t-178 -114.5t-244.5 -41.5q-55 0 -109 8l-34 -85h-215l60 145q-129 68 -198 192t-69 277q0 150 63.5 270t193.5 193.5t308 73.5q54 0 110 -8l34 85h214zM682 846l-30 1q-143 0 -227.5 -90 t-84.5 -245q0 -168 99 -259zM623 178l29 -1q146 0 229 88.5t83 246.5q0 172 -98 261z" />
<glyph unicode="&#xf9;" horiz-adv-x="1247" d="M872 1256l-126 -151l-344 289l126 151zM1133 0h-225l-10 133q-90 -81 -170 -120.5t-183 -39.5q-80 0 -154.5 23.5t-137 69.5t-100.5 123t-38 175v660h254v-608q0 -119 70.5 -179t173.5 -60q68 0 127.5 29.5t138.5 108.5v709h254v-1024z" />
<glyph unicode="&#xfa;" horiz-adv-x="1247" d="M884 1394l-345 -289l-126 151l344 289zM1133 0h-225l-10 133q-90 -81 -170 -120.5t-183 -39.5q-80 0 -154.5 23.5t-137 69.5t-100.5 123t-38 175v660h254v-608q0 -119 70.5 -179t173.5 -60q68 0 127.5 29.5t138.5 108.5v709h254v-1024z" />
<glyph unicode="&#xfb;" horiz-adv-x="1247" d="M977 1227l-127 -127l-216 229l-217 -229l-127 127l344 351zM1133 0h-225l-10 133q-90 -81 -170 -120.5t-183 -39.5q-80 0 -154.5 23.5t-137 69.5t-100.5 123t-38 175v660h254v-608q0 -119 70.5 -179t173.5 -60q68 0 127.5 29.5t138.5 108.5v709h254v-1024z" />
<glyph unicode="&#xfc;" horiz-adv-x="1247" d="M401 1409q61 0 95 -33.5t34 -80.5t-34 -81t-95 -34t-95 34t-34 81t34 80.5t95 33.5zM867 1409q61 0 95 -33.5t34 -80.5t-34 -81t-95 -34t-95 34t-34 81t34 80.5t95 33.5zM1133 0h-225l-10 133q-90 -81 -170 -120.5t-183 -39.5q-80 0 -154.5 23.5t-137 69.5t-100.5 123 t-38 175v660h254v-608q0 -119 70.5 -179t173.5 -60q68 0 127.5 29.5t138.5 108.5v709h254v-1024z" />
<glyph unicode="&#xfd;" horiz-adv-x="1187" d="M836 1394l-344 -289l-127 151l345 289zM1151 1024l-492 -1217q-74 -180 -222 -256q-123 -61 -323 -61v188q152 0 235 52q75 47 118 153l45 117h-32l-418 1024h258l287 -754l286 754h258z" />
<glyph unicode="&#xfe;" horiz-adv-x="1298" d="M396 1434v-525q65 71 153.5 104.5t183.5 33.5q217 0 348.5 -138.5t131.5 -398.5q0 -253 -133 -394t-345 -141q-90 0 -168.5 31t-169.5 108v-563h-254v1883h253zM397 697v-372q74 -84 135.5 -116t138.5 -32q143 0 215.5 86t72.5 248q0 157 -78.5 246t-222.5 89 q-175 0 -261 -149z" />
<glyph unicode="&#xff;" horiz-adv-x="1187" d="M353 1409q61 0 95 -33.5t34 -80.5t-34 -81t-95 -34t-94.5 34t-33.5 81t33.5 80.5t94.5 33.5zM820 1409q61 0 95 -33.5t34 -80.5t-34 -81t-95 -34t-95 34t-34 81t34 80.5t95 33.5zM1151 1024l-492 -1217q-74 -180 -222 -256q-123 -61 -323 -61v188q152 0 235 52 q75 47 118 153l45 117h-32l-418 1024h258l287 -754l286 754h258z" />
<glyph unicode="&#x131;" horiz-adv-x="518" d="M393 0h-254v1024h254v-1024z" />
<glyph unicode="&#x152;" horiz-adv-x="2387" d="M1327 0v214q-71 -111 -193 -174t-284 -63q-170 0 -309.5 56.5t-232.5 156t-144 235t-51 293.5q0 156 49.5 290.5t142 234t233 156.5t312.5 57q162 0 284 -63t193 -174v215h973v-216h-711v-373h652v-215h-652v-415h711v-215h-973zM850 1238q-223 0 -349 -140t-126 -380 q0 -241 127.5 -381.5t347.5 -140.5q226 0 351.5 139.5t125.5 382.5q0 240 -127 380t-350 140z" />
<glyph unicode="&#x153;" horiz-adv-x="2080" d="M1838 252l108 -127q-164 -148 -433 -148q-148 0 -257 59.5t-167 164.5q-60 -107 -171.5 -166.5t-265.5 -59.5q-178 0 -308 73.5t-193.5 193.5t-63.5 270t63.5 270t193.5 193.5t308 73.5q151 0 263 -59.5t173 -165.5q58 106 165 166t254 60q167 0 282.5 -52t166.5 -145 q50 -75 50 -166q0 -69 -28 -121t-73 -82.5t-110.5 -49.5t-130.5 -25.5t-143 -6.5q-50 0 -102.5 2.5t-117.5 7.5t-84 6q22 -115 99.5 -180.5t196.5 -69.5q80 -5 165.5 17.5t159.5 66.5zM1501 869q-130 0 -203 -72t-78 -194q-2 -26 -1 -41q135 -23 255 -23q280 0 293 133 q9 97 -66 147t-200 50zM652 847q-143 0 -227.5 -90t-84.5 -245t84.5 -245t227.5 -90q146 0 229 88.5t83 246.5q0 159 -84 247t-228 88z" />
<glyph unicode="&#x178;" horiz-adv-x="1509" d="M521 1819q61 0 95 -33.5t34 -80.5t-34 -81.5t-95 -34.5t-95 34.5t-34 81.5t34 80.5t95 33.5zM987 1819q61 0 95 -33.5t34 -80.5t-34 -81.5t-95 -34.5t-95 34.5t-34 81.5t34 80.5t95 33.5zM885 570v-570h-261v570l-560 864h301l390 -629l389 629h300z" />
<glyph unicode="&#x192;" horiz-adv-x="798" d="M798 1529v-188q-166 5 -248 -59q-51 -36 -73 -98t-22 -162v-112h286v-190h-286v-740q-1 -282 -192 -388q-87 -66 -217 -88v197q58 27 88 66q67 60 67 215v738h-154v190h154v112q0 300 192 425q127 85 324 85q39 0 81 -3z" />
<glyph unicode="&#x2c6;" horiz-adv-x="841" d="M765 1227l-128 -127l-216 229l-217 -229l-127 127l344 351z" />
<glyph unicode="&#x2c7;" horiz-adv-x="841" d="M765 1445l-344 -350l-344 350l127 127l217 -228l216 228z" />
<glyph unicode="&#x2d8;" horiz-adv-x="796" d="M553 1451h166q-6 -130 -96.5 -215.5t-224.5 -85.5t-224.5 86t-96.5 217h166q5 -76 49.5 -116t105.5 -40t105.5 40t49.5 114z" />
<glyph unicode="&#x2d9;" horiz-adv-x="411" d="M206 1409q61 0 95 -33.5t34 -80.5t-34 -81t-95 -34t-95 34t-34 81t34 80.5t95 33.5z" />
<glyph unicode="&#x2da;" horiz-adv-x="700" d="M350 1594q115 0 194.5 -75t79.5 -178t-79.5 -178t-194.5 -75t-194 75t-79 178t79 178t194 75zM350 1469q-48 0 -89 -36t-41 -92t41 -92t89 -36t89.5 36t41.5 92t-41.5 92t-89.5 36z" />
<glyph unicode="&#x2db;" horiz-adv-x="647" d="M271 26l231 1q-234 -162 -234 -276q0 -40 29.5 -65t78.5 -25q57 0 126 38l68 -129q-126 -57 -236 -57q-80 0 -140 28.5t-90 77.5q-27 48 -27 101q0 73 48 152t146 154z" />
<glyph unicode="&#x2dc;" horiz-adv-x="862" d="M209 1202l-132 85q77 161 206 161q60 0 146 -42q94 -45 129 -45q54 0 94 71l132 -84q-72 -153 -197 -153q-65 0 -149 42q-3 2 -15.5 8t-16 7.5t-14 6.5t-15 6.5t-13.5 5.5t-14 5t-12 3t-13.5 2.5t-12.5 0.5q-58 0 -103 -80z" />
<glyph unicode="&#x2dd;" horiz-adv-x="1093" d="M543 1417l-321 -322l-145 146l321 321zM1017 1417l-319 -322l-145 146l319 321z" />
<glyph unicode="&#x2000;" horiz-adv-x="1002" />
<glyph unicode="&#x2001;" horiz-adv-x="2004" />
<glyph unicode="&#x2002;" horiz-adv-x="1002" />
<glyph unicode="&#x2003;" horiz-adv-x="2004" />
<glyph unicode="&#x2004;" horiz-adv-x="668" />
<glyph unicode="&#x2005;" horiz-adv-x="501" />
<glyph unicode="&#x2006;" horiz-adv-x="334" />
<glyph unicode="&#x2007;" horiz-adv-x="334" />
<glyph unicode="&#x2008;" horiz-adv-x="250" />
<glyph unicode="&#x2009;" horiz-adv-x="400" />
<glyph unicode="&#x200a;" horiz-adv-x="111" />
<glyph unicode="&#x2010;" horiz-adv-x="1001" d="M924 622h-847v206h847v-206z" />
<glyph unicode="&#x2011;" horiz-adv-x="1001" d="M924 622h-847v206h847v-206z" />
<glyph unicode="&#x2012;" horiz-adv-x="1001" d="M924 622h-847v206h847v-206z" />
<glyph unicode="&#x2013;" horiz-adv-x="1130" d="M1053 622h-976v206h976v-206z" />
<glyph unicode="&#x2014;" horiz-adv-x="1374" d="M1297 622h-1220v206h1220v-206z" />
<glyph unicode="&#x2018;" horiz-adv-x="432" d="M275 1530h-11q-40 0 -55 -20.5t-17 -75.5l-1 -23q15 4 35 4q61 0 95.5 -34t34.5 -81t-34.5 -81t-95.5 -34q-81 0 -115 60q-34 52 -34 159q0 109 39 168.5t139 59.5h35z" />
<glyph unicode="&#x2019;" horiz-adv-x="432" d="M240 1385l1 21q-15 -4 -35 -4q-61 0 -95 34t-34 81t34 81t95 34q78 0 112 -54q38 -52 38 -165q0 -109 -39 -168.5t-139 -59.5h-35l15 102h11q40 0 54.5 20.5t16.5 77.5z" />
<glyph unicode="&#x201a;" horiz-adv-x="432" d="M241 -41v21q-27 -5 -35 -5q-60 0 -94.5 34.5t-34.5 81.5t34 81t95 34q78 0 112 -54q38 -52 38 -164q0 -52 -8 -91.5t-27.5 -71.5t-55 -48.5t-87.5 -16.5h-35l15 101h11q40 0 55 21t17 77z" />
<glyph unicode="&#x201c;" horiz-adv-x="815" d="M275 1530h-11q-39 0 -54.5 -20t-17.5 -73l-1 -26q15 4 35 4q61 0 95.5 -34t34.5 -81t-34.5 -81t-95.5 -34q-81 0 -115 60q-34 52 -34 159q0 109 39 168.5t139 59.5h35zM658 1530h-12q-40 0 -54.5 -21t-16.5 -77v-21q15 4 35 4q60 0 94 -33.5t34 -81.5t-34 -81.5 t-94 -33.5q-78 0 -112 55q-38 52 -38 164q0 53 8 92t27 71t54.5 48.5t87.5 16.5h36z" />
<glyph unicode="&#x201d;" horiz-adv-x="815" d="M240 1385l1 21q-15 -4 -35 -4q-61 0 -95 34t-34 81t34 81t95 34q78 0 112 -54q38 -52 38 -165q0 -109 -39 -168.5t-139 -59.5h-35l15 102h11q40 0 54.5 20.5t16.5 77.5zM624 1392v14q-15 -4 -35 -4q-61 0 -95 33.5t-34 81.5t34 81.5t95 33.5q81 0 115 -60q34 -52 34 -159 q0 -53 -8 -92t-27 -71t-54.5 -48.5t-87.5 -16.5h-35l15 102h11q41 0 55.5 22t16.5 83z" />
<glyph unicode="&#x201e;" horiz-adv-x="815" d="M241 -41v20q-22 -4 -35 -4q-60 0 -94.5 34.5t-34.5 81.5t34 81t95 34q78 0 112 -54q37 -51 37 -164q0 -109 -38.5 -168.5t-138.5 -59.5h-35l15 101h11q40 0 55 21t17 77zM623 -43l1 22q-22 -4 -35 -4q-61 0 -95 34.5t-34 81.5t34 81t95 34q77 0 111 -54q38 -52 38 -164 q0 -109 -39 -168.5t-138 -59.5h-35l15 101h11q40 0 54.5 20t16.5 76z" />
<glyph unicode="&#x2020;" horiz-adv-x="1120" d="M690 1021h352v-206h-352v-1110h-261v1110h-352v206h352v447h261v-447z" />
<glyph unicode="&#x2021;" horiz-adv-x="1120" d="M691 1021h352v-206h-352v-457h352v-205h-352v-448h-262v448h-352v205h352v457h-352v206h352v447h262v-447z" />
<glyph unicode="&#x2022;" horiz-adv-x="661" d="M331 869q112 0 183 -70.5t71 -168.5t-71 -168.5t-183 -70.5t-183 70.5t-71 168.5t71 168.5t183 70.5z" />
<glyph unicode="&#x2026;" horiz-adv-x="1282" d="M206 215q61 0 95 -34t34 -81t-34 -80.5t-95 -33.5t-95 33.5t-34 80.5t34 81t95 34zM641 215q61 0 95 -34t34 -81t-34 -80.5t-95 -33.5t-95 33.5t-34 80.5t34 81t95 34zM1077 215q61 0 94.5 -33.5t33.5 -81.5q0 -47 -33.5 -80.5t-94.5 -33.5t-95 33.5t-34 80.5t34 81 t95 34z" />
<glyph unicode="&#x202f;" horiz-adv-x="400" />
<glyph unicode="&#x2030;" horiz-adv-x="2727" d="M613 -35h-252l947 1503h252zM434 1446q85 0 149 -22.5t103 -59.5t63 -91.5t32.5 -109.5t8.5 -123t-9 -124t-33.5 -110t-63.5 -90.5t-102.5 -59t-147.5 -22.5q-357 0 -357 406q0 67 8.5 122.5t33 110t63 91.5t103 59.5t149.5 22.5zM434 1292q-93 0 -126.5 -58t-33.5 -194 t34.5 -194.5t125.5 -58.5t125 58.5t34 194.5t-33.5 194t-125.5 58zM1490 800q85 0 149 -22.5t103 -59.5t63 -91t32.5 -109t8.5 -123t-9 -124t-33.5 -110t-63.5 -91t-102.5 -59.5t-147.5 -22.5q-357 0 -357 407q0 67 8.5 122.5t33 109.5t63 91t103 59.5t149.5 22.5zM2294 800 q85 0 149.5 -22.5t103 -59.5t63 -91t33 -109.5t8.5 -122.5q0 -407 -357 -407q-84 0 -147.5 22.5t-102.5 59.5t-63.5 91t-33.5 110t-9 124t8.5 123t32.5 109t63 91t103 59.5t149 22.5zM1490 646q-93 0 -126.5 -57.5t-33.5 -193.5t34.5 -195t125.5 -59t125 59t34 195 t-33.5 193.5t-125.5 57.5zM2294 646q-92 0 -125.5 -57.5t-33.5 -193.5t34 -195t125 -59t125.5 59t34.5 195t-33.5 193.5t-126.5 57.5z" />
<glyph unicode="&#x2039;" horiz-adv-x="729" d="M652 987l-291 -386l291 -385l-161 -126l-414 511l414 511z" />
<glyph unicode="&#x203a;" horiz-adv-x="729" d="M652 601l-414 -511l-161 126l291 385l-291 386l161 125z" />
<glyph unicode="&#x2044;" horiz-adv-x="1265" d="M317 -35h-252l883 1503h253z" />
<glyph unicode="&#x205f;" horiz-adv-x="501" />
<glyph unicode="&#x20ac;" horiz-adv-x="1347" d="M77 951h154q19 116 59 204.5t110.5 159t182 107.5t260.5 37q275 0 428 -129l-145 -156q-119 72 -283 72q-157 0 -234 -75t-100 -220h562v-188h-593v-46q0 -28 2 -78h518v-188h-483q27 -129 103 -195.5t225 -66.5q164 0 283 72l145 -157q-153 -129 -428 -129 q-116 0 -210 23.5t-160 64.5t-114.5 101.5t-77.5 130.5t-46 156h-158v188h132q-2 54 -1 78v46h-131v188z" />
<glyph unicode="&#x2122;" horiz-adv-x="1886" d="M809 1281h-273v-680h-185v680h-274v153h732v-153zM1808 601h-185v417l-182 -416h-162l-182 417v-418h-185v833h205l243 -593l243 593h205v-833z" />
<glyph unicode="&#x25ca;" horiz-adv-x="1585" />
<glyph unicode="&#xe000;" horiz-adv-x="1024" d="M0 1024h1024v-1024h-1024v1024z" />
<glyph unicode="&#xfb03;" horiz-adv-x="2144" d="M1603 1529v-188q-166 5 -248 -59q-50 -37 -72.5 -98.5t-22.5 -159.5h748v-1024h-254v834h-494v-834h-254v834h-548v-834h-253v834h-155v190h155q0 298 192 423q127 85 324 85q39 0 81 -3v-188q-167 5 -249 -59q-50 -37 -72.5 -98.5t-22.5 -159.5h548q0 298 192 423 q127 85 324 85q39 0 81 -3z" />
<glyph unicode="&#xfb04;" horiz-adv-x="2314" d="M801 1529v-188q-166 5 -248 -59q-50 -37 -72.5 -98.5t-22.5 -159.5h548q0 298 192 423q128 86 325 86q42 0 64 -2h413v-1107q0 -128 66 -190q63 -58 195 -56v-190q-36 -2 -52 -2q-201 0 -317 88q-146 110 -146 350v917h-143q-166 5 -248 -59q-50 -37 -72.5 -98.5 t-22.5 -159.5h286v-190h-286v-834h-254v834h-548v-834h-253v834h-155v190h155q0 299 191 423q127 85 325 85q38 0 80 -3z" />
</font>
</defs>
</svg>
