<?xml version="1.0" standalone="no"?>
<!DOCTYPE svg PUBLIC "-//W3C//DTD SVG 1.1//EN" "http://www.w3.org/Graphics/SVG/1.1/DTD/svg11.dtd" >
<svg xmlns="http://www.w3.org/2000/svg">
<metadata></metadata>
<defs>
<font id="corbertlight" horiz-adv-x="1472" >
<font-face units-per-em="2048" ascent="1638" descent="-410" />
<missing-glyph horiz-adv-x="610" />
<glyph unicode="&#xfb01;" horiz-adv-x="1277" d="M799 1533v-57q-204 -1 -327 -115q-125 -113 -125 -337h738v-1024h-72v966h-666v-966h-72v966h-199v58h199q0 252 151 384q142 127 373 125z" />
<glyph unicode="&#xfb02;" horiz-adv-x="1495" d="M1080 1533v-1101q0 -191 81 -288q82 -97 250 -97v-57q-198 -3 -301 109q-102 112 -102 333v1044h-209q-204 -1 -327 -115q-125 -113 -125 -337h356v-58h-356v-966h-72v966h-199v58h199q0 252 151 384q141 127 370 125h284z" />
<glyph horiz-adv-x="2048" />
<glyph horiz-adv-x="2048" />
<glyph unicode="&#xd;" horiz-adv-x="2048" />
<glyph unicode=" "  horiz-adv-x="610" />
<glyph unicode="&#x09;" horiz-adv-x="610" />
<glyph unicode="&#xa0;" horiz-adv-x="610" />
<glyph unicode="!" horiz-adv-x="292" d="M184 288h-75v1146h75v-1146zM146 86q20 0 34.5 -14t14.5 -33t-14.5 -33t-34.5 -14t-34.5 14t-14.5 33t14.5 33t34.5 14z" />
<glyph unicode="&#x22;" horiz-adv-x="557" d="M162 926h-65v520h65v-520zM460 926h-65v520h65v-520z" />
<glyph unicode="#" horiz-adv-x="1282" d="M982 1034h202l-12 -59h-202l-108 -506h202l-13 -59h-201l-88 -410h-68l87 410h-433l-87 -410h-68l87 409h-183l13 60h182l108 506h-182l12 59h183l84 400h69l-85 -400h433l85 400h68zM468 975l-107 -506h433l107 506h-433z" />
<glyph unicode="$" horiz-adv-x="1359" d="M717 1457l40 1q125 -2 243 -32t208 -85l-43 -55q-177 110 -432 110q-133 0 -242.5 -34t-181 -109t-71.5 -179q0 -45 12.5 -82t31.5 -64.5t52 -50.5t65 -38t79.5 -29t85.5 -22.5t93 -18.5q222 -42 280 -57q196 -52 269 -153q57 -79 57 -197q0 -93 -46 -167t-124 -119.5 t-173.5 -70.5t-202.5 -28v-186h-71v186q-165 6 -315 57t-234 136l47 51q83 -84 233 -132.5t314 -48.5q98 0 184.5 19.5t156.5 57t111 101t41 144.5q0 60 -16.5 106.5t-49.5 78.5t-74 55t-98 39t-113.5 28t-128.5 25q-45 8 -68 12q-61 11 -104.5 21t-96.5 26.5t-90 34.5 t-74 45.5t-59.5 60.5t-36.5 78t-14 99q0 86 39 156t107 116t154 74t185 37v189h71v-186z" />
<glyph unicode="%" horiz-adv-x="1732" d="M429 -35h-77l947 1503h77zM414 1446q94 0 158 -29t97.5 -84.5t47 -121.5t13.5 -155q0 -90 -14 -157t-48 -122t-97.5 -84t-156.5 -29q-75 0 -131 19.5t-91 53.5t-56.5 85t-30 107t-8.5 127t8 126t29 106t56 84.5t91.5 53.5t132.5 20zM414 1394q-75 0 -126 -23t-78.5 -69.5 t-38.5 -105t-11 -140.5q0 -83 11.5 -142t39 -105.5t78.5 -69.5t125 -23q143 0 198.5 85.5t55.5 254.5q0 83 -11 141t-38.5 104.5t-78.5 69.5t-126 23zM1319 770q94 0 158 -29t97.5 -85t47 -122t13.5 -155q0 -90 -14 -156.5t-48 -122t-97.5 -84t-156.5 -28.5q-75 0 -131 19.5 t-91 53t-56.5 84.5t-30 107t-8.5 127t8 126t29 106.5t56 85t91.5 53.5t132.5 20zM1319 718q-145 0 -199.5 -84.5t-54.5 -254.5q0 -169 55.5 -254t198.5 -85t198.5 85t55.5 254q0 170 -54.5 254.5t-199.5 84.5z" />
<glyph unicode="&#x26;" horiz-adv-x="1409" d="M484 783l-165 173q-65 73 -65 200q0 88 29.5 148.5t86.5 93t126 46t163 13.5q93 0 161.5 -13t125 -45.5t86 -93t29.5 -149.5q0 -189 -142 -258l-321 -135l557 -584q55 77 55 198q0 155 -89 236l41 34q111 -102 111 -287q0 -145 -67 -235l95 -101l11 -24h-84l-74 78 q-131 -127 -466 -127q-105 0 -189.5 11t-161.5 39.5t-128.5 73.5t-81.5 117.5t-30 167.5q0 247 201 345zM553 812l327 138q107 52 107 204q0 71 -22 119.5t-67 74.5t-102 36.5t-137 10.5q-165 0 -247.5 -52.5t-82.5 -188.5q0 -107 49 -159zM530 734l-192 -82 q-167 -80 -167 -291q0 -82 24.5 -143t67 -99.5t108 -62t140 -33t170.5 -9.5q153 0 259 26t166 90z" />
<glyph unicode="'" horiz-adv-x="260" d="M162 926h-65v520h65v-520z" />
<glyph unicode="(" horiz-adv-x="655" d="M553 1469l5 -62q-76 -13 -136.5 -49t-103 -93.5t-72 -129t-46.5 -165t-24.5 -193t-7.5 -219.5q0 -121 7.5 -220.5t24.5 -193t46.5 -165t72 -129t103 -93t136.5 -48.5l-5 -61q-91 13 -163 52t-121.5 101.5t-83.5 140t-53 178.5t-27 205.5t-8 232.5t8 232.5t27 206 t53 178.5t83.5 140t121.5 102t163 52z" />
<glyph unicode=")" horiz-adv-x="655" d="M97 1407l5 62q91 -13 163 -52t121.5 -102t83.5 -140t53 -178.5t27 -206t8 -232.5t-8 -232.5t-27 -205.5t-53 -178.5t-83.5 -140t-121.5 -101.5t-163 -52l-5 61q76 13 136.5 48.5t103 93t72 129.5t46.5 165.5t24.5 193t7.5 219.5q0 184 -18 322t-60.5 253.5t-120.5 184.5 t-191 89z" />
<glyph unicode="*" horiz-adv-x="638" d="M348 1281l177 59l17 -54l-178 -57l111 -151l-46 -33l-109 152l-109 -152l-46 33l111 151l-179 57l18 54l176 -59v187h57v-187z" />
<glyph unicode="+" horiz-adv-x="991" d="M527 630h368v-62h-368v-368h-62v368h-368v62h368v368h62v-368z" />
<glyph unicode="," horiz-adv-x="299" d="M158 -16v8q-4 -2 -14 -2q-21 0 -34 13t-13 32t13 32t34 13q25 0 39 -19q18 -22 18 -71q0 -46 -16.5 -71t-59.5 -25h-14l5 36h8q20 0 26.5 11t7.5 43z" />
<glyph unicode="-" horiz-adv-x="923" d="M826 673h-729v63h729v-63z" />
<glyph unicode="." horiz-adv-x="288" d="M144 81q21 0 34.5 -13t13.5 -31q0 -19 -13.5 -32t-34.5 -13t-34 13t-13 32t13 31.5t34 12.5z" />
<glyph unicode="/" horiz-adv-x="937" d="M170 -35h-75l672 1503h76z" />
<glyph unicode="0" horiz-adv-x="1419" d="M709 1406q138 0 240.5 -36t166 -97t102 -155t53 -195.5t14.5 -231.5q0 -131 -15 -234.5t-54.5 -196.5t-103 -154.5t-165.5 -97t-238 -35.5t-238 35.5t-165.5 97t-103 154.5t-54.5 196.5t-15 234.5q0 130 14.5 231.5t53 195.5t102 155t166 97t240.5 36zM709 1344 q-100 0 -178 -20.5t-132.5 -62t-92 -96.5t-58.5 -131t-30 -158t-9 -185q0 -125 13.5 -221t47.5 -180t90 -138t143.5 -85t205.5 -31t205.5 31t143.5 85t90.5 138t48 180t13.5 221q0 124 -13 219t-46.5 179.5t-89 138.5t-144 85t-208.5 31z" />
<glyph unicode="1" horiz-adv-x="651" d="M441 0h-75v1324l-289 -65v65l305 69h59v-1393z" />
<glyph unicode="2" horiz-adv-x="1267" d="M182 1046h-72q0 85 25.5 148.5t69.5 103.5t112 65t144.5 34.5t175.5 9.5t174.5 -9t143.5 -33.5t112 -64.5t69.5 -104t25.5 -150q0 -108 -30.5 -180t-96.5 -113t-148.5 -59.5t-207.5 -25.5q-248 -14 -368.5 -94t-120.5 -267v-243h967v-64h-1039v307q0 89 26 158t72 115.5 t117 78t153 47.5t187 22q110 6 182 22t128 50.5t81 94t25 149.5q0 89 -31 149t-93 93t-140 46t-188 13t-189 -13.5t-141 -46.5t-93.5 -92.5t-31.5 -146.5z" />
<glyph unicode="3" horiz-adv-x="1284" d="M207 1057h-73q3 101 40 171t107 108t155.5 54t200.5 16q92 0 164 -9t137.5 -33t108.5 -63t68 -102t25 -148q0 -149 -72 -227t-209 -106q155 -28 237 -112.5t82 -249.5q0 -91 -27 -159t-73 -110.5t-116.5 -68t-148 -35.5t-176.5 -10t-176.5 10t-146.5 36t-115 68 t-73.5 108.5t-29.5 154.5h72q2 -92 35 -154.5t97 -97t144.5 -48.5t192.5 -14q113 0 193.5 14t145 49.5t96.5 100.5t32 162q0 78 -22 135t-60.5 93.5t-98.5 58t-128 30t-158 8.5h-212v61h212q104 0 177.5 13t132.5 45t88.5 92t29.5 148t-29.5 148t-88.5 92t-132.5 45 t-177.5 13q-103 0 -176.5 -13t-132 -44.5t-89 -88.5t-32.5 -141z" />
<glyph unicode="4" horiz-adv-x="1310" d="M1028 395h185v-63h-185v-332h-75v332h-858v66l858 996h75v-999zM180 395h773v899z" />
<glyph unicode="5" horiz-adv-x="1259" d="M1076 1330h-832v-479h391q97 0 173 -11.5t144.5 -41t113.5 -78t71 -126.5t26 -182t-26 -182t-71 -126.5t-113.5 -78t-144.5 -41t-173 -11.5q-95 0 -170.5 11.5t-143 40t-112.5 74.5t-72.5 118.5t-30.5 168.5h78q4 -102 36.5 -172t94 -108t139 -54t183.5 -16 q109 0 186.5 16t140 56.5t93.5 115.5t31 187t-30.5 187.5t-93 116.5t-140 57t-187.5 16h-469v605h908v-63z" />
<glyph unicode="6" horiz-adv-x="1333" d="M210 714v-77q25 65 70 111t109 71t137.5 36t166.5 11q96 0 171.5 -12t144 -42.5t113.5 -80t71.5 -128.5t26.5 -184q0 -106 -27 -185t-73 -128.5t-116 -79.5t-147.5 -41.5t-177.5 -11.5q-98 0 -176.5 18.5t-135 51t-98.5 83.5t-67.5 108.5t-41.5 134t-21.5 152.5t-5.5 170 t5.5 168.5t20.5 151t40 133.5t66.5 108.5t98 83.5t136 51t179.5 19q411 0 524 -325l-72 -19q-49 139 -155.5 210.5t-296.5 71.5q-85 0 -152.5 -15.5t-116 -42.5t-84.5 -70.5t-58 -93.5t-35 -117.5t-18 -135.5t-5 -155zM679 807q-103 0 -178.5 -14t-138 -47.5t-99.5 -94 t-48 -148.5q10 -113 36.5 -194.5t78.5 -145t139 -95.5t210 -32q113 0 193.5 16.5t145.5 58t97 118.5t32 192q0 92 -22 160.5t-60.5 111.5t-99 68.5t-128.5 35.5t-158 10z" />
<glyph unicode="7" horiz-adv-x="1212" d="M1116 1346l-790 -1346h-84l785 1331h-930v63h1019v-48z" />
<glyph unicode="8" horiz-adv-x="1402" d="M703 1406q97 0 172 -9t144 -33t113.5 -63t71 -102t26.5 -148q0 -148 -74.5 -225.5t-216.5 -105.5q161 -28 246 -112.5t85 -249.5q0 -92 -28 -160t-76.5 -110.5t-122 -68.5t-155 -36t-185.5 -10q-105 0 -187.5 10.5t-156 37t-122 69.5t-76.5 110.5t-28 157.5q0 163 86 248 t250 114q-144 28 -220 106t-76 225q0 103 38.5 174.5t112.5 110t165 54.5t214 16zM703 1344q-109 0 -187.5 -13.5t-140 -46t-92.5 -92t-31 -146.5t31 -146.5t92.5 -92t140 -46t187.5 -13.5q86 0 151.5 8t123 28t94.5 53t58 85.5t21 123.5t-21 123.5t-58 85.5t-94.5 53 t-123 28t-151.5 8zM703 686q-119 0 -204 -14.5t-152.5 -50.5t-101 -100.5t-33.5 -159.5t33.5 -159.5t101 -100.5t152.5 -50.5t204 -14.5q118 0 202 14t151.5 49.5t101 100.5t33.5 161t-33.5 161t-101 100.5t-151.5 49.5t-202 14z" />
<glyph unicode="9" horiz-adv-x="1333" d="M1124 664v78q-49 -126 -169.5 -177t-310.5 -51q-97 0 -173 11.5t-145 42t-114 80t-71.5 129t-26.5 184.5q0 106 27 185t73 128t116 79t147.5 41.5t177.5 11.5q98 0 176.5 -18.5t135 -51t98.5 -83.5t67.5 -108.5t41.5 -134t21.5 -152.5t5.5 -170t-5.5 -168.5t-20.5 -151 t-40 -133.5t-66.5 -108.5t-98 -83.5t-136 -51t-179.5 -19q-411 0 -524 325l72 19q49 -139 155.5 -210t296.5 -71q85 0 152.5 15.5t116 42t84 70.5t57.5 93t35.5 116.5t18.5 135.5t5 155zM655 1344q-113 0 -193.5 -16.5t-145.5 -58t-97 -118.5t-32 -192q0 -92 22 -160.5 t60.5 -111.5t99 -68.5t128.5 -35.5t158 -10q103 0 178.5 14t138 47.5t99.5 94t48 148.5q-10 113 -36.5 194.5t-78.5 145t-139 95.5t-210 32z" />
<glyph unicode=":" horiz-adv-x="288" d="M144 987q21 0 34.5 -13t13.5 -31q0 -19 -13.5 -32t-34.5 -13t-34 13t-13 32t13 31.5t34 12.5zM145 81q21 0 34 -12.5t13 -31.5t-13 -32t-34 -13t-34 13t-13 32t13 31.5t34 12.5z" />
<glyph unicode=";" horiz-adv-x="299" d="M144 987q21 0 34.5 -13t13.5 -31q0 -19 -13.5 -32t-34.5 -13t-34 13t-13 32t13 31.5t34 12.5zM158 -16v10q-4 -2 -13 -2q-21 0 -34 12.5t-13 31.5t13 32t34 13q24 0 38 -19q18 -22 18 -72q0 -46 -16 -71t-59 -25h-15l6 36h7q21 0 27.5 11.5t6.5 42.5z" />
<glyph unicode="&#x3c;" horiz-adv-x="966" d="M870 572v-79l-773 -482v74l703 448l-703 448v74z" />
<glyph unicode="=" horiz-adv-x="991" d="M895 754h-798v63h798v-63zM895 364h-798v63h798v-63z" />
<glyph unicode="&#x3e;" horiz-adv-x="966" d="M870 981l-702 -448l702 -448v-74l-773 482v79l773 483v-74z" />
<glyph unicode="?" horiz-adv-x="1247" d="M172 1100h-75q0 104 38 176t111.5 111t164 55.5t212.5 16.5q97 0 172.5 -9t144 -33.5t113.5 -64t71.5 -103.5t26.5 -150q0 -65 -11 -118.5t-27 -90.5t-44.5 -67t-53.5 -48t-64 -33.5t-66 -23t-69 -17.5q-116 -26 -158 -48q-96 -59 -99 -185v-180h-75v200q0 74 21 124 t72.5 79.5t84.5 40.5t109 28q11 3 16 4q39 9 63 15.5t58 19.5t55 28t45 40t37 56.5t22 76.5t9 100q0 88 -31 147t-93 91t-140 45t-187 13q-110 0 -188.5 -13.5t-140.5 -46t-93 -91t-31 -145.5zM521 86q20 0 34.5 -14t14.5 -33t-14.5 -33t-34.5 -14t-34.5 14t-14.5 33 t14.5 33t34.5 14z" />
<glyph unicode="@" horiz-adv-x="2025" d="M1273 -358l17 -63q-129 -35 -278 -35q-279 0 -488 124t-318 340.5t-109 495.5q0 166 39 312t116.5 264t186.5 203t255.5 131t317.5 46q211 0 384.5 -70.5t289.5 -195.5t179 -298.5t63 -377.5q0 -208 -119.5 -333t-311.5 -125h-248v127q-77 -88 -149 -117.5t-156 -29.5 q-185 0 -287 115.5t-102 316.5q0 185 124 304t323 119q140 0 244 -63v51h62v-756h193q161 1 260 106.5t99 284.5q0 191 -58 352.5t-165.5 277t-268 180.5t-356.5 65q-263 0 -456 -114.5t-291.5 -314t-98.5 -460.5q0 -196 58.5 -361t166.5 -283t267 -183.5t354 -65.5 q122 0 261 31zM1246 250v525q-96 68 -234 68q-178 0 -286.5 -104.5t-108.5 -266.5q0 -177 87.5 -278.5t251.5 -101.5q81 0 147.5 30.5t142.5 127.5z" />
<glyph unicode="A" d="M1377 0h-79l-175 421h-774l-175 -421h-79l599 1434h84zM374 485h724l-362 869z" />
<glyph unicode="B" horiz-adv-x="1413" d="M213 1434h631q171 0 268.5 -98t97.5 -260q0 -122 -54.5 -208t-155.5 -122q129 -29 200 -125.5t71 -238.5q0 -174 -102.5 -278t-285.5 -104h-670v1434zM288 1371v-600h573q131 7 202.5 86.5t71.5 213.5q0 138 -78.5 219t-218.5 81h-550zM288 63h586q151 0 234.5 86.5 t83.5 236.5q0 148 -84 235t-234 86h-586v-644z" />
<glyph unicode="C" horiz-adv-x="1394" d="M1216 134l45 -53q-170 -106 -393 -106q-167 0 -302.5 56t-225 155.5t-138 235.5t-48.5 296t48.5 296t138 235t225 154.5t302.5 55.5q226 0 393 -104l-45 -54q-147 93 -348 93q-199 0 -344.5 -86.5t-220 -238.5t-74.5 -351t74.5 -351t220 -238.5t344.5 -86.5q202 0 348 92 z" />
<glyph unicode="D" horiz-adv-x="1525" d="M213 1434h443q335 0 526 -195.5t191 -520.5q0 -329 -189.5 -523.5t-527.5 -194.5h-443v1434zM288 65h368q305 0 473 174.5t168 478.5q0 300 -169.5 475.5t-471.5 175.5h-368v-1304z" />
<glyph unicode="E" horiz-adv-x="1206" d="M1082 1369h-794v-597h728v-64h-728v-644h794v-64h-869v1434h869v-65z" />
<glyph unicode="F" horiz-adv-x="1171" d="M1046 1369h-758v-621h692v-64h-692v-684h-75v1434h833v-65z" />
<glyph unicode="G" horiz-adv-x="1624" d="M1430 750v-528q-93 -119 -235.5 -184t-326.5 -65q-219 0 -382 96t-247.5 264t-84.5 385q0 160 48.5 296t138 235t225 154.5t302.5 55.5q338 0 534 -217l-48 -44q-183 196 -486 196q-297 0 -468 -186.5t-171 -489.5q0 -305 172 -492t467 -187q316 0 488 205v444h-488v62 h562z" />
<glyph unicode="H" horiz-adv-x="1540" d="M1328 0h-76v685h-964v-685h-75v1434h75v-685h964v685h76v-1434z" />
<glyph unicode="I" horiz-adv-x="499" d="M288 0h-75v1434h75v-1434z" />
<glyph unicode="J" horiz-adv-x="1017" d="M806 1434v-883q0 -87 -10.5 -158.5t-34 -136.5t-63.5 -113t-96 -83.5t-134 -53.5t-176 -18q-119 0 -197 25l15 57q82 -20 182 -20q125 0 211 33.5t135.5 100.5t70.5 155.5t21 211.5v883h76z" />
<glyph unicode="K" horiz-adv-x="1304" d="M623 795l586 -795h-93l-541 737l-289 -347v-390h-73v1434h73v-934l773 934h93z" />
<glyph unicode="L" horiz-adv-x="1148" d="M288 62h766v-62h-841v1434h75v-1372z" />
<glyph unicode="M" horiz-adv-x="1796" d="M1583 0h-76v1303l-580 -1303h-78l-580 1303v-1303h-76v1434h99l596 -1351l596 1351h99v-1434z" />
<glyph unicode="N" horiz-adv-x="1492" d="M1301 0h-96l-936 1319v-1319h-76v1434h96l936 -1320v1320h76v-1434z" />
<glyph unicode="O" horiz-adv-x="1738" d="M868 1459q222 0 385.5 -96.5t247 -263t83.5 -381.5q0 -218 -82.5 -385t-246 -263.5t-387.5 -96.5q-219 0 -382 96t-247.5 264t-84.5 385q0 160 48.5 296t138 235t225 154.5t302.5 55.5zM868 1394q-199 0 -344.5 -86.5t-220 -238.5t-74.5 -351q0 -305 172 -491.5 t467 -186.5q201 0 347 86t220 238t74 354q0 199 -75 351t-221 238.5t-345 86.5z" />
<glyph unicode="P" horiz-adv-x="1413" d="M213 1434h581q218 0 343 -127t125 -338q0 -213 -124 -340t-344 -127h-506v-502h-75v1434zM288 1370v-804h501q189 0 293 108t104 295q0 184 -105 292.5t-292 108.5h-501z" />
<glyph unicode="Q" horiz-adv-x="1742" d="M1546 -16l-176 177q-190 -188 -502 -188q-219 0 -382 96t-247.5 264t-84.5 385q0 160 48.5 296t138 235t225 154.5t302.5 55.5q222 0 385.5 -96.5t247 -263t83.5 -381.5q0 -311 -165 -508l176 -176zM868 1394q-199 0 -344.5 -86.5t-220 -238.5t-74.5 -351 q0 -305 172 -491.5t467 -186.5q201 0 347 86t220 238t74 354q0 199 -75 351t-221 238.5t-345 86.5z" />
<glyph unicode="R" horiz-adv-x="1431" d="M213 1434h580q207 0 324.5 -120t117.5 -320q0 -183 -95.5 -298t-270.5 -136l413 -560h-89l-404 553h-501v-553h-75v1434zM288 1370v-754h499q177 0 275 101.5t98 276.5q0 173 -99 274.5t-274 101.5h-499z" />
<glyph unicode="S" horiz-adv-x="1396" d="M106 170l47 51q83 -84 233 -132.5t314 -48.5q98 0 184.5 19.5t156.5 57t111 101t41 144.5q0 60 -16.5 106.5t-49.5 78.5t-74 55t-98 39t-113.5 28t-128.5 25q-45 8 -68 12q-61 11 -104.5 21t-96.5 26.5t-90 34.5t-74 45.5t-59.5 60.5t-36.5 78t-14 99q0 96 48.5 172 t131 122t184.5 70t215 24q129 0 252 -30.5t216 -87.5l-43 -55q-177 110 -432 110q-98 0 -186 -20t-158 -58.5t-111 -101.5t-41 -142q0 -62 24 -110t59 -77.5t95.5 -53.5t112 -36.5t129.5 -27.5q222 -42 280 -57q196 -52 269 -153q57 -79 57 -197q0 -97 -49 -173 t-131.5 -121.5t-183.5 -69t-212 -23.5q-173 0 -336.5 52t-253.5 143z" />
<glyph unicode="T" horiz-adv-x="1359" d="M1266 1369h-548v-1369h-75v1369h-548v65h1171v-65z" />
<glyph unicode="U" horiz-adv-x="1531" d="M1338 1434v-785q0 -126 -16.5 -226.5t-56.5 -186.5t-103.5 -143.5t-161 -89.5t-225.5 -32q-127 0 -223.5 31.5t-160.5 88t-104 142t-57 187t-17 229.5v785h75v-781q0 -152 24 -261t79.5 -190t151 -121t232.5 -40q138 0 234 41t150.5 122.5t78.5 190t24 258.5v781h76z" />
<glyph unicode="V" horiz-adv-x="1441" d="M761 0h-81l-585 1434h79l546 -1351l547 1351h79z" />
<glyph unicode="W" horiz-adv-x="2230" d="M1159 1434l441 -1330l454 1330h82l-496 -1434h-84l-440 1322l-441 -1322h-84l-496 1434h82l454 -1330l441 1330h87z" />
<glyph unicode="X" horiz-adv-x="1359" d="M729 735l535 -735h-87l-500 686l-495 -686h-87l535 741l-501 693h88l464 -645l461 645h88z" />
<glyph unicode="Y" horiz-adv-x="1380" d="M728 572v-572h-75v572l-558 862h88l508 -790l508 790h88z" />
<glyph unicode="Z" horiz-adv-x="1304" d="M1181 1385l-975 -1321h991v-64h-1091v49l976 1320h-902v65h1001v-49z" />
<glyph unicode="[" horiz-adv-x="565" d="M469 1409h-301v-1683h301v-60h-372v1802h372v-59z" />
<glyph unicode="\" horiz-adv-x="937" d="M843 -35h-76l-672 1503h75z" />
<glyph unicode="]" horiz-adv-x="565" d="M469 -334h-372v60h301v1683h-301v59h372v-1802z" />
<glyph unicode="^" horiz-adv-x="1114" d="M1017 797h-85l-375 569l-375 -569h-85l421 633h78z" />
<glyph unicode="_" horiz-adv-x="1124" d="M1027 -303h-930v61h930v-61z" />
<glyph unicode="`" horiz-adv-x="555" d="M457 1205l-40 -48l-320 269l40 47z" />
<glyph unicode="a" horiz-adv-x="1241" d="M1070 0h-66l-2 159q-144 -186 -384 -186q-233 0 -359.5 148t-126.5 393q0 254 113 396t346 142q102 0 188.5 -38.5t222.5 -154.5l2 165h66v-1024zM998 233v561q-136 121 -217 159.5t-177 38.5q-400 0 -400 -478q0 -142 46 -248t144 -169t239 -63q232 0 365 199z" />
<glyph unicode="b" horiz-adv-x="1259" d="M262 1523v-660q135 114 221 151.5t186 37.5q233 0 346 -142t113 -396q0 -245 -126.5 -393t-359.5 -148q-240 0 -384 186l-2 -159h-66v1523h72zM262 794v-561q133 -199 365 -199q141 0 239 63t144 169t46 248q0 478 -400 478q-96 0 -177 -38.5t-217 -159.5z" />
<glyph unicode="c" horiz-adv-x="1056" d="M906 89l38 -48q-54 -32 -133 -51t-148 -19q-241 0 -386 151.5t-145 389.5q0 153 61.5 274.5t183.5 193.5t286 72q84 0 156.5 -17.5t114.5 -45.5l-39 -49q-79 52 -228 52q-213 0 -338 -134.5t-125 -345.5q0 -215 127 -347.5t336 -132.5q60 0 127 14.5t112 42.5z" />
<glyph unicode="d" horiz-adv-x="1259" d="M1070 0h-66l-2 159q-144 -186 -384 -186q-233 0 -359.5 148t-126.5 393q0 254 113 396t346 142q100 0 186 -37.5t221 -151.5v660h72v-1523zM998 233v561q-136 121 -217 159.5t-177 38.5q-400 0 -400 -478q0 -142 46 -248t144 -169t239 -63q232 0 365 199z" />
<glyph unicode="e" horiz-adv-x="1232" d="M1001 114l32 -43q-161 -96 -377 -96q-245 0 -384.5 149.5t-139.5 391.5q0 155 57.5 275.5t174 191.5t278.5 71q261 0 387 -131q92 -87 92 -226q0 -12 -2 -36q-5 -62 -37 -109.5t-80 -76t-115.5 -47t-135 -25.5t-146.5 -7q-173 0 -398 35q23 -185 143.5 -291t314.5 -106 q189 0 336 80zM641 998q-207 0 -322 -129.5t-115 -337.5q0 -17 2 -51q208 -38 393 -38q432 0 451 223q1 11 1 32q0 149 -113.5 225t-296.5 76z" />
<glyph unicode="f" horiz-adv-x="798" d="M799 1533v-57q-204 -1 -327 -115q-125 -113 -125 -337h356v-58h-356v-966h-72v966h-199v58h199q0 252 151 384q142 127 373 125z" />
<glyph unicode="g" horiz-adv-x="1259" d="M998 -147v304q-143 -180 -380 -180q-233 0 -359.5 147t-126.5 391q0 254 113 395.5t346 141.5q101 0 188 -39t223 -154l2 165h66v-1171q0 -90 -38.5 -163.5t-103 -119t-142.5 -70t-162 -24.5q-187 0 -363 98l23 47q158 -88 334 -88q96 0 181 35.5t142 110t57 174.5z M998 234v560q-137 121 -217.5 159.5t-176.5 38.5q-400 0 -400 -478q0 -217 109.5 -348t319.5 -131q232 0 365 199z" />
<glyph unicode="h" horiz-adv-x="1290" d="M281 1523v-663q120 104 206.5 148t199.5 44q80 0 156 -24t138.5 -69.5t100.5 -119t38 -163.5v-676h-72v666q0 78 -33 141.5t-87 103t-120 60.5t-136 21q-105 0 -185.5 -43.5t-205.5 -155.5v-793h-72v1523h72z" />
<glyph unicode="i" horiz-adv-x="479" d="M250 1387q20 0 34.5 -14t14.5 -33t-14.5 -33t-34.5 -14t-34.5 14t-14.5 33t14.5 33t34.5 14zM286 0h-72v1024h72v-1024z" />
<glyph unicode="j" horiz-adv-x="489" d="M259 1387q20 0 34.5 -14t14.5 -33t-14.5 -33t-34.5 -14t-34.5 14t-14.5 33t14.5 33t34.5 14zM295 1024v-1071q0 -208 -127 -332q-120 -127 -324 -149v59q182 19 284 141q95 109 95 281v1071h72z" />
<glyph unicode="k" horiz-adv-x="1099" d="M281 443l594 581h85l-404 -401l461 -623h-87l-420 572l-229 -223v-349h-72v1523h72v-1080z" />
<glyph unicode="l" horiz-adv-x="696" d="M281 1523v-1091q0 -191 81 -288q82 -97 250 -97v-57q-198 -3 -301 109q-102 112 -102 333v1091h72z" />
<glyph unicode="m" horiz-adv-x="1957" d="M258 1024v-163q110 103 188.5 147t181.5 44q107 0 203.5 -50t147.5 -142q121 111 209 151.5t199 40.5q74 0 144 -24t128 -69.5t93.5 -119t35.5 -163.5v-676h-72v666q0 78 -29.5 141.5t-79 103t-109 60.5t-123.5 21q-101 0 -179 -37t-196 -148q25 -63 25 -136v-671h-72 v666q0 78 -29.5 141.5t-78.5 103t-108.5 60.5t-123.5 21q-65 0 -121 -22t-105 -60.5t-125 -112.5v-797h-72v1024h68z" />
<glyph unicode="n" horiz-adv-x="1273" d="M256 1024l2 -165q121 104 209 148.5t201 44.5q81 0 157 -24t139 -69.5t101.5 -119t38.5 -163.5v-676h-72v666q0 103 -57 179t-141 111.5t-180 35.5q-105 0 -186 -43t-206 -153v-796h-72v1024h66z" />
<glyph unicode="o" horiz-adv-x="1316" d="M658 1052q245 0 385.5 -148t140.5 -392q0 -243 -138.5 -392t-387.5 -149q-164 0 -284.5 71t-181 192.5t-60.5 277.5q0 239 140 389.5t386 150.5zM658 992q-211 0 -332.5 -132.5t-121.5 -347.5t121.5 -347.5t332.5 -132.5q214 0 334 130.5t120 349.5q0 220 -121.5 350 t-332.5 130z" />
<glyph unicode="p" horiz-adv-x="1277" d="M275 1024l2 -159q143 185 384 185q234 0 360 -147.5t126 -392.5q0 -167 -47 -285.5t-151.5 -186t-260.5 -67.5q-99 0 -185.5 38t-221.5 152v-661h-72v1524h66zM281 791v-561q136 -121 217 -159.5t177 -38.5q400 0 400 478q0 142 -46 248t-144 169t-239 63 q-232 0 -365 -199z" />
<glyph unicode="q" horiz-adv-x="1259" d="M998 -500v661q-135 -114 -221.5 -152t-185.5 -38q-156 0 -260.5 67.5t-151.5 186t-47 285.5q0 245 126 392.5t360 147.5q241 0 384 -185l2 159h66v-1524h-72zM998 230v561q-133 199 -365 199q-141 0 -239 -63t-144 -169t-46 -248q0 -478 400 -478q96 0 177 38.5 t217 159.5z" />
<glyph unicode="r" horiz-adv-x="735" d="M677 1051v-61h-22q-113 0 -216 -57t-177 -172v-761h-72v1024h66l2 -190q78 106 184 161.5t221 55.5h14z" />
<glyph unicode="s" horiz-adv-x="1026" d="M86 120l30 46q59 -59 167.5 -94t224.5 -35q94 0 169.5 23t125.5 75.5t50 128.5q0 31 -6 57t-20.5 46.5t-29 36t-41.5 28t-47 21t-56.5 17t-59 13t-65.5 12.5l-48 9q-66 12 -108.5 22.5t-92 31t-78 46.5t-48 67.5t-19.5 96.5q0 91 60.5 156t152 94t200.5 29q200 0 337 -87 l-25 -49q-130 79 -314 79q-91 0 -166 -23.5t-124 -75.5t-49 -123q0 -42 15 -74.5t37.5 -52.5t62.5 -36.5t74.5 -25t88.5 -18.5q176 -33 220 -45q148 -43 194 -133q26 -51 26 -121t-35.5 -125t-94.5 -88t-131.5 -50t-151.5 -17q-125 0 -242.5 36.5t-182.5 101.5z" />
<glyph unicode="t" horiz-adv-x="808" d="M342 1024h331v-58h-331v-540q0 -162 85 -261q87 -100 249 -120v-57q-195 19 -299 130q-107 113 -107 308v540h-220v58h220v306h72v-306z" />
<glyph unicode="u" horiz-adv-x="1255" d="M1085 0h-66l-2 165q-122 -104 -209.5 -149t-200.5 -45q-81 0 -157.5 24.5t-139.5 70t-101.5 119t-38.5 163.5v676h72v-666q0 -103 57 -179t141.5 -111.5t180.5 -35.5q105 0 186 43t206 153v796h72v-1024z" />
<glyph unicode="v" horiz-adv-x="1021" d="M552 0h-82l-414 1024h75l380 -952l380 952h75z" />
<glyph unicode="w" horiz-adv-x="1652" d="M1222 0h-82l-313 926l-313 -926h-82l-376 1024h74l342 -942l317 942h75l317 -942l342 942h74z" />
<glyph unicode="x" horiz-adv-x="983" d="M541 512l386 -512h-80l-352 467l-358 -467h-81l395 515l-381 509h80l346 -460l337 460h80z" />
<glyph unicode="y" horiz-adv-x="1095" d="M1039 1024l-496 -1227q-60 -147 -185 -229q-120 -74 -286 -74v57q151 0 258 70q103 70 155 201l72 178h-20l-422 1024h75l391 -958l384 958h74z" />
<glyph unicode="z" horiz-adv-x="956" d="M850 986l-665 -928h677v-58h-768v39l663 927h-634v58h727v-38z" />
<glyph unicode="{" horiz-adv-x="772" d="M671 1462l4 -58q-155 -19 -248 -118t-93 -257v-269q0 -74 -39 -129.5t-104 -80.5q65 -25 104 -81t39 -130v-269q0 -158 93 -257t247 -118l-3 -60q-184 20 -296 132t-112 302v269q0 75 -44.5 123t-121.5 58v60q77 10 121.5 58t44.5 123v269q0 189 112.5 301.5t295.5 131.5 z" />
<glyph unicode="|" horiz-adv-x="270" d="M173 -295h-76v1831h76v-1831z" />
<glyph unicode="}" horiz-adv-x="772" d="M97 1404l3 58q183 -19 296 -131.5t113 -301.5v-269q0 -75 44 -122.5t121 -57.5v-61q-77 -10 -121 -57.5t-44 -122.5v-269q0 -190 -112.5 -302.5t-295.5 -132.5l-4 60q155 19 248 117.5t93 256.5v269q0 74 39 130t104 81q-65 25 -104 81t-39 130v269q0 158 -93.5 257 t-247.5 118z" />
<glyph unicode="~" horiz-adv-x="1093" d="M142 515l-45 23q89 175 239 175q101 0 256 -91q114 -67 202 -67q57 0 97 28t59 81l46 -21q-26 -68 -79 -105t-121 -37q-98 0 -216 70q-151 89 -242 89q-61 0 -108.5 -33.5t-87.5 -111.5z" />
<glyph unicode="&#xa1;" horiz-adv-x="292" d="M146 1072q20 0 34.5 -14t14.5 -33t-14.5 -32.5t-34.5 -13.5t-34.5 13.5t-14.5 32.5t14.5 33t34.5 14zM182 -369h-72v1145h72v-1145z" />
<glyph unicode="&#xa2;" horiz-adv-x="1003" d="M622 1050h24q78 -2 145 -19t107 -42l-39 -49q-79 52 -228 52q-213 0 -338 -134.5t-125 -345.5q0 -215 127 -347.5t336 -132.5q59 0 126.5 15t112.5 43l38 -49q-50 -30 -122.5 -47.5t-139.5 -20.5h-24v-157h-69v164q-209 22 -333 167.5t-124 364.5q0 215 122 363t335 171 v163h69v-159z" />
<glyph unicode="&#xa3;" horiz-adv-x="1277" d="M99 718h163q-20 64 -29.5 99t-20 100.5t-10.5 129.5q7 413 476 413q111 0 192.5 -17t147.5 -57.5t101 -114.5t37 -181h-73q-2 71 -21.5 124.5t-53 87.5t-84.5 54.5t-109.5 29t-134.5 8.5q-189 0 -293.5 -82t-107.5 -270q0 -22 1 -43t4 -42t5 -37.5t7 -38.5t7.5 -33.5 t9 -35t9 -31.5t10 -33t9.5 -30h567v-64h-553q26 -94 26 -164q0 -184 -187 -426h986v-64h-1082v64q115 138 160 240t45 193q0 69 -25 157h-179v64z" />
<glyph unicode="&#xa4;" horiz-adv-x="1464" />
<glyph unicode="&#xa5;" horiz-adv-x="1380" d="M848 756h209v-59h-245l-84 -133v-140h329v-59h-329v-365h-75v365h-329v59h329v140l-83 133h-246v59h209l-438 678h88l508 -790l508 790h88z" />
<glyph unicode="&#xa6;" horiz-adv-x="270" d="M173 800h-76v736h76v-736zM173 -295h-76v736h76v-736z" />
<glyph unicode="&#xa7;" horiz-adv-x="1142" d="M97 -127l39 54q67 -68 191 -108t257 -40q106 0 191.5 26t141.5 85.5t56 145.5q0 41 -10.5 74t-28 57t-45.5 43.5t-58.5 32t-71 23.5t-79 19t-86.5 17q-29 5 -44 8q-62 11 -103 21t-91 26.5t-82 37.5t-61 50.5t-42.5 71.5t-13.5 94q0 98 61.5 166.5t164.5 104.5 q-51 16 -89.5 36.5t-71 50.5t-49 73t-16.5 98q0 79 39.5 141.5t106 100.5t149 57.5t174.5 19.5q217 0 373 -94l-36 -54q-143 85 -344 85q-105 0 -191 -26.5t-142 -85t-56 -140.5q0 -49 18 -86.5t44.5 -60.5t73 -42t86 -28.5t102.5 -21.5q190 -36 242 -51q162 -46 216 -143 q33 -60 33 -145q0 -92 -52.5 -158t-143.5 -105q95 -36 145.5 -98t50.5 -168q0 -80 -40 -143.5t-107.5 -101.5t-149 -57.5t-171.5 -19.5q-141 0 -274 42t-206 116zM546 840l-70 14q-111 -25 -179 -86t-68 -153q0 -48 17.5 -85t43.5 -60.5t72 -42t86 -28t102 -21.5 q164 -30 219 -45q95 29 151 87t56 145q0 48 -13 85t-40.5 63t-58.5 44t-78.5 32t-88.5 22.5t-101 19.5q-33 6 -50 9z" />
<glyph unicode="&#xa8;" horiz-adv-x="667" d="M148 1346q21 0 34 -13t13 -32t-13 -32t-34 -13t-34 13t-13 32t13 32t34 13zM520 1346q21 0 34 -13t13 -32t-13 -32t-34 -13t-34 13t-13 32t13 32t34 13z" />
<glyph unicode="&#xa9;" horiz-adv-x="1669" d="M834 1454q150 0 286.5 -58.5t235 -157t157 -235t58.5 -286.5t-58.5 -286.5t-157 -235t-235 -157t-286.5 -58.5t-286.5 58.5t-235 157t-157 235t-58.5 286.5t58.5 286.5t157 235t235 157t286.5 58.5zM834 1399q-184 0 -340.5 -91.5t-248 -248.5t-91.5 -342 q0 -138 54 -264.5t145.5 -217.5t217 -145t263.5 -54t263.5 54t217 145t145.5 217.5t54 264.5q0 185 -91.5 342t-248 248.5t-340.5 91.5zM1037 416l34 -42q-95 -62 -222 -62q-182 0 -287 113.5t-105 291.5t105 291.5t287 113.5q127 0 222 -62l-34 -42q-78 54 -188 54 q-157 0 -245.5 -97t-88.5 -258t88.5 -258t245.5 -97q110 0 188 54z" />
<glyph unicode="&#xaa;" horiz-adv-x="1155" d="M327 1337l-20 40q122 69 250 69q121 0 212.5 -68.5t91.5 -187.5v-457h-57v99q-110 -116 -281 -116q-114 0 -194.5 60t-80.5 167q0 113 87 171t213 58q142 0 253 -62v81q-1 97 -76 152.5t-175 55.5q-117 0 -223 -62zM801 888v174q-105 67 -246 67q-108 0 -178.5 -46 t-70.5 -138q0 -86 65 -133.5t161 -47.5q169 0 269 124z" />
<glyph unicode="&#xab;" horiz-adv-x="1101" d="M599 1029l-413 -429l413 -429l-49 -40l-453 469l453 469zM1005 1029l-413 -429l413 -429l-48 -40l-453 469l453 469z" />
<glyph unicode="&#xac;" horiz-adv-x="1464" />
<glyph unicode="&#xad;" horiz-adv-x="923" d="M826 673h-729v63h729v-63z" />
<glyph unicode="&#xae;" horiz-adv-x="1669" d="M834 1454q150 0 286.5 -58.5t235 -157t157 -235t58.5 -286.5t-58.5 -286.5t-157 -235t-235 -157t-286.5 -58.5t-286.5 58.5t-235 157t-157 235t-58.5 286.5t58.5 286.5t157 235t235 157t286.5 58.5zM834 1399q-184 0 -340.5 -91.5t-248 -248.5t-91.5 -342 q0 -138 54 -264.5t145.5 -217.5t217 -145t263.5 -54t263.5 54t217 145t145.5 217.5t54 264.5q0 185 -91.5 342t-248 248.5t-340.5 91.5zM561 1105h315q112 0 177 -66t65 -174q0 -95 -49.5 -157.5t-139.5 -76.5l221 -299h-64l-211 292h-260v-292h-54v773zM615 671h259 q91 0 140.5 51t49.5 143q0 90 -50 142t-140 52h-259v-388z" />
<glyph unicode="&#xaf;" horiz-adv-x="800" d="M704 1409h-607v52h607v-52z" />
<glyph unicode="&#xb0;" horiz-adv-x="804" d="M402 1637q127 0 216 -88t89 -212t-89.5 -212.5t-215.5 -88.5t-215.5 88.5t-89.5 212.5t89 212t216 88zM402 1589q-102 0 -176 -73.5t-74 -178.5t74 -178.5t176 -73.5t176.5 73.5t74.5 178.5t-74.5 178.5t-176.5 73.5z" />
<glyph unicode="&#xb1;" horiz-adv-x="991" d="M527 829h368v-62h-368v-363h-62v363h-368v62h368v364h62v-364zM895 -16h-798v62h798v-62z" />
<glyph unicode="&#xb2;" horiz-adv-x="745" d="M158 1247h-58q-2 58 17.5 97.5t58 61.5t86.5 31t113 9q63 0 109.5 -8.5t85 -29t58.5 -58.5t20 -94q0 -108 -61.5 -149.5t-190.5 -48.5q-119 -7 -176 -44t-57 -124v-115h483v-51h-542v163q0 111 74.5 161.5t213.5 58.5q109 6 153.5 35.5t44.5 112.5q0 81 -53 111.5 t-163 30.5q-113 0 -165 -32t-51 -118z" />
<glyph unicode="&#xb3;" horiz-adv-x="757" d="M175 1257l-59 1q0 104 69.5 146t193.5 42q59 0 103.5 -8.5t82.5 -28.5t57.5 -57.5t19.5 -92.5q0 -128 -118 -166q137 -38 137 -181q0 -59 -21 -99.5t-61.5 -62t-88 -30.5t-111.5 -9q-133 0 -207 45t-75 158h59q0 -87 54.5 -120t168.5 -33t168 32t54 121t-54.5 122 t-167.5 33h-108v47h108q104 0 153.5 30t49.5 111t-49.5 110t-153.5 29t-154 -29.5t-50 -109.5z" />
<glyph unicode="&#xb4;" horiz-adv-x="555" d="M457 1426l-320 -269l-40 48l320 268z" />
<glyph unicode="&#xb6;" horiz-adv-x="1484" d="M1388 1371h-209v-1850h-75v1850h-349v-1850h-75v982h-127q-215 4 -335.5 130t-120.5 336q0 211 125 338t343 127h823v-63z" />
<glyph unicode="&#xb7;" horiz-adv-x="288" d="M144 665q21 0 34.5 -13t13.5 -31q0 -19 -13.5 -32t-34.5 -13t-34 13t-13 32t13 31.5t34 12.5z" />
<glyph unicode="&#xb8;" horiz-adv-x="589" d="M344 7l-90 -140q13 2 41 2q88 0 142.5 -45.5t54.5 -126.5q0 -85 -59 -133.5t-154 -48.5q-127 0 -182 77l37 31q42 -59 142 -59q73 0 115.5 35.5t42.5 97.5q0 64 -43.5 99.5t-116.5 35.5q-32 0 -65 -10l-29 18l106 167h58z" />
<glyph unicode="&#xb9;" horiz-adv-x="399" d="M302 719h-60v659l-145 -32v51l163 36h42v-714z" />
<glyph unicode="&#xba;" horiz-adv-x="1275" d="M637 1446q166 0 262 -101t96 -265t-94.5 -265t-263.5 -101q-167 0 -262 102.5t-95 263.5t95 263.5t262 102.5zM637 1396q-139 0 -218 -86.5t-79 -229.5t79 -229.5t218 -86.5q141 0 219.5 85.5t78.5 230.5q0 146 -79.5 231t-218.5 85z" />
<glyph unicode="&#xbb;" horiz-adv-x="1103" d="M599 600l-453 -469l-49 40l414 429l-414 429l49 40zM1006 600l-454 -469l-48 40l413 429l-413 429l48 40z" />
<glyph unicode="&#xbc;" horiz-adv-x="1310" d="M183 -35h-77l934 1503h77zM319 719h-60v659l-145 -32v51l163 36h42v-714zM1121 216h93v-50h-93v-166h-56v166h-433v45l435 504h54v-499zM704 216h361v421z" />
<glyph unicode="&#xbd;" horiz-adv-x="1497" d="M183 -35h-77l934 1503h77zM319 719h-60v659l-145 -32v51l163 36h42v-714zM909 523h-58q-2 58 17.5 97.5t58 61.5t86.5 31t113 9q63 0 109.5 -8.5t85 -29t58.5 -58.5t20 -94q0 -108 -61.5 -149.5t-190.5 -48.5q-120 -7 -176.5 -44t-56.5 -124v-115h483v-51h-543v163 q0 111 75 161.5t214 58.5q108 6 152.5 35.5t44.5 112.5q0 82 -53 112t-162 30q-113 0 -165 -32t-51 -118z" />
<glyph unicode="&#xbe;" horiz-adv-x="1542" d="M415 -35h-77l934 1503h77zM175 1257l-59 1q0 104 69.5 146t193.5 42q59 0 103.5 -8.5t82.5 -28.5t57.5 -57.5t19.5 -92.5q0 -128 -118 -166q137 -38 137 -181q0 -59 -21 -99.5t-61.5 -62t-88 -30.5t-111.5 -9q-133 0 -207 45t-75 158h59q0 -87 54.5 -120t168.5 -33 t168 32t54 121t-54.5 122t-167.5 33h-108v47h108q104 0 153.5 30t49.5 111t-49.5 110t-153.5 29t-154 -29.5t-50 -109.5zM1353 216h93v-50h-93v-166h-56v166h-433v45l435 504h54v-499zM936 216h361v421z" />
<glyph unicode="&#xbf;" horiz-adv-x="1247" d="M727 1114q20 0 34.5 -13.5t14.5 -32.5t-14.5 -33t-34.5 -14t-34.5 14t-14.5 33t14.5 32.5t34.5 13.5zM765 818v-199q0 -43 -9 -78.5t-22 -60t-37 -45t-44.5 -32.5t-55 -23.5t-57 -17t-61.5 -14.5l-6 -1.5t-5.5 -1t-6.5 -1.5q-39 -9 -63 -15.5t-58 -19.5t-55 -28 t-44.5 -40.5t-36.5 -57t-22 -76.5t-9 -100q0 -71 21 -123t58 -84.5t95 -52.5t123.5 -27.5t152.5 -7.5q110 0 188.5 13t140.5 45.5t93 91t31 144.5h75q0 -105 -38 -176.5t-111.5 -110.5t-163.5 -55t-213 -16q-97 0 -172.5 9t-144 33.5t-113.5 64t-71.5 103t-26.5 149.5 q0 65 11 118.5t27 91t44.5 67.5t53.5 48t64 33.5t66 22.5t69 17q118 26 161 50q96 52 96 184v179h76z" />
<glyph unicode="&#xc0;" d="M915 1615l-40 -48l-320 268l40 48zM1377 0h-79l-175 421h-774l-175 -421h-79l599 1434h84zM374 485h724l-362 869z" />
<glyph unicode="&#xc1;" d="M917 1835l-320 -268l-40 48l320 268zM1377 0h-79l-175 421h-774l-175 -421h-79l599 1434h84zM374 485h724l-362 869z" />
<glyph unicode="&#xc2;" d="M1035 1597l-42 -41l-259 261l-258 -261l-42 41l300 302zM1377 0h-79l-175 421h-774l-175 -421h-79l599 1434h84zM374 485h724l-362 869z" />
<glyph unicode="&#xc3;" d="M527 1688l-48 25q52 118 136 118q49 0 132 -48q84 -46 123 -46q48 0 76 69l48 -24q-39 -99 -118 -99q-50 0 -139 48q-80 45 -116 45q-53 0 -94 -88zM1377 0h-79l-175 421h-774l-175 -421h-79l599 1434h84zM374 485h724l-362 869z" />
<glyph unicode="&#xc4;" d="M548 1755q21 0 34 -12.5t13 -31.5t-13 -32t-34 -13t-34 13t-13 32t13 31.5t34 12.5zM920 1755q21 0 34.5 -13t13.5 -31q0 -19 -13.5 -32t-34.5 -13t-34 13t-13 32t13 31.5t34 12.5zM1377 0h-79l-175 421h-774l-175 -421h-79l599 1434h84zM374 485h724l-362 869z" />
<glyph unicode="&#xc5;" d="M735 1957q88 0 149.5 -60.5t61.5 -145.5t-62 -146t-149 -61t-149 61t-62 146t61.5 145.5t149.5 60.5zM735 1911q-64 0 -112 -47t-48 -113q0 -67 48 -114t112 -47t111.5 47t47.5 114t-47.5 113.5t-111.5 46.5zM1377 0h-79l-175 421h-774l-175 -421h-79l599 1434h84z M374 485h724l-362 869z" />
<glyph unicode="&#xc6;" horiz-adv-x="1730" d="M1606 1369h-795v-597h729v-64h-729v-644h795v-64h-870v421h-387l-175 -421h-79l599 1434h912v-65zM374 485h362v870z" />
<glyph unicode="&#xc7;" horiz-adv-x="1394" d="M584 -160l99 156q-251 55 -390 249t-139 473q0 160 48.5 296t138 235t225 154.5t302.5 55.5q226 0 393 -104l-45 -54q-147 93 -348 93q-199 0 -344.5 -86.5t-220 -238.5t-74.5 -351t74.5 -351t220 -238.5t344.5 -86.5q202 0 348 92l45 -53q-165 -103 -384 -106 q-65 0 -140 13l-80 -121q14 2 42 2q88 -2 142.5 -47.5t54.5 -125.5q0 -85 -59 -133t-154 -48q-127 0 -182 77l37 31q42 -59 141 -59q73 0 115.5 35.5t42.5 97.5q0 64 -43.5 99.5t-116.5 35.5q-31 0 -64 -10z" />
<glyph unicode="&#xc8;" horiz-adv-x="1206" d="M788 1615l-40 -48l-320 268l40 48zM1082 1369h-794v-597h728v-64h-728v-644h794v-64h-869v1434h869v-65z" />
<glyph unicode="&#xc9;" horiz-adv-x="1206" d="M790 1835l-320 -268l-40 48l320 268zM1082 1369h-794v-597h728v-64h-728v-644h794v-64h-869v1434h869v-65z" />
<glyph unicode="&#xca;" horiz-adv-x="1206" d="M908 1597l-42 -41l-259 261l-258 -261l-42 41l300 302zM1082 1369h-794v-597h728v-64h-728v-644h794v-64h-869v1434h869v-65z" />
<glyph unicode="&#xcb;" horiz-adv-x="1206" d="M421 1755q21 0 34 -12.5t13 -31.5t-13 -32t-34 -13t-34 13t-13 32t13 31.5t34 12.5zM794 1755q21 0 34 -12.5t13 -31.5t-13 -32t-34 -13t-34 13t-13 32t13 31.5t34 12.5zM1082 1369h-794v-597h728v-64h-728v-644h794v-64h-869v1434h869v-65z" />
<glyph unicode="&#xcc;" horiz-adv-x="499" d="M430 1615l-40 -48l-320 268l40 48zM288 0h-75v1434h75v-1434z" />
<glyph unicode="&#xcd;" horiz-adv-x="499" d="M432 1835l-319 -268l-41 48l320 268zM288 0h-75v1434h75v-1434z" />
<glyph unicode="&#xce;" horiz-adv-x="499" d="M550 1597l-42 -41l-258 261l-260 -261l-39 41l299 302zM288 0h-75v1434h75v-1434z" />
<glyph unicode="&#xcf;" horiz-adv-x="499" d="M63 1755q21 0 34.5 -13t13.5 -31q0 -19 -13.5 -32t-34.5 -13t-34 13t-13 32t13 31.5t34 12.5zM436 1755q21 0 34 -12.5t13 -31.5t-13 -32t-34 -13t-34 13t-13 32t13 31.5t34 12.5zM288 0h-75v1434h75v-1434z" />
<glyph unicode="&#xd0;" horiz-adv-x="1544" d="M230 1434h444q335 0 525.5 -195t190.5 -521q0 -329 -189 -523.5t-527 -194.5h-444v670h-217v63h217v701zM306 1369v-636h419v-63h-419v-605h368q305 0 473 174.5t168 478.5q0 300 -169.5 475.5t-471.5 175.5h-368z" />
<glyph unicode="&#xd1;" horiz-adv-x="1492" d="M540 1688l-47 25q52 118 136 118q49 0 132 -48q84 -46 123 -46q48 0 76 69l48 -24q-39 -99 -118 -99q-50 0 -139 48q-80 45 -116 45q-54 0 -95 -88zM1301 0h-96l-936 1319v-1319h-76v1434h96l936 -1320v1320h76v-1434z" />
<glyph unicode="&#xd2;" horiz-adv-x="1738" d="M1050 1615l-40 -48l-319 268l40 48zM868 1459q222 0 385.5 -96.5t247 -263t83.5 -381.5q0 -218 -82.5 -385t-246 -263.5t-387.5 -96.5q-219 0 -382 96t-247.5 264t-84.5 385q0 160 48.5 296t138 235t225 154.5t302.5 55.5zM868 1394q-199 0 -344.5 -86.5t-220 -238.5 t-74.5 -351q0 -305 172 -491.5t467 -186.5q201 0 347 86t220 238t74 354q0 199 -75 351t-221 238.5t-345 86.5z" />
<glyph unicode="&#xd3;" horiz-adv-x="1738" d="M1053 1835l-320 -268l-40 48l320 268zM868 1459q222 0 385.5 -96.5t247 -263t83.5 -381.5q0 -218 -82.5 -385t-246 -263.5t-387.5 -96.5q-219 0 -382 96t-247.5 264t-84.5 385q0 160 48.5 296t138 235t225 154.5t302.5 55.5zM868 1394q-199 0 -344.5 -86.5t-220 -238.5 t-74.5 -351q0 -305 172 -491.5t467 -186.5q201 0 347 86t220 238t74 354q0 199 -75 351t-221 238.5t-345 86.5z" />
<glyph unicode="&#xd4;" horiz-adv-x="1738" d="M1170 1597l-41 -41l-259 261l-259 -261l-42 41l301 302zM868 1459q222 0 385.5 -96.5t247 -263t83.5 -381.5q0 -218 -82.5 -385t-246 -263.5t-387.5 -96.5q-219 0 -382 96t-247.5 264t-84.5 385q0 160 48.5 296t138 235t225 154.5t302.5 55.5zM868 1394 q-199 0 -344.5 -86.5t-220 -238.5t-74.5 -351q0 -305 172 -491.5t467 -186.5q201 0 347 86t220 238t74 354q0 199 -75 351t-221 238.5t-345 86.5z" />
<glyph unicode="&#xd5;" horiz-adv-x="1738" d="M662 1688l-47 25q52 118 136 118q49 0 132 -48q84 -46 123 -46q48 0 76 69l48 -24q-39 -99 -118 -99q-50 0 -139 48q-80 45 -116 45q-54 0 -95 -88zM868 1459q222 0 385.5 -96.5t247 -263t83.5 -381.5q0 -218 -82.5 -385t-246 -263.5t-387.5 -96.5q-219 0 -382 96 t-247.5 264t-84.5 385q0 160 48.5 296t138 235t225 154.5t302.5 55.5zM868 1394q-199 0 -344.5 -86.5t-220 -238.5t-74.5 -351q0 -305 172 -491.5t467 -186.5q201 0 347 86t220 238t74 354q0 199 -75 351t-221 238.5t-345 86.5z" />
<glyph unicode="&#xd6;" horiz-adv-x="1738" d="M684 1755q21 0 34 -12.5t13 -31.5t-13 -32t-34 -13t-34 13t-13 32t13 31.5t34 12.5zM1056 1755q21 0 34 -12.5t13 -31.5t-13 -32t-34 -13t-34 13t-13 32t13 31.5t34 12.5zM868 1459q222 0 385.5 -96.5t247 -263t83.5 -381.5q0 -218 -82.5 -385t-246 -263.5t-387.5 -96.5 q-219 0 -382 96t-247.5 264t-84.5 385q0 160 48.5 296t138 235t225 154.5t302.5 55.5zM868 1394q-199 0 -344.5 -86.5t-220 -238.5t-74.5 -351q0 -305 172 -491.5t467 -186.5q201 0 347 86t220 238t74 354q0 199 -75 351t-221 238.5t-345 86.5z" />
<glyph unicode="&#xd7;" horiz-adv-x="802" d="M401 643l260 260l44 -44l-260 -260l260 -260l-44 -44l-260 260l-260 -260l-44 44l260 260l-260 260l44 44z" />
<glyph unicode="&#xd8;" horiz-adv-x="1738" d="M1273 1536l-66 -149q181 -86 279 -262t98 -407q0 -218 -82.5 -385t-246 -263.5t-387.5 -96.5q-149 0 -273 46l-55 -121h-75l66 148q-180 87 -278.5 263.5t-98.5 408.5q0 160 48.5 296t138 235t225 154.5t302.5 55.5q148 0 275 -45l55 122h75zM559 108l557 1245 q-112 41 -248 41q-199 0 -344.5 -86.5t-220 -238.5t-74.5 -351q0 -212 86 -371t244 -239zM1179 1326l-557 -1245q111 -41 246 -41q201 0 347 86t220 238t74 354q0 211 -85.5 370t-244.5 238z" />
<glyph unicode="&#xd9;" horiz-adv-x="1531" d="M946 1615l-40 -48l-320 268l40 48zM1338 1434v-785q0 -126 -16.5 -226.5t-56.5 -186.5t-103.5 -143.5t-161 -89.5t-225.5 -32q-127 0 -223.5 31.5t-160.5 88t-104 142t-57 187t-17 229.5v785h75v-781q0 -152 24 -261t79.5 -190t151 -121t232.5 -40q138 0 234 41 t150.5 122.5t78.5 190t24 258.5v781h76z" />
<glyph unicode="&#xda;" horiz-adv-x="1531" d="M948 1835l-320 -268l-40 48l320 268zM1338 1434v-785q0 -126 -16.5 -226.5t-56.5 -186.5t-103.5 -143.5t-161 -89.5t-225.5 -32q-127 0 -223.5 31.5t-160.5 88t-104 142t-57 187t-17 229.5v785h75v-781q0 -152 24 -261t79.5 -190t151 -121t232.5 -40q138 0 234 41 t150.5 122.5t78.5 190t24 258.5v781h76z" />
<glyph unicode="&#xdb;" horiz-adv-x="1531" d="M1066 1597l-42 -41l-259 261l-259 -261l-41 41l300 302zM1338 1434v-785q0 -126 -16.5 -226.5t-56.5 -186.5t-103.5 -143.5t-161 -89.5t-225.5 -32q-127 0 -223.5 31.5t-160.5 88t-104 142t-57 187t-17 229.5v785h75v-781q0 -152 24 -261t79.5 -190t151 -121t232.5 -40 q138 0 234 41t150.5 122.5t78.5 190t24 258.5v781h76z" />
<glyph unicode="&#xdc;" horiz-adv-x="1531" d="M579 1755q21 0 34 -12.5t13 -31.5t-13 -32t-34 -13t-34 13t-13 32t13 31.5t34 12.5zM951 1755q21 0 34 -12.5t13 -31.5t-13 -32t-34 -13t-34 13t-13 32t13 31.5t34 12.5zM1338 1434v-785q0 -126 -16.5 -226.5t-56.5 -186.5t-103.5 -143.5t-161 -89.5t-225.5 -32 q-127 0 -223.5 31.5t-160.5 88t-104 142t-57 187t-17 229.5v785h75v-781q0 -152 24 -261t79.5 -190t151 -121t232.5 -40q138 0 234 41t150.5 122.5t78.5 190t24 258.5v781h76z" />
<glyph unicode="&#xdd;" horiz-adv-x="1380" d="M873 1835l-320 -268l-40 48l320 268zM728 572v-572h-75v572l-558 862h88l508 -790l508 790h88z" />
<glyph unicode="&#xde;" horiz-adv-x="1417" d="M288 1196h506q218 0 343 -127t125 -338q0 -213 -124 -340t-344 -127h-506v-264h-75v1434h75v-238zM288 328h501q189 0 293 108t104 295q0 184 -105 292.5t-292 108.5h-501v-804z" />
<glyph unicode="&#xdf;" horiz-adv-x="1374" d="M193 1v1099q2 104 36.5 176t98.5 111t142.5 55.5t183.5 16.5q106 0 184.5 -16t143 -56t98 -114.5t33.5 -183.5q0 -145 -58 -224.5t-169 -111.5q174 -24 266 -112.5t92 -270.5q0 -95 -27.5 -164t-72.5 -110.5t-117 -66t-147.5 -33t-176.5 -8.5h-261v65h263q91 0 157 7 t127 27.5t98.5 56t59.5 93.5t22 138q0 99 -31 165.5t-93 103t-139.5 51.5t-186.5 16h-25v64l16 1q78 4 135 19.5t102 49.5t68 93.5t23 145.5q0 92 -26 154t-79 95.5t-119 46.5t-160 13q-92 0 -158.5 -13.5t-119 -46t-79.5 -91.5t-29 -145v-1096h-75z" />
<glyph unicode="&#xe0;" horiz-adv-x="1241" d="M802 1205l-40 -48l-320 269l40 47zM1070 0h-66l-2 159q-144 -186 -384 -186q-233 0 -359.5 148t-126.5 393q0 254 113 396t346 142q102 0 188.5 -38.5t222.5 -154.5l2 165h66v-1024zM998 233v561q-136 121 -217 159.5t-177 38.5q-400 0 -400 -478q0 -142 46 -248 t144 -169t239 -63q232 0 365 199z" />
<glyph unicode="&#xe1;" horiz-adv-x="1241" d="M804 1426l-320 -269l-40 48l320 268zM1070 0h-66l-2 159q-144 -186 -384 -186q-233 0 -359.5 148t-126.5 393q0 254 113 396t346 142q102 0 188.5 -38.5t222.5 -154.5l2 165h66v-1024zM998 233v561q-136 121 -217 159.5t-177 38.5q-400 0 -400 -478q0 -142 46 -248 t144 -169t239 -63q232 0 365 199z" />
<glyph unicode="&#xe2;" horiz-adv-x="1241" d="M921 1188l-41 -42l-259 261l-259 -261l-41 42l300 302zM1070 0h-66l-2 159q-144 -186 -384 -186q-233 0 -359.5 148t-126.5 393q0 254 113 396t346 142q102 0 188.5 -38.5t222.5 -154.5l2 165h66v-1024zM998 233v561q-136 121 -217 159.5t-177 38.5q-400 0 -400 -478 q0 -142 46 -248t144 -169t239 -63q232 0 365 199z" />
<glyph unicode="&#xe3;" horiz-adv-x="1241" d="M413 1278l-47 25q52 118 136 118q51 0 132 -47q84 -46 123 -46q49 0 76 68l48 -24q-39 -99 -118 -99q-50 0 -139 48q-81 46 -116 46q-54 0 -95 -89zM1070 0h-66l-2 159q-144 -186 -384 -186q-233 0 -359.5 148t-126.5 393q0 254 113 396t346 142q102 0 188.5 -38.5 t222.5 -154.5l2 165h66v-1024zM998 233v561q-136 121 -217 159.5t-177 38.5q-400 0 -400 -478q0 -142 46 -248t144 -169t239 -63q232 0 365 199z" />
<glyph unicode="&#xe4;" horiz-adv-x="1241" d="M435 1346q21 0 34 -13t13 -32t-13 -32t-34 -13t-34 13t-13 32t13 32t34 13zM807 1346q21 0 34 -13t13 -32t-13 -32t-34 -13t-34 13t-13 32t13 32t34 13zM1070 0h-66l-2 159q-144 -186 -384 -186q-233 0 -359.5 148t-126.5 393q0 254 113 396t346 142q102 0 188.5 -38.5 t222.5 -154.5l2 165h66v-1024zM998 233v561q-136 121 -217 159.5t-177 38.5q-400 0 -400 -478q0 -142 46 -248t144 -169t239 -63q232 0 365 199z" />
<glyph unicode="&#xe5;" horiz-adv-x="1241" d="M621 1548q87 0 149 -61t62 -146t-62 -146t-149 -61t-149 61t-62 146t62 146t149 61zM621 1502q-64 0 -111.5 -47t-47.5 -114t47.5 -114t111.5 -47t112 47t48 114t-48 114t-112 47zM1070 0h-66l-2 159q-144 -186 -384 -186q-233 0 -359.5 148t-126.5 393q0 254 113 396 t346 142q102 0 188.5 -38.5t222.5 -154.5l2 165h66v-1024zM998 233v561q-136 121 -217 159.5t-177 38.5q-400 0 -400 -478q0 -142 46 -248t144 -169t239 -63q232 0 365 199z" />
<glyph unicode="&#xe6;" horiz-adv-x="2117" d="M1070 1024v-283q49 146 165.5 229.5t290.5 83.5q261 0 387 -131q92 -87 92 -226q0 -24 -1 -36q-5 -62 -37 -109.5t-80 -76t-115.5 -47t-135 -25.5t-146.5 -7q-173 0 -398 35q23 -185 143 -291t314 -106q190 0 337 80l31 -43q-161 -96 -376 -96q-177 0 -299 84.5 t-172 232.5v-292h-66l-2 159q-144 -186 -384 -186q-233 0 -359.5 148t-126.5 393q0 254 113 396t346 142q102 0 188.5 -38.5t222.5 -154.5l2 165h66zM1525 998q-206 0 -320.5 -128.5t-115.5 -336.5v-5q0 -32 1 -48q208 -38 393 -38q432 0 451 223q2 22 2 32q0 149 -114 225 t-297 76zM998 233v561q-136 121 -217 159.5t-177 38.5q-400 0 -400 -478q0 -142 46 -248t144 -169t239 -63q232 0 365 199z" />
<glyph unicode="&#xe7;" horiz-adv-x="1056" d="M417 -160l96 150q-177 44 -279 184.5t-102 337.5q0 153 61.5 274.5t183.5 193.5t286 72q84 0 156.5 -17.5t114.5 -45.5l-39 -49q-79 52 -228 52q-213 0 -338 -134.5t-125 -345.5q0 -215 127 -347.5t336 -132.5q59 0 126.5 15t112.5 43l38 -49q-52 -32 -128.5 -50 t-143.5 -18q-41 -2 -105 9l-76 -115q13 2 41 2q88 0 142.5 -45.5t54.5 -126.5q0 -85 -59 -133.5t-154 -48.5q-127 0 -182 77l37 31q42 -59 142 -59q73 0 115.5 35.5t42.5 97.5q0 64 -43.5 99.5t-116.5 35.5q-32 0 -65 -10z" />
<glyph unicode="&#xe8;" horiz-adv-x="1232" d="M797 1205l-40 -48l-320 269l41 47zM1001 114l32 -43q-161 -96 -377 -96q-245 0 -384.5 149.5t-139.5 391.5q0 155 57.5 275.5t174 191.5t278.5 71q261 0 387 -131q91 -89 91 -227q0 -12 -2 -42q-28 -259 -511 -259q-171 0 -400 36q23 -185 143.5 -291t314.5 -106 q189 0 336 80zM641 998q-207 0 -322 -129.5t-115 -337.5q0 -17 2 -51q208 -38 393 -38q432 0 451 223q1 11 1 32q0 149 -113.5 225t-296.5 76z" />
<glyph unicode="&#xe9;" horiz-adv-x="1232" d="M800 1426l-320 -269l-40 48l320 268zM1001 114l32 -43q-161 -96 -377 -96q-245 0 -384.5 149.5t-139.5 391.5q0 155 57.5 275.5t174 191.5t278.5 71q261 0 387 -131q91 -89 91 -227q0 -11 -2 -39q-25 -262 -511 -262q-169 0 -400 36q23 -185 143.5 -291t314.5 -106 q189 0 336 80zM641 998q-207 0 -322 -129.5t-115 -337.5q0 -17 2 -51q208 -38 393 -38q432 0 451 223q1 11 1 32q0 149 -113.5 225t-296.5 76z" />
<glyph unicode="&#xea;" horiz-adv-x="1232" d="M917 1188l-41 -42l-259 261l-259 -261l-42 42l301 302zM1001 114l32 -43q-161 -96 -377 -96q-245 0 -384.5 149.5t-139.5 391.5q0 155 57.5 275.5t174 191.5t278.5 71q261 0 387 -131q91 -89 91 -227q0 -13 -2 -41q-6 -60 -38.5 -106.5t-80.5 -75t-114.5 -46.5t-134 -25 t-144.5 -7q-170 0 -399 36q23 -185 143.5 -291t314.5 -106q189 0 336 80zM641 998q-207 0 -322 -129.5t-115 -337.5q0 -17 2 -51q208 -38 393 -38q432 0 451 223q1 11 1 32q0 149 -113.5 225t-296.5 76z" />
<glyph unicode="&#xeb;" horiz-adv-x="1232" d="M431 1346q21 0 34 -13t13 -32t-13 -32t-34 -13t-34 13t-13 32t13 32t34 13zM803 1346q21 0 34 -13t13 -32t-13 -32t-34 -13t-34 13t-13 32t13 32t34 13zM1001 114l32 -43q-161 -96 -377 -96q-245 0 -384.5 149.5t-139.5 391.5q0 155 57.5 275.5t174 191.5t278.5 71 q261 0 387 -131q91 -89 91 -227q0 -12 -2 -42q-26 -259 -511 -259q-171 0 -400 36q23 -185 143.5 -291t314.5 -106q189 0 336 80zM641 998q-207 0 -322 -129.5t-115 -337.5q0 -17 2 -51q208 -38 393 -38q432 0 451 223q1 11 1 32q0 149 -113.5 225t-296.5 76z" />
<glyph unicode="&#xec;" horiz-adv-x="452" d="M417 1205l-40 -48l-320 269l40 47zM272 0h-72v1024h72v-1024z" />
<glyph unicode="&#xed;" horiz-adv-x="452" d="M419 1426l-320 -269l-40 48l320 268zM272 0h-72v1024h72v-1024z" />
<glyph unicode="&#xee;" horiz-adv-x="452" d="M537 1188l-42 -42l-259 261l-259 -261l-43 42l302 302zM272 0h-72v1024h72v-1024z" />
<glyph unicode="&#xef;" horiz-adv-x="452" d="M50 1346q21 0 34 -13t13 -32t-13 -32t-34 -13t-34 13t-13 32t13 32t34 13zM422 1346q21 0 34 -13t13 -32t-13 -32t-34 -13t-34 13t-13 32t13 32t34 13zM272 0h-72v1024h72v-1024z" />
<glyph unicode="&#xf0;" horiz-adv-x="1228" d="M306 1387l-34 50q147 107 367 107q292 0 419 -169l156 91l31 -50l-156 -91q54 -96 75 -233t21 -327q0 -102 -5.5 -184.5t-21.5 -165t-41.5 -145t-67.5 -117.5t-98.5 -90t-135 -55t-176.5 -20q-100 0 -177.5 12.5t-148 45t-116 86t-72.5 139.5t-27 202q0 115 26.5 200.5 t71.5 139.5t114.5 86.5t146 45t174.5 12.5q75 0 130 -5.5t111 -21.5t97 -44.5t77.5 -75.5t63.5 -113q1 31 1 94q0 175 -18 295.5t-67 202.5l-247 -145l-31 50l245 144q-105 144 -354 144q-204 0 -333 -95zM639 895q-90 0 -158.5 -10.5t-129 -39t-99 -75.5t-60.5 -121.5 t-22 -176.5t22 -176.5t60.5 -121.5t99 -75.5t129 -39t158.5 -10.5q125 0 213 36t140.5 108t79 163.5t35.5 218.5q-22 82 -55 140t-71.5 93t-93.5 54.5t-111.5 26t-136.5 6.5z" />
<glyph unicode="&#xf1;" horiz-adv-x="1273" d="M435 1278l-48 25q52 118 137 118q51 0 132 -47q84 -46 123 -46q48 0 75 68l49 -24q-39 -99 -118 -99q-50 0 -139 48q-81 46 -116 46q-54 0 -95 -89zM256 1024l2 -165q121 104 209 148.5t201 44.5q81 0 157 -24t139 -69.5t101.5 -119t38.5 -163.5v-676h-72v666 q0 103 -57 179t-141 111.5t-180 35.5q-105 0 -186 -43t-206 -153v-796h-72v1024h66z" />
<glyph unicode="&#xf2;" horiz-adv-x="1316" d="M839 1205l-40 -48l-320 269l40 47zM658 1052q245 0 385.5 -148t140.5 -392q0 -243 -138.5 -392t-387.5 -149q-164 0 -284.5 71t-181 192.5t-60.5 277.5q0 239 140 389.5t386 150.5zM658 992q-211 0 -332.5 -132.5t-121.5 -347.5t121.5 -347.5t332.5 -132.5 q214 0 334 130.5t120 349.5q0 220 -121.5 350t-332.5 130z" />
<glyph unicode="&#xf3;" horiz-adv-x="1316" d="M841 1426l-320 -269l-40 48l320 268zM658 1052q245 0 385.5 -148t140.5 -392q0 -243 -138.5 -392t-387.5 -149q-164 0 -284.5 71t-181 192.5t-60.5 277.5q0 239 140 389.5t386 150.5zM658 992q-211 0 -332.5 -132.5t-121.5 -347.5t121.5 -347.5t332.5 -132.5 q214 0 334 130.5t120 349.5q0 220 -121.5 350t-332.5 130z" />
<glyph unicode="&#xf4;" horiz-adv-x="1316" d="M958 1188l-41 -42l-259 261l-259 -261l-41 42l300 302zM658 1052q245 0 385.5 -148t140.5 -392q0 -243 -138.5 -392t-387.5 -149q-164 0 -284.5 71t-181 192.5t-60.5 277.5q0 239 140 389.5t386 150.5zM658 992q-211 0 -332.5 -132.5t-121.5 -347.5t121.5 -347.5 t332.5 -132.5q214 0 334 130.5t120 349.5q0 220 -121.5 350t-332.5 130z" />
<glyph unicode="&#xf5;" horiz-adv-x="1316" d="M450 1278l-47 25q52 118 136 118q51 0 132 -47q84 -46 123 -46q49 0 76 68l48 -24q-39 -99 -118 -99q-50 0 -139 48q-81 46 -116 46q-54 0 -95 -89zM658 1052q245 0 385.5 -148t140.5 -392q0 -243 -138.5 -392t-387.5 -149q-164 0 -284.5 71t-181 192.5t-60.5 277.5 q0 239 140 389.5t386 150.5zM658 992q-211 0 -332.5 -132.5t-121.5 -347.5t121.5 -347.5t332.5 -132.5q214 0 334 130.5t120 349.5q0 220 -121.5 350t-332.5 130z" />
<glyph unicode="&#xf6;" horiz-adv-x="1316" d="M472 1346q21 0 34 -13t13 -32t-13 -32t-34 -13t-34 13t-13 32t13 32t34 13zM844 1346q21 0 34 -13t13 -32t-13 -32t-34 -13t-34 13t-13 32t13 32t34 13zM658 1052q245 0 385.5 -148t140.5 -392q0 -243 -138.5 -392t-387.5 -149q-164 0 -284.5 71t-181 192.5t-60.5 277.5 q0 239 140 389.5t386 150.5zM658 992q-211 0 -332.5 -132.5t-121.5 -347.5t121.5 -347.5t332.5 -132.5q214 0 334 130.5t120 349.5q0 220 -121.5 350t-332.5 130z" />
<glyph unicode="&#xf7;" horiz-adv-x="991" d="M496 1064q21 0 34 -12.5t13 -31.5t-13 -31.5t-34 -12.5t-34 12.5t-13 31.5t13 31.5t34 12.5zM895 666h-798v62h798v-62zM496 418q21 0 34 -12.5t13 -31.5t-13 -32t-34 -13t-34 13t-13 32t13 31.5t34 12.5z" />
<glyph unicode="&#xf8;" horiz-adv-x="1316" d="M967 1126l-57 -127q132 -62 203 -189t71 -298q0 -243 -138.5 -392t-387.5 -149q-108 0 -195 30l-46 -103h-68l57 127q-132 64 -203 192t-71 295q0 239 140 389.5t386 150.5q103 0 195 -30l46 104h68zM432 83l395 883q-78 26 -169 26q-211 0 -332.5 -132.5t-121.5 -347.5 q0 -148 59 -260t169 -169zM884 942l-395 -883q79 -27 169 -27q214 0 334 130.5t120 349.5q0 151 -59.5 262.5t-168.5 167.5z" />
<glyph unicode="&#xf9;" horiz-adv-x="1255" d="M810 1205l-40 -48l-320 269l40 47zM1085 0h-66l-2 165q-122 -104 -209.5 -149t-200.5 -45q-81 0 -157.5 24.5t-139.5 70t-101.5 119t-38.5 163.5v676h72v-666q0 -103 57 -179t141.5 -111.5t180.5 -35.5q105 0 186 43t206 153v796h72v-1024z" />
<glyph unicode="&#xfa;" horiz-adv-x="1255" d="M813 1426l-320 -269l-40 48l320 268zM1085 0h-66l-2 165q-122 -104 -209.5 -149t-200.5 -45q-81 0 -157.5 24.5t-139.5 70t-101.5 119t-38.5 163.5v676h72v-666q0 -103 57 -179t141.5 -111.5t180.5 -35.5q105 0 186 43t206 153v796h72v-1024z" />
<glyph unicode="&#xfb;" horiz-adv-x="1255" d="M930 1188l-42 -42l-258 261l-259 -261l-42 42l301 302zM1085 0h-66l-2 165q-122 -104 -209.5 -149t-200.5 -45q-81 0 -157.5 24.5t-139.5 70t-101.5 119t-38.5 163.5v676h72v-666q0 -103 57 -179t141.5 -111.5t180.5 -35.5q105 0 186 43t206 153v796h72v-1024z" />
<glyph unicode="&#xfc;" horiz-adv-x="1255" d="M444 1346q21 0 34 -13t13 -32t-13 -32t-34 -13t-34 13t-13 32t13 32t34 13zM816 1346q21 0 34 -13t13 -32t-13 -32t-34 -13t-34 13t-13 32t13 32t34 13zM1085 0h-66l-2 165q-122 -104 -209.5 -149t-200.5 -45q-81 0 -157.5 24.5t-139.5 70t-101.5 119t-38.5 163.5v676h72 v-666q0 -103 57 -179t141.5 -111.5t180.5 -35.5q105 0 186 43t206 153v796h72v-1024z" />
<glyph unicode="&#xfd;" horiz-adv-x="1095" d="M729 1426l-320 -269l-40 48l320 268zM1039 1024l-496 -1227q-60 -147 -185 -229q-120 -74 -286 -74v57q151 0 258 70q103 70 155 201l72 178h-20l-422 1024h75l391 -958l384 958h74z" />
<glyph unicode="&#xfe;" horiz-adv-x="1277" d="M281 1434v-565q144 181 380 181q234 0 360 -147.5t126 -392.5q0 -167 -47 -285.5t-151.5 -186t-260.5 -67.5q-99 0 -185.5 38t-221.5 152v-661h-72v1934h72zM281 791v-561q136 -121 217 -159.5t177 -38.5q400 0 400 478q0 142 -46 248t-144 169t-239 63q-232 0 -365 -199 z" />
<glyph unicode="&#xff;" horiz-adv-x="1095" d="M360 1346q21 0 34.5 -13t13.5 -32t-13.5 -32t-34.5 -13t-34 13t-13 32t13 32t34 13zM733 1346q21 0 34 -13t13 -32t-13 -32t-34 -13t-34 13t-13 32t13 32t34 13zM1039 1024l-496 -1227q-60 -147 -185 -229q-120 -74 -286 -74v57q151 0 258 70q103 70 155 201l72 178h-20 l-422 1024h75l391 -958l384 958h74z" />
<glyph unicode="&#x131;" horiz-adv-x="452" d="M272 0h-72v1024h72v-1024z" />
<glyph unicode="&#x152;" horiz-adv-x="2502" d="M1509 0v426q-62 -211 -228 -332t-413 -121q-219 0 -382 96t-247.5 264t-84.5 385q0 160 48.5 296t138 235t225 154.5t302.5 55.5q245 0 411.5 -122t229.5 -331v428h870v-65h-795v-597h728v-64h-728v-644h795v-64h-870zM868 1394q-199 0 -344.5 -86.5t-220 -238.5 t-74.5 -351q0 -305 172 -491.5t467 -186.5q201 0 347 86t220 238t74 354q0 199 -75 351t-221 238.5t-345 86.5z" />
<glyph unicode="&#x153;" horiz-adv-x="2213" d="M1981 114l32 -43q-161 -96 -376 -96q-192 0 -319.5 97.5t-169.5 266.5q-41 -171 -167.5 -269.5t-322.5 -98.5q-164 0 -284.5 71t-181 192.5t-60.5 277.5q0 239 140 389.5t386 150.5q192 0 319.5 -97.5t169.5 -266.5q40 168 162.5 267t312.5 99q261 0 387 -131 q91 -89 91 -227q0 -12 -2 -40q-8 -75 -53.5 -128.5t-120 -81t-156.5 -39.5t-181 -12q-170 0 -399 36q23 -185 143 -291t314 -106q189 0 336 80zM1621 998q-206 0 -320.5 -128.5t-115.5 -336.5q0 -1 -0.5 -3t-0.5 -3q0 -17 2 -47q208 -38 393 -38q432 0 451 223q2 22 2 32 q0 149 -114 225t-297 76zM658 992q-211 0 -332.5 -132.5t-121.5 -347.5t121.5 -347.5t332.5 -132.5q214 0 334 130.5t120 349.5q0 220 -121.5 350t-332.5 130z" />
<glyph unicode="&#x178;" horiz-adv-x="1380" d="M504 1755q21 0 34 -12.5t13 -31.5t-13 -32t-34 -13t-34 13t-13 32t13 31.5t34 12.5zM876 1755q21 0 34 -12.5t13 -31.5t-13 -32t-34 -13t-34 13t-13 32t13 31.5t34 12.5zM728 572v-572h-75v572l-558 862h88l508 -790l508 790h88z" />
<glyph unicode="&#x192;" horiz-adv-x="790" d="M790 1533v-57q-204 -1 -327 -115q-65 -59 -95 -139.5t-30 -197.5v-137h357v-58h-357v-876q0 -168 -88 -275q-65 -98 -183 -153v63q88 50 139 133q60 94 60 232v876h-199v58h199v137q0 254 151 384q142 127 373 125z" />
<glyph unicode="&#x2c6;" horiz-adv-x="794" d="M698 1188l-41 -42l-259 261l-259 -261l-42 42l301 302z" />
<glyph unicode="&#x2c7;" horiz-adv-x="794" d="M698 1435l-300 -301l-301 301l42 42l259 -261l259 261z" />
<glyph unicode="&#x2d8;" horiz-adv-x="751" d="M599 1437l56 -3q-14 -104 -93 -174t-186 -70t-186 70t-93 174l56 3q12 -85 76 -140.5t147 -55.5t147 55.5t76 140.5z" />
<glyph unicode="&#x2d9;" horiz-adv-x="288" d="M144 1346q21 0 34 -13t13 -32t-13 -32t-34 -13t-34 13t-13 32t13 32t34 13z" />
<glyph unicode="&#x2da;" horiz-adv-x="616" d="M308 1548q87 0 149 -61t62 -146t-62 -146t-149 -61t-149 61t-62 146t62 146t149 61zM308 1502q-64 0 -111.5 -47t-47.5 -114t47.5 -114t111.5 -47t112 47t48 114t-48 114t-112 47z" />
<glyph unicode="&#x2db;" horiz-adv-x="612" d="M293 12h84q-111 -76 -164.5 -154t-53.5 -146q0 -39 16 -68q42 -77 147 -77q77 0 168 46l24 -45q-107 -52 -200 -52q-68 0 -118.5 26.5t-75.5 72.5q-23 41 -23 91q0 72 49 152t147 154z" />
<glyph unicode="&#x2dc;" horiz-adv-x="710" d="M145 1278l-48 25q52 118 137 118q51 0 132 -47q84 -46 123 -46q48 0 75 68l49 -24q-39 -99 -119 -99q-49 0 -138 48q-81 46 -116 46q-54 0 -95 -89z" />
<glyph unicode="&#x2dd;" horiz-adv-x="901" d="M438 1430l-295 -296l-46 46l296 296zM804 1430l-296 -296l-45 46l295 296z" />
<glyph unicode="&#x2000;" horiz-adv-x="978" />
<glyph unicode="&#x2001;" horiz-adv-x="1957" />
<glyph unicode="&#x2002;" horiz-adv-x="978" />
<glyph unicode="&#x2003;" horiz-adv-x="1957" />
<glyph unicode="&#x2004;" horiz-adv-x="652" />
<glyph unicode="&#x2005;" horiz-adv-x="489" />
<glyph unicode="&#x2006;" horiz-adv-x="326" />
<glyph unicode="&#x2007;" horiz-adv-x="326" />
<glyph unicode="&#x2008;" horiz-adv-x="244" />
<glyph unicode="&#x2009;" horiz-adv-x="391" />
<glyph unicode="&#x200a;" horiz-adv-x="108" />
<glyph unicode="&#x2010;" horiz-adv-x="923" d="M826 673h-729v63h729v-63z" />
<glyph unicode="&#x2011;" horiz-adv-x="923" d="M826 673h-729v63h729v-63z" />
<glyph unicode="&#x2012;" horiz-adv-x="923" d="M826 673h-729v63h729v-63z" />
<glyph unicode="&#x2013;" horiz-adv-x="1067" d="M970 673h-873v63h873v-63z" />
<glyph unicode="&#x2014;" horiz-adv-x="1339" d="M1242 673h-1145v63h1145v-63z" />
<glyph unicode="&#x2018;" horiz-adv-x="299" d="M182 1518h-8q-20 0 -26.5 -11t-7.5 -43v-9q4 2 14 2q21 0 34 -13t13 -32t-13 -31.5t-34 -12.5q-27 0 -40 19q-17 22 -17 71q0 96 76 96h14z" />
<glyph unicode="&#x2019;" horiz-adv-x="299" d="M158 1458v9q-4 -2 -14 -2q-21 0 -34 13t-13 32t13 31.5t34 12.5q26 0 39 -18q18 -22 18 -72q0 -46 -16.5 -71t-58.5 -25h-15l5 36h8q21 0 27.5 11.5t6.5 42.5z" />
<glyph unicode="&#x201a;" horiz-adv-x="299" d="M158 -16v8q-4 -2 -14 -2q-21 0 -34 13t-13 32t13 32t34 13q25 0 39 -19q18 -22 18 -71q0 -46 -16.5 -71t-58.5 -25h-15l5 36h8q21 0 27.5 11.5t6.5 42.5z" />
<glyph unicode="&#x201c;" horiz-adv-x="538" d="M182 1518h-8q-20 0 -26.5 -11t-7.5 -42v-10q4 2 14 2q21 0 34 -13t13 -32t-13 -31.5t-34 -12.5q-27 0 -40 19q-17 22 -17 71q0 96 76 96h14zM423 1518h-8q-21 0 -27.5 -11.5t-6.5 -42.5v-9q4 2 14 2q21 0 34 -13t13 -32t-13 -31.5t-34 -12.5q-26 0 -39 18q-18 24 -18 72 q0 96 76 96h14z" />
<glyph unicode="&#x201d;" horiz-adv-x="538" d="M158 1458v9q-4 -2 -14 -2q-21 0 -34 13t-13 32t13 31.5t34 12.5q26 0 39 -18q18 -24 18 -72q0 -46 -16.5 -71t-58.5 -25h-15l5 36h8q21 0 27.5 11.5t6.5 42.5zM399 1460v7q-4 -2 -14 -2q-21 0 -34 13t-13 32t13 31.5t34 12.5q27 0 40 -19q17 -22 17 -71q0 -96 -76 -96 h-14l5 36h8q21 0 27.5 12t6.5 44z" />
<glyph unicode="&#x201e;" horiz-adv-x="538" d="M158 -16v8q-4 -2 -14 -2q-21 0 -34 13t-13 32t13 32t34 13q25 0 39 -19q18 -24 18 -71q0 -46 -16.5 -71t-59.5 -25h-14l5 36h8q21 0 27.5 11.5t6.5 42.5zM399 -16v8q-4 -2 -14 -2q-21 0 -34 13t-13 32t13 32t34 13q25 0 39 -19q18 -22 18 -71q0 -96 -76 -96h-14l5 36h8 q20 0 26.5 11t7.5 43z" />
<glyph unicode="&#x2020;" horiz-adv-x="1054" d="M565 969h393v-63h-393v-1201h-75v1201h-393v63h393v500h75v-500z" />
<glyph unicode="&#x2021;" horiz-adv-x="1054" d="M565 969h393v-63h-393v-639h393v-62h-393v-500h-75v500h-393v62h393v639h-393v63h393v500h75v-500z" />
<glyph unicode="&#x2022;" horiz-adv-x="567" d="M284 784q79 0 132.5 -54t53.5 -130t-53.5 -129.5t-132.5 -53.5t-133 53.5t-54 129.5t54 130t133 54z" />
<glyph unicode="&#x2026;" horiz-adv-x="1024" d="M512 81q21 0 34 -12.5t13 -31.5t-13 -32t-34 -13t-34 13t-13 32t13 31.5t34 12.5zM144 81q21 0 34.5 -13t13.5 -31q0 -19 -13.5 -32t-34.5 -13t-34 13t-13 32t13 31.5t34 12.5zM879 81q21 0 34 -12.5t13 -31.5t-13 -32t-34 -13t-34 13t-13 32t13 31.5t34 12.5z" />
<glyph unicode="&#x202f;" horiz-adv-x="391" />
<glyph unicode="&#x2030;" horiz-adv-x="2476" d="M429 -35h-77l947 1503h77zM414 1446q76 0 132.5 -20t91.5 -53.5t56 -84.5t29 -106t8 -126q0 -90 -14.5 -157t-48.5 -122t-98 -84t-156 -29q-93 0 -157 29t-98 84t-48 122t-14 157q0 89 13.5 155t47 121.5t98 84.5t158.5 29zM414 1394q-75 0 -126 -23t-78.5 -69.5 t-38.5 -104.5t-11 -141q0 -170 55 -255t199 -85q143 0 198.5 85.5t55.5 254.5q0 82 -11 140.5t-38.5 105t-78.5 69.5t-126 23zM1319 770q76 0 132.5 -20t91.5 -53.5t56 -85t29 -106.5t8 -126t-8.5 -127t-30 -107t-56.5 -84.5t-91 -53t-131 -19.5q-93 0 -156.5 28.5t-97.5 84 t-48 122t-14 156.5q0 89 13.5 155t47 122t97.5 85t158 29zM2062 770q94 0 158 -29t97.5 -85t47 -122t13.5 -155q0 -90 -14 -156.5t-48 -122t-97.5 -84t-156.5 -28.5q-74 0 -130 19.5t-91 53t-56.5 84.5t-30 107t-8.5 127q0 89 13.5 155t47 122t97.5 85t158 29zM1319 718 q-145 0 -199.5 -84.5t-54.5 -254.5q0 -169 55.5 -254t198.5 -85t198.5 85t55.5 254q0 170 -54.5 254.5t-199.5 84.5zM2062 718q-145 0 -199.5 -84.5t-54.5 -254.5q0 -169 55.5 -254t198.5 -85t198.5 85t55.5 254q0 170 -54.5 254.5t-199.5 84.5z" />
<glyph unicode="&#x2039;" horiz-adv-x="696" d="M599 1029l-413 -429l413 -429l-49 -40l-453 469l453 469z" />
<glyph unicode="&#x203a;" horiz-adv-x="696" d="M599 600l-453 -469l-49 40l414 429l-414 429l49 40z" />
<glyph unicode="&#x2044;" horiz-adv-x="1200" d="M172 -35h-77l934 1503h77z" />
<glyph unicode="&#x205f;" horiz-adv-x="489" />
<glyph unicode="&#x20ac;" horiz-adv-x="1325" d="M97 844h121q7 114 28 203.5t64.5 168.5t108.5 131t163.5 82t226.5 30q275 0 418 -137l-45 -46q-133 119 -373 119q-139 0 -236.5 -38.5t-155 -114t-85 -171.5t-35.5 -227h733v-59h-741v-67q0 -73 4 -128h655v-59h-646q12 -117 42.5 -203t88.5 -153t152 -101t224 -34 q240 0 373 119l45 -46q-144 -138 -418 -138q-121 0 -215.5 26.5t-159 74t-109 118.5t-68 152.5t-34.5 184.5h-126v59h119q-5 62 -3 128v67h-116v59z" />
<glyph unicode="&#x2122;" horiz-adv-x="1769" d="M754 1382h-298v-745h-61v745h-298v52h657v-52zM1672 637h-61v671l-299 -671h-57l-298 671v-671h-61v797h71l317 -719l316 719h72v-797z" />
<glyph unicode="&#x25ca;" horiz-adv-x="1464" />
<glyph unicode="&#xe000;" horiz-adv-x="1024" d="M0 1024h1024v-1024h-1024v1024z" />
<glyph unicode="&#xfb03;" horiz-adv-x="2076" d="M1598 1533l-1 -57q-203 -1 -326 -115q-126 -114 -126 -337h739v-1024h-72v966h-667v-966h-72v966h-726v-966h-72v966h-199v58h199q0 252 151 384q142 127 373 125v-57q-204 -1 -327 -115q-125 -113 -125 -337h726q0 252 152 384q142 127 373 125z" />
<glyph unicode="&#xfb04;" horiz-adv-x="2293" d="M799 1533v-57q-204 -1 -327 -115q-125 -113 -125 -337h726q0 252 152 384q141 125 369 125h285v-1101q0 -191 81 -288q82 -97 249 -97v-57q-197 -3 -300 109q-102 112 -102 333v1044h-209q-204 -1 -327 -115q-126 -114 -126 -337h357v-58h-357v-966h-72v966h-726v-966 h-72v966h-199v58h199q0 252 151 384q142 127 373 125z" />
</font>
</defs>
</svg>
