<?xml version="1.0" standalone="no"?>
<!DOCTYPE svg PUBLIC "-//W3C//DTD SVG 1.1//EN" "http://www.w3.org/Graphics/SVG/1.1/DTD/svg11.dtd" >
<svg xmlns="http://www.w3.org/2000/svg">
<metadata></metadata>
<defs>
<font id="corbertlight_italic" horiz-adv-x="1472" >
<font-face units-per-em="2048" ascent="1638" descent="-410" />
<missing-glyph horiz-adv-x="610" />
<glyph unicode="&#xfb01;" horiz-adv-x="1277" d="M1122 1533l-7 -57q-205 -1 -353 -119q-78 -59 -125.5 -139t-72.5 -194h739l-218 -1024h-72l205 966h-666l-314 -1478h-72l314 1478h-199l12 59h199q55 257 230 386q169 124 400 122z" />
<glyph unicode="&#xfb02;" horiz-adv-x="1495" d="M1406 1533l-235 -1104q-17 -82 -17 -144q0 -89 33 -145q65 -93 231 -93l-7 -57q-200 -3 -275 113q-53 71 -53 187q0 65 17 145l221 1041h-206q-204 -1 -352 -119q-78 -59 -126 -139t-73 -194h357l-12 -58h-357l-314 -1478h-72l314 1478h-199l12 59h199q56 259 230 387 q166 123 397 121h287z" />
<glyph horiz-adv-x="2048" />
<glyph horiz-adv-x="2048" />
<glyph unicode="&#xd;" horiz-adv-x="2048" />
<glyph unicode=" "  horiz-adv-x="610" />
<glyph unicode="&#x09;" horiz-adv-x="610" />
<glyph unicode="&#xa0;" horiz-adv-x="610" />
<glyph unicode="!" horiz-adv-x="292" d="M244 288h-73l242 1146h76zM159 86q19 0 31.5 -12.5t12.5 -30.5q0 -20 -16 -35.5t-37 -15.5q-19 0 -31.5 12.5t-12.5 30.5q0 20 16 35.5t37 15.5z" />
<glyph unicode="&#x22;" horiz-adv-x="557" d="M359 926h-65l111 520h65zM657 926h-65l110 520h65z" />
<glyph unicode="#" horiz-adv-x="1282" d="M1203 1034h202l-25 -59h-202l-216 -506h202l-25 -59h-202l-174 -410h-69l174 410h-432l-174 -410h-70l174 409h-182l25 60h183l215 506h-182l25 59h182l170 400h69l-170 -400h432l170 400h69zM676 975l-215 -506h432l215 506h-432z" />
<glyph unicode="$" horiz-adv-x="1359" d="M1026 1457h38q125 -2 237 -32t191 -85l-51 -52q-74 53 -180.5 80.5t-225.5 27.5q-134 0 -252.5 -35t-207 -111.5t-111.5 -182.5q-6 -25 -6 -58q0 -47 20.5 -83.5t50 -59.5t81.5 -43t94.5 -30.5t110.5 -24.5q212 -41 273 -58q181 -52 234 -152q27 -51 27 -116 q0 -40 -10 -86q-20 -92 -81 -165t-148.5 -117.5t-187.5 -69t-208 -27.5l-42 -186h-71l43 186q-163 6 -303 58t-206 137l54 47q64 -84 203 -131t302 -47q99 0 191 19.5t171 58t134.5 103t72.5 146.5q8 40 8 70q0 52 -24.5 91.5t-51 62.5t-96 45t-104.5 30t-132 26 q-15 3 -24 5t-22.5 4.5t-24.5 4.5q-74 14 -126 27.5t-110 37t-93 52.5t-58.5 74.5t-23.5 102.5q0 34 9 76q18 85 71.5 153.5t130.5 114t168 73t192 36.5l43 189h71z" />
<glyph unicode="%" horiz-adv-x="1732" d="M423 -35h-80l1267 1503h79zM716 1447q138 0 197.5 -61.5t59.5 -174.5q0 -64 -20 -161q-19 -89 -46.5 -154.5t-72.5 -120t-113.5 -82.5t-160.5 -28q-138 0 -197.5 62t-59.5 176q0 63 20 160q15 70 34 124t50.5 104.5t72.5 83t101 52.5t135 20zM714 1395 q-75 0 -131.5 -23.5t-94.5 -71t-62.5 -107.5t-42.5 -143q-19 -87 -19 -147q0 -92 46 -139t152 -47q145 0 220 87t111 259q19 87 19 148q0 91 -45.5 137.5t-152.5 46.5zM1477 772q138 0 197.5 -61.5t59.5 -174.5q0 -64 -20 -161q-19 -89 -46.5 -154.5t-72.5 -120 t-113.5 -82.5t-160.5 -28q-137 0 -196.5 62t-59.5 176q0 70 19 160q19 88 45.5 152.5t71.5 119.5t114 83.5t162 28.5zM1475 720q-146 0 -220 -86.5t-111 -258.5q-19 -87 -19 -147q0 -92 46 -139t152 -47q145 0 220.5 87t111.5 259q19 87 19 148q0 91 -46 137.5t-153 46.5z " />
<glyph unicode="&#x26;" horiz-adv-x="1409" d="M652 786l-127 173q-34 49 -34 119q0 40 10 84q15 70 45.5 122t71.5 84.5t97.5 53t115.5 28t132 7.5q82 0 142.5 -10t109.5 -34.5t74 -69.5t25 -110q0 -43 -8 -83q-19 -96 -67.5 -156t-126.5 -94l-352 -137l434 -581q71 76 97 200q11 52 11 90q0 89 -49 144l44 29 q64 -72 64 -185q0 -44 -13 -106q-31 -146 -116 -232l73 -97l7 -24h-82l-58 77q-158 -127 -489 -127q-93 0 -168 9t-142.5 30.5t-112.5 56t-71 89t-26 125.5q0 48 12 105q52 243 270 340zM724 812l356 140q123 54 154 207q7 35 7 69q0 95 -71 131t-211 36q-166 0 -260 -52.5 t-125 -189.5q-10 -48 -10 -76q0 -52 25 -86zM687 734l-210 -83q-185 -84 -231 -296q-11 -52 -11 -91q0 -73 31.5 -123.5t93 -78t138.5 -39t181 -11.5q317 0 454 119z" />
<glyph unicode="'" horiz-adv-x="260" d="M359 926h-65l111 520h65z" />
<glyph unicode="(" horiz-adv-x="655" d="M862 1469l-3 -62q-95 -16 -174 -66t-139 -124t-109.5 -180t-85 -222.5t-66.5 -262.5q-56 -261 -56 -434q0 -177 62.5 -280.5t201.5 -128.5l-12 -61q-171 26 -246.5 144.5t-75.5 319.5q0 176 58 453q33 154 69.5 274.5t91 234.5t120.5 192.5t158.5 132.5t205.5 70z" />
<glyph unicode=")" horiz-adv-x="655" d="M399 1408l12 60q171 -26 246.5 -144.5t75.5 -319.5q0 -175 -58 -452q-33 -154 -69.5 -274.5t-91 -234.5t-120.5 -192.5t-158.5 -132.5t-205.5 -70l3 61q117 19 210.5 89t161 187t115.5 256.5t87 323.5q56 261 56 433q0 177 -62.5 281t-201.5 129z" />
<glyph unicode="*" horiz-adv-x="638" d="M619 1281l189 59l7 -54l-191 -57l80 -151l-51 -33l-77 152l-141 -152l-41 33l142 151l-166 57l29 54l166 -59l39 187h56z" />
<glyph unicode="+" horiz-adv-x="991" d="M661 630h368l-14 -62h-367l-78 -368h-63l79 368h-368l13 62h368l78 368h62z" />
<glyph unicode="," horiz-adv-x="299" d="M155 -12v4q-3 -2 -7 -2q-20 0 -31.5 12t-11.5 29q0 20 14.5 34.5t36.5 14.5q25 0 37 -20q8 -15 8 -40q0 -20 -4 -36q-10 -45 -30 -67.5t-62 -22.5h-17l13 36h7q20 0 30.5 13.5t16.5 44.5z" />
<glyph unicode="-" horiz-adv-x="923" d="M970 673h-730l14 63h729z" />
<glyph unicode="." horiz-adv-x="288" d="M156 81q20 0 31.5 -11.5t11.5 -28.5q0 -19 -14.5 -34t-36.5 -15q-20 0 -31.5 12t-11.5 29q0 19 14.5 33.5t36.5 14.5z" />
<glyph unicode="/" horiz-adv-x="937" d="M164 -35h-77l992 1503h77z" />
<glyph unicode="0" horiz-adv-x="1419" d="M1003 1406q129 0 220.5 -30t144 -87.5t76.5 -133t24 -174.5q0 -124 -37 -296q-28 -130 -64.5 -232.5t-95 -195t-134.5 -153t-184.5 -96t-243.5 -35.5q-248 0 -356 111.5t-108 318.5q0 128 36 294q28 130 63 230.5t93 193.5t134 153t185.5 96t246.5 36zM1000 1344 q-121 0 -216.5 -31.5t-163.5 -86t-120.5 -139.5t-85.5 -181t-60 -221q-35 -165 -35 -282q0 -181 91 -274t301 -93q119 0 214 31t163.5 86t121 139.5t87 181.5t61.5 223q36 172 36 285q0 178 -91 270t-303 92z" />
<glyph unicode="1" horiz-adv-x="651" d="M441 0h-75l282 1324l-303 -65l13 65l319 69h60z" />
<glyph unicode="2" horiz-adv-x="1267" d="M403 1043l-70 6q18 85 56.5 148t90.5 103t124.5 64t150 33.5t176.5 9.5q109 0 189 -12t144 -41.5t97 -83t33 -131.5q0 -49 -11 -100q-18 -86 -52.5 -148.5t-80 -103t-113 -65.5t-139.5 -37t-172 -18q-253 -14 -392 -95t-179 -268l-51 -240h966l-13 -64h-1039l65 310 q19 89 59 158t96 115t133 77t161.5 47t190.5 22q113 6 189 22.5t140 51.5t102.5 95.5t58.5 152.5q9 43 9 80q0 121 -99.5 167.5t-294.5 46.5q-112 0 -196 -14t-153.5 -47.5t-113 -93.5t-62.5 -147z" />
<glyph unicode="3" horiz-adv-x="1284" d="M431 1053l-71 7q24 101 75 170.5t128 107t164.5 53t202.5 15.5q102 0 178.5 -12t138.5 -41t94 -81.5t32 -129.5q0 -48 -11 -97q-31 -146 -119 -223t-232 -106q254 -46 254 -261q0 -47 -12 -105q-19 -90 -60 -157t-95 -109t-129.5 -67t-154 -34.5t-177.5 -9.5 q-111 0 -193.5 13.5t-148.5 45.5t-100 89t-34 139q0 44 10 93l70 -6q-8 -46 -8 -79q0 -68 28 -114t83.5 -71.5t126 -36t168.5 -10.5q90 0 161 9t136.5 31.5t112.5 59.5t81.5 95t51.5 137q10 47 10 90q0 130 -102.5 179.5t-304.5 49.5h-214l13 61h209q104 0 181 13.5 t143.5 46.5t109.5 94t62 150q10 50 10 82q0 62 -25.5 103.5t-76.5 64.5t-115.5 32.5t-153.5 9.5q-104 0 -182.5 -13.5t-144 -46t-108 -90t-62.5 -141.5z" />
<glyph unicode="4" horiz-adv-x="1310" d="M1112 395h185l-13 -63h-185l-71 -332h-75l71 332h-859l13 66l1071 996h75zM265 395h772l192 899z" />
<glyph unicode="5" horiz-adv-x="1259" d="M1359 1330h-833l-102 -479h389q105 0 183 -14.5t141 -48t95.5 -95.5t32.5 -151q0 -66 -15 -136q-22 -103 -64.5 -180t-97 -125t-129 -77t-151.5 -40t-174 -11q-106 0 -185.5 15t-142.5 49t-95.5 95t-32.5 149q0 46 11 107l76 -5q-9 -51 -9 -94q0 -74 26.5 -124t78.5 -78 t119 -39.5t159 -11.5q87 0 156 10t133.5 35.5t111 68t82.5 110t55 158.5q14 63 14 120q0 74 -26.5 124t-79 77.5t-119 38t-159.5 10.5h-471l128 605h908z" />
<glyph unicode="6" horiz-adv-x="1333" d="M362 713l-15 -74q64 109 171 161.5t256 62.5q45 3 94 3q104 0 183 -15t142.5 -49.5t96.5 -97.5t33 -154q0 -64 -16 -138q-22 -105 -65 -183t-99 -126.5t-132 -78t-155 -40.5t-178 -11q-123 0 -209 28t-135.5 82t-71.5 124.5t-22 165.5q0 130 41 324q20 94 40.5 167.5 t51.5 149.5t68 132.5t89 107.5t114.5 83t145.5 50.5t182 18.5q414 0 459 -328l-73 -13q-19 139 -109.5 209t-278.5 70q-85 0 -156.5 -15.5t-126.5 -43t-100 -71t-78 -93.5t-61 -117.5t-47.5 -135.5t-38.5 -155zM856 807q-211 0 -344 -69t-192 -242q-8 -59 -8 -124 q0 -166 84.5 -251t285.5 -85q91 0 162 10t137.5 36.5t114.5 70t85 112.5t57 162q14 64 14 122q0 76 -27.5 127.5t-82 79.5t-123 39.5t-163.5 11.5z" />
<glyph unicode="7" horiz-adv-x="1212" d="M1403 1346l-1076 -1346h-86l1068 1331h-929l14 63h1018z" />
<glyph unicode="8" horiz-adv-x="1402" d="M996 1406q108 0 188 -12t145.5 -41t99.5 -82.5t34 -131.5q0 -41 -11 -94q-31 -146 -121.5 -222t-239.5 -105q128 -22 197 -85t69 -179q0 -46 -12 -102q-19 -91 -61.5 -158.5t-99 -109t-135 -67t-160.5 -35t-186 -9.5q-117 0 -204.5 14t-157.5 46t-106 90t-36 141 q0 44 12 100q35 161 138 245.5t274 113.5q-236 46 -236 242q0 39 11 92q18 82 56.5 144t91.5 100.5t125.5 62.5t150 33t174.5 9zM994 1344q-110 0 -192.5 -14t-152 -47.5t-113.5 -94t-63 -148.5q-9 -44 -9 -78q0 -62 27 -104.5t80.5 -66t122 -33.5t162.5 -10q87 0 155 8 t131 29t107.5 54.5t77.5 87t48 125.5q9 43 9 80q0 63 -26.5 105t-80.5 65t-121 32.5t-162 9.5zM854 686q-119 0 -209 -15.5t-165.5 -52t-123 -102.5t-68.5 -162q-10 -44 -10 -85q0 -55 20 -95.5t55 -66.5t89.5 -42t117.5 -22.5t145 -6.5q119 0 207.5 14.5t164 50.5 t123.5 102.5t69 163.5q10 46 10 87q0 68 -29 114.5t-88 72t-132.5 35.5t-175.5 10z" />
<glyph unicode="9" horiz-adv-x="1333" d="M1265 665l15 75q-64 -109 -171 -161t-256 -62q-47 -3 -95 -3q-105 0 -183.5 14.5t-142 49t-96.5 97.5t-33 153q0 59 17 139q22 105 65 183t99 126.5t132 78t155 40.5t178 11q123 0 209 -27.5t135.5 -81.5t71.5 -124.5t22 -165.5q0 -131 -41 -325q-20 -94 -40.5 -167.5 t-51.5 -149.5t-68 -132.5t-89 -107.5t-114.5 -83t-145.5 -50.5t-182 -18.5q-414 0 -459 328l73 13q19 -138 110 -208t279 -70q99 0 179 19.5t140 60t105 92.5t79.5 127t58 151.5t45.5 178.5zM946 1344q-91 0 -162 -10t-137.5 -36.5t-115 -70.5t-85.5 -113t-57 -162 q-14 -64 -14 -122q0 -76 27.5 -127.5t82 -79t123 -39t163.5 -11.5q103 0 183 14.5t150.5 48.5t121.5 96t81 151q8 59 8 124q0 166 -84 251.5t-285 85.5z" />
<glyph unicode=":" horiz-adv-x="288" d="M349 987q20 0 31.5 -11.5t11.5 -28.5q0 -19 -14.5 -34t-36.5 -15q-20 0 -31.5 11.5t-11.5 28.5q0 19 14.5 34t36.5 15zM157 81q20 0 31 -11.5t11 -28.5q0 -19 -14.5 -34t-36.5 -15q-19 0 -30.5 12t-11.5 29q0 19 14 33.5t37 14.5z" />
<glyph unicode=";" horiz-adv-x="299" d="M349 987q20 0 31.5 -11.5t11.5 -28.5q0 -19 -14.5 -34t-36.5 -15q-20 0 -31.5 11.5t-11.5 28.5q0 19 14.5 34t36.5 15zM155 -12l1 4q-3 -2 -8 -2q-20 0 -31.5 12t-11.5 29q0 20 14.5 34.5t36.5 14.5q25 0 37 -20q9 -17 9 -40q0 -16 -5 -36q-10 -45 -29.5 -67.5 t-61.5 -22.5h-18l13 36h7q20 0 30.5 13.5t16.5 44.5z" />
<glyph unicode="&#x3c;" horiz-adv-x="966" d="M991 572l-16 -79l-875 -482l15 74l798 448l-607 448l15 74z" />
<glyph unicode="=" horiz-adv-x="991" d="M1055 754h-797l13 63h797zM972 364h-797l13 63h797z" />
<glyph unicode="&#x3e;" horiz-adv-x="966" d="M1079 981l-798 -448l606 -448l-14 -74l-670 482l15 79l876 483z" />
<glyph unicode="?" horiz-adv-x="1247" d="M406 1097l-74 6q22 104 74.5 175.5t133.5 110t173.5 54.5t214.5 16q108 0 188 -12.5t145 -41.5t99 -83.5t34 -132.5q0 -42 -11 -97q-14 -64 -36 -117t-45.5 -89.5t-58 -66t-62.5 -47t-70 -33t-69.5 -22.5t-71.5 -17q-38 -8 -54 -11.5t-49 -12.5t-49 -16.5t-42 -20.5 t-40.5 -28.5t-31.5 -36.5t-28 -48.5t-18 -60.5l-38 -177h-75l43 203q13 59 38.5 103.5t56 71t73.5 45.5t80.5 29t87.5 21q13 3 20 4q41 9 67.5 15.5t63.5 20t62 28.5t54.5 41t50 57.5t39 77t30.5 101.5q9 43 9 79q0 62 -27 104.5t-81 65t-122 32t-163 9.5q-110 0 -193 -14 t-152.5 -47t-113.5 -92t-62 -146zM534 86q19 0 31.5 -12.5t12.5 -30.5q0 -20 -16 -35.5t-37 -15.5q-19 0 -31.5 12.5t-12.5 30.5q0 20 16 35.5t37 15.5z" />
<glyph unicode="@" horiz-adv-x="2025" d="M1194 -358l9 -63q-135 -35 -283 -35q-354 0 -548.5 193t-194.5 518q0 119 29 255q44 206 142.5 380.5t239.5 301t328.5 197.5t399.5 71q179 0 321.5 -51t235.5 -143.5t142 -221.5t49 -286q0 -121 -28 -249q-44 -205 -188 -326.5t-335 -121.5h-250l27 124 q-95 -88 -172.5 -116.5t-159.5 -28.5q-154 0 -235 80.5t-81 225.5q0 62 15 132q39 182 186 299.5t343 117.5q143 0 234 -64l13 52h62l-160 -755h190q161 1 283.5 107.5t161.5 286.5q26 118 26 233q0 294 -177.5 466t-505.5 172q-199 0 -374.5 -66.5t-307.5 -185t-224.5 -283 t-134.5 -360.5q-27 -128 -27 -241q0 -299 177 -472.5t502 -173.5q124 0 270 31zM1298 253l115 525q-78 65 -217 65q-180 0 -312.5 -106.5t-167.5 -270.5q-14 -65 -14 -118q0 -121 68 -188.5t200 -67.5q82 0 156.5 31.5t171.5 129.5z" />
<glyph unicode="A" d="M1376 0h-77l-86 421h-774l-264 -421h-81l904 1434h84zM478 485h724l-176 869z" />
<glyph unicode="B" horiz-adv-x="1413" d="M517 1434h629q145 0 223.5 -72.5t78.5 -197.5q0 -42 -11 -94q-26 -120 -97.5 -205t-181.5 -121q99 -23 151.5 -92.5t52.5 -174.5q0 -51 -11 -101q-37 -172 -160 -274t-305 -102h-673zM1132 1371h-553l-127 -600h573q132 7 221 87t118 215q9 43 9 83q0 101 -62.5 158 t-178.5 57zM438 707l-137 -644h587q151 0 253 87t134 238q10 44 10 88q0 109 -66.5 170t-191.5 61h-589z" />
<glyph unicode="C" horiz-adv-x="1394" d="M1242 137l38 -58q-189 -104 -412 -104q-281 0 -431.5 149.5t-150.5 401.5q0 97 22 198q34 159 110.5 293.5t186 233t256 153.5t312.5 55q226 0 375 -106l-53 -50q-124 91 -325 91q-150 0 -283 -50.5t-233.5 -141t-171 -216t-102.5 -275.5q-20 -93 -20 -184 q0 -225 132 -355t379 -130q202 0 371 95z" />
<glyph unicode="D" horiz-adv-x="1525" d="M517 1434h441q282 0 434.5 -142.5t152.5 -388.5q0 -90 -21 -192q-69 -327 -298 -519t-567 -192h-446zM302 65h365q305 0 512 176.5t272 482.5q20 97 20 179q0 220 -134 343t-387 123h-371z" />
<glyph unicode="E" horiz-adv-x="1206" d="M1373 1369h-794l-127 -597h728l-14 -64h-728l-136 -644h794l-14 -64h-869l304 1434h870z" />
<glyph unicode="F" horiz-adv-x="1171" d="M1337 1369h-758l-132 -621h692l-14 -64h-692l-145 -684h-75l304 1434h834z" />
<glyph unicode="G" horiz-adv-x="1624" d="M1590 750l-112 -530q-245 -247 -610 -247q-278 0 -430 150.5t-152 403.5q0 96 22 197q34 159 110 293.5t186 233t256 153.5t312 55q171 0 295.5 -57.5t197.5 -162.5l-54 -39q-140 194 -442 194q-299 0 -511.5 -188.5t-277.5 -494.5q-20 -93 -20 -183q0 -226 133 -357.5 t378 -131.5q317 0 536 208l95 441h-488l13 62h563z" />
<glyph unicode="H" horiz-adv-x="1540" d="M1328 0h-76l146 685h-965l-145 -685h-75l304 1434h76l-146 -685h965l145 685h75z" />
<glyph unicode="I" horiz-adv-x="499" d="M288 0h-75l304 1434h76z" />
<glyph unicode="J" horiz-adv-x="1017" d="M1110 1434l-188 -887q-22 -105 -54.5 -187.5t-83.5 -154t-118.5 -118t-161 -73t-209.5 -26.5q-111 0 -195 27l22 54q75 -19 175 -19q101 0 182 22.5t140 64t104 105t74.5 139t50.5 173.5l187 880h75z" />
<glyph unicode="K" horiz-adv-x="1304" d="M792 795l416 -795h-91l-383 737l-364 -347l-84 -390h-73l304 1434h74l-200 -934l971 934h96z" />
<glyph unicode="L" horiz-adv-x="1148" d="M301 62h767l-14 -62h-841l304 1434h76z" />
<glyph unicode="M" horiz-adv-x="1796" d="M1583 0h-76l278 1303l-857 -1303h-78l-304 1303l-277 -1303h-76l305 1434h98l308 -1351l884 1351h99z" />
<glyph unicode="N" horiz-adv-x="1492" d="M1301 0h-94l-655 1328l-283 -1328h-76l305 1434h93l656 -1328l283 1328h75z" />
<glyph unicode="O" horiz-adv-x="1738" d="M1173 1459q281 0 432.5 -149.5t151.5 -401.5q0 -96 -22 -197q-34 -161 -110.5 -296.5t-186 -233.5t-256.5 -153t-314 -55q-278 0 -430 150.5t-152 403.5q0 96 22 197q34 159 110.5 293.5t186 233t256 153.5t312.5 55zM1170 1394q-150 0 -283 -50.5t-233.5 -141t-171 -216 t-102.5 -275.5q-20 -93 -20 -183q0 -226 133.5 -357t377.5 -131q304 0 515 187.5t277 496.5q20 91 20 183q0 225 -133 356t-380 131z" />
<glyph unicode="P" horiz-adv-x="1413" d="M517 1434h579q184 0 284 -93.5t100 -254.5q0 -56 -14 -124q-45 -211 -193.5 -335.5t-368.5 -124.5h-509l-107 -502h-75zM579 1370l-171 -804h502q189 0 316.5 108.5t167.5 296.5q12 59 12 110q0 136 -83.5 212.5t-239.5 76.5h-504z" />
<glyph unicode="Q" horiz-adv-x="1742" d="M1545 -16l-139 175q-227 -186 -538 -186q-278 0 -430 150.5t-152 403.5q0 96 22 197q34 159 110.5 293.5t186 233t256 153.5t312.5 55q281 0 432.5 -149.5t151.5 -401.5q0 -96 -22 -197q-64 -307 -271 -503l139 -174zM1170 1394q-150 0 -283 -50.5t-233.5 -141t-171 -216 t-102.5 -275.5q-20 -93 -20 -183q0 -226 133.5 -357t377.5 -131q304 0 515 187.5t277 496.5q20 91 20 183q0 225 -133 356t-380 131z" />
<glyph unicode="R" horiz-adv-x="1431" d="M517 1434h578q174 0 268.5 -88t94.5 -241q0 -58 -13 -117q-38 -180 -157.5 -294t-298.5 -135l292 -559h-87l-286 553h-503l-117 -553h-75zM579 1370l-160 -754h500q177 0 297 102t157 278q11 49 11 103q0 128 -77.5 199.5t-224.5 71.5h-503z" />
<glyph unicode="S" horiz-adv-x="1396" d="M144 172l54 47q64 -84 203.5 -131.5t301.5 -47.5q99 0 191 20t171 58.5t134.5 103t72.5 146.5q8 40 8 70q0 52 -24.5 91.5t-51 62.5t-96 45t-104.5 30t-132 26q-15 3 -24 5t-22.5 4.5t-24.5 4.5q-52 10 -90.5 19t-84 22.5t-77.5 29t-64 37.5t-51.5 48t-31.5 61t-12 76 q0 35 9 77q20 95 84 170t155.5 120t197 68.5t217.5 23.5q130 0 248 -31t200 -88l-51 -52q-74 53 -180.5 80.5t-225.5 27.5q-134 0 -252.5 -35t-207 -111.5t-111.5 -182.5q-6 -25 -6 -59q0 -39 12.5 -70.5t39.5 -55t55.5 -40.5t75 -31t82 -22.5t92.5 -20.5q212 -41 273 -58 q181 -52 234 -152q27 -51 27 -116q0 -40 -10 -86q-20 -96 -84.5 -171t-156 -119.5t-196.5 -67.5t-215 -23q-174 0 -327 53t-225 144z" />
<glyph unicode="T" horiz-adv-x="1359" d="M1557 1369h-548l-291 -1369h-75l291 1369h-548l14 65h1171z" />
<glyph unicode="U" horiz-adv-x="1531" d="M1642 1434l-167 -788q-27 -126 -64.5 -226t-95 -186t-132.5 -142.5t-178 -88.5t-230 -32q-240 0 -348 107t-108 310q0 110 32 264l166 782h76l-167 -784q-32 -154 -32 -256q0 -176 91 -264.5t294 -88.5q139 0 244.5 41.5t179 124t120.5 191.5t79 259l165 777h75z" />
<glyph unicode="V" horiz-adv-x="1441" d="M761 0h-80l-281 1434h77l259 -1351l835 1351h81z" />
<glyph unicode="W" horiz-adv-x="2230" d="M1463 1434l158 -1330l737 1330h84l-801 -1434h-84l-159 1322l-723 -1322h-83l-192 1434h81l171 -1330l724 1330h87z" />
<glyph unicode="X" horiz-adv-x="1359" d="M885 735l378 -735h-85l-353 686l-642 -686h-89l693 741l-352 693h86l326 -645l599 645h89z" />
<glyph unicode="Y" horiz-adv-x="1380" d="M851 572l-123 -572h-75l123 572l-375 862h85l340 -790l677 790h89z" />
<glyph unicode="Z" horiz-adv-x="1304" d="M1477 1385l-1256 -1321h990l-14 -64h-1091l10 49l1256 1320h-901l14 65h1001z" />
<glyph unicode="[" horiz-adv-x="565" d="M768 1409h-300l-358 -1683h300l-12 -60h-372l383 1802h372z" />
<glyph unicode="\" horiz-adv-x="937" d="M834 -35h-74l-352 1503h73z" />
<glyph unicode="]" horiz-adv-x="565" d="M398 -334h-372l13 60h300l359 1683h-301l12 59h372z" />
<glyph unicode="^" horiz-adv-x="1114" d="M1185 797h-82l-253 569l-497 -569h-87l555 633h78z" />
<glyph unicode="_" horiz-adv-x="1124" d="M962 -303h-929l13 61h929z" />
<glyph unicode="`" horiz-adv-x="555" d="M714 1205l-49 -48l-265 269l49 47z" />
<glyph unicode="a" horiz-adv-x="1191" d="M430 904l-17 51q192 97 379 97q101 0 186 -33t139.5 -103t54.5 -166q0 -41 -8 -77l-143 -673h-66l33 158q-180 -165 -413 -182q-17 -1 -50 -1q-149 0 -247 69.5t-98 196.5q0 31 8 73q18 84 67.5 149t119.5 103.5t150 57.5t167 19q106 0 203.5 -26.5t166.5 -73.5l30 137 q7 32 7 65q0 119 -92.5 185t-224.5 66q-170 0 -352 -92zM995 225l58 267q-64 48 -157 74t-194 26q-106 0 -197 -29t-160 -96t-90 -163q-6 -30 -6 -57q0 -103 82.5 -159.5t209.5 -55.5q19 0 29 1q242 12 425 192z" />
<glyph unicode="b" horiz-adv-x="1259" d="M586 1523l-143 -658q158 113 251.5 150t192.5 37q188 0 279 -93t91 -265q0 -86 -21 -186q-52 -243 -207.5 -389t-386.5 -146q-67 0 -126.5 15.5t-121 59t-100.5 113.5l-38 -161h-66l323 1523h73zM431 791l-122 -561q88 -196 320 -196q212 0 351 133t186 353 q21 102 21 173q0 299 -315 299q-97 0 -187.5 -39.5t-253.5 -161.5z" />
<glyph unicode="c" horiz-adv-x="1056" d="M923 92l32 -53q-60 -32 -141.5 -50t-150.5 -18q-206 0 -321 112t-115 298q0 65 15 137q24 112 80.5 209.5t138 169.5t190.5 113.5t231 41.5q85 0 153.5 -18.5t106.5 -46.5l-45 -45q-64 50 -214 50q-215 0 -370.5 -136.5t-200.5 -349.5q-14 -67 -14 -124q0 -161 98 -255.5 t272 -94.5q60 0 131.5 16t123.5 44z" />
<glyph unicode="d" horiz-adv-x="1259" d="M1070 0h-66l33 156q-182 -183 -419 -183q-193 0 -293.5 103t-100.5 282q0 72 19 162q54 253 194.5 392.5t371.5 139.5q101 0 180 -38t190 -153l143 662h72zM1047 236l122 560q-110 121 -182 158.5t-167 37.5q-404 0 -508 -485q-17 -79 -17 -145q0 -153 85 -240.5 t255 -87.5q235 0 412 202z" />
<glyph unicode="e" horiz-adv-x="1234" d="M1022 115l27 -46q-178 -94 -393 -94q-207 0 -318 108t-111 293q0 72 16 146q51 235 215 383.5t403 148.5q195 0 298.5 -82.5t103.5 -246.5q0 -64 -16 -137q-15 -72 -41 -135h-905q-5 -45 -5 -77q0 -162 95.5 -252.5t272.5 -90.5q191 0 358 82zM312 506h843q20 57 31 108 q13 61 13 116q0 266 -339 266q-209 0 -353 -129.5t-190 -336.5z" />
<glyph unicode="f" horiz-adv-x="798" d="M1122 1533l-7 -57q-201 -1 -350 -118q-154 -115 -201 -334h357l-12 -58h-357l-314 -1478h-72l314 1478h-199l12 59h199q56 259 230 387q167 123 400 121z" />
<glyph unicode="g" horiz-adv-x="1232" d="M430 92h202q92 1 164 -7.5t140.5 -32.5t106.5 -74t38 -124q0 -32 -9 -73q-17 -79 -71.5 -139t-133.5 -94t-166.5 -51t-181.5 -17q-90 0 -169 14.5t-145.5 44t-105 81t-38.5 118.5q0 26 6 55q44 207 281 270q-65 9 -103.5 43t-38.5 79q-2 51 44.5 105.5t134.5 94.5 q-95 73 -95 210q0 46 10 93q37 174 176.5 271t333.5 97q108 0 193 -32h322l-11 -49l-247 -6q113 -69 113 -212q0 -39 -9 -82q-38 -176 -175 -272.5t-335 -96.5q-135 0 -221 47q-82 -30 -126.5 -76.5t-44.5 -93.5q2 -40 43.5 -65.5t117.5 -25.5zM808 998q-169 0 -290 -85.5 t-153 -237.5q-9 -41 -9 -77q0 -113 81 -173t226 -60q173 0 292 85.5t151 237.5q9 39 9 73q0 113 -82 175t-225 62zM608 35q-74 0 -132.5 -5.5t-117.5 -22t-101.5 -44t-75 -74t-45.5 -108.5q-5 -23 -5 -41q0 -68 52.5 -115t134 -67.5t184.5 -20.5q97 0 185.5 19t161.5 55.5 t116.5 99t43.5 141.5q0 48 -22 82.5t-56.5 53.5t-90 30t-107.5 14t-125 3z" />
<glyph unicode="h" horiz-adv-x="1290" d="M605 1523l-143 -661q141 103 236.5 146.5t206.5 43.5q96 0 177.5 -32.5t135 -102.5t53.5 -165q0 -42 -8 -79l-143 -673h-72l142 669q7 34 7 69q0 120 -90 187t-219 67q-106 0 -196.5 -44t-240.5 -157l-170 -791h-72l324 1523h72z" />
<glyph unicode="i" horiz-adv-x="479" d="M539 1387q19 0 32 -12.5t13 -30.5q0 -20 -16.5 -35.5t-37.5 -15.5q-19 0 -31.5 12.5t-12.5 30.5q0 20 16 35.5t37 15.5zM286 0h-72l218 1024h72z" />
<glyph unicode="j" horiz-adv-x="489" d="M549 1387q19 0 31.5 -12.5t12.5 -30.5q0 -20 -16 -35.5t-37 -15.5q-19 0 -32 12.5t-13 30.5q0 20 16.5 35.5t37.5 15.5zM513 1024l-228 -1073q-43 -204 -193 -332q-150 -126 -356 -147l4 59q187 19 315 145q122 105 159 281l227 1067h72z" />
<glyph unicode="k" horiz-adv-x="1099" d="M374 443l717 581h88l-491 -401l328 -623h-85l-297 572l-278 -223l-75 -349h-72l324 1523h72z" />
<glyph unicode="l" horiz-adv-x="696" d="M605 1523l-233 -1094q-17 -80 -17 -143q0 -86 34 -144q61 -95 230 -95l-7 -57q-196 -3 -275 112q-52 73 -52 189q0 68 16 144l232 1088h72z" />
<glyph unicode="m" horiz-adv-x="1957" d="M473 1024l-34 -161q131 102 218.5 145.5t188.5 43.5q108 0 195.5 -50.5t117.5 -141.5q145 112 240.5 152t206.5 40q138 0 236 -78t98 -217q0 -39 -9 -84l-143 -673h-72l142 669q8 36 8 75q0 118 -80 183t-195 65q-102 0 -189.5 -38.5t-230.5 -152.5q5 -28 5 -55 q0 -37 -9 -79l-142 -667h-72l143 669q8 36 8 75q0 118 -80 183t-195 65q-95 0 -177.5 -43.5t-219.5 -153.5l-170 -795h-72l217 1024h66z" />
<glyph unicode="n" horiz-adv-x="1273" d="M473 1024l-34 -163q143 103 239 147t208 44q72 0 137.5 -19.5t118 -56t83.5 -95t31 -130.5q0 -37 -9 -78l-143 -673h-72l142 669q8 38 8 69q0 120 -91.5 187t-220.5 67q-106 0 -197 -43.5t-241 -154.5l-170 -794h-72l217 1024h66z" />
<glyph unicode="o" horiz-adv-x="1316" d="M876 1052q207 0 319.5 -107.5t112.5 -292.5q0 -72 -16 -146q-51 -241 -219.5 -388t-415.5 -147q-208 0 -319.5 110t-111.5 294q0 70 16 143q50 237 220 385.5t414 148.5zM874 992q-213 0 -364 -134t-198 -352q-15 -69 -15 -130q0 -159 93.5 -251.5t268.5 -92.5 q217 0 366.5 132t196.5 354q15 71 15 134q0 160 -94.5 250t-268.5 90z" />
<glyph unicode="p" horiz-adv-x="1277" d="M493 1024l-33 -156q181 182 419 182q194 0 294 -102.5t100 -280.5q0 -71 -19 -163q-54 -253 -195 -393t-372 -140q-101 0 -179.5 38.5t-189.5 153.5l-143 -663h-72l324 1524h66zM450 788l-122 -560q110 -121 181.5 -158.5t166.5 -37.5q405 0 509 485q16 74 16 145 q0 153 -85 240.5t-254 87.5q-235 0 -412 -202z" />
<glyph unicode="q" horiz-adv-x="1259" d="M892 -500l142 659q-159 -113 -252 -150.5t-191 -37.5q-188 0 -279.5 93.5t-91.5 265.5q0 81 22 186q52 243 206.5 388.5t387.5 145.5q241 0 347 -187l38 161h67l-324 -1524h-72zM1046 233l122 561q-88 196 -319 196q-212 0 -351.5 -133t-186.5 -353q-20 -97 -20 -173 q0 -299 315 -299q97 0 186.5 39.5t253.5 161.5z" />
<glyph unicode="r" horiz-adv-x="735" d="M901 1051l-13 -61h-20q-113 0 -229 -58t-215 -174l-162 -758h-72l217 1024h66l-39 -187q100 105 217 159.5t232 54.5h18z" />
<glyph unicode="s" horiz-adv-x="1026" d="M113 122l35 42q46 -58 147 -92.5t216 -34.5q77 0 147.5 17t129 50t93 88.5t34.5 126.5q0 20 -5 37.5t-12 31t-21.5 26t-26 20.5t-34 17t-37 14t-43.5 11.5t-44.5 10t-49.5 10t-49 9.5q-56 10 -94 19.5t-80.5 26.5t-67.5 37.5t-42 53t-17 74.5q0 82 41.5 147t110 104 t150.5 59t170 20q201 0 323 -88l-32 -47q-110 78 -291 78q-102 0 -190.5 -28.5t-149 -91t-60.5 -148.5q0 -31 13 -56t32 -40.5t52.5 -29t63 -21t74.5 -16.5q169 -31 219 -47q134 -43 160 -133q8 -26 8 -57q0 -28 -8 -66q-20 -91 -94.5 -155t-170 -91.5t-201.5 -27.5 q-126 0 -236.5 37t-162.5 103z" />
<glyph unicode="t" horiz-adv-x="808" d="M559 1024h332l-13 -58h-331l-116 -543q-12 -58 -12 -109q0 -90 39 -151q65 -98 225 -118l-7 -57q-190 18 -271 132q-57 77 -57 192q0 56 13 117l114 537h-220l13 58h219l65 306h72z" />
<glyph unicode="u" horiz-adv-x="1255" d="M1085 0h-66l35 163q-143 -104 -239.5 -148t-208.5 -44q-97 0 -179.5 33t-136.5 103.5t-54 165.5q0 36 9 78l143 673h72l-142 -669q-8 -38 -8 -69q0 -120 91.5 -187t220.5 -67q106 0 197 43.5t241 154.5l171 794h72z" />
<glyph unicode="v" horiz-adv-x="1021" d="M553 0h-82l-196 1024h73l177 -952l583 952h76z" />
<glyph unicode="w" horiz-adv-x="1652" d="M1222 0h-82l-115 926l-511 -926h-81l-158 1024h72l141 -942l518 942h75l116 -942l543 942h76z" />
<glyph unicode="x" horiz-adv-x="983" d="M650 512l276 -512h-78l-252 467l-458 -467h-83l505 515l-271 509h78l247 -460l436 460h82z" />
<glyph unicode="y" horiz-adv-x="1095" d="M1258 1024l-758 -1231q-92 -144 -229 -229q-137 -70 -304 -70l6 57q150 0 270 72q122 66 205 203l108 174h-18l-204 1024h73l186 -958l589 958h76z" />
<glyph unicode="z" horiz-adv-x="956" d="M1061 986l-862 -928h675l-12 -58h-768l7 39l860 927h-633l12 58h728z" />
<glyph unicode="{" horiz-adv-x="772" d="M979 1462l-3 -57q-159 -19 -274.5 -119.5t-149.5 -258.5l-57 -269q-16 -74 -66.5 -129t-121.5 -81q48 -20 76 -62.5t28 -99.5q0 -24 -6 -49l-57 -269q-10 -47 -10 -94q0 -119 71 -191t198 -90l-10 -58q-152 16 -241 102t-89 229q0 54 11 106l58 269q5 27 5 45 q0 56 -34 90.5t-97 42.5l8 61q80 10 135.5 59t71.5 124l58 269q40 189 174.5 300t321.5 130z" />
<glyph unicode="|" horiz-adv-x="270" d="M110 -295h-75l389 1831h75z" />
<glyph unicode="}" horiz-adv-x="772" d="M398 1404l11 59q152 -16 241 -101t89 -228q0 -50 -12 -107l-57 -269q-5 -27 -5 -45q0 -56 33.5 -90t96.5 -42l-8 -61q-80 -10 -135.5 -59t-71.5 -124l-57 -269q-41 -190 -175.5 -302t-321.5 -131l4 60q158 19 273.5 119t149.5 258l58 269q15 74 65.5 129.5t121.5 81.5 q-47 20 -75 62.5t-28 99.5q0 28 5 49l57 269q11 52 11 93q0 118 -72 190.5t-198 88.5z" />
<glyph unicode="~" horiz-adv-x="1093" d="M252 512l-41 29q126 173 271 173q101 0 239 -95q97 -63 184 -63q122 0 185 111l43 -27q-40 -67 -99 -103t-125 -36q-101 0 -204 71q-133 87 -221 87q-127 0 -232 -147z" />
<glyph unicode="&#xa1;" horiz-adv-x="292" d="M369 1072q19 0 31.5 -12t12.5 -30q0 -20 -16 -35.5t-37 -15.5q-19 0 -31.5 12t-12.5 30q0 20 16 35.5t37 15.5zM106 -369h-76l245 1145h72z" />
<glyph unicode="&#xa2;" horiz-adv-x="1003" d="M845 1050h22q77 -2 140 -20t99 -43l-45 -45q-64 50 -214 50q-215 0 -370.5 -136.5t-200.5 -349.5q-14 -67 -14 -124q0 -161 98 -255.5t273 -94.5q60 0 131 16t123 44l32 -53q-57 -29 -134 -46.5t-141 -19.5h-28l-33 -157h-69l37 164q-171 19 -265.5 126t-94.5 275 q0 65 15 137q45 213 197 359t370 169l37 163h69z" />
<glyph unicode="&#xa3;" horiz-adv-x="1277" d="M251 721h165q-10 115 -10 150q0 90 20 182q94 407 557 407q97 0 169.5 -13t129.5 -43.5t86 -84.5t29 -131q0 -44 -9 -95h-72q8 40 8 83q0 122 -86.5 170t-255.5 48q-400 0 -482 -358q-18 -84 -18 -164q0 -34 10 -152h569l-14 -65h-552q2 -38 2 -57q0 -67 -15 -130 q-41 -174 -273 -404h985l-14 -64h-1082l11 66q134 129 202 226t91 182q17 59 17 131q0 17 -2 51h-179z" />
<glyph unicode="&#xa4;" horiz-adv-x="1464" />
<glyph unicode="&#xa5;" horiz-adv-x="1380" d="M1010 756h208l-13 -59h-245l-112 -133l-30 -140h329l-12 -59h-329l-78 -365h-75l78 365h-329l12 59h329l30 140l-55 133h-246l13 59h210l-294 678h85l340 -790l677 790h89z" />
<glyph unicode="&#xa6;" horiz-adv-x="270" d="M343 800h-76l157 736h75zM110 -295h-75l156 736h75z" />
<glyph unicode="&#xa7;" horiz-adv-x="1142" d="M72 -125l46 50q52 -66 167 -106t246 -40q167 0 295 68t156 196q6 30 6 55q0 41 -19 72.5t-41 50t-73.5 35.5t-82 24t-101.5 21q-33 7 -50 10q-64 12 -106.5 22.5t-90.5 29.5t-76.5 43t-47.5 61t-19 84q0 29 8 67q20 96 94.5 163.5t187.5 104.5q-83 28 -130 74t-47 124 q0 31 7 63q22 103 105.5 175.5t192 104.5t231.5 32q219 0 358 -95l-44 -52q-123 84 -323 84q-78 0 -151.5 -16t-135.5 -47t-105.5 -81.5t-56.5 -113.5q-5 -21 -5 -48q0 -30 9.5 -54.5t29.5 -42.5t42 -31t57 -24t63.5 -18t72.5 -16q182 -35 235 -52q148 -46 184 -139 q13 -35 13 -78q0 -33 -9 -75q-38 -176 -251 -260q147 -60 147 -197q0 -36 -8 -72q-17 -80 -69.5 -142t-127 -99t-159.5 -56t-174 -19q-143 0 -267 42.5t-183 117.5zM727 841l-67 13q-117 -25 -199.5 -87.5t-102.5 -157.5q-5 -21 -5 -48q0 -35 15 -63t37 -45.5t61 -33 t72.5 -23.5t86.5 -19q144 -25 210 -43q120 34 194.5 108t74.5 185q0 23 -6 43t-14 35.5t-25 29.5t-30.5 23.5t-40 19.5t-43 16t-50.5 13.5t-52.5 11t-58 11t-57.5 11.5z" />
<glyph unicode="&#xa8;" horiz-adv-x="667" d="M429 1346q20 0 31 -11.5t11 -28.5q0 -19 -14.5 -34.5t-36.5 -15.5q-19 0 -30.5 12t-11.5 29q0 20 14.5 34.5t36.5 14.5zM801 1346q20 0 31.5 -11.5t11.5 -28.5q0 -19 -14.5 -34.5t-36.5 -15.5q-20 0 -31.5 12t-11.5 29q0 20 14.5 34.5t36.5 14.5z" />
<glyph unicode="&#xa9;" horiz-adv-x="1669" d="M1138 1454q265 0 433 -167t168 -421q0 -73 -17 -155q-42 -199 -176 -367.5t-323 -266.5t-388 -98q-265 0 -433 167.5t-168 421.5q0 73 17 155q42 199 176 367t323 266t388 98zM1137 1399q-185 0 -362.5 -92.5t-303 -251t-165.5 -344.5q-16 -77 -16 -141 q0 -231 153 -382.5t394 -151.5q185 0 362.5 92.5t303 251t165.5 344.5q15 72 15 141q0 231 -152.5 382.5t-393.5 151.5zM1124 418l28 -46q-104 -60 -231 -60q-155 0 -238.5 83t-83.5 222q0 51 12 106q37 175 164 287t307 112q127 0 213 -64l-39 -37q-62 51 -173 51 q-159 0 -271 -99.5t-146 -261.5q-11 -55 -11 -98q0 -117 68.5 -184t197.5 -67q111 0 203 56z" />
<glyph unicode="&#xaa;" horiz-adv-x="1155" d="M618 1340l-20 39q132 67 261 67q107 0 183.5 -55.5t76.5 -152.5q0 -25 -6 -52l-96 -453h-56l21 96q-120 -103 -269 -113q-11 -1 -31 -1q-102 0 -170 49t-68 136q0 24 6 49q24 111 120.5 167t220.5 56q143 0 245 -64l19 86q4 19 4 41q0 78 -62 122t-150 44 q-112 0 -229 -61zM990 890l38 174q-89 65 -227 65q-110 0 -193 -48t-103 -142q-4 -17 -4 -38q0 -67 53.5 -103t135.5 -35q3 0 9 0.5t9 0.5q166 7 282 126z" />
<glyph unicode="&#xab;" horiz-adv-x="1101" d="M818 1029l-505 -429l322 -429l-55 -40l-355 469l551 469zM1224 1029l-504 -429l322 -429l-55 -40l-355 469l551 469z" />
<glyph unicode="&#xac;" horiz-adv-x="1464" />
<glyph unicode="&#xad;" horiz-adv-x="923" d="M970 673h-730l14 63h729z" />
<glyph unicode="&#xae;" horiz-adv-x="1669" d="M1138 1454q265 0 433 -167t168 -421q0 -73 -17 -155q-42 -199 -176 -367.5t-323 -266.5t-388 -98q-265 0 -433 167.5t-168 421.5q0 73 17 155q42 199 176 367t323 266t388 98zM1137 1399q-185 0 -362.5 -92.5t-303 -251t-165.5 -344.5q-16 -77 -16 -141 q0 -231 153 -382.5t394 -151.5q185 0 362.5 92t303 250.5t165.5 344.5q15 72 15 142q0 231 -152.5 382.5t-393.5 151.5zM796 1105h313q95 0 147 -49.5t52 -133.5q0 -32 -7 -63q-20 -93 -81.5 -154t-154.5 -75l154 -298h-62l-149 292h-260l-62 -292h-54zM758 671h258 q91 0 152 52.5t81 144.5q6 28 6 54q0 65 -40 101t-115 36h-260z" />
<glyph unicode="&#xaf;" horiz-adv-x="800" d="M1003 1409h-606l11 52h607z" />
<glyph unicode="&#xb0;" horiz-adv-x="804" d="M745 1637q111 0 181.5 -69t70.5 -174q0 -32 -7 -63q-26 -122 -131.5 -208.5t-230.5 -86.5q-111 0 -181.5 69.5t-70.5 174.5q0 32 7 63q26 122 131.5 208t230.5 86zM745 1589q-118 0 -217 -93.5t-99 -216.5q0 -84 56.5 -139t142.5 -55q118 0 217 93t99 216 q0 84 -56.5 139.5t-142.5 55.5z" />
<glyph unicode="&#xb1;" horiz-adv-x="991" d="M704 829h367l-13 -62h-368l-77 -363h-62l77 363h-368l14 62h367l77 364h63zM891 -16h-797l13 62h798z" />
<glyph unicode="&#xb2;" horiz-adv-x="745" d="M424 1248l-57 7q21 108 100 149.5t210 41.5q116 0 179.5 -32.5t63.5 -112.5q0 -23 -6 -51q-22 -105 -90.5 -145t-197.5 -47q-123 -7 -188.5 -44t-84.5 -124l-25 -115h482l-10 -51h-543l36 166q12 57 41 98.5t73 65.5t96 36.5t119 16.5q111 6 164 37.5t71 114.5q4 19 4 38 q0 57 -47 78.5t-142 21.5q-110 0 -171 -33t-77 -116z" />
<glyph unicode="&#xb3;" horiz-adv-x="757" d="M442 1255l-57 7q12 54 39 91t67.5 57t85.5 28t104 8q233 0 233 -143q0 -23 -6 -50q-26 -125 -152 -163q104 -28 104 -131q0 -24 -6 -54q-12 -58 -41 -97t-73.5 -59.5t-92.5 -29t-111 -8.5q-250 0 -250 154q0 23 6 52l57 -6q-4 -20 -4 -41q0 -62 49.5 -86t145.5 -24 q111 0 173.5 34t82.5 123q5 21 5 45q0 61 -48 84t-144 23h-110l10 47h105q104 0 160.5 30t74.5 112q5 25 5 41q0 55 -43.5 76t-133.5 21q-103 0 -160.5 -31t-74.5 -110z" />
<glyph unicode="&#xb4;" horiz-adv-x="555" d="M760 1426l-375 -269l-31 48l375 268z" />
<glyph unicode="&#xb6;" horiz-adv-x="1484" d="M1679 1371h-208l-394 -1850h-75l393 1850h-348l-393 -1850h-76l209 982h-124q-180 3 -276.5 95t-96.5 250q0 60 15 127q44 209 194 334t368 125h826z" />
<glyph unicode="&#xb7;" horiz-adv-x="288" d="M280 665q20 0 31.5 -11.5t11.5 -28.5q0 -19 -14.5 -34t-36.5 -15q-20 0 -31.5 11.5t-11.5 28.5q0 19 14.5 34t36.5 15z" />
<glyph unicode="&#xb8;" horiz-adv-x="589" d="M347 7l-124 -140q14 2 44 2q74 -2 119 -37.5t45 -99.5q0 -18 -5 -43q-18 -81 -85.5 -127.5t-159.5 -46.5q-130 0 -169 79l40 29q27 -59 125 -59q74 0 127 37.5t67 101.5q3 17 3 31q0 47 -34.5 72.5t-96.5 25.5q-34 0 -69 -10l-28 18l140 167h61z" />
<glyph unicode="&#xb9;" horiz-adv-x="399" d="M455 719h-60l140 659l-152 -32l11 51l171 36h42z" />
<glyph unicode="&#xba;" horiz-adv-x="1275" d="M939 1446q141 0 218 -74t77 -200q0 -49 -10 -98q-35 -161 -148.5 -260.5t-280.5 -99.5q-142 0 -218.5 75.5t-76.5 200.5q0 49 10 96q34 158 149.5 259t279.5 101zM940 1396q-141 0 -241.5 -88.5t-130.5 -233.5q-10 -52 -10 -87q0 -104 61 -163.5t175 -59.5 q144 0 242.5 87t129.5 235q10 46 10 89q0 104 -61 162.5t-175 58.5z" />
<glyph unicode="&#xbb;" horiz-adv-x="1103" d="M726 600l-551 -469l-41 40l504 429l-322 429l55 40zM1133 600l-551 -469l-42 40l505 429l-322 429l55 40z" />
<glyph unicode="&#xbc;" horiz-adv-x="1310" d="M177 -35h-79l1253 1503h79zM472 719h-60l140 659l-152 -32l11 51l171 36h42zM1167 216h92l-10 -50h-93l-35 -166h-56l36 166h-434l9 45l542 504h55zM751 216h360l91 421z" />
<glyph unicode="&#xbd;" horiz-adv-x="1497" d="M177 -35h-79l1253 1503h79zM472 719h-60l140 659l-152 -32l11 51l171 36h42zM1021 524l-57 7q21 108 100 149.5t210 41.5q116 0 179.5 -32.5t63.5 -112.5q0 -23 -6 -51q-12 -55 -36 -92t-62.5 -57.5t-82.5 -30t-107 -13.5q-123 -7 -188.5 -44t-84.5 -124l-25 -114h482 l-10 -51h-543l36 166q12 57 41 98.5t73 65.5t96 36.5t119 16.5q111 6 164 37.5t71 114.5q4 19 4 38q0 57 -47 78.5t-142 21.5q-110 0 -171 -33t-77 -116z" />
<glyph unicode="&#xbe;" horiz-adv-x="1542" d="M409 -35h-79l1253 1503h80zM442 1255l-57 7q12 54 39 91t67.5 57t85.5 28t104 8q233 0 233 -143q0 -23 -6 -50q-26 -125 -152 -163q104 -28 104 -131q0 -24 -6 -54q-12 -58 -41 -97t-73.5 -59.5t-92.5 -29t-111 -8.5q-250 0 -250 154q0 23 6 52l57 -6q-4 -20 -4 -41 q0 -62 49.5 -86t145.5 -24q111 0 173.5 34t82.5 123q5 21 5 45q0 61 -48 84t-144 23h-110l10 47h105q104 0 160.5 30t74.5 112q5 25 5 41q0 55 -43.5 76t-133.5 21q-103 0 -160.5 -31t-74.5 -110zM1399 216h93l-11 -50h-92l-36 -166h-56l36 166h-434l9 45l542 504h55z M983 216h360l91 421z" />
<glyph unicode="&#xbf;" horiz-adv-x="1247" d="M959 1114q19 0 31.5 -12t12.5 -30q0 -20 -16.5 -35.5t-37.5 -15.5q-19 0 -31.5 12t-12.5 30q0 20 16.5 35.5t37.5 15.5zM938 818l-43 -203q-13 -59 -39.5 -103.5t-52.5 -69.5t-76 -46t-77.5 -28.5t-88.5 -20.5q-15 -3 -22 -5q-41 -9 -67.5 -15.5t-63.5 -20t-62 -29 t-54.5 -41t-50 -57.5t-39 -77.5t-30.5 -101.5q-9 -44 -9 -78q0 -63 27 -105t81.5 -64.5t122 -31.5t162.5 -9q110 0 193 14t152.5 46.5t114 92t62.5 145.5l73 -8q-18 -84 -57 -147t-91 -102t-124.5 -63t-149.5 -33t-174 -9q-107 0 -187.5 12.5t-145.5 42t-99 83.5t-34 132 q0 41 11 96q14 65 36 117.5t45.5 89.5t58 66.5t62.5 47t70 33t69.5 22.5t71.5 17q34 7 47.5 10t44.5 11t45 13.5t39 16.5t38 22t31.5 27.5t29.5 35.5t21.5 44.5t16.5 54.5l37 176h75z" />
<glyph unicode="&#xc0;" d="M1258 1615l-48 -48l-265 268l48 48zM1376 0h-77l-86 421h-774l-264 -421h-81l904 1434h84zM478 485h724l-176 869z" />
<glyph unicode="&#xc1;" d="M1307 1835l-375 -268l-31 48l375 268zM1376 0h-77l-86 421h-774l-264 -421h-81l904 1434h84zM478 485h724l-176 869z" />
<glyph unicode="&#xc2;" d="M1374 1597l-48 -41l-204 261l-314 -261l-35 41l363 302zM1376 0h-77l-86 421h-774l-264 -421h-81l904 1434h84zM478 485h724l-176 869z" />
<glyph unicode="&#xc3;" d="M887 1685l-44 31q75 115 156 115q49 0 123 -50q72 -43 112 -43q53 0 95 70l45 -29q-58 -96 -134 -96q-52 0 -130 50q-68 43 -106 43q-57 0 -117 -91zM1376 0h-77l-86 421h-774l-264 -421h-81l904 1434h84zM478 485h724l-176 869z" />
<glyph unicode="&#xc4;" d="M916 1755q20 0 31.5 -11.5t11.5 -28.5q0 -19 -14.5 -34t-36.5 -15q-20 0 -31.5 12t-11.5 29q0 19 14.5 33.5t36.5 14.5zM1288 1755q20 0 31.5 -11.5t11.5 -28.5q0 -19 -14.5 -34t-36.5 -15q-20 0 -31.5 12t-11.5 29q0 19 14.5 33.5t36.5 14.5zM1376 0h-77l-86 421h-774 l-264 -421h-81l904 1434h84zM478 485h724l-176 869z" />
<glyph unicode="&#xc5;" d="M1145 1957q77 0 126.5 -48.5t49.5 -121.5q0 -95 -78 -169t-175 -74q-77 0 -126 48.5t-49 121.5q0 95 77.5 169t174.5 74zM1146 1911q-75 0 -139 -60t-64 -139q0 -53 35.5 -87.5t88.5 -34.5q75 0 139.5 60t64.5 139q0 53 -35.5 87.5t-89.5 34.5zM1376 0h-77l-86 421h-774 l-264 -421h-81l904 1434h84zM478 485h724l-176 869z" />
<glyph unicode="&#xc6;" horiz-adv-x="1730" d="M1897 1369h-795l-126 -597h728l-14 -64h-728l-137 -644h794l-13 -64h-870l90 421h-387l-264 -421h-81l904 1434h913zM478 485h361l186 870z" />
<glyph unicode="&#xc7;" horiz-adv-x="1394" d="M549 -160l136 156q-194 44 -296.5 184t-102.5 346q0 97 22 198q34 159 110.5 293.5t186 233t256 153.5t312.5 55q226 0 375 -106l-53 -50q-124 91 -325 91q-150 0 -283 -50.5t-233.5 -141t-171 -216t-102.5 -275.5q-20 -93 -20 -184q0 -225 132 -355t379 -130 q202 0 371 95l38 -58q-183 -101 -403 -104q-69 0 -139 13l-112 -121q15 2 45 2q74 -2 119 -37.5t45 -99.5q0 -18 -5 -43q-18 -81 -85.5 -127.5t-159.5 -46.5q-130 0 -169 79l40 29q27 -59 125 -59q74 0 126.5 37.5t66.5 101.5q4 22 4 31q0 47 -34.5 72.5t-96.5 25.5 q-34 0 -69 -10z" />
<glyph unicode="&#xc8;" horiz-adv-x="1206" d="M1131 1615l-48 -48l-265 268l49 48zM1373 1369h-794l-127 -597h728l-14 -64h-728l-136 -644h794l-14 -64h-869l304 1434h870z" />
<glyph unicode="&#xc9;" horiz-adv-x="1206" d="M1180 1835l-375 -268l-31 48l375 268zM1373 1369h-794l-127 -597h728l-14 -64h-728l-136 -644h794l-14 -64h-869l304 1434h870z" />
<glyph unicode="&#xca;" horiz-adv-x="1206" d="M1247 1597l-48 -41l-203 261l-315 -261l-35 41l363 302zM1373 1369h-794l-127 -597h728l-14 -64h-728l-136 -644h794l-14 -64h-869l304 1434h870z" />
<glyph unicode="&#xcb;" horiz-adv-x="1206" d="M789 1755q20 0 31.5 -11.5t11.5 -28.5q0 -19 -14.5 -34t-36.5 -15q-20 0 -31.5 12t-11.5 29q0 19 14 33.5t37 14.5zM1161 1755q20 0 31.5 -11.5t11.5 -28.5q0 -19 -14.5 -34t-36.5 -15q-20 0 -31.5 12t-11.5 29q0 19 14 33.5t37 14.5zM1373 1369h-794l-127 -597h728 l-14 -64h-728l-136 -644h794l-14 -64h-869l304 1434h870z" />
<glyph unicode="&#xcc;" horiz-adv-x="499" d="M774 1615l-49 -48l-265 268l49 48zM288 0h-75l304 1434h76z" />
<glyph unicode="&#xcd;" horiz-adv-x="499" d="M822 1835l-375 -268l-31 48l375 268zM288 0h-75l304 1434h76z" />
<glyph unicode="&#xce;" horiz-adv-x="499" d="M890 1597l-49 -41l-203 261l-315 -261l-34 41l362 302zM288 0h-75l304 1434h76z" />
<glyph unicode="&#xcf;" horiz-adv-x="499" d="M431 1755q20 0 31.5 -11.5t11.5 -28.5q0 -19 -14.5 -34t-36.5 -15q-20 0 -31.5 12t-11.5 29q0 19 14 33.5t37 14.5zM803 1755q20 0 31.5 -11.5t11.5 -28.5q0 -19 -14.5 -34t-36.5 -15q-19 0 -30.5 12t-11.5 29q0 20 14 34t36 14zM288 0h-75l304 1434h76z" />
<glyph unicode="&#xd0;" horiz-adv-x="1544" d="M535 1434h441q282 0 434.5 -142.5t152.5 -388.5q0 -90 -21 -192q-69 -327 -298 -519t-567 -192h-447l143 670h-217l13 63h217zM597 1369l-136 -636h419l-13 -63h-419l-129 -605h366q305 0 512 176.5t272 482.5q20 97 20 178q0 220 -134.5 343.5t-386.5 123.5h-371z" />
<glyph unicode="&#xd1;" horiz-adv-x="1492" d="M900 1685l-44 31q75 115 157 115q48 0 124 -51q71 -42 111 -42q53 0 95 71l44 -30q-58 -96 -134 -96q-50 0 -127 49q-71 44 -108 44q-58 0 -118 -91zM1301 0h-94l-655 1328l-283 -1328h-76l305 1434h93l656 -1328l283 1328h75z" />
<glyph unicode="&#xd2;" horiz-adv-x="1738" d="M1394 1615l-49 -48l-264 268l48 48zM1173 1459q281 0 432.5 -149.5t151.5 -401.5q0 -96 -22 -197q-34 -161 -110.5 -296.5t-186 -233.5t-256.5 -153t-314 -55q-278 0 -430 150.5t-152 403.5q0 96 22 197q34 159 110.5 293.5t186 233t256 153.5t312.5 55zM1170 1394 q-150 0 -283 -50.5t-233.5 -141t-171 -216t-102.5 -275.5q-20 -93 -20 -183q0 -226 133.5 -357t377.5 -131q304 0 515 187.5t277 496.5q20 91 20 183q0 225 -133 356t-380 131z" />
<glyph unicode="&#xd3;" horiz-adv-x="1738" d="M1443 1835l-375 -268l-32 48l375 268zM1173 1459q281 0 432.5 -149.5t151.5 -401.5q0 -96 -22 -197q-34 -161 -110.5 -296.5t-186 -233.5t-256.5 -153t-314 -55q-278 0 -430 150.5t-152 403.5q0 96 22 197q34 159 110.5 293.5t186 233t256 153.5t312.5 55zM1170 1394 q-150 0 -283 -50.5t-233.5 -141t-171 -216t-102.5 -275.5q-20 -93 -20 -183q0 -226 133.5 -357t377.5 -131q304 0 515 187.5t277 496.5q20 91 20 183q0 225 -133 356t-380 131z" />
<glyph unicode="&#xd4;" horiz-adv-x="1738" d="M1510 1597l-49 -41l-203 261l-314 -261l-35 41l363 302zM1173 1459q281 0 432.5 -149.5t151.5 -401.5q0 -96 -22 -197q-34 -161 -110.5 -296.5t-186 -233.5t-256.5 -153t-314 -55q-278 0 -430 150.5t-152 403.5q0 96 22 197q34 159 110.5 293.5t186 233t256 153.5 t312.5 55zM1170 1394q-150 0 -283 -50.5t-233.5 -141t-171 -216t-102.5 -275.5q-20 -93 -20 -183q0 -226 133.5 -357t377.5 -131q304 0 515 187.5t277 496.5q20 91 20 183q0 225 -133 356t-380 131z" />
<glyph unicode="&#xd5;" horiz-adv-x="1738" d="M1022 1685l-44 31q75 115 157 115q48 0 122 -50q72 -43 113 -43q52 0 94 70l45 -29q-58 -96 -134 -96q-49 0 -131 51q-67 42 -104 42q-58 0 -118 -91zM1173 1459q281 0 432.5 -149.5t151.5 -401.5q0 -96 -22 -197q-34 -161 -110.5 -296.5t-186 -233.5t-256.5 -153 t-314 -55q-278 0 -430 150.5t-152 403.5q0 96 22 197q34 159 110.5 293.5t186 233t256 153.5t312.5 55zM1170 1394q-150 0 -283 -50.5t-233.5 -141t-171 -216t-102.5 -275.5q-20 -93 -20 -183q0 -226 133.5 -357t377.5 -131q304 0 515 187.5t277 496.5q20 91 20 183 q0 225 -133 356t-380 131z" />
<glyph unicode="&#xd6;" horiz-adv-x="1738" d="M1051 1755q20 0 31.5 -11.5t11.5 -28.5q0 -19 -14.5 -34t-36.5 -15q-19 0 -30.5 12t-11.5 29q0 20 14 34t36 14zM1424 1755q20 0 31.5 -11.5t11.5 -28.5q0 -19 -15 -34t-37 -15q-19 0 -30.5 12t-11.5 29q0 19 14.5 33.5t36.5 14.5zM1173 1459q281 0 432.5 -149.5 t151.5 -401.5q0 -95 -22 -196q-34 -161 -110.5 -296.5t-186 -234t-256.5 -153.5t-314 -55q-278 0 -430 150t-152 404q0 96 22 197q34 159 110.5 293.5t186 233t256 153.5t312.5 55zM1170 1394q-150 0 -283 -50.5t-233.5 -141t-171 -216t-102.5 -275.5q-20 -93 -20 -183 q0 -226 133.5 -357t377.5 -131q304 0 515 187.5t277 496.5q20 91 20 183q0 225 -133 356t-380 131z" />
<glyph unicode="&#xd7;" horiz-adv-x="802" d="M536 643l315 260l37 -44l-315 -260l204 -260l-51 -44l-205 260l-315 -260l-37 44l316 260l-205 260l52 44z" />
<glyph unicode="&#xd8;" horiz-adv-x="1738" d="M1601 1536l-100 -151q126 -68 191 -191t65 -286q0 -96 -22 -197q-34 -161 -110.5 -296.5t-186 -233.5t-256.5 -153t-314 -55q-149 0 -268 47l-81 -122h-77l99 150q-125 69 -190 192t-65 287q0 96 22 197q34 159 110.5 293.5t186 233t256 153.5t312.5 55q150 0 269 -47 l82 124h77zM580 107l824 1247q-103 40 -234 40q-150 0 -283 -50.5t-233.5 -141t-171 -216t-102.5 -275.5q-20 -93 -20 -183q0 -145 56 -253t164 -168zM1463 1327l-824 -1248q99 -39 232 -39q304 0 515 187.5t277 496.5q20 91 20 183q0 144 -56 252t-164 168z" />
<glyph unicode="&#xd9;" horiz-adv-x="1531" d="M1289 1615l-48 -48l-265 268l48 48zM1642 1434l-167 -788q-27 -126 -64.5 -226t-95 -186t-132.5 -142.5t-178 -88.5t-230 -32q-240 0 -348 107t-108 310q0 110 32 264l166 782h76l-167 -784q-32 -154 -32 -256q0 -176 91 -264.5t294 -88.5q139 0 244.5 41.5t179 124 t120.5 191.5t79 259l165 777h75z" />
<glyph unicode="&#xda;" horiz-adv-x="1531" d="M1338 1835l-375 -268l-31 48l374 268zM1642 1434l-167 -788q-27 -126 -64.5 -226t-95 -186t-132.5 -142.5t-178 -88.5t-230 -32q-240 0 -348 107t-108 310q0 110 32 264l166 782h76l-167 -784q-32 -154 -32 -256q0 -176 91 -264.5t294 -88.5q139 0 244.5 41.5t179 124 t120.5 191.5t79 259l165 777h75z" />
<glyph unicode="&#xdb;" horiz-adv-x="1531" d="M1405 1597l-48 -41l-204 261l-314 -261l-35 41l363 302zM1642 1434l-167 -788q-27 -126 -64.5 -226t-95 -186t-132.5 -142.5t-178 -88.5t-230 -32q-240 0 -348 107t-108 310q0 110 32 264l166 782h76l-167 -784q-32 -154 -32 -256q0 -176 91 -264.5t294 -88.5 q139 0 244.5 41.5t179 124t120.5 191.5t79 259l165 777h75z" />
<glyph unicode="&#xdc;" horiz-adv-x="1531" d="M947 1755q20 0 31.5 -11.5t11.5 -28.5q0 -19 -14.5 -34t-36.5 -15q-20 0 -31.5 12t-11.5 29q0 19 14 33.5t37 14.5zM1319 1755q20 0 31.5 -11.5t11.5 -28.5q0 -19 -14.5 -34t-36.5 -15q-20 0 -31.5 12t-11.5 29q0 19 14 33.5t37 14.5zM1642 1434l-167 -788 q-27 -126 -64.5 -226t-95 -186t-132.5 -142.5t-178 -88.5t-230 -32q-240 0 -348 107t-108 310q0 110 32 264l166 782h76l-167 -784q-32 -154 -32 -256q0 -176 91 -264.5t294 -88.5q139 0 244.5 41.5t179 124t120.5 191.5t79 259l165 777h75z" />
<glyph unicode="&#xdd;" horiz-adv-x="1380" d="M1263 1835l-375 -268l-32 48l375 268zM851 572l-123 -572h-75l123 572l-375 862h85l340 -790l677 790h89z" />
<glyph unicode="&#xde;" horiz-adv-x="1417" d="M542 1196h504q184 0 283.5 -93t99.5 -254q0 -61 -13 -125q-45 -211 -194 -335.5t-369 -124.5h-509l-56 -264h-75l304 1434h76zM358 328h498q189 0 318 110t169 299q12 57 12 109q0 135 -83 210.5t-240 75.5h-503z" />
<glyph unicode="&#xdf;" horiz-adv-x="1374" d="M193 1l234 1102q24 104 73.5 175.5t121 110t152.5 54.5t185 16q92 0 160.5 -12t124 -41t84.5 -81.5t29 -129.5q0 -48 -14 -113q-30 -143 -104.5 -221t-193.5 -110q140 -19 215 -83.5t75 -190.5q0 -48 -14 -113q-20 -94 -61.5 -162t-95 -109t-130 -65t-153.5 -32t-178 -8 h-264l14 65h260q91 0 159 7.5t133.5 28.5t111.5 57t81 95t52 140q11 50 11 97q0 54 -18 95t-50 66.5t-82 41.5t-107 22.5t-131 7.5h-28l14 64l14 1q79 4 139.5 20t113.5 50.5t89 95.5t55 148q11 49 11 96q0 61 -22.5 102.5t-67 64t-101 31.5t-135.5 9q-191 0 -303.5 -66 t-151.5 -233l-232 -1093h-75z" />
<glyph unicode="&#xe0;" horiz-adv-x="1191" d="M1058 1205l-49 -48l-264 269l48 47zM430 904l-17 51q192 97 379 97q101 0 186 -33t139.5 -103t54.5 -166q0 -42 -8 -78l-143 -672h-66l33 158q-180 -165 -413 -182q-17 -1 -50 -1q-149 0 -247 69.5t-98 196.5q0 31 8 73q18 84 67.5 149t119.5 103.5t150 57.5t167 19 q106 0 203.5 -26.5t166.5 -73.5l30 137q7 32 7 65q0 119 -92.5 185t-224.5 66q-170 0 -352 -92zM995 225l58 267q-64 48 -157 74t-194 26q-106 0 -197 -29t-160 -96t-90 -163q-6 -30 -6 -57q0 -103 82.5 -159.5t209.5 -55.5q19 0 29 1q243 12 425 192z" />
<glyph unicode="&#xe1;" horiz-adv-x="1191" d="M1107 1426l-375 -269l-32 48l375 268zM430 904l-17 51q192 97 379 97q101 0 186 -33t139.5 -103t54.5 -166q0 -41 -8 -77l-143 -673h-66l33 158q-180 -165 -413 -182q-17 -1 -50 -1q-149 0 -247 69.5t-98 196.5q0 31 8 73q18 84 67.5 149t119.5 103.5t150 57.5t167 19 q106 0 203.5 -26.5t166.5 -73.5l30 137q7 32 7 65q0 119 -92.5 185t-224.5 66q-170 0 -352 -92zM995 225l58 267q-64 48 -157 74t-194 26q-106 0 -197 -29t-160 -96t-90 -163q-6 -30 -6 -57q0 -103 82.5 -159.5t209.5 -55.5q19 0 29 1q243 12 425 192z" />
<glyph unicode="&#xe2;" horiz-adv-x="1191" d="M1174 1188l-49 -42l-203 261l-314 -261l-35 42l363 302zM430 904l-17 51q192 97 379 97q101 0 186 -33t139.5 -103t54.5 -166q0 -42 -8 -78l-143 -672h-66l33 158q-180 -165 -413 -182q-17 -1 -50 -1q-149 0 -247 69.5t-98 196.5q0 31 8 73q18 84 67.5 149t119.5 103.5 t150 57.5t167 19q106 0 203.5 -26.5t166.5 -73.5l30 137q7 32 7 65q0 119 -92.5 185t-224.5 66q-170 0 -352 -92zM994 225l59 267q-64 48 -157 74t-194 26q-106 0 -197 -29t-160 -96t-90 -163q-6 -30 -6 -57q0 -103 82.5 -159.5t209.5 -55.5q19 0 29 1q242 12 424 192z" />
<glyph unicode="&#xe3;" horiz-adv-x="1191" d="M686 1275l-44 31q75 115 157 115q50 0 124 -50q72 -43 111 -43q53 0 95 71l44 -30q-58 -96 -134 -96q-50 0 -127 49q-71 44 -108 44q-58 0 -118 -91zM430 904l-17 51q192 97 379 97q101 0 186 -33t139.5 -103t54.5 -166q0 -41 -8 -77l-143 -673h-66l33 158 q-180 -165 -413 -182q-17 -1 -50 -1q-149 0 -247 69.5t-98 196.5q0 31 8 73q18 84 67.5 149t119.5 103.5t150 57.5t167 19q106 0 203.5 -26.5t166.5 -73.5l30 137q7 32 7 65q0 119 -92.5 185t-224.5 66q-170 0 -352 -92zM995 225l58 267q-64 48 -157 74t-194 26 q-106 0 -197 -29t-160 -96t-90 -163q-6 -30 -6 -57q0 -103 82.5 -159.5t209.5 -55.5q19 0 29 1q242 12 425 192z" />
<glyph unicode="&#xe4;" horiz-adv-x="1191" d="M716 1346q20 0 31 -11.5t11 -28.5q0 -19 -14.5 -34.5t-36.5 -15.5q-19 0 -30.5 12t-11.5 29q0 20 14.5 34.5t36.5 14.5zM1088 1346q20 0 31.5 -11.5t11.5 -28.5q0 -19 -14.5 -34.5t-36.5 -15.5q-20 0 -31.5 12t-11.5 29q0 20 14.5 34.5t36.5 14.5zM430 905l-17 50 q192 97 379 97q101 0 186 -33t139.5 -103t54.5 -166q0 -41 -8 -77l-143 -673h-66l33 158q-180 -165 -413 -182q-17 -1 -50 -1q-149 0 -247 69.5t-98 196.5q0 31 8 73q18 84 67.5 149t119.5 103.5t150 57.5t167 19q106 0 203.5 -26.5t166.5 -73.5l30 137q7 32 7 65 q0 119 -92.5 185t-224.5 66q-172 0 -352 -91zM995 225l58 267q-64 48 -157 74t-194 26q-106 0 -197 -29t-160 -96t-90 -163q-6 -30 -6 -57q0 -103 82.5 -159.5t209.5 -55.5q19 0 29 1q243 12 425 192z" />
<glyph unicode="&#xe5;" horiz-adv-x="1191" d="M945 1548q77 0 126.5 -48.5t49.5 -121.5q0 -95 -78 -169.5t-175 -74.5q-77 0 -126.5 48.5t-49.5 121.5q0 95 78 169.5t175 74.5zM946 1502q-75 0 -139.5 -60t-64.5 -139q0 -53 36 -88t89 -35q75 0 139.5 60t64.5 139q0 53 -36 88t-89 35zM430 904l-17 51q192 97 379 97 q101 0 186 -33t139.5 -103t54.5 -166q0 -42 -8 -78l-143 -672h-66l33 158q-180 -165 -413 -182q-17 -1 -50 -1q-149 0 -247 69.5t-98 196.5q0 31 8 73q18 84 67.5 149t119.5 103.5t150 57.5t167 19q106 0 203.5 -26.5t166.5 -73.5l30 137q7 32 7 65q0 119 -92.5 185 t-224.5 66q-170 0 -352 -92zM995 225l58 267q-64 48 -157 74t-194 26q-106 0 -197 -29t-160 -96t-90 -163q-6 -30 -6 -57q0 -103 82.5 -159.5t209.5 -55.5q19 0 29 1q243 12 425 192z" />
<glyph unicode="&#xe6;" horiz-adv-x="2068" d="M430 904l-17 51q192 97 379 97q98 0 180 -32t135.5 -99t53.5 -158q0 -21 -1 -32q82 151 219 237t314 86q195 0 299 -82.5t104 -246.5q0 -64 -16 -137q-15 -72 -41 -135h-906q-5 -45 -5 -77q0 -161 96 -252t273 -91q191 0 358 82l27 -46q-178 -94 -393 -94q-178 0 -282 85 t-122 233l-64 -293h-66l33 158q-180 -165 -413 -182q-17 -1 -50 -1q-149 0 -247 69.5t-98 196.5q0 31 8 73q18 84 67.5 149t119.5 103.5t150 57.5t167 19q105 0 203.5 -27t167.5 -74l30 138q7 32 7 65q0 119 -93 185t-225 66q-170 0 -352 -92zM1144 508h843q20 57 31 108 q13 61 13 115q0 265 -338 265q-209 0 -352.5 -128.5t-190.5 -336.5zM997 225l58 265q-64 48 -158 75t-195 27q-106 0 -197 -29t-160 -96t-90 -163q-6 -30 -6 -57q0 -103 82.5 -159.5t209.5 -55.5q19 0 29 1q245 12 427 192z" />
<glyph unicode="&#xe7;" horiz-adv-x="1056" d="M383 -160l131 150q-137 37 -212 139.5t-75 251.5q0 65 15 137q24 112 80.5 209.5t138 169.5t190.5 113.5t231 41.5q85 0 153.5 -18.5t106.5 -46.5l-45 -45q-64 50 -214 50q-215 0 -370.5 -136.5t-200.5 -349.5q-14 -67 -14 -124q0 -161 98 -255.5t272 -94.5 q60 0 131.5 16t123.5 44l32 -53q-59 -32 -137.5 -49t-141.5 -17q-47 -2 -110 9l-106 -115q16 2 48 2q73 -3 116.5 -39t43.5 -98q0 -18 -5 -43q-18 -81 -85.5 -127.5t-159.5 -46.5q-130 0 -169 79l40 29q27 -59 125 -59q74 0 127 37.5t67 101.5q3 17 3 31q0 47 -34.5 72.5 t-96.5 25.5q-34 0 -69 -10z" />
<glyph unicode="&#xe8;" horiz-adv-x="1234" d="M1054 1205l-49 -48l-265 269l49 47zM1022 115l27 -46q-178 -94 -392 -94q-207 0 -318.5 108t-111.5 293q0 72 16 146q51 235 215 383.5t403 148.5q195 0 298.5 -82.5t103.5 -246.5q0 -64 -16 -137q-16 -77 -40 -135h-906q-5 -45 -5 -77q0 -162 95.5 -252.5t272.5 -90.5 q191 0 358 82zM312 506h843q20 57 31 108q13 61 13 116q0 266 -339 266q-209 0 -353 -129.5t-190 -336.5z" />
<glyph unicode="&#xe9;" horiz-adv-x="1234" d="M1103 1426l-375 -269l-32 48l375 268zM1022 115l27 -46q-178 -94 -392 -94q-207 0 -318.5 108t-111.5 293q0 72 16 146q51 235 215 383.5t403 148.5q195 0 298.5 -82.5t103.5 -246.5q0 -64 -16 -137q-16 -77 -40 -135h-906q-5 -45 -5 -77q0 -162 95.5 -252.5t272.5 -90.5 q191 0 358 82zM312 506h843q20 57 31 108q13 61 13 116q0 266 -339 266q-209 0 -353 -129.5t-190 -336.5z" />
<glyph unicode="&#xea;" horiz-adv-x="1234" d="M1170 1188l-49 -42l-203 261l-314 -261l-35 42l362 302zM1022 115l27 -46q-178 -94 -393 -94q-207 0 -318 108t-111 293q0 72 16 146q51 235 215 383.5t403 148.5q195 0 298.5 -82.5t103.5 -246.5q0 -64 -16 -137q-16 -77 -40 -135h-906q-5 -45 -5 -77 q0 -162 95.5 -252.5t272.5 -90.5q191 0 358 82zM312 506h843q20 57 31 108q13 61 13 116q0 266 -339 266q-209 0 -353 -129.5t-190 -336.5z" />
<glyph unicode="&#xeb;" horiz-adv-x="1234" d="M711 1346q20 0 31.5 -11.5t11.5 -28.5q0 -19 -14.5 -34.5t-36.5 -15.5q-19 0 -30.5 12t-11.5 29q0 20 14 34.5t36 14.5zM1084 1346q20 0 31 -11.5t11 -28.5q0 -19 -14.5 -34.5t-36.5 -15.5q-19 0 -30.5 12t-11.5 29q0 20 14.5 34.5t36.5 14.5zM1022 115l27 -46 q-178 -94 -392 -94q-207 0 -318.5 108t-111.5 293q0 72 16 146q51 235 215 383.5t403 148.5q195 0 298.5 -82.5t103.5 -246.5q0 -64 -16 -137q-16 -77 -40 -135h-906q-5 -45 -5 -76q0 -162 95.5 -253t272.5 -91q191 0 358 82zM312 506h843q20 57 31 108q13 61 13 116 q0 266 -339 266q-209 0 -353 -129.5t-190 -336.5z" />
<glyph unicode="&#xec;" horiz-adv-x="452" d="M673 1205l-48 -48l-265 269l48 47zM272 0h-72l218 1024h72z" />
<glyph unicode="&#xed;" horiz-adv-x="452" d="M722 1426l-375 -269l-32 48l375 268zM272 0h-72l218 1024h72z" />
<glyph unicode="&#xee;" horiz-adv-x="452" d="M789 1188l-48 -42l-204 261l-314 -261l-36 42l364 302zM272 0h-72l218 1024h72z" />
<glyph unicode="&#xef;" horiz-adv-x="452" d="M331 1346q20 0 31.5 -11.5t11.5 -28.5q0 -19 -14.5 -34.5t-36.5 -15.5q-20 0 -31.5 12t-11.5 29q0 19 14.5 34t36.5 15zM703 1346q20 0 31.5 -11.5t11.5 -28.5q0 -19 -14.5 -34.5t-36.5 -15.5q-20 0 -31.5 12t-11.5 29q0 20 14.5 34.5t36.5 14.5zM272 0h-72l218 1024h72z " />
<glyph unicode="&#xf0;" horiz-adv-x="1228" d="M603 1385l-27 53q168 106 386 106q295 0 385 -171l177 93l22 -50l-177 -94q27 -75 27 -184q0 -142 -50 -379q-22 -102 -45 -183.5t-55.5 -163.5t-71 -143.5t-91.5 -116.5t-116 -89.5t-145.5 -54.5t-179.5 -20q-85 0 -151.5 9t-126.5 31.5t-99 59.5t-61.5 95.5 t-22.5 135.5q0 72 19 160q24 114 68 199t100 137.5t131.5 85t153.5 44.5t176 12q75 0 130 -5.5t107.5 -22t87.5 -45t62 -75t40 -111.5q13 46 26 107q44 210 44 328q0 95 -24 159l-278 -148l-22 50l278 145q-74 143 -320 143q-205 0 -357 -97zM835 895q-91 0 -162.5 -11 t-138.5 -40t-116.5 -77t-88 -124t-60.5 -178q-17 -83 -17 -142q0 -65 18.5 -113t51 -79t83 -49.5t107.5 -25.5t132 -7q101 0 184 25t144.5 69t111 112t84 147t63.5 180q-5 81 -25.5 137.5t-51 91t-81.5 53.5t-105 25t-133 6z" />
<glyph unicode="&#xf1;" horiz-adv-x="1273" d="M708 1275l-44 31q75 115 156 115q50 0 123 -49q74 -44 112 -44q53 0 95 71l45 -30q-58 -96 -134 -96q-49 0 -131 51q-67 42 -104 42q-58 0 -118 -91zM473 1024l-34 -163q143 103 239 147t208 44q72 0 137.5 -19.5t118 -56t83.5 -95t31 -130.5q0 -37 -9 -78l-143 -673h-72 l142 669q8 38 8 69q0 120 -91.5 187t-220.5 67q-106 0 -197 -43.5t-241 -154.5l-170 -794h-72l217 1024h66z" />
<glyph unicode="&#xf2;" horiz-adv-x="1316" d="M1095 1205l-49 -48l-264 269l48 47zM876 1052q207 0 319.5 -107.5t112.5 -292.5q0 -72 -16 -146q-51 -241 -219.5 -388t-415.5 -147q-208 0 -319.5 110t-111.5 294q0 70 16 143q50 237 220 385.5t414 148.5zM874 992q-213 0 -364 -134t-198 -352q-15 -69 -15 -130 q0 -159 93.5 -251.5t268.5 -92.5q217 0 366.5 132t196.5 354q15 71 15 133q0 160 -94.5 250.5t-268.5 90.5z" />
<glyph unicode="&#xf3;" horiz-adv-x="1316" d="M1144 1426l-375 -269l-32 48l375 268zM876 1052q207 0 319.5 -107.5t112.5 -292.5q0 -72 -16 -146q-51 -241 -219.5 -388t-415.5 -147q-208 0 -319.5 110t-111.5 294q0 70 16 143q50 237 220 385.5t414 148.5zM874 992q-213 0 -364 -134t-198 -352q-15 -69 -15 -130 q0 -159 93.5 -251.5t268.5 -92.5q217 0 366.5 132t196.5 354q15 71 15 134q0 160 -94.5 250t-268.5 90z" />
<glyph unicode="&#xf4;" horiz-adv-x="1316" d="M1211 1188l-49 -42l-203 261l-314 -261l-35 42l363 302zM876 1052q207 0 319.5 -107.5t112.5 -292.5q0 -72 -16 -146q-51 -241 -219.5 -388t-415.5 -147q-208 0 -319.5 110t-111.5 294q0 70 16 143q50 237 220 385.5t414 148.5zM874 992q-213 0 -364 -134t-198 -352 q-15 -69 -15 -130q0 -159 93.5 -251.5t268.5 -92.5q217 0 366.5 132t196.5 354q15 71 15 134q0 160 -94.5 250t-268.5 90z" />
<glyph unicode="&#xf5;" horiz-adv-x="1316" d="M723 1275l-44 31q75 115 157 115q50 0 121 -49q75 -44 114 -44q53 0 95 71l44 -30q-58 -96 -134 -96q-51 0 -131 51q-67 42 -104 42q-58 0 -118 -91zM876 1052q207 0 319.5 -107.5t112.5 -292.5q0 -72 -16 -146q-51 -241 -219.5 -388t-415.5 -147q-208 0 -319.5 110 t-111.5 294q0 70 16 143q50 237 220 385.5t414 148.5zM874 992q-213 0 -364 -134t-198 -352q-15 -69 -15 -130q0 -159 93.5 -251.5t268.5 -92.5q217 0 366.5 132t196.5 354q15 71 15 133q0 160 -94.5 250.5t-268.5 90.5z" />
<glyph unicode="&#xf6;" horiz-adv-x="1316" d="M753 1346q20 0 31 -11.5t11 -28.5q0 -19 -14.5 -34.5t-36.5 -15.5q-19 0 -30.5 12t-11.5 29q0 20 14.5 34.5t36.5 14.5zM1125 1346q20 0 31.5 -11.5t11.5 -28.5q0 -19 -14.5 -34.5t-36.5 -15.5q-20 0 -31.5 12t-11.5 29q0 20 14.5 34.5t36.5 14.5zM876 1052 q207 0 319.5 -107.5t112.5 -292.5q0 -72 -16 -146q-51 -241 -219.5 -388t-415.5 -147q-208 0 -319.5 110t-111.5 294q0 70 16 143q50 237 220 385.5t414 148.5zM874 992q-213 0 -364 -134t-198 -352q-15 -69 -15 -130q0 -159 93.5 -251.5t268.5 -92.5q217 0 366.5 132 t196.5 354q15 71 15 134q0 160 -94.5 250t-268.5 90z" />
<glyph unicode="&#xf7;" horiz-adv-x="991" d="M717 1064q20 0 31.5 -11.5t11.5 -28.5q0 -19 -14.5 -33.5t-36.5 -14.5q-20 0 -31.5 11.5t-11.5 28.5q0 19 14.5 33.5t36.5 14.5zM1036 666h-797l13 62h797zM579 418q20 0 31.5 -11.5t11.5 -28.5q0 -19 -14.5 -34t-36.5 -15q-20 0 -31 11.5t-11 28.5q0 20 14 34.5t36 14.5 z" />
<glyph unicode="&#xf8;" horiz-adv-x="1316" d="M1207 1126l-85 -129q186 -101 186 -345q0 -72 -16 -146q-51 -241 -219.5 -388t-415.5 -147q-104 0 -192 32l-69 -105h-70l86 129q-91 51 -138.5 140.5t-47.5 207.5q0 70 16 143q50 237 220 385.5t414 148.5q107 0 192 -31l70 105h69zM448 82l585 885q-72 25 -159 25 q-213 0 -364 -134t-198 -352q-15 -69 -15 -130q0 -207 151 -294zM1086 943l-585 -886q70 -25 158 -25q217 0 366.5 132t196.5 354q15 71 15 134q0 206 -151 291z" />
<glyph unicode="&#xf9;" horiz-adv-x="1255" d="M1067 1205l-49 -48l-265 269l49 47zM1085 0h-66l35 163q-143 -104 -239.5 -148t-208.5 -44q-97 0 -179.5 33t-136.5 103.5t-54 165.5q0 36 9 78l143 673h72l-142 -669q-8 -38 -8 -69q0 -120 91.5 -187t220.5 -67q106 0 197 43.5t241 154.5l171 794h72z" />
<glyph unicode="&#xfa;" horiz-adv-x="1255" d="M1116 1426l-375 -269l-32 48l375 268zM1085 0h-66l35 163q-143 -104 -239.5 -148t-208.5 -44q-97 0 -179.5 33t-136.5 103.5t-54 165.5q0 37 9 78l143 673h72l-142 -669q-8 -38 -8 -69q0 -120 91.5 -187t220.5 -67q106 0 197 43.5t241 154.5l171 794h72z" />
<glyph unicode="&#xfb;" horiz-adv-x="1255" d="M1183 1188l-49 -42l-203 261l-315 -261l-34 42l362 302zM1085 0h-66l35 163q-143 -104 -239.5 -148t-208.5 -44q-97 0 -179.5 33t-136.5 103.5t-54 165.5q0 36 9 78l143 673h72l-142 -669q-8 -38 -8 -69q0 -120 91.5 -187t220.5 -67q106 0 197 43.5t241 154.5l171 794h72 z" />
<glyph unicode="&#xfc;" horiz-adv-x="1255" d="M724 1346q20 0 31.5 -11.5t11.5 -28.5q0 -19 -14.5 -34.5t-36.5 -15.5q-20 0 -31.5 12t-11.5 29q0 20 14.5 34.5t36.5 14.5zM1097 1346q20 0 31 -11.5t11 -28.5q0 -19 -14.5 -34.5t-36.5 -15.5q-19 0 -30.5 12t-11.5 29q0 20 14.5 34.5t36.5 14.5zM1085 0h-66l35 163 q-143 -104 -239.5 -148t-208.5 -44q-97 0 -179.5 33t-136.5 103.5t-54 165.5q0 36 9 78l143 673h72l-142 -669q-8 -38 -8 -69q0 -120 91.5 -187t220.5 -67q106 0 197 43.5t241 154.5l171 794h72z" />
<glyph unicode="&#xfd;" horiz-adv-x="1095" d="M1032 1426l-375 -269l-31 48l375 268zM1258 1024l-758 -1231q-92 -144 -229 -229q-137 -70 -304 -70l6 57q152 0 273 74q117 62 200 201l110 174h-18l-204 1024h73l186 -958l589 958h76z" />
<glyph unicode="&#xfe;" horiz-adv-x="1277" d="M586 1434l-122 -563q180 179 415 179q194 0 293.5 -102t99.5 -281q0 -76 -18 -163q-54 -253 -195 -393t-372 -140q-101 0 -179.5 38.5t-189.5 153.5l-143 -663h-72l411 1934h72zM450 788l-122 -560q110 -121 181.5 -158.5t166.5 -37.5q405 0 509 485q16 74 16 145 q0 153 -85 240.5t-254 87.5q-235 0 -412 -202z" />
<glyph unicode="&#xff;" horiz-adv-x="1095" d="M641 1346q20 0 31.5 -11.5t11.5 -28.5q0 -19 -14.5 -34.5t-36.5 -15.5q-20 0 -31.5 12t-11.5 29q0 20 14.5 34.5t36.5 14.5zM1013 1346q20 0 31.5 -11.5t11.5 -28.5q0 -19 -14.5 -34.5t-36.5 -15.5q-20 0 -31.5 12t-11.5 29q0 20 14.5 34.5t36.5 14.5zM1258 1024 l-758 -1231q-92 -144 -229 -229q-137 -70 -304 -70l6 58q154 0 273 73q117 62 200 201l110 174h-18l-204 1024h73l186 -958l589 958h76z" />
<glyph unicode="&#x131;" horiz-adv-x="452" d="M272 0h-72l218 1024h72z" />
<glyph unicode="&#x152;" horiz-adv-x="2502" d="M1508 0l93 425q-107 -210 -297.5 -331t-435.5 -121q-278 0 -430 150t-152 404q0 96 22 197q34 159 110.5 293.5t186 233t256 153.5t312.5 55q247 0 388.5 -122.5t159.5 -332.5l93 430h869l-13 -65h-795l-127 -597h728l-13 -64h-728l-137 -644h794l-13 -64h-871z M1170 1394q-150 0 -283 -50.5t-233.5 -141t-171 -216t-102.5 -275.5q-20 -93 -20 -183q0 -226 133.5 -357t377.5 -131q304 0 515 187.5t277 496.5q20 91 20 183q0 225 -133 356t-380 131z" />
<glyph unicode="&#x153;" horiz-adv-x="2213" d="M2003 115l27 -46q-178 -94 -393 -94q-194 0 -301.5 98t-112.5 266q-78 -172 -224.5 -270t-341.5 -98q-208 0 -319.5 110t-111.5 294q0 70 16 143q50 237 220 385.5t414 148.5q194 0 301.5 -97.5t112.5 -265.5q77 169 219.5 267t331.5 98q125 0 218 -33.5t142 -96.5 q55 -64 55 -159q0 -55 -19 -116q-79 -255 -561 -255q-165 0 -395 34q-3 -29 -3 -56q0 -159 95 -249t271 -90q192 0 359 82zM1838 998q-209 0 -352 -130t-189 -338l-11 -53q190 -35 372 -35q446 0 514 229q16 56 16 97q0 115 -95.5 172.5t-254.5 57.5zM874 992 q-213 0 -364 -134t-198 -352q-15 -69 -15 -130q0 -159 93.5 -251.5t268.5 -92.5q217 0 366.5 132t196.5 354q15 71 15 133q0 160 -94.5 250.5t-268.5 90.5z" />
<glyph unicode="&#x178;" horiz-adv-x="1380" d="M871 1755q20 0 31.5 -11.5t11.5 -28.5q0 -19 -14.5 -34t-36.5 -15q-19 0 -30.5 12t-11.5 29q0 20 14 34t36 14zM1244 1755q20 0 31.5 -11.5t11.5 -28.5q0 -19 -15 -34t-37 -15q-19 0 -30.5 12t-11.5 29q0 19 14.5 33.5t36.5 14.5zM851 572l-123 -572h-75l123 572 l-375 862h85l340 -790l677 790h89z" />
<glyph unicode="&#x192;" horiz-adv-x="790" d="M1113 1533l-6 -57q-206 -2 -354 -120q-152 -115 -198 -336l-28 -133h356l-12 -58h-357l-187 -880q-34 -158 -127 -266q-89 -103 -233 -158l10 63q105 54 174 142q78 97 106 227l185 872h-199l13 58h199l29 140q54 253 225 383q168 126 404 123z" />
<glyph unicode="&#x2c6;" horiz-adv-x="794" d="M951 1188l-49 -42l-203 261l-314 -261l-35 42l362 302z" />
<glyph unicode="&#x2c7;" horiz-adv-x="794" d="M1003 1435l-362 -301l-239 301l49 42l203 -261l315 261z" />
<glyph unicode="&#x2d8;" horiz-adv-x="751" d="M905 1441l54 -10q-35 -104 -127.5 -172.5t-197.5 -68.5q-109 0 -174.5 71t-56.5 176l55 -3q-6 -85 44 -139t132 -54q85 0 163 57t108 143z" />
<glyph unicode="&#x2d9;" horiz-adv-x="288" d="M425 1346q20 0 31.5 -11.5t11.5 -28.5q0 -19 -14.5 -34.5t-36.5 -15.5q-20 0 -31.5 12t-11.5 29q0 20 14.5 34.5t36.5 14.5z" />
<glyph unicode="&#x2da;" horiz-adv-x="616" d="M632 1548q77 0 126.5 -48.5t49.5 -121.5q0 -95 -78 -169.5t-175 -74.5q-77 0 -126.5 48.5t-49.5 121.5q0 95 78 169.5t175 74.5zM633 1502q-75 0 -139.5 -60t-64.5 -139q0 -53 36 -88t89 -35q75 0 139.5 60t64.5 139q0 53 -36 88t-89 35z" />
<glyph unicode="&#x2db;" horiz-adv-x="612" d="M294 14l87 -4q-144 -84 -217 -174.5t-73 -162.5q0 -16 5 -33q25 -74 127 -74q78 0 182 49l20 -47q-117 -51 -209 -51q-87 0 -135 42.5t-48 111.5q0 78 65 168.5t196 174.5z" />
<glyph unicode="&#x2dc;" horiz-adv-x="710" d="M418 1275l-44 31q75 115 156 115q51 0 125 -50q72 -43 110 -43q53 0 95 71l45 -30q-58 -96 -134 -96q-50 0 -127 49q-71 44 -108 44q-58 0 -118 -91z" />
<glyph unicode="&#x2dd;" horiz-adv-x="901" d="M743 1430l-357 -296l-38 46l357 296zM1108 1430l-357 -296l-37 46l356 296z" />
<glyph unicode="&#x2000;" horiz-adv-x="978" />
<glyph unicode="&#x2001;" horiz-adv-x="1957" />
<glyph unicode="&#x2002;" horiz-adv-x="978" />
<glyph unicode="&#x2003;" horiz-adv-x="1957" />
<glyph unicode="&#x2004;" horiz-adv-x="652" />
<glyph unicode="&#x2005;" horiz-adv-x="489" />
<glyph unicode="&#x2006;" horiz-adv-x="326" />
<glyph unicode="&#x2007;" horiz-adv-x="326" />
<glyph unicode="&#x2008;" horiz-adv-x="244" />
<glyph unicode="&#x2009;" horiz-adv-x="391" />
<glyph unicode="&#x200a;" horiz-adv-x="108" />
<glyph unicode="&#x2010;" horiz-adv-x="923" d="M970 673h-730l14 63h729z" />
<glyph unicode="&#x2011;" horiz-adv-x="923" d="M970 673h-730l14 63h729z" />
<glyph unicode="&#x2012;" horiz-adv-x="923" d="M970 673h-730l14 63h729z" />
<glyph unicode="&#x2013;" horiz-adv-x="1067" d="M1113 673h-873l14 63h872z" />
<glyph unicode="&#x2014;" horiz-adv-x="1339" d="M1385 673h-1145l14 63h1145z" />
<glyph unicode="&#x2018;" horiz-adv-x="299" d="M452 1460l-1 -5q3 2 7 2q20 0 31.5 -12t11.5 -29q0 -20 -14.5 -34t-36.5 -14q-25 0 -36 19q-9 17 -9 40q0 21 4 37q10 45 29.5 67.5t62.5 22.5h17l-13 -36h-6q-20 -1 -30.5 -14t-16.5 -44z" />
<glyph unicode="&#x2019;" horiz-adv-x="299" d="M468 1462l1 5q-3 -2 -8 -2q-19 0 -30.5 12t-11.5 29q0 20 14 34t36 14q26 0 37 -19q9 -17 9 -40q0 -21 -4 -37q-10 -45 -29.5 -67.5t-62.5 -22.5h-18l14 36h6q20 1 30.5 14t16.5 44z" />
<glyph unicode="&#x201a;" horiz-adv-x="299" d="M155 -12v4q-3 -2 -7 -2q-20 0 -31.5 12t-11.5 29q0 20 14.5 34.5t36.5 14.5q25 0 37 -20q8 -15 8 -40q0 -20 -4 -36q-10 -45 -30 -67.5t-62 -22.5h-17l13 36h7q20 0 30.5 13.5t16.5 44.5z" />
<glyph unicode="&#x201c;" horiz-adv-x="538" d="M452 1460l-1 -5q3 2 7 2q20 0 31.5 -12t11.5 -29q0 -20 -14.5 -34t-36.5 -14q-25 0 -36 19q-9 17 -9 40q0 21 4 37q10 45 29.5 67.5t62.5 22.5h17l-13 -36h-6q-20 -1 -30.5 -14t-16.5 -44zM692 1459v-4q3 2 7 2q20 0 31.5 -12t11.5 -29q0 -20 -14.5 -34.5t-36.5 -14.5 q-25 0 -37 20q-8 15 -8 40q0 21 4 37q10 45 29.5 67.5t62.5 22.5h17l-13 -37h-7q-20 -1 -30.5 -14t-16.5 -44z" />
<glyph unicode="&#x201d;" horiz-adv-x="538" d="M468 1462l1 5q-3 -2 -8 -2q-19 0 -30.5 12t-11.5 29q0 20 14 34t36 14q26 0 37 -19q9 -17 9 -40q0 -21 -4 -37q-10 -45 -29.5 -67.5t-62.5 -22.5h-18l14 36h6q20 1 30.5 14t16.5 44zM709 1462l1 5q-3 -2 -8 -2q-20 0 -31.5 12t-11.5 29q0 20 14.5 34.5t36.5 14.5 q25 0 37 -20q9 -17 9 -40q0 -17 -5 -37q-10 -46 -29.5 -68t-61.5 -22h-18l13 36h7q20 1 30.5 14t16.5 44z" />
<glyph unicode="&#x201e;" horiz-adv-x="538" d="M155 -12v4q-3 -2 -7 -2q-20 0 -31.5 12t-11.5 29q0 20 14.5 34.5t36.5 14.5q25 0 37 -20q8 -15 8 -40q0 -20 -4 -36q-10 -45 -30 -67.5t-62 -22.5h-17l13 36h7q20 0 30.5 13.5t16.5 44.5zM395 -12l1 4q-3 -2 -7 -2q-20 0 -31.5 12t-11.5 29q0 20 14.5 34.5t36.5 14.5 q24 0 36 -20q9 -16 9 -40q0 -20 -4 -36q-10 -45 -30 -67.5t-62 -22.5h-17l13 36h6q20 0 30.5 13.5t16.5 44.5z" />
<glyph unicode="&#x2020;" horiz-adv-x="1054" d="M771 969h393l-13 -63h-393l-255 -1201h-76l256 1201h-393l13 63h393l106 500h76z" />
<glyph unicode="&#x2021;" horiz-adv-x="1054" d="M771 969h393l-13 -63h-393l-136 -639h393l-13 -62h-393l-106 -500h-75l106 500h-393l13 62h393l136 639h-393l13 63h393l106 500h76z" />
<glyph unicode="&#x2022;" horiz-adv-x="567" d="M445 784q69 0 112 -43t43 -108q0 -85 -67.5 -150.5t-154.5 -65.5q-70 0 -113 42.5t-43 107.5q0 85 68 151t155 66z" />
<glyph unicode="&#x2026;" horiz-adv-x="1024" d="M524 81q20 0 31.5 -11t11.5 -28q0 -19 -15 -34.5t-37 -15.5q-19 0 -30.5 12t-11.5 29q0 19 14.5 33.5t36.5 14.5zM156 81q20 0 31.5 -11t11.5 -28q0 -19 -14.5 -34.5t-36.5 -15.5q-20 0 -31.5 12t-11.5 29q0 19 14.5 33.5t36.5 14.5zM891 81q20 0 31.5 -11t11.5 -28 q0 -19 -14.5 -34.5t-36.5 -15.5q-20 0 -31.5 12t-11.5 29q0 19 14 33.5t37 14.5z" />
<glyph unicode="&#x202f;" horiz-adv-x="391" />
<glyph unicode="&#x2030;" horiz-adv-x="2496" d="M423 -35h-80l1267 1503h79zM716 1447q138 0 197.5 -61.5t59.5 -174.5q0 -64 -20 -161q-19 -89 -46.5 -154.5t-72.5 -120t-113.5 -82.5t-160.5 -28q-138 0 -197.5 62t-59.5 176q0 63 20 160q15 70 34 124t50.5 104.5t72.5 83t101 52.5t135 20zM714 1395 q-75 0 -131.5 -23.5t-94.5 -71t-62.5 -107.5t-42.5 -143q-19 -87 -19 -147q0 -92 46 -139t152 -47q145 0 220 87t111 259q19 87 19 148q0 91 -45.5 137.5t-152.5 46.5zM1477 772q138 0 197.5 -61.5t59.5 -174.5q0 -64 -20 -161q-19 -89 -46.5 -154.5t-72.5 -120 t-113.5 -82.5t-160.5 -28q-137 0 -196.5 62t-59.5 176q0 70 19 160q19 88 45.5 152.5t71.5 119.5t114 83.5t162 28.5zM2242 773q138 0 198 -61.5t60 -174.5q0 -64 -20 -161q-19 -89 -46.5 -154.5t-72.5 -120t-113.5 -82.5t-160.5 -28q-137 0 -197 62t-60 176q0 65 20 160 q19 88 45.5 152.5t71 119.5t113.5 83.5t162 28.5zM1475 721q-146 0 -220 -86.5t-111 -258.5q-19 -87 -19 -147q0 -92 46 -139t152 -47q145 0 220.5 87t111.5 259q19 87 19 148q0 91 -46 137.5t-153 46.5zM2240 721q-146 0 -220 -86.5t-111 -258.5q-18 -82 -18 -147 q0 -92 46 -139t152 -47q145 0 220 87t111 259q19 87 19 148q0 91 -46 137.5t-153 46.5z" />
<glyph unicode="&#x2039;" horiz-adv-x="696" d="M818 1029l-505 -429l322 -429l-55 -40l-355 469l551 469z" />
<glyph unicode="&#x203a;" horiz-adv-x="696" d="M726 600l-551 -469l-41 40l504 429l-322 429l55 40z" />
<glyph unicode="&#x2044;" horiz-adv-x="1200" d="M166 -35h-80l1254 1503h79z" />
<glyph unicode="&#x205f;" horiz-adv-x="489" />
<glyph unicode="&#x20ac;" horiz-adv-x="1325" d="M277 845h120q40 143 94.5 249.5t138 191.5t205 129t279.5 44q276 0 393 -138l-51 -44q-101 118 -342 118q-112 0 -203.5 -26t-159 -72t-120.5 -116.5t-89 -152t-64 -184.5h732l-13 -59h-740l-16 -71q-16 -81 -23 -124h656l-13 -60h-649q-7 -70 -7 -113q0 -90 21 -157.5 t67.5 -117.5t126 -76t192.5 -26q242 0 401 121l40 -50q-170 -136 -444 -136q-133 0 -227 31t-148.5 90.5t-79 137t-24.5 180.5q0 45 7 117h-127l13 60h119q10 67 23 130l15 64h-116z" />
<glyph unicode="&#x2122;" horiz-adv-x="1769" d="M1048 1382h-298l-158 -745h-61l158 745h-298l11 52h657zM1807 637h-61l144 671l-442 -671h-56l-157 671l-143 -671h-61l169 797h71l163 -719l470 719h72z" />
<glyph unicode="&#x25ca;" horiz-adv-x="1464" />
<glyph unicode="&#xe000;" horiz-adv-x="1024" d="M0 1024h1024v-1024h-1024v1024z" />
<glyph unicode="&#xfb03;" horiz-adv-x="2076" d="M1920 1533l-6 -57q-204 -1 -352 -119q-153 -116 -199 -333h739l-218 -1024h-72l205 966h-666l-314 -1478h-72l314 1478h-727l-314 -1478h-72l314 1478h-199l12 59h199q54 252 224 384q167 127 406 124l-7 -57q-203 -1 -353 -120q-152 -115 -198 -331h727q55 257 229 387 q167 123 400 121zM2137 1387q19 0 31.5 -12.5t12.5 -30.5q0 -20 -16 -35.5t-37 -15.5q-19 0 -31.5 12.5t-12.5 30.5q0 20 16 35.5t37 15.5z" />
<glyph unicode="&#xfb04;" horiz-adv-x="2293" d="M1122 1533l-7 -57q-206 -2 -354 -119q-151 -115 -197 -332h727q54 255 228 385q167 125 398 123h288l-235 -1104q-17 -82 -17 -144q0 -89 33 -145q65 -93 231 -93l-7 -57q-200 -3 -275 113q-53 71 -53 187q0 65 17 145l221 1041h-206q-205 -1 -353 -119 q-78 -59 -125.5 -139t-72.5 -194h357l-13 -58h-356l-314 -1478h-72l314 1478h-727l-314 -1478h-72l314 1478h-199l12 59h199q54 254 225 384q169 127 405 124z" />
</font>
</defs>
</svg>
