<?xml version="1.0" standalone="no"?>
<!DOCTYPE svg PUBLIC "-//W3C//DTD SVG 1.1//EN" "http://www.w3.org/Graphics/SVG/1.1/DTD/svg11.dtd" >
<svg xmlns="http://www.w3.org/2000/svg">
<metadata></metadata>
<defs>
<font id="corbertbold_italic" horiz-adv-x="1175" >
<font-face units-per-em="2048" ascent="1638" descent="-410" />
<missing-glyph horiz-adv-x="589" />
<glyph unicode="&#xfb01;" horiz-adv-x="1343" d="M1117 1527l-21 -185q-162 5 -269 -71q-114 -78 -150 -247h747l-218 -1024h-253l177 834h-494l-287 -1346h-253l286 1346h-154l40 190h154q68 317 272 431q133 77 326 77q42 0 97 -5z" />
<glyph unicode="&#xfb02;" horiz-adv-x="1513" d="M1524 1531l-238 -1118q-11 -48 -11 -94q0 -60 23 -99q60 -44 190 -42l-22 -192q-116 -6 -204.5 19.5t-137.5 80.5q-100 74 -100 231q0 57 13 118l193 907h-134q-157 5 -266 -74q-61 -42 -97.5 -99t-55.5 -145h285l-40 -190h-286l-287 -1346h-253l286 1346h-154l40 190 h154q70 323 270 434q131 75 332 75q51 0 78 -2h422z" />
<glyph horiz-adv-x="2048" />
<glyph horiz-adv-x="2048" />
<glyph unicode="&#xd;" horiz-adv-x="2048" />
<glyph unicode=" "  horiz-adv-x="589" />
<glyph unicode="&#x09;" horiz-adv-x="589" />
<glyph unicode="&#xa0;" horiz-adv-x="589" />
<glyph unicode="!" horiz-adv-x="432" d="M421 388h-246l215 1045h261zM248 239q56 0 92 -34.5t36 -85.5q0 -14 -3 -29q-10 -44 -51 -74t-92 -30q-56 0 -92 34t-36 85q0 9 4 29q10 44 50.5 74.5t91.5 30.5z" />
<glyph unicode="&#x22;" horiz-adv-x="737" d="M479 904h-210l115 542h210zM853 904h-210l115 542h210z" />
<glyph unicode="#" horiz-adv-x="1366" d="M1345 1076h174l-81 -190h-174l-157 -368h174l-81 -191h-174l-139 -327h-230l139 327h-257l-139 -327h-230l139 327h-164l81 191h164l157 368h-163l80 190h164l152 358h230l-152 -358h256l152 358h230zM777 886l-156 -368h256l156 368h-256z" />
<glyph unicode="$" horiz-adv-x="1394" d="M1127 1453l23 -3q214 -17 366 -116l-180 -174q-123 88 -334 88q-142 0 -255.5 -59t-136.5 -167q-3 -15 -3 -28q0 -36 21 -62.5t60.5 -43.5t75.5 -27t85 -21q20 -4 29 -6q88 -16 137 -27t121 -31t112.5 -44t82 -59t60 -84t18.5 -110q0 -45 -12 -99q-19 -89 -73 -160 t-132.5 -118.5t-169.5 -76.5t-195 -41l-55 -213h-239l55 213q-147 15 -273.5 68.5t-194.5 132.5l178 164q56 -73 174 -114t255 -41q94 0 176 23t146 76.5t80 129.5q4 20 4 42q0 26 -8 45.5t-26.5 33.5t-37.5 24t-54 18.5t-62 14t-74.5 14t-79.5 15.5q-65 12 -115.5 24 t-105 31t-93.5 43.5t-71.5 57.5t-49 77.5t-16.5 98.5q0 43 10 89q18 83 67 152t121 116.5t158 79t185 46.5l55 218h238z" />
<glyph unicode="%" horiz-adv-x="1923" d="M609 -35h-259l1266 1503h259zM723 1446q302 0 302 -276q0 -67 -18 -152q-18 -82 -46 -146t-75.5 -120.5t-123 -87t-176.5 -30.5q-301 0 -301 278q0 65 18 150q14 65 32.5 116.5t52 103.5t77 86.5t110 56t148.5 21.5zM718 1292q-95 0 -146 -65.5t-81 -207.5 q-16 -78 -16 -117q0 -58 27 -86.5t89 -28.5q93 0 145 66.5t83 208.5q16 78 16 117q0 56 -27 84.5t-90 28.5zM1641 800q302 0 302 -276q0 -66 -18 -151q-14 -65 -33.5 -117.5t-53 -104t-77.5 -86t-109.5 -56t-146.5 -21.5q-301 0 -301 279q0 69 17 149q14 65 32.5 116.5 t52 103.5t77 86.5t110 56t148.5 21.5zM1637 646q-95 0 -146.5 -65.5t-81.5 -207.5q-15 -73 -15 -116q0 -58 26.5 -87t88.5 -29q93 0 145 66.5t83 208.5q16 78 16 117q0 57 -26.5 85t-89.5 28z" />
<glyph unicode="&#x26;" horiz-adv-x="1464" d="M553 814l-60 83q-45 68 -45 147q0 38 11 90q16 76 52.5 134t84 93t110.5 57.5t126 30.5t137 8q88 0 157.5 -14t126.5 -46t88 -91t31 -142q0 -40 -5 -73q-14 -97 -69 -156.5t-159 -106.5l-224 -94l258 -337q31 33 46 100q5 27 5 45q0 42 -21 70l137 71q67 -84 67 -197 q0 -45 -13 -108q-27 -121 -90 -194l89 -118l-6 -67h-256l-39 48q-159 -80 -378 -80q-559 0 -559 347q0 50 12 109q51 237 277 348zM798 897l216 89q106 47 106 166q0 56 -42 78t-124 22q-103 0 -161 -30.5t-81 -113.5q-7 -25 -7 -53q0 -39 18 -61zM666 636l-103 -44 q-122 -68 -153 -211q-6 -28 -6 -53q0 -90 74.5 -127t207.5 -37q182 0 270 66z" />
<glyph unicode="'" horiz-adv-x="364" d="M479 904h-210l115 542h210z" />
<glyph unicode="(" horiz-adv-x="704" d="M927 1470l-23 -204q-92 -12 -167.5 -70t-132 -156.5t-98.5 -220.5t-75 -279q-50 -238 -50 -375q0 -139 48.5 -217t156.5 -93l-26 -203q-115 6 -196.5 44t-128.5 105t-68.5 151t-21.5 193q0 178 56 438q23 109 47 197t58.5 180.5t74.5 163t94.5 135.5t119.5 108t149 70.5 t183 32.5z" />
<glyph unicode=")" horiz-adv-x="704" d="M356 1268l27 202q115 -6 196.5 -43.5t128.5 -104.5t68.5 -151t21.5 -193q0 -179 -56 -439q-23 -109 -47 -197t-58.5 -180t-75 -163t-95.5 -135.5t-120 -108t-149 -71t-183 -32.5l24 205q92 12 167 69.5t132 156.5t98.5 220.5t75.5 279.5q49 230 49 370t-48.5 220 t-155.5 95z" />
<glyph unicode="*" horiz-adv-x="737" d="M724 1302l170 59l20 -160l-176 -47l79 -135l-151 -100l-64 143l-127 -143l-123 100l133 135l-155 47l86 160l151 -59l32 172h169z" />
<glyph unicode="+" horiz-adv-x="1062" d="M783 702h352l-44 -206h-351l-75 -351h-206l75 351h-351l43 206h352l74 351h206z" />
<glyph unicode="," horiz-adv-x="432" d="M231 -29l1 6q-6 -2 -13 -2q-58 0 -89.5 31t-31.5 78q0 48 35 85t99 37q72 0 103 -54q23 -39 23 -99q0 -38 -10 -88q-11 -50 -24.5 -84t-37 -63t-61 -43.5t-89.5 -14.5h-45l37 101h10q38 3 60 29t33 81z" />
<glyph unicode="-" horiz-adv-x="1001" d="M1056 622h-847l44 206h847z" />
<glyph unicode="." horiz-adv-x="411" d="M234 215q58 0 89.5 -31t31.5 -77q0 -48 -35 -84.5t-99 -36.5q-58 0 -89.5 30.5t-31.5 76.5q0 48 35 85t99 37z" />
<glyph unicode="/" horiz-adv-x="993" d="M312 -35h-258l933 1503h258z" />
<glyph unicode="0" horiz-adv-x="1411" d="M987 1406q141 0 241.5 -33.5t157.5 -97t82.5 -144t25.5 -184.5q0 -126 -33 -278q-26 -121 -61 -218.5t-95 -189t-138 -153t-192.5 -98.5t-256.5 -37q-507 0 -507 465q0 117 33 275q26 120 60 215.5t93 188t136.5 153.5t193.5 98.5t260 37.5zM979 1200q-108 0 -188 -33.5 t-136 -103.5t-92.5 -164t-65.5 -230q-32 -150 -32 -241q0 -127 61 -188t200 -61q205 0 315 130.5t168 403.5q32 152 32 244q0 124 -60.5 183.5t-201.5 59.5z" />
<glyph unicode="1" horiz-adv-x="727" d="M578 0h-262l247 1160l-271 -57l44 214l354 76h184z" />
<glyph unicode="2" horiz-adv-x="1294" d="M556 997l-239 22q20 95 60.5 164.5t94.5 112.5t129.5 69t155.5 35.5t183 9.5q116 0 202 -14.5t154.5 -48t104 -94.5t35.5 -149q0 -50 -14 -118q-20 -94 -55.5 -161.5t-82.5 -110.5t-116.5 -70t-144 -39.5t-178.5 -18.5q-208 -11 -312.5 -69.5t-133.5 -194.5l-23 -107h871 l-46 -215h-1121l73 341q20 96 63 169.5t101.5 122t140 81t171 49t201.5 22.5q160 8 243.5 59t110.5 179q6 29 6 52q0 78 -64.5 105.5t-195.5 27.5q-171 0 -259 -47.5t-115 -163.5z" />
<glyph unicode="3" horiz-adv-x="1304" d="M567 998l-246 22q22 92 64.5 160.5t97.5 111t128 68.5t147.5 36t164.5 10q493 0 493 -301q0 -40 -11 -93q-25 -119 -95.5 -191t-189.5 -113q190 -61 190 -257q0 -50 -11 -101q-19 -90 -64.5 -158t-104.5 -109t-139.5 -66.5t-160 -34.5t-175.5 -9q-509 0 -509 329 q0 49 12 106l241 -21q-6 -33 -6 -59q0 -46 18 -76.5t55.5 -46t82.5 -21.5t112 -6q165 0 265 54.5t128 188.5q6 31 6 56q0 35 -13 60.5t-35.5 41.5t-58.5 25t-76.5 12.5t-94.5 3.5h-237l42 195h219q142 0 229 48.5t112 166.5q6 27 6 48q0 72 -59 97.5t-179 25.5 q-152 0 -236.5 -45.5t-111.5 -157.5z" />
<glyph unicode="4" horiz-adv-x="1327" d="M1203 489h152l-44 -206h-151l-60 -283h-258l60 283h-777l44 223l966 892h262zM447 489h499l126 580z" />
<glyph unicode="5" horiz-adv-x="1284" d="M1388 1188h-745l-60 -280h244q492 0 492 -353q0 -64 -16 -137q-22 -106 -68.5 -186t-106 -129t-139 -79.5t-159 -41.5t-174.5 -11q-495 0 -495 345q0 54 12 117l267 -22q-7 -36 -7 -70q0 -94 60 -128.5t180 -34.5q157 0 251.5 63t126.5 221q10 44 10 83q0 92 -61.5 125 t-187.5 32h-534l147 692h1007z" />
<glyph unicode="6" horiz-adv-x="1339" d="M535 804l-9 -39q98 119 317 132q19 1 59 1q94 0 173.5 -19t145.5 -59.5t103.5 -112t37.5 -168.5q0 -59 -15 -129q-22 -104 -69 -182.5t-107 -126.5t-141 -77t-161.5 -40t-177.5 -11q-109 0 -193 21.5t-138.5 59.5t-89 94t-49 120t-14.5 143q0 131 37 302 q18 86 37.5 154.5t50.5 143t68.5 130t91.5 107.5t120 85.5t154 53t193 19.5q231 0 354 -94t147 -250l-253 -39q-15 99 -70.5 138t-185.5 39q-94 0 -164 -26t-118 -80t-78.5 -122.5t-55.5 -167.5zM851 709q-152 0 -251 -53t-142 -178q-5 -36 -5 -81q0 -108 56 -162.5 t193 -54.5q82 0 145 13.5t117.5 44.5t90.5 88t54 140q9 45 9 78q0 40 -12.5 69.5t-34.5 47.5t-56.5 29t-73 15t-90.5 4z" />
<glyph unicode="7" horiz-adv-x="1222" d="M1418 1265l-947 -1265h-294l906 1192h-752l43 206h1069z" />
<glyph unicode="8" horiz-adv-x="1398" d="M981 1406q514 0 514 -303q0 -44 -10 -91q-24 -113 -92 -183.5t-184 -112.5q184 -64 184 -255q0 -50 -11 -101q-20 -93 -66.5 -162.5t-108 -111.5t-145 -68t-166.5 -35.5t-183 -9.5q-546 0 -546 330q0 47 12 101q28 130 108 210t215 125q-159 61 -159 227q0 43 10 89 q17 83 60.5 145.5t101 101t136 62.5t157.5 33t173 9zM972 1201q-150 0 -239.5 -48.5t-114.5 -165.5q-6 -25 -6 -47q0 -72 60 -98t182 -26q150 0 239 48t114 166q6 27 6 48q0 72 -59.5 97.5t-181.5 25.5zM848 611q-168 0 -267.5 -54t-127.5 -184q-6 -28 -6 -53q0 -81 68 -111 t205 -30q167 0 266 53t127 185q6 30 6 54q0 82 -67 111t-204 29z" />
<glyph unicode="9" horiz-adv-x="1339" d="M1095 569l10 42q-91 -114 -321 -128q-20 -1 -60 -1q-96 0 -174.5 18.5t-143.5 58t-101 110t-36 166.5q0 56 16 134q22 104 69 182.5t107 126.5t141 77t161.5 40t177.5 11q136 0 232.5 -32t150 -92.5t77.5 -136.5t24 -176q0 -131 -37 -302q-18 -86 -37.5 -154.5 t-50.5 -143t-68.5 -130.5t-91.5 -108t-120 -85t-154 -53t-193 -20q-230 0 -353.5 94.5t-147.5 250.5l253 38q15 -99 70.5 -138t185.5 -39q94 0 163 26t117 79t78.5 120.5t55.5 164.5zM930 1200q-82 0 -145 -13.5t-117.5 -44.5t-90.5 -88t-54 -140q-9 -45 -9 -79 q0 -95 66.5 -129.5t200.5 -34.5q153 0 251.5 52.5t141.5 177.5q5 36 5 81q0 108 -56 163t-193 55z" />
<glyph unicode=":" horiz-adv-x="413" d="M399 993q58 0 89.5 -30.5t31.5 -76.5q0 -48 -35 -85t-99 -37q-58 0 -89.5 31t-31.5 77q0 48 35 84.5t99 36.5zM235 215q58 0 89.5 -31t31.5 -77q0 -48 -35 -84.5t-99 -36.5q-58 0 -89.5 30.5t-31.5 76.5q0 48 35 85t99 37z" />
<glyph unicode=";" horiz-adv-x="434" d="M399 993q58 0 89.5 -30.5t31.5 -76.5q0 -48 -35 -85t-99 -37q-58 0 -89.5 31t-31.5 77q0 48 35 84.5t99 36.5zM232 -29l1 6q-6 -2 -13 -2q-58 0 -89.5 31t-31.5 78q0 48 35 85t99 37q73 0 104 -54q22 -37 22 -99q0 -38 -10 -88q-11 -50 -24.5 -84t-37 -63t-61 -43.5 t-89.5 -14.5h-45l38 101h10q38 3 59.5 29t32.5 81z" />
<glyph unicode="&#x3c;" horiz-adv-x="962" d="M1032 703l-53 -265l-899 -433l47 239l628 326l-486 326l48 240z" />
<glyph unicode="=" horiz-adv-x="1062" d="M1132 688h-909l44 205h908zM1043 270h-908l43 206h908z" />
<glyph unicode="&#x3e;" horiz-adv-x="962" d="M1077 896l-627 -326l485 -326l-48 -239l-715 433l53 265l900 433z" />
<glyph unicode="?" horiz-adv-x="1277" d="M562 1057l-256 22q19 90 61.5 157.5t98.5 109t132 67t153 35t171 9.5q510 0 510 -317q0 -51 -11 -102q-19 -90 -56.5 -158.5t-77.5 -107.5t-98 -67.5t-98.5 -40.5t-97.5 -25l-15 -3q-86 -14 -137.5 -50.5t-69.5 -115.5l-19 -83h-261l43 205q12 57 36 99t47 66t70 44 t75.5 28t93.5 23l12 3q46 8 75.5 15t71 24t68.5 40t51.5 63t35.5 93q5 27 5 42q0 70 -62.5 95t-189.5 25q-320 0 -361 -195zM571 239q56 0 92 -34.5t36 -85.5q0 -14 -3 -29q-10 -44 -51 -74t-92 -30q-56 0 -92 34t-36 85q0 14 3 29q10 44 51 74.5t92 30.5z" />
<glyph unicode="@" horiz-adv-x="2013" d="M1170 -215l29 -231q-126 -33 -276 -33q-182 0 -327.5 53.5t-241 151t-146 232.5t-50.5 299q0 124 28 257q43 203 141.5 376t240 299.5t330 198t401.5 71.5q181 0 327.5 -51.5t244.5 -144t151 -222.5t53 -286q0 -109 -27 -229q-48 -212 -207 -339t-367 -127h-270l17 98 q-123 -116 -294 -116q-144 0 -232 82t-88 236q0 60 15 132q40 186 177 293.5t305 107.5q140 0 229 -79l23 75h204l-127 -594l90 2q105 4 187 77t109 196q21 92 21 172q0 223 -147 352.5t-408 129.5q-333 0 -565.5 -207t-305.5 -547q-22 -104 -22 -201q0 -240 141 -376.5 t404 -136.5q103 0 233 29zM1234 332l78 329q-39 69 -155 69q-126 0 -219.5 -77.5t-121.5 -205.5q-9 -43 -9 -79q0 -81 45.5 -123t132.5 -42q136 0 249 129z" />
<glyph unicode="A" horiz-adv-x="1572" d="M1505 0h-269l-58 320h-642l-195 -320h-279l893 1434h266zM660 536h485l-109 612z" />
<glyph unicode="B" horiz-adv-x="1411" d="M467 1434h664q170 0 264.5 -84.5t94.5 -222.5q0 -46 -10 -90q-44 -202 -233 -297q76 -31 117.5 -100t41.5 -163q0 -44 -11 -97q-36 -171 -172.5 -275.5t-343.5 -104.5h-717zM1074 1225h-389l-82 -384h402q85 4 142 56t75 138q6 28 6 52q0 65 -39.5 101.5t-114.5 36.5z M557 630l-89 -420h409q99 0 165 56.5t87 155.5q7 35 7 57q0 71 -44 111t-125 40h-410z" />
<glyph unicode="C" horiz-adv-x="1425" d="M1223 325l144 -191q-213 -154 -503 -154q-149 0 -266.5 42.5t-193 118.5t-115 180t-39.5 229q0 95 20 189q32 152 108 282.5t186 227.5t259 152t318 55q293 0 461 -170l-196 -158q-84 110 -275 110q-230 0 -392.5 -147t-215.5 -395q-17 -82 -17 -148q0 -166 94.5 -258.5 t273.5 -92.5q203 0 349 128z" />
<glyph unicode="D" horiz-adv-x="1509" d="M467 1434h485q292 0 452 -150t160 -403q0 -87 -21 -185q-33 -154 -108.5 -282t-186 -220t-260 -143t-322.5 -51h-504zM470 217h224q230 0 387 137.5t210 385.5q16 74 16 142q0 162 -97.5 248t-285.5 86h-242z" />
<glyph unicode="E" horiz-adv-x="1224" d="M1394 1218h-711l-80 -373h652l-45 -215h-652l-88 -415h711l-46 -215h-973l305 1434h973z" />
<glyph unicode="F" horiz-adv-x="1191" d="M1362 1218h-679l-84 -394h620l-46 -216h-620l-129 -608h-262l305 1434h941z" />
<glyph unicode="G" horiz-adv-x="1597" d="M1625 823l-118 -577q-121 -130 -285 -199.5t-359 -69.5q-292 0 -452.5 157.5t-160.5 415.5q0 91 21 190q32 152 108 282.5t186 227t258.5 151.5t317.5 55q178 0 308 -60t209 -166l-173 -134q-133 142 -352 142q-222 0 -389.5 -146t-220.5 -396q-17 -82 -17 -148 q0 -168 95 -260.5t272 -92.5q224 0 387 142l66 280h-345l44 206h600z" />
<glyph unicode="H" horiz-adv-x="1517" d="M1355 0h-262l130 609h-670l-129 -609h-262l305 1434h261l-129 -609h670l129 609h262z" />
<glyph unicode="I" horiz-adv-x="585" d="M424 0h-262l305 1434h261z" />
<glyph unicode="J" horiz-adv-x="1056" d="M1200 1434l-187 -877q-22 -102 -54.5 -184t-86 -155t-124.5 -122t-171 -77.5t-223 -28.5q-164 0 -274 54l69 172q81 -21 212 -21q173 0 262.5 92t132.5 292l182 855h262z" />
<glyph unicode="K" horiz-adv-x="1372" d="M903 786l401 -786h-319l-283 585l-191 -180l-89 -405h-260l305 1434h260l-142 -651l660 651h330z" />
<glyph unicode="L" d="M467 206h687l-44 -206h-948l305 1434h261z" />
<glyph unicode="M" horiz-adv-x="1845" d="M1682 0h-261l191 885l-575 -884h-238l-198 884l-191 -885h-262l305 1434h303l219 -1125l703 1125h309z" />
<glyph unicode="N" horiz-adv-x="1480" d="M1334 0h-293l-413 1013l-218 -1013h-262l305 1434h292l414 -1010l218 1010h261z" />
<glyph unicode="O" horiz-adv-x="1701" d="M1141 1456q295 0 455.5 -157t160.5 -414q0 -91 -21 -189q-33 -154 -108.5 -285t-185.5 -228t-259 -151.5t-320 -54.5q-292 0 -452.5 157.5t-160.5 415.5q0 95 20 189q32 152 108 282.5t186 227.5t259 152t318 55zM1131 1238q-230 0 -392.5 -147t-215.5 -395 q-17 -82 -17 -147q0 -167 95.5 -260t272.5 -93q232 0 394 146t216 397q17 80 17 147q0 166 -95.5 259t-274.5 93z" />
<glyph unicode="P" horiz-adv-x="1396" d="M467 1434h609q204 0 316.5 -106.5t112.5 -282.5q0 -58 -14 -125q-45 -212 -205.5 -341t-400.5 -129h-366l-95 -450h-262zM684 1222l-119 -560h339q131 0 220 75.5t117 206.5q9 41 9 77q0 95 -58 148t-167 53h-341z" />
<glyph unicode="Q" horiz-adv-x="1720" d="M1463 -78l-145 181q-197 -126 -455 -126q-292 0 -452.5 157.5t-160.5 415.5q0 91 21 190q32 152 108 282.5t186 227t258.5 151.5t317.5 55q295 0 455.5 -157t160.5 -414q0 -91 -21 -189q-55 -258 -221 -435l143 -172zM1131 1238q-230 0 -392.5 -147t-215.5 -395 q-17 -82 -17 -147q0 -167 95.5 -260t272.5 -93q232 0 394 146.5t216 397.5q17 80 17 146q0 166 -95.5 259t-274.5 93z" />
<glyph unicode="R" horiz-adv-x="1423" d="M467 1434h608q195 0 303 -102t108 -270q0 -60 -13 -119q-34 -160 -140 -272.5t-272 -152.5l271 -518h-301l-241 495h-261l-105 -495h-262zM682 1222l-110 -517h337q121 0 203 70t108 191q8 40 8 70q0 88 -53 137t-154 49h-339z" />
<glyph unicode="S" horiz-adv-x="1409" d="M124 185l178 164q56 -73 174 -114t255 -41q94 0 176 23t146 76.5t80 129.5q4 20 4 42q0 26 -8 45.5t-26.5 33.5t-37.5 24t-54 18.5t-62 14t-74.5 14t-79.5 15.5q-65 12 -115.5 24t-105 31t-93.5 43.5t-71.5 57.5t-49 77.5t-16.5 98.5q0 43 10 89q22 102 89.5 182.5 t164 128.5t207.5 72.5t230 24.5q136 0 259 -33t215 -92l-179 -174q-123 88 -335 88q-142 0 -255 -59t-136 -167q-3 -15 -3 -28q0 -36 21 -62.5t60.5 -43.5t75.5 -27t85 -21q20 -4 29 -6q88 -16 137 -27t121 -31t112.5 -44t82 -59t60 -84t18.5 -110q0 -45 -12 -99 q-22 -102 -90 -182t-164.5 -127.5t-206.5 -71.5t-226 -24q-183 0 -345 57t-245 153z" />
<glyph unicode="T" horiz-adv-x="1372" d="M1566 1218h-490l-259 -1218h-262l259 1218h-491l46 216h1243z" />
<glyph unicode="U" horiz-adv-x="1511" d="M1669 1434l-168 -789q-26 -121 -63 -218t-96 -183.5t-136.5 -144t-186.5 -91t-243 -33.5q-500 0 -500 451q0 109 28 241l163 767h261l-162 -766q-29 -139 -29 -219q0 -122 60 -178.5t194 -56.5q195 0 300.5 116t157.5 360l158 744h262z" />
<glyph unicode="V" horiz-adv-x="1546" d="M899 0h-246l-281 1434h268l193 -1128l678 1128h278z" />
<glyph unicode="W" horiz-adv-x="2240" d="M1557 1434l91 -1019l541 1019h295l-802 -1434h-251l-98 981l-519 -981h-251l-191 1434h284l104 -1019l528 1019h269z" />
<glyph unicode="X" horiz-adv-x="1484" d="M1067 725l350 -725h-293l-259 552l-498 -552h-306l665 728l-321 706h293l230 -533l462 533h306z" />
<glyph unicode="Y" horiz-adv-x="1509" d="M1010 570l-125 -570h-261l124 570l-375 864h294l252 -629l527 629h307z" />
<glyph unicode="Z" horiz-adv-x="1333" d="M1517 1296l-1027 -1081h808l-46 -215h-1171l26 137l1028 1081h-729l46 216h1090z" />
<glyph unicode="[" horiz-adv-x="651" d="M846 1280h-258l-303 -1427h258l-40 -187h-497l383 1802h497z" />
<glyph unicode="\" horiz-adv-x="993" d="M920 -35h-247l-294 1503h247z" />
<glyph unicode="]" horiz-adv-x="651" d="M503 -334h-497l40 187h258l303 1427h-258l40 188h497z" />
<glyph unicode="^" horiz-adv-x="1275" d="M1357 766h-282l-176 433l-366 -433h-297l572 651h255z" />
<glyph unicode="_" horiz-adv-x="1138" d="M990 -340h-985l44 205h985z" />
<glyph unicode="`" horiz-adv-x="624" d="M816 1256l-153 -151l-290 289l153 151z" />
<glyph unicode="a" d="M382 778l-45 163q221 108 449 108q117 0 210.5 -34t152 -107.5t58.5 -175.5q0 -34 -10 -84l-137 -648h-224l21 124q-144 -135 -336 -150q-28 -2 -43 -2q-143 0 -240.5 78t-97.5 212q0 37 9 79q18 83 66.5 147t116 102t144.5 57t159 19q168 0 291 -69l18 79q4 21 4 44 q0 75 -59 112t-152 37q-89 0 -185 -26.5t-170 -64.5zM861 288l36 169q-80 51 -209 51q-113 0 -200.5 -50t-107.5 -145q-3 -16 -3 -31q0 -58 50 -89t128 -30q3 0 10 0.5t11 0.5q163 6 285 124z" />
<glyph unicode="b" horiz-adv-x="1286" d="M696 1473l-125 -556q104 75 186.5 103.5t168.5 28.5q181 0 288 -103.5t107 -292.5q0 -74 -18 -161q-53 -249 -210 -382t-361 -133q-107 0 -196 42t-135 123l-47 -142h-225l313 1473h254zM533 688l-87 -371q51 -139 218 -139q151 0 255.5 95.5t139.5 261.5q13 58 13 109 q0 203 -217 203q-81 0 -154.5 -36t-167.5 -123z" />
<glyph unicode="c" horiz-adv-x="1067" d="M899 255l120 -173q-152 -107 -368 -107q-224 0 -345 118t-121 308q0 64 15 133q23 106 77.5 199t135.5 163.5t192.5 111.5t238.5 41q223 0 340 -119l-163 -141q-41 58 -167 58q-151 0 -263 -98t-147 -259q-9 -40 -9 -88q0 -107 64 -166t177 -59q60 0 121 21.5t102 56.5z " />
<glyph unicode="d" horiz-adv-x="1286" d="M1156 0h-223l20 125q-149 -148 -374 -148q-180 0 -288.5 103t-108.5 294q0 74 18 162q52 245 207.5 379t360.5 134q94 0 168 -33t151 -113l129 570h253zM970 337l87 371q-55 82 -106 110.5t-124 28.5q-149 0 -247.5 -93t-134.5 -263q-12 -54 -12 -99q0 -103 58 -158.5 t170 -55.5q84 0 164.5 39t144.5 120z" />
<glyph unicode="e" horiz-adv-x="1220" d="M1004 258l95 -141q-185 -140 -450 -140q-224 0 -344 116.5t-120 305.5q0 65 15 136q31 144 113 259t218 185.5t303 70.5q215 0 328 -102.5t113 -281.5q0 -69 -16 -140q-11 -56 -32 -108h-803q-7 -123 58 -188t189 -65q162 0 333 93zM463 574h575q10 30 15 61q5 26 5 59 q0 87 -55 126t-166 39q-141 0 -237 -75t-131 -193z" />
<glyph unicode="f" horiz-adv-x="800" d="M1117 1527l-21 -185q-148 4 -257 -69q-64 -42 -103 -100.5t-59 -148.5h285l-40 -190h-286l-287 -1346h-253l286 1346h-154l40 190h153q70 323 270 434q129 74 324 74q44 0 102 -5z" />
<glyph unicode="g" horiz-adv-x="1230" d="M482 133l150 5q489 5 489 -272q0 -38 -9 -81q-61 -289 -537 -308q-23 -1 -66 -1q-74 0 -141 8.5t-131.5 29t-111 52t-75 81.5t-28.5 113q0 30 8 70q20 94 75.5 155t147.5 102q-34 11 -55 40t-19 67q-4 47 35 102.5t120 104.5q-73 66 -73 194q0 45 13 108 q38 181 178.5 274.5t342.5 93.5q140 0 244 -52l331 5l-31 -149l-190 -25q46 -48 46 -125q0 -28 -8 -66q-40 -189 -175.5 -278t-345.5 -89q-101 0 -158 12q-52 -20 -81.5 -52t-31.5 -69q7 -42 87 -50zM790 876q-117 0 -194 -55t-100 -162q-6 -29 -6 -51q0 -64 45 -93t136 -29 q119 0 195 55t99 162q6 27 6 49q0 124 -181 124zM600 -49q-150 0 -229 -36t-99 -130q-3 -12 -3 -23q0 -56 66 -77t196 -21q139 0 227.5 41t106.5 125q4 16 4 33q0 21 -7 36t-25 24.5t-36.5 15t-54.5 8.5t-65 3.5t-81 0.5z" />
<glyph unicode="h" horiz-adv-x="1255" d="M710 1473l-127 -570q101 76 181.5 112t171.5 36q94 0 172 -33t129.5 -105t51.5 -172q0 -45 -10 -92l-138 -649h-254l132 619q8 40 8 69q0 82 -48.5 120.5t-124.5 38.5q-72 0 -140 -35t-166 -124l-151 -688h-254l313 1473h254z" />
<glyph unicode="i" horiz-adv-x="540" d="M565 1434q56 0 92 -34.5t36 -85.5q0 -13 -3 -28q-10 -44 -51 -74.5t-92 -30.5q-56 0 -92 34.5t-36 85.5q0 13 3 28q10 44 51 74.5t92 30.5zM405 0h-254l218 1024h254z" />
<glyph unicode="j" horiz-adv-x="546" d="M570 1434q56 0 92 -34.5t36 -85.5q0 -13 -3 -28q-10 -44 -51 -74.5t-92 -30.5q-56 0 -92 34.5t-36 85.5q0 8 4 28q10 44 50.5 74.5t91.5 30.5zM628 1024l-224 -1053q-63 -294 -280 -411q-152 -76 -351 -76l22 190q63 3 120 25t94 59q108 57 146 236l219 1030h254z" />
<glyph unicode="k" horiz-adv-x="1163" d="M525 621l463 403h295l-476 -419l305 -605h-291l-199 424l-159 -130l-66 -294h-254l313 1471h254z" />
<glyph unicode="l" horiz-adv-x="712" d="M710 1473l-225 -1060q-11 -53 -11 -89q0 -61 28 -95q47 -52 185 -51l-23 -192q-227 -9 -341 93q-100 87 -100 241q0 56 13 115l220 1038h254z" />
<glyph unicode="m" horiz-adv-x="1878" d="M570 1024l-21 -122q95 77 172.5 113t164.5 36q101 0 182.5 -44t115.5 -119q110 88 195.5 125.5t181.5 37.5q93 0 170.5 -33t128.5 -104.5t51 -171.5q0 -46 -10 -93l-138 -649h-254l132 619q8 36 8 74q0 80 -43.5 117t-113.5 37q-67 0 -128 -31t-149 -116q-3 -47 -9 -78 l-133 -622h-253l131 619q9 41 9 74q0 80 -44 117t-114 37q-63 0 -122.5 -32t-141.5 -108l-155 -707h-254l218 1024h223z" />
<glyph unicode="n" horiz-adv-x="1261" d="M570 1024l-22 -126q104 78 190 115.5t184 37.5q73 0 139 -19.5t118.5 -57t84 -99t31.5 -137.5q0 -45 -10 -89l-138 -649h-254l131 619q8 38 8 66q0 83 -51.5 122.5t-133.5 39.5q-73 0 -141.5 -32t-167.5 -114l-155 -701h-254l218 1024h223z" />
<glyph unicode="o" horiz-adv-x="1304" d="M857 1049q231 0 355.5 -116t124.5 -308q0 -65 -15 -135q-49 -227 -222 -371t-435 -144q-232 0 -356 118t-124 308q0 64 15 133q23 108 78.5 201t138 163.5t196 110.5t244.5 40zM850 847q-150 0 -261 -97t-145 -260q-10 -46 -10 -90q0 -106 62 -164.5t176 -58.5 q153 0 262 95t144 262q10 49 10 94q0 107 -62 163t-176 56z" />
<glyph unicode="p" horiz-adv-x="1298" d="M584 1024l-20 -125q149 148 374 148q185 0 291.5 -100.5t106.5 -290.5q0 -79 -19 -168q-35 -164 -120 -281.5t-200 -174.5t-249 -57q-94 0 -168 33.5t-150 112.5l-128 -570h-254l313 1473h223zM547 687l-87 -371q55 -82 106 -110.5t124 -28.5q149 0 247.5 93t134.5 263 q12 54 12 99q0 103 -58 158.5t-170 55.5q-84 0 -164.5 -39t-144.5 -120z" />
<glyph unicode="q" horiz-adv-x="1286" d="M807 -449l125 556q-104 -75 -186.5 -103.5t-168.5 -28.5q-181 0 -288.5 103.5t-107.5 292.5q0 69 19 161q54 252 207.5 383.5t363.5 131.5q107 0 196 -42t135 -123l46 142h226l-313 -1473h-254zM970 336l86 371q-51 139 -217 139q-151 0 -255.5 -95.5t-139.5 -261.5 q-13 -58 -13 -109q0 -203 217 -203q81 0 154.5 36t167.5 123z" />
<glyph unicode="r" horiz-adv-x="741" d="M927 1050l-44 -204h-39q-71 0 -152.5 -40t-158.5 -126l-150 -680h-254l218 1024h223l-24 -145q167 168 361 171h20z" />
<glyph unicode="s" horiz-adv-x="1030" d="M93 133l92 148q45 -44 142 -76t200 -32q93 0 163 33t91 97q8 23 8 44q0 11 -2.5 21t-9.5 17.5t-13 13.5t-18.5 11t-20 8.5t-24.5 7t-25.5 5.5t-29 5.5t-28.5 5.5q-74 11 -122.5 21.5t-100.5 29t-81.5 42.5t-48.5 61.5t-19 86.5q0 34 9 76q21 96 100 163t182.5 96 t221.5 29q223 0 369 -102l-90 -153q-52 30 -127 49t-150 19q-67 0 -124.5 -15.5t-97 -51.5t-39.5 -86q0 -40 31.5 -59t92.5 -31q53 -8 81.5 -12.5t74 -13.5t71.5 -18.5t60 -23.5t53 -31.5t37.5 -41t26.5 -53.5t8 -67q0 -44 -9 -84q-15 -72 -63.5 -128t-118 -89.5t-148 -50 t-161.5 -16.5q-138 0 -258.5 39t-184.5 106z" />
<glyph unicode="t" horiz-adv-x="823" d="M686 1024h248l-41 -190h-247l-91 -424q-8 -36 -8 -74q0 -61 30 -97q50 -56 182 -62l-22 -191q-237 -3 -352 102q-92 84 -92 227q0 56 13 117l86 402h-170l41 190h169l59 277h254z" />
<glyph unicode="u" horiz-adv-x="1247" d="M1133 0h-224l22 126q-104 -78 -190 -115.5t-184 -37.5q-99 0 -181 33t-136.5 106t-54.5 174q0 49 9 89l139 649h253l-131 -619q-8 -38 -8 -66q0 -83 51.5 -122.5t133.5 -39.5q73 0 142 32t168 114l154 701h254z" />
<glyph unicode="v" horiz-adv-x="1161" d="M714 0h-261l-196 1024h253l121 -762l450 762h264z" />
<glyph unicode="w" horiz-adv-x="1714" d="M1311 0h-256l-60 629l-332 -629h-255l-151 1024h252l85 -714l369 714h219l61 -714l393 714h262z" />
<glyph unicode="x" horiz-adv-x="1118" d="M825 512l254 -512h-265l-171 355l-332 -355h-278l481 513l-237 511h264l158 -342l307 342h278z" />
<glyph unicode="y" horiz-adv-x="1187" d="M1372 1024l-753 -1227q-106 -168 -263 -256q-138 -51 -341 -51l21 188q130 0 226 50q114 55 189 176l58 96h-26l-200 1024h252l124 -754l449 754h264z" />
<glyph unicode="z" horiz-adv-x="999" d="M1125 930l-687 -740h538l-40 -190h-878l18 97l683 737h-483l41 191h825z" />
<glyph unicode="{" horiz-adv-x="778" d="M1003 1466l-20 -186q-264 -29 -315 -266l-49 -231q-35 -164 -194 -234q45 -23 72.5 -69.5t27.5 -107.5q0 -22 -7 -57l-49 -231q-9 -44 -9 -78q0 -79 48 -119t149 -51l-22 -184q-414 19 -414 330q0 60 14 123l49 231q6 32 6 43q0 37 -24 56.5t-82 22.5l25 203 q75 4 118.5 44.5t56.5 99.5l49 230q20 95 59 168t90 120.5t119 79t141 46t161 17.5z" />
<glyph unicode="|" horiz-adv-x="415" d="M276 -295h-262l390 1831h261z" />
<glyph unicode="}" horiz-adv-x="778" d="M359 1282l22 184q192 -7 303 -86t111 -244q0 -59 -14 -122l-49 -231q-5 -27 -5 -43q0 -36 24 -56t82 -23l-25 -202q-74 -4 -118.5 -45t-56.5 -99l-49 -231q-25 -118 -77.5 -202t-129 -132t-164 -70.5t-198.5 -27.5l19 186q266 31 316 267l49 231q35 164 193 234 q-45 23 -72.5 69.5t-27.5 107.5q0 28 6 58l49 230q9 42 9 77q0 78 -48 118.5t-149 51.5z" />
<glyph unicode="~" horiz-adv-x="1073" d="M303 464l-112 91q135 192 289 192q37 0 77.5 -12.5t66.5 -26t67 -37.5q96 -56 172 -51q51 1 93 29t66 73l112 -91q-116 -176 -268 -176q-87 0 -192 63q-108 64 -178 64q-118 0 -193 -118z" />
<glyph unicode="&#xa1;" horiz-adv-x="432" d="M427 1079q56 0 92 -34.5t36 -85.5q0 -13 -3 -28q-10 -44 -51 -74.5t-92 -30.5q-56 0 -92 34.5t-36 85.5q0 13 3 28q10 44 51 74.5t92 30.5zM268 -369h-262l230 1045h247z" />
<glyph unicode="&#xa2;" horiz-adv-x="1042" d="M919 1041l9 -4q149 -20 240 -107l-162 -141q-41 58 -168 58q-151 0 -262.5 -98t-146.5 -259q-10 -44 -10 -88q0 -107 64 -166t177 -59q60 0 121.5 21.5t102.5 56.5l119 -173q-115 -78 -280 -98h-28l-37 -170h-237l49 189q-144 35 -222 141.5t-78 257.5q0 68 14 132 q39 183 166.5 318t320.5 177l47 182h237z" />
<glyph unicode="&#xa3;" horiz-adv-x="1312" d="M249 807l149 1q-3 42 -3 88q0 87 18 173q25 109 77.5 186t128.5 121t165.5 64t200.5 20q450 0 450 -305q0 -29 -7 -78h-249q3 21 3 38q0 72 -49 97.5t-149 25.5q-260 0 -314 -237q-12 -54 -12 -124q0 -24 2 -70h510l-48 -216h-454q-8 -91 -32 -153q-38 -108 -167 -232 l811 9l-45 -215h-1156l38 219q164 125 226 233q46 70 52 140h-192z" />
<glyph unicode="&#xa4;" horiz-adv-x="1585" />
<glyph unicode="&#xa5;" horiz-adv-x="1509" d="M1208 796h141l-40 -188h-258l-53 -78l-17 -82h294l-40 -187h-294l-56 -261h-261l55 260h-295l40 188h295l17 81l-19 79h-259l40 188h149l-274 638h294l252 -629l527 629h307z" />
<glyph unicode="&#xa6;" horiz-adv-x="415" d="M498 749h-262l168 787h261zM277 -295h-262l167 788h262z" />
<glyph unicode="&#xa7;" horiz-adv-x="1179" d="M46 -164l138 167q50 -55 158 -96t223 -42q116 0 199.5 49t102.5 141q4 24 4 32q0 22 -8.5 39t-24 28t-38 19.5t-47 15t-56.5 13.5q-15 3 -23 5q-69 12 -114.5 22t-98 26t-85 36t-61 48t-41.5 67t-13 88q0 50 11 99q33 154 206 255q-103 58 -103 187q0 40 10 86 q19 90 76 160.5t137.5 112.5t173 63.5t191.5 21.5q216 0 376 -97l-147 -173q-118 63 -267 63q-110 0 -194 -46.5t-102 -130.5q-3 -15 -3 -28q0 -34 26 -57.5t49 -31t79 -19.5q6 -2 10.5 -3t9.5 -2q54 -10 86 -16t79 -17t74.5 -22.5t62 -28t54.5 -37t39 -47t27 -61t8 -75.5 q0 -48 -12 -108q-32 -145 -187 -246q86 -58 86 -184q0 -44 -12 -98q-19 -90 -76 -160t-136 -112t-169 -63t-185 -21q-153 0 -288 48t-205 130zM759 739l-44 5q-76 -16 -133.5 -61t-71.5 -112q-4 -20 -4 -28q0 -21 10 -37.5t21 -26t38 -19t42.5 -13.5t52.5 -13 q93 -10 137 -22q72 20 122 63t64 107q4 16 4 33q0 20 -5.5 35t-20 26.5t-27 19t-39 14t-43 10t-51.5 10t-52 9.5z" />
<glyph unicode="&#xa8;" horiz-adv-x="913" d="M505 1409q58 0 89.5 -30.5t31.5 -76.5q0 -48 -35 -85t-99 -37q-58 0 -89 30.5t-31 77.5q0 48 34.5 84.5t98.5 36.5zM971 1409q58 0 89.5 -30.5t31.5 -76.5q0 -48 -34.5 -85t-98.5 -37q-58 0 -89.5 30.5t-31.5 77.5q0 48 34.5 84.5t98.5 36.5z" />
<glyph unicode="&#xa9;" horiz-adv-x="1628" d="M1105 1454q133 0 247.5 -46t194 -125.5t124.5 -190.5t45 -238q0 -82 -17 -159q-31 -146 -116 -278.5t-201.5 -228t-261.5 -152t-292 -56.5q-133 0 -247.5 46t-194 125.5t-124.5 190.5t-45 238q0 82 17 159q31 146 116 278.5t201.5 228t261.5 152t292 56.5zM1105 1286 q-157 0 -308.5 -79.5t-259 -215.5t-141.5 -294q-12 -59 -12 -112q0 -187 124 -310t320 -123q157 0 309 79.5t260 215.5t141 294q12 59 12 112q0 187 -124.5 310t-320.5 123zM1088 544l97 -134q-114 -89 -278 -89q-162 0 -250.5 88.5t-88.5 229.5q0 47 11 100 q34 162 158 267.5t302 105.5q170 0 264 -105l-126 -98q-21 37 -51.5 50.5t-79.5 13.5q-114 0 -196.5 -75.5t-109.5 -202.5q-9 -39 -9 -73q0 -78 43.5 -119.5t126.5 -41.5q111 0 187 83z" />
<glyph unicode="&#xaa;" horiz-adv-x="991" d="M530 1268l-58 103q148 75 311 75q127 0 212.5 -59.5t85.5 -165.5q0 -27 -6 -57l-94 -443h-168l15 72q-95 -82 -216 -91q-9 -1 -26 -1q-103 0 -173.5 57t-70.5 153q0 27 6 55q23 108 117.5 164t211.5 56q111 0 205 -49l11 57q2 12 2 18q0 57 -51.5 85t-125.5 24 q-101 -6 -188 -53zM837 927l24 107q-52 33 -131 33q-76 0 -136.5 -34t-74.5 -100q-2 -14 -2 -19q0 -37 32.5 -55.5t82.5 -16.5q138 4 205 85z" />
<glyph unicode="&#xab;" horiz-adv-x="1230" d="M862 987l-373 -386l208 -385l-181 -126l-311 511l516 511zM1364 987l-374 -386l209 -385l-181 -126l-312 511l517 511z" />
<glyph unicode="&#xac;" horiz-adv-x="1585" />
<glyph unicode="&#xad;" horiz-adv-x="1001" d="M1056 622h-847l44 206h847z" />
<glyph unicode="&#xae;" horiz-adv-x="1628" d="M1105 1454q133 0 247.5 -46t194 -125.5t124.5 -190.5t45 -238q0 -82 -17 -159q-31 -146 -116 -278.5t-201.5 -228t-261.5 -152t-292 -56.5q-133 0 -247.5 46t-194 125.5t-124.5 190.5t-45 238q0 82 17 159q31 146 116 278.5t201.5 228t261.5 152t292 56.5zM1105 1286 q-157 0 -308.5 -79.5t-259 -215.5t-141.5 -294q-12 -59 -12 -112q0 -187 124 -310t320 -123q157 0 309 79.5t260 215.5t141 294q12 59 12 112q0 187 -124.5 310t-320.5 123zM757 1083h303q99 0 156 -56t57 -144q0 -92 -51 -162.5t-146 -98.5l132 -256h-172l-102 234h-128 l-50 -234h-151zM834 729h150q53 0 88.5 31t46.5 86q4 24 4 33q0 39 -23 60.5t-67 21.5h-151z" />
<glyph unicode="&#xaf;" horiz-adv-x="792" d="M995 1311h-639l33 154h639z" />
<glyph unicode="&#xb0;" horiz-adv-x="819" d="M742 1647q128 0 207.5 -76.5t79.5 -190.5q0 -34 -7 -65q-25 -118 -134 -203t-242 -85q-128 0 -207.5 76.5t-79.5 190.5q0 34 7 65q25 118 134 203t242 85zM747 1502q-70 0 -139 -53.5t-86 -133.5q-3 -15 -3 -30q0 -51 36 -82t86 -31q70 0 139 53.5t86 133.5q3 15 3 30 q0 51 -36 82t-86 31z" />
<glyph unicode="&#xb1;" horiz-adv-x="1062" d="M824 892h351l-44 -206h-351l-70 -331h-206l70 331h-351l44 206h351l70 331h206zM968 -80h-908l44 205h908z" />
<glyph unicode="&#xb2;" horiz-adv-x="780" d="M527 1214l-173 23q26 119 110.5 164t221.5 45q279 0 279 -182q0 -30 -7 -62q-13 -60 -39.5 -100.5t-68 -63t-88 -33t-113.5 -14.5q-92 -5 -133.5 -23.5t-56.5 -63.5l-17 -55h435l-32 -151h-617l42 198q13 64 45.5 109.5t81.5 72t105 39.5t128 17q72 3 106.5 23t46.5 71 q3 12 3 20q0 33 -28 44t-85 11q-63 0 -98.5 -21t-47.5 -68z" />
<glyph unicode="&#xb3;" horiz-adv-x="786" d="M536 1224l-177 22q49 200 321 200q76 0 135 -15.5t100.5 -57t41.5 -105.5q0 -70 -31 -117.5t-96 -82.5q74 -35 74 -129q0 -25 -6 -54q-42 -198 -343 -198q-126 0 -206 46t-80 144q0 25 6 54l174 -21q-2 -12 -2 -17q0 -64 126 -64q62 0 96.5 21t48.5 74q4 16 4 30 q0 34 -27 47t-80 13h-103l28 131h85q63 0 95.5 16t43.5 63q4 20 4 26q0 28 -23.5 39.5t-76.5 11.5q-58 0 -90 -18t-42 -59z" />
<glyph unicode="&#xb4;" horiz-adv-x="624" d="M844 1394l-399 -289l-100 151l399 289z" />
<glyph unicode="&#xb6;" horiz-adv-x="1638" d="M1821 1228h-187l-362 -1707h-262l363 1707h-251l-363 -1707h-262l201 931l-60 3q-177 15 -273.5 117.5t-96.5 264.5q0 59 14 127q45 210 206.5 340t400.5 130h976z" />
<glyph unicode="&#xb7;" horiz-adv-x="411" d="M344 735q58 0 89.5 -31t31.5 -77q0 -48 -34.5 -84.5t-98.5 -36.5q-58 0 -89.5 30.5t-31.5 77.5q0 48 34.5 84.5t98.5 36.5z" />
<glyph unicode="&#xb8;" horiz-adv-x="667" d="M435 35l-106 -131q6 1 19 1q14 0 29 -3q66 -8 110.5 -47.5t44.5 -110.5q0 -80 -47.5 -139.5t-119 -87t-154.5 -27.5q-76 0 -134 29t-83 78l96 71q25 -41 104 -41q61 0 107 32t58 89l3 18q0 60 -99 60q-18 0 -66 -12l-54 34l128 187h164z" />
<glyph unicode="&#xb9;" horiz-adv-x="471" d="M541 693h-187l122 574l-135 -29l31 151l202 43h124z" />
<glyph unicode="&#xba;" horiz-adv-x="1099" d="M839 1446q161 0 249 -82.5t88 -217.5q0 -47 -10 -93q-32 -153 -151 -251t-298 -98q-163 0 -250 83.5t-87 217.5q0 48 10 92q32 151 152 250t297 99zM843 1296q-101 0 -175.5 -66t-98.5 -177q-6 -26 -6 -60q0 -67 38.5 -103t111.5 -36q103 0 176 64.5t97 178.5q8 37 8 62 q0 68 -39 102.5t-112 34.5z" />
<glyph unicode="&#xbb;" horiz-adv-x="1230" d="M780 601l-517 -511l-141 126l374 385l-208 386l180 125zM1282 601l-517 -511l-141 126l373 385l-208 386l181 125z" />
<glyph unicode="&#xbc;" horiz-adv-x="1460" d="M369 -35h-259l1203 1503h259zM548 693h-186l122 574l-136 -29l31 151l203 43h123zM1369 287h75l-31 -146h-75l-30 -141h-165l30 141h-409l27 140l499 461h175zM997 287h207l56 249z" />
<glyph unicode="&#xbd;" horiz-adv-x="1595" d="M369 -35h-259l1203 1503h259zM548 693h-186l122 574l-136 -29l31 151l203 43h123zM1194 516l-174 22q13 62 43.5 104.5t76.5 64.5t96.5 31t116.5 9q279 0 279 -181q0 -31 -7 -63q-13 -60 -39.5 -100.5t-68 -63t-88 -33t-113.5 -14.5q-92 -5 -133.5 -23t-56.5 -63l-17 -56 h435l-32 -150h-617l42 197q26 123 118.5 177t241.5 62q72 3 106.5 22.5t46.5 70.5q3 12 3 21q0 33 -28 43.5t-85 10.5q-64 0 -99 -20.5t-47 -67.5z" />
<glyph unicode="&#xbe;" horiz-adv-x="1671" d="M581 -35h-259l1203 1503h259zM536 1224l-177 22q49 200 321 200q76 0 135 -15.5t100.5 -57t41.5 -105.5q0 -70 -31 -117.5t-96 -82.5q74 -35 74 -129q0 -25 -6 -54q-42 -198 -343 -198q-126 0 -206 46t-80 144q0 25 6 54l174 -21q-2 -12 -2 -17q0 -64 126 -64 q62 0 96.5 21t48.5 74q4 16 4 30q0 34 -27 47t-80 13h-103l28 131h85q63 0 95.5 16t43.5 63q4 20 4 26q0 28 -23.5 39.5t-76.5 11.5q-58 0 -90 -18t-42 -59zM1580 287h76l-31 -146h-76l-30 -141h-164l30 141h-409l26 140l500 461h175zM1209 287h207l56 249z" />
<glyph unicode="&#xbf;" horiz-adv-x="1277" d="M959 1120q56 0 92 -34.5t36 -85.5q0 -14 -3 -29q-10 -44 -51 -74.5t-92 -30.5q-56 0 -92 34.5t-36 85.5q0 14 3 29q10 44 51 74.5t92 30.5zM1021 718l-43 -206q-12 -57 -36 -99t-47 -66t-70 -44t-75.5 -28t-93.5 -23l-12 -3q-46 -8 -75.5 -15t-71 -24t-68.5 -40 t-51.5 -63t-35.5 -93q-5 -25 -5 -42q0 -37 17 -60.5t52.5 -35.5t77.5 -16.5t105 -4.5q101 0 173 17t122.5 61t65.5 114l255 -22q-24 -111 -81 -187.5t-143 -116.5t-179.5 -56.5t-211.5 -16.5q-510 0 -510 317q0 51 11 102q19 90 56.5 158.5t77.5 107.5t98 67.5t98.5 40.5 t97.5 25l15 3q86 14 138 51.5t70 118.5l18 79h261z" />
<glyph unicode="&#xc0;" horiz-adv-x="1572" d="M1373 1666l-153 -151l-290 289l153 151zM1505 0h-269l-58 320h-642l-195 -320h-279l893 1434h266zM660 536h485l-109 612z" />
<glyph unicode="&#xc1;" horiz-adv-x="1572" d="M1413 1804l-399 -289l-100 151l399 289zM1505 0h-269l-58 320h-642l-195 -320h-279l893 1434h266zM660 536h485l-109 612z" />
<glyph unicode="&#xc2;" horiz-adv-x="1572" d="M1471 1637l-147 -127l-168 229l-265 -229l-107 127l412 350zM1505 0h-269l-58 320h-642l-195 -320h-279l893 1434h266zM660 536h485l-109 612z" />
<glyph unicode="&#xc3;" horiz-adv-x="1572" d="M919 1603l-122 104q104 151 223 151q56 0 144 -48q73 -39 113 -39q65 0 123 80l121 -103q-98 -144 -212 -144q-59 0 -148 49q-71 39 -110 39q-65 0 -132 -89zM1505 0h-269l-58 320h-642l-195 -320h-279l893 1434h266zM660 536h485l-109 612z" />
<glyph unicode="&#xc4;" horiz-adv-x="1572" d="M915 1819q58 0 89.5 -30.5t31.5 -76.5q0 -48 -34.5 -85.5t-98.5 -37.5q-58 0 -89.5 31t-31.5 78q0 48 34.5 84.5t98.5 36.5zM1382 1819q58 0 89.5 -30.5t31.5 -76.5q0 -48 -35 -85.5t-99 -37.5q-58 0 -89.5 31t-31.5 78q0 48 35 84.5t99 36.5zM1505 0h-269l-58 320h-642 l-195 -320h-279l893 1434h266zM660 536h485l-109 612z" />
<glyph unicode="&#xc5;" horiz-adv-x="1572" d="M1190 2004q106 0 172 -64t66 -158q0 -111 -93 -197.5t-217 -86.5q-106 0 -172.5 64t-66.5 158q0 111 93.5 197.5t217.5 86.5zM1199 1878q-55 0 -111 -42t-69 -107q-3 -12 -3 -23q0 -39 28.5 -61t64.5 -22q55 0 111 42t69 107q2 8 2 23q0 39 -28 61t-64 22zM1505 0h-269 l-58 320h-642l-195 -320h-279l893 1434h266zM660 536h485l-109 612z" />
<glyph unicode="&#xc6;" horiz-adv-x="1847" d="M2018 1218h-711l-79 -373h652l-46 -215h-652l-88 -415h711l-46 -215h-973l68 320h-318l-195 -320h-279l893 1434h1109zM660 536h240l133 612z" />
<glyph unicode="&#xc7;" horiz-adv-x="1425" d="M524 -152l121 160q-191 50 -293 193.5t-102 347.5q0 96 20 190q32 152 108 282.5t186 227.5t259 152t318 55q293 0 461 -170l-196 -158q-84 110 -275 110q-230 0 -392.5 -147t-215.5 -395q-17 -82 -17 -148q0 -166 94.5 -258.5t273.5 -92.5q203 0 349 128l144 -191 q-217 -155 -482 -155q-15 0 -92 5l-83 -80q7 1 21 1q15 0 30 -3q67 -8 109.5 -48t42.5 -110q0 -80 -47.5 -139.5t-119 -87t-154.5 -27.5q-76 0 -134 29t-83 78l96 71q25 -41 105 -41q61 0 107 32t58 89q2 12 2 18q0 60 -99 60q-18 0 -66 -12z" />
<glyph unicode="&#xc8;" horiz-adv-x="1224" d="M1222 1666l-153 -151l-289 289l153 151zM1394 1218h-711l-80 -373h652l-45 -215h-652l-88 -415h711l-46 -215h-973l305 1434h973z" />
<glyph unicode="&#xc9;" horiz-adv-x="1224" d="M1262 1804l-399 -289l-100 151l399 289zM1394 1218h-711l-80 -373h652l-45 -215h-652l-88 -415h711l-46 -215h-973l305 1434h973z" />
<glyph unicode="&#xca;" horiz-adv-x="1224" d="M1321 1637l-148 -127l-168 229l-265 -229l-107 127l412 350zM1394 1218h-711l-80 -373h652l-45 -215h-652l-88 -415h711l-46 -215h-973l305 1434h973z" />
<glyph unicode="&#xcb;" horiz-adv-x="1224" d="M765 1819q58 0 89.5 -30.5t31.5 -76.5q0 -48 -35 -85.5t-99 -37.5q-58 0 -89.5 31t-31.5 78q0 48 35 84.5t99 36.5zM1231 1819q58 0 89.5 -30.5t31.5 -76.5q0 -48 -35 -85.5t-99 -37.5q-58 0 -89.5 31t-31.5 78q0 48 35 84.5t99 36.5zM1394 1218h-711l-80 -373h652 l-45 -215h-652l-89 -415h712l-46 -215h-973l305 1434h973z" />
<glyph unicode="&#xcc;" horiz-adv-x="585" d="M883 1666l-153 -151l-290 289l153 151zM424 0h-262l305 1434h261z" />
<glyph unicode="&#xcd;" horiz-adv-x="585" d="M922 1804l-399 -289l-100 151l399 289zM424 0h-262l305 1434h261z" />
<glyph unicode="&#xce;" horiz-adv-x="585" d="M981 1637l-148 -127l-168 229l-265 -229l-106 127l411 350zM424 0h-262l305 1434h261z" />
<glyph unicode="&#xcf;" horiz-adv-x="585" d="M425 1819q58 0 89.5 -30.5t31.5 -76.5q0 -48 -35 -85.5t-99 -37.5q-58 0 -89 31t-31 78q0 48 34.5 84.5t98.5 36.5zM891 1819q58 0 89.5 -30.5t31.5 -76.5q0 -48 -34.5 -85.5t-98.5 -37.5q-58 0 -89.5 31t-31.5 78q0 48 34.5 84.5t98.5 36.5zM424 0h-262l305 1434h261z " />
<glyph unicode="&#xd0;" horiz-adv-x="1515" d="M475 1434h485q291 0 451 -150t160 -403q0 -92 -20 -185q-33 -154 -108.5 -282t-186.5 -220t-260.5 -143t-322.5 -51h-503l129 607h-185l44 206h185zM690 1216l-86 -403h312l-44 -206h-311l-83 -390h224q230 0 386.5 137.5t209.5 385.5q17 79 17 142q0 162 -97.5 248 t-285.5 86h-242z" />
<glyph unicode="&#xd1;" horiz-adv-x="1480" d="M881 1603l-122 104q104 151 223 151q56 0 150 -51q67 -36 108 -36q64 0 122 80l121 -103q-98 -144 -212 -144q-54 0 -133 42q-76 39 -106 44q-10 2 -19 2q-65 0 -132 -89zM1334 0h-293l-413 1013l-218 -1013h-262l305 1434h292l414 -1010l218 1010h261z" />
<glyph unicode="&#xd2;" horiz-adv-x="1701" d="M1445 1666l-153 -151l-290 289l153 151zM1141 1456q295 0 455.5 -157t160.5 -414q0 -91 -21 -189q-33 -154 -108.5 -285t-185.5 -228t-259 -151.5t-320 -54.5q-292 0 -452.5 157.5t-160.5 415.5q0 91 21 190q32 152 108 282.5t186 227t258.5 151.5t317.5 55zM1131 1238 q-230 0 -392.5 -147t-215.5 -395q-17 -82 -17 -147q0 -167 95.5 -260t272.5 -93q232 0 394 146t216 397q17 80 17 147q0 166 -95.5 259t-274.5 93z" />
<glyph unicode="&#xd3;" horiz-adv-x="1701" d="M1484 1804l-399 -289l-100 151l399 289zM1141 1456q295 0 455.5 -157t160.5 -414q0 -91 -21 -189q-33 -154 -108.5 -285t-185.5 -228t-259 -151.5t-320 -54.5q-292 0 -452.5 157.5t-160.5 415.5q0 95 20 189q32 152 108 282.5t186 227.5t259 152t318 55zM1131 1238 q-230 0 -392.5 -147t-215.5 -395q-17 -82 -17 -147q0 -167 95.5 -260t272.5 -93q232 0 394 146t216 397q17 80 17 147q0 166 -95.5 259t-274.5 93z" />
<glyph unicode="&#xd4;" horiz-adv-x="1701" d="M1543 1637l-148 -127l-168 229l-265 -229l-107 127l412 350zM1141 1456q295 0 455.5 -157t160.5 -414q0 -91 -21 -189q-33 -154 -108.5 -285t-185.5 -228t-259 -151.5t-320 -54.5q-292 0 -452.5 157.5t-160.5 415.5q0 90 21 189q32 152 108 282.5t186 227.5t258.5 152 t317.5 55zM1131 1238q-230 0 -392.5 -147t-215.5 -395q-17 -82 -17 -147q0 -167 95.5 -260t272.5 -93q232 0 394 146t216 397q17 80 17 147q0 166 -95.5 259t-274.5 93z" />
<glyph unicode="&#xd5;" horiz-adv-x="1701" d="M990 1603l-121 104q104 151 222 151q59 0 141 -46q78 -41 117 -41q64 0 122 80l122 -103q-98 -144 -213 -144q-60 0 -154 52q-68 36 -103 36q-66 0 -133 -89zM1142 1456q295 0 455 -157t160 -414q0 -91 -21 -189q-33 -154 -108.5 -285t-185.5 -228t-259 -151.5 t-320 -54.5q-292 0 -452.5 157.5t-160.5 415.5q0 90 21 189q32 152 108 282.5t186 227.5t259 152t318 55zM1131 1238q-230 0 -392.5 -147t-215.5 -395q-17 -82 -17 -147q0 -167 95.5 -260t272.5 -93q232 0 394 146t216 397q17 80 17 147q0 166 -95.5 259t-274.5 93z" />
<glyph unicode="&#xd6;" horiz-adv-x="1701" d="M987 1819q58 0 89.5 -30.5t31.5 -76.5q0 -48 -35 -85.5t-99 -37.5q-58 0 -89 31t-31 78q0 48 34.5 84.5t98.5 36.5zM1454 1819q58 0 89.5 -30.5t31.5 -76.5q0 -48 -35 -85.5t-99 -37.5q-58 0 -89.5 31t-31.5 78q0 48 35 84.5t99 36.5zM1141 1456q295 0 455.5 -157 t160.5 -414q0 -91 -21 -189q-33 -154 -108.5 -285t-185.5 -228t-259 -151.5t-320 -54.5q-292 0 -452.5 157.5t-160.5 415.5q0 90 21 189q32 152 108 282.5t186 227.5t258.5 152t317.5 55zM1131 1238q-230 0 -392.5 -147t-215.5 -395q-17 -82 -17 -147q0 -167 95.5 -260 t272.5 -93q232 0 394 146t216 397q17 80 17 147q0 166 -95.5 259t-274.5 93z" />
<glyph unicode="&#xd7;" horiz-adv-x="942" d="M623 744l301 249l121 -146l-301 -248l195 -248l-169 -146l-196 249l-301 -249l-121 146l301 248l-196 249l170 145z" />
<glyph unicode="&#xd8;" horiz-adv-x="1701" d="M1641 1536l-113 -182q113 -74 171 -195t58 -274q0 -91 -21 -189q-33 -154 -108.5 -285t-185.5 -228t-259 -151.5t-320 -54.5q-97 0 -179 18l-60 -97h-258l113 182q-112 74 -170.5 195t-58.5 275q0 95 20 189q32 152 108 282.5t186 227.5t259 152t318 55q99 0 181 -18 l61 98h258zM606 284l590 950q-42 4 -65 4q-230 0 -392.5 -147t-215.5 -395q-17 -82 -17 -147q0 -173 100 -265zM1401 1150l-590 -951q30 -3 63 -3q232 0 394 146.5t216 397.5q17 80 17 146q0 172 -100 264z" />
<glyph unicode="&#xd9;" horiz-adv-x="1511" d="M1348 1666l-153 -151l-290 289l153 151zM1669 1434l-168 -789q-26 -121 -63 -218t-96 -183.5t-136.5 -144t-186.5 -91t-243 -33.5q-500 0 -500 451q0 109 28 241l163 767h261l-162 -766q-29 -139 -29 -219q0 -122 60 -178.5t194 -56.5q195 0 300.5 116t157.5 360l158 744 h262z" />
<glyph unicode="&#xda;" horiz-adv-x="1511" d="M1387 1804l-399 -289l-100 151l399 289zM1669 1434l-168 -789q-26 -121 -63 -218t-96 -183.5t-136.5 -144t-186.5 -91t-243 -33.5q-500 0 -500 451q0 109 28 241l163 767h261l-162 -766q-29 -139 -29 -219q0 -122 60 -178.5t194 -56.5q195 0 300.5 116t157.5 360l158 744 h262z" />
<glyph unicode="&#xdb;" horiz-adv-x="1511" d="M1446 1637l-148 -127l-168 229l-265 -229l-107 127l412 350zM1669 1434l-168 -789q-26 -121 -63 -218t-96 -183.5t-136.5 -144t-186.5 -91t-243 -33.5q-500 0 -500 451q0 109 28 241l163 767h261l-162 -766q-29 -139 -29 -219q0 -122 60 -178.5t194 -56.5 q195 0 300.5 116t157.5 360l158 744h262z" />
<glyph unicode="&#xdc;" horiz-adv-x="1511" d="M890 1819q58 0 89.5 -30.5t31.5 -76.5q0 -48 -35 -85.5t-99 -37.5q-58 0 -89 31t-31 78q0 48 34.5 84.5t98.5 36.5zM1356 1819q58 0 89.5 -30.5t31.5 -76.5q0 -48 -34.5 -85.5t-98.5 -37.5q-58 0 -89.5 31t-31.5 78q0 48 34.5 84.5t98.5 36.5zM1669 1434l-168 -789 q-26 -121 -63 -218t-96 -183.5t-136.5 -144t-186.5 -91t-243 -33.5q-500 0 -500 451q0 109 28 241l163 767h261l-162 -766q-29 -139 -29 -219q0 -122 60 -178.5t194 -56.5q195 0 300.5 116t157.5 360l158 744h262z" />
<glyph unicode="&#xdd;" horiz-adv-x="1509" d="M1387 1804l-399 -289l-101 151l400 289zM1010 570l-125 -570h-261l124 570l-375 864h294l252 -629l527 629h307z" />
<glyph unicode="&#xde;" horiz-adv-x="1417" d="M678 1196h347q204 0 317 -106.5t113 -282.5q0 -58 -14 -125q-45 -212 -205.5 -341t-401.5 -129h-365l-45 -212h-262l305 1434h261zM514 423h318q135 0 231 82.5t125 220.5q8 40 8 71q0 89 -57 138t-169 49h-337z" />
<glyph unicode="&#xdf;" horiz-adv-x="1374" d="M144 3l228 1071q26 113 82 191t136 119t165.5 58t190.5 17q450 0 450 -307q0 -58 -12 -111q-23 -107 -76.5 -176.5t-142.5 -113.5q222 -58 222 -276q0 -58 -12 -111q-20 -96 -67 -166.5t-106.5 -111.5t-142.5 -65.5t-161.5 -32.5t-177.5 -8h-176l47 221h167 q76 0 132.5 10t106.5 34.5t82.5 71t47.5 115.5q7 29 7 57q0 81 -64 109.5t-196 29.5h-82l45 212l20 1q224 9 269 220q6 26 6 58q0 70 -48.5 94.5t-149.5 24.5q-264 0 -309 -202l-219 -1033h-262z" />
<glyph unicode="&#xe0;" d="M1146 1256l-153 -151l-290 289l153 151zM382 778l-45 163q221 108 449 108q117 0 210.5 -34t152 -107.5t58.5 -175.5q0 -34 -10 -84l-137 -648h-224l21 124q-144 -135 -336 -150q-28 -2 -43 -2q-143 0 -240.5 78t-97.5 212q0 37 9 79q18 83 66.5 147t116 102t144.5 57 t159 19q168 0 291 -69l18 79q4 21 4 44q0 75 -59 112t-152 37q-89 0 -185 -26.5t-170 -64.5zM861 288l36 169q-80 51 -209 51q-113 0 -200.5 -50t-107.5 -145q-3 -16 -3 -31q0 -58 50 -88.5t128 -29.5h21q163 6 285 124z" />
<glyph unicode="&#xe1;" d="M1185 1394l-399 -289l-100 151l399 289zM382 778l-45 163q221 108 449 108q117 0 210.5 -34t152 -107.5t58.5 -175.5q0 -34 -10 -84l-137 -648h-224l21 124q-144 -135 -336 -150q-28 -2 -43 -2q-143 0 -240.5 78t-97.5 212q0 37 9 79q18 83 66.5 147t116 102t144.5 57 t159 19q168 0 291 -69l18 79q4 21 4 44q0 75 -59 112t-152 37q-89 0 -185 -26.5t-170 -64.5zM861 288l36 169q-80 51 -209 51q-113 0 -200.5 -50t-107.5 -145q-3 -16 -3 -31q0 -58 50 -89t128 -30q3 0 10 0.5t11 0.5q163 6 285 124z" />
<glyph unicode="&#xe2;" d="M1244 1227l-148 -127l-168 229l-265 -229l-107 127l412 351zM382 778l-45 163q221 108 449 108q117 0 210.5 -34t152 -107.5t58.5 -175.5q0 -34 -10 -84l-137 -648h-224l21 124q-144 -135 -336 -150q-28 -2 -43 -2q-143 0 -240.5 78t-97.5 212q0 37 9 79q18 83 66.5 147 t116 102t144.5 57t159 19q168 0 291 -69l18 79q4 21 4 44q0 75 -59 112t-152 37q-89 0 -185 -26.5t-170 -64.5zM861 288l36 169q-80 51 -209 51q-113 0 -200.5 -50t-107.5 -145q-3 -16 -3 -31q0 -58 50 -89t128 -30q3 0 10 0.5t11 0.5q163 6 285 124z" />
<glyph unicode="&#xe3;" d="M691 1193l-121 104q104 152 222 152q57 0 151 -51q69 -37 107 -37q64 0 122 80l122 -103q-97 -143 -213 -143q-55 0 -132 41q-76 39 -106 44q-10 2 -19 2q-66 0 -133 -89zM382 778l-45 163q221 108 449 108q117 0 210.5 -34t152 -107.5t58.5 -175.5q0 -34 -10 -84 l-137 -648h-224l21 124q-144 -135 -336 -150q-28 -2 -43 -2q-143 0 -240.5 78t-97.5 212q0 37 9 79q18 83 66.5 147t116 102t144.5 57t159 19q168 0 291 -69l18 79q4 21 4 44q0 75 -59 112t-152 37q-89 0 -185 -26.5t-170 -64.5zM861 288l36 169q-80 51 -209 51 q-113 0 -200.5 -50t-107.5 -145q-3 -16 -3 -31q0 -58 50 -88.5t128 -29.5h21q163 6 285 124z" />
<glyph unicode="&#xe4;" d="M688 1409q58 0 89.5 -30.5t31.5 -76.5q0 -48 -35 -85t-99 -37q-58 0 -89 30.5t-31 77.5q0 48 34.5 84.5t98.5 36.5zM1154 1409q58 0 89.5 -30.5t31.5 -76.5q0 -48 -34.5 -85t-98.5 -37q-58 0 -89.5 30.5t-31.5 77.5q0 48 34.5 84.5t98.5 36.5zM382 778l-45 163 q221 108 449 108q117 0 210.5 -34t152 -107.5t58.5 -175.5q0 -34 -10 -84l-137 -648h-224l21 124q-144 -135 -336 -150q-28 -2 -43 -2q-143 0 -240.5 78t-97.5 212q0 37 9 79q18 83 66.5 147t116 102t144.5 57t159 19q168 0 291 -69l18 79q4 21 4 44q0 75 -59 112t-152 37 q-89 0 -185 -26.5t-170 -64.5zM861 288l36 169q-80 51 -209 51q-113 0 -200.5 -50t-107.5 -145q-3 -16 -3 -31q0 -58 50 -88.5t128 -29.5h21q163 6 285 124z" />
<glyph unicode="&#xe5;" d="M962 1594q106 0 172.5 -64t66.5 -158q0 -111 -93.5 -197.5t-217.5 -86.5q-106 0 -172 64t-66 158q0 111 93 197.5t217 86.5zM971 1469q-55 0 -111 -42.5t-69 -107.5q-2 -8 -2 -22q0 -39 28 -61.5t64 -22.5q55 0 111 42.5t69 107.5q3 12 3 22q0 39 -28.5 61.5t-64.5 22.5z M382 778l-45 163q221 108 449 108q117 0 210.5 -34t152 -107.5t58.5 -175.5q0 -34 -10 -84l-137 -648h-224l21 124q-144 -135 -336 -150q-28 -2 -43 -2q-143 0 -240.5 78t-97.5 212q0 37 9 79q18 83 66.5 147t116 102t144.5 57t159 19q168 0 291 -69l18 79q4 21 4 44 q0 75 -59 112t-152 37q-89 0 -185 -26.5t-170 -64.5zM861 288l36 169q-80 51 -209 51q-113 0 -200.5 -50t-107.5 -145q-3 -16 -3 -31q0 -58 50 -88.5t128 -29.5h21q163 6 285 124z" />
<glyph unicode="&#xe6;" horiz-adv-x="2015" d="M382 778l-45 163q221 108 449 108q144 0 249 -58t125 -159q183 218 469 218q215 0 328 -102.5t113 -281.5q0 -69 -16 -140q-11 -56 -32 -108h-803q-7 -123 58 -188t189 -65q162 0 333 93l94 -141q-185 -140 -450 -140q-129 0 -215.5 47.5t-126.5 131.5l-41 -156h-224 l21 124q-144 -135 -336 -150q-28 -2 -43 -2q-143 0 -240.5 78t-97.5 212q0 37 9 79q18 83 66.5 147t116 102t144 57t158.5 19q171 0 298 -71l18 80q5 27 5 44q0 75 -62 112.5t-156 37.5q-89 0 -185 -26.5t-170 -64.5zM1258 574l574 10q10 30 15 61q5 33 5 57q0 83 -54 120 t-167 37q-140 0 -231.5 -73t-132.5 -193zM874 289l36 161q-81 58 -222 58q-113 0 -200.5 -50t-107.5 -145q-3 -16 -3 -31q0 -58 50 -88.5t128 -29.5h21q79 3 158 35t140 90z" />
<glyph unicode="&#xe7;" horiz-adv-x="1067" d="M354 -152l117 153q-137 40 -211.5 146.5t-74.5 253.5q0 64 15 133q23 106 77.5 199t135.5 163.5t192.5 111.5t238.5 41q223 0 340 -119l-163 -141q-41 58 -167 58q-151 0 -262.5 -98t-146.5 -259q-10 -44 -10 -88q0 -107 64 -166t177 -59q60 0 121 21.5t102 56.5 l120 -173q-127 -90 -303 -102q-22 -3 -43 -3q-5 0 -53 3l-80 -76q5 1 16 1q28 0 52 -7q61 -11 98 -49.5t37 -103.5q0 -81 -47.5 -140.5t-119 -87t-154.5 -27.5q-76 0 -134 29t-83 78l96 71q25 -41 105 -41q61 0 107 32t58 89q2 12 2 18q0 60 -99 60q-18 0 -66 -12z" />
<glyph unicode="&#xe8;" horiz-adv-x="1220" d="M1108 1256l-153 -151l-290 289l153 151zM1004 258l95 -141q-185 -140 -450 -140q-224 0 -344 116.5t-120 305.5q0 65 15 136q31 144 113 259t218 185.5t303 70.5q215 0 328 -102.5t113 -281.5q0 -69 -16 -140q-11 -56 -32 -108h-803q-7 -123 58 -188t189 -65 q162 0 333 93zM463 574h575q10 30 15 61q5 26 5 59q0 87 -55 126t-166 39q-141 0 -237 -75t-131 -193z" />
<glyph unicode="&#xe9;" horiz-adv-x="1220" d="M1148 1394l-399 -289l-101 151l400 289zM1004 258l95 -141q-185 -140 -450 -140q-224 0 -344 116.5t-120 305.5q0 65 15 136q31 144 113 259t218 185.5t303 70.5q215 0 328 -102.5t113 -281.5q0 -69 -16 -140q-11 -56 -32 -108h-803q-7 -123 58 -188t189 -65 q162 0 333 93zM463 574h575q10 30 15 61q5 26 5 59q0 87 -55 126t-166 39q-141 0 -237 -75t-131 -193z" />
<glyph unicode="&#xea;" horiz-adv-x="1220" d="M1206 1227l-147 -127l-168 229l-265 -229l-107 127l411 351zM1004 258l95 -141q-185 -140 -450 -140q-224 0 -344 116.5t-120 305.5q0 65 15 136q31 144 113 259t218 185.5t303 70.5q215 0 328 -102.5t113 -281.5q0 -69 -16 -140q-11 -56 -32 -108h-803q-7 -123 58 -188 t189 -65q162 0 333 93zM463 574h575q10 30 15 61q5 26 5 59q0 87 -55 126t-166 39q-141 0 -237 -75t-131 -193z" />
<glyph unicode="&#xeb;" horiz-adv-x="1220" d="M650 1409q58 0 89.5 -30.5t31.5 -76.5q0 -48 -34.5 -85t-98.5 -37q-58 0 -89.5 30.5t-31.5 77.5q0 48 34.5 84.5t98.5 36.5zM1117 1409q58 0 89.5 -30.5t31.5 -76.5q0 -48 -35 -85t-99 -37q-58 0 -89.5 30.5t-31.5 77.5q0 48 35 84.5t99 36.5zM1004 258l95 -141 q-185 -140 -450 -140q-224 0 -344 116.5t-120 305.5q0 65 15 136q31 144 113 259t218 185.5t303 70.5q215 0 328 -102.5t113 -281.5q0 -69 -16 -140q-11 -56 -32 -108h-803q-7 -123 58 -188t189 -65q162 0 333 93zM463 574h575q10 30 15 61q5 26 5 59q0 87 -55 126t-166 39 q-141 0 -237 -75t-131 -193z" />
<glyph unicode="&#xec;" horiz-adv-x="518" d="M772 1256l-153 -151l-290 289l153 151zM393 0h-254l218 1024h254z" />
<glyph unicode="&#xed;" horiz-adv-x="518" d="M812 1394l-400 -289l-100 151l399 289zM393 0h-254l218 1024h254z" />
<glyph unicode="&#xee;" horiz-adv-x="518" d="M870 1227l-148 -127l-167 229l-266 -229l-107 127l412 351zM393 0h-254l218 1024h254z" />
<glyph unicode="&#xef;" horiz-adv-x="518" d="M314 1409q58 0 89.5 -30.5t31.5 -76.5q0 -48 -35 -85t-99 -37q-58 0 -89 30.5t-31 77.5q0 48 35 84.5t98 36.5zM781 1409q58 0 89.5 -30.5t31.5 -76.5q0 -48 -35 -85t-99 -37q-58 0 -89.5 30.5t-31.5 77.5q0 48 35 84.5t99 36.5zM393 0h-254l218 1024h254z" />
<glyph unicode="&#xf0;" horiz-adv-x="1228" d="M583 1278l-79 178q137 84 238.5 113.5t225.5 29.5q289 0 395 -148l143 79l70 -157l-144 -82q12 -61 12 -136q0 -157 -57 -422q-20 -94 -41.5 -169t-54 -155t-71 -140.5t-94 -116t-121.5 -91t-153.5 -56.5t-191.5 -21q-505 0 -505 374q0 70 18 157q24 112 69.5 196.5 t102.5 136.5t132.5 84t151 44t166.5 12q137 0 223.5 -30t133.5 -107q14 27 28 92q22 103 22 169q0 44 -8 73l-182 -105l-69 156l183 94q-46 64 -166 64q-98 0 -183.5 -24t-193.5 -92zM831 786q-84 0 -149 -15t-121.5 -50t-95 -99t-58.5 -157q-11 -50 -11 -96 q0 -54 18.5 -90.5t56.5 -55.5t84.5 -26.5t112.5 -7.5q93 0 165.5 27.5t124.5 81t87.5 122.5t62.5 162q-6 68 -25 109.5t-58 62t-81 26.5t-113 6z" />
<glyph unicode="&#xf1;" horiz-adv-x="1261" d="M708 1193l-121 104q104 152 223 152q56 0 140 -47q77 -41 117 -41q65 0 123 80l121 -103q-97 -143 -213 -143q-59 0 -151 50q-69 37 -106 37q-66 0 -133 -89zM570 1024l-22 -126q104 78 190 115.5t184 37.5q73 0 139 -19.5t118.5 -57t84 -99t31.5 -137.5q0 -45 -10 -89 l-138 -649h-254l131 619q8 38 8 66q0 83 -51.5 122.5t-133.5 39.5q-73 0 -141.5 -32t-167.5 -114l-155 -701h-254l218 1024h223z" />
<glyph unicode="&#xf2;" horiz-adv-x="1304" d="M1159 1256l-153 -151l-290 289l153 151zM857 1049q231 0 355.5 -116t124.5 -308q0 -65 -15 -135q-49 -227 -222 -371t-435 -144q-232 0 -356 118t-124 308q0 64 15 133q23 108 78.5 201t138 163.5t196 110.5t244.5 40zM850 847q-150 0 -261 -97t-145 -260 q-10 -46 -10 -90q0 -106 62 -164.5t176 -58.5q153 0 262 95t144 262q10 49 10 94q0 107 -62 163t-176 56z" />
<glyph unicode="&#xf3;" horiz-adv-x="1304" d="M1198 1394l-399 -289l-100 151l399 289zM857 1049q231 0 355.5 -116t124.5 -308q0 -65 -15 -135q-49 -227 -222 -371t-435 -144q-232 0 -356 118t-124 308q0 64 15 133q23 108 78.5 201t138 163.5t196 110.5t244.5 40zM850 847q-150 0 -261 -97t-145 -260 q-10 -46 -10 -90q0 -106 62 -164.5t176 -58.5q153 0 262 95t144 262q10 49 10 94q0 107 -62 163t-176 56z" />
<glyph unicode="&#xf4;" horiz-adv-x="1304" d="M1257 1227l-148 -127l-168 229l-265 -229l-107 127l412 351zM857 1049q231 0 355.5 -116t124.5 -308q0 -65 -15 -135q-49 -227 -222 -371t-435 -144q-232 0 -356 118t-124 308q0 64 15 133q23 108 78 201t137.5 163.5t196.5 110.5t245 40zM850 847q-150 0 -261 -97 t-145 -260q-10 -46 -10 -90q0 -106 62 -164.5t176 -58.5q153 0 262 95t144 262q10 49 10 94q0 107 -62 163t-176 56z" />
<glyph unicode="&#xf5;" horiz-adv-x="1304" d="M704 1193l-121 104q104 152 222 152q56 0 134 -44q86 -44 124 -44q64 0 122 80l122 -103q-97 -143 -213 -143q-59 0 -151 50q-69 37 -106 37q-66 0 -133 -89zM857 1049q231 0 355.5 -116t124.5 -308q0 -65 -15 -135q-49 -227 -222 -371t-435 -144q-232 0 -356 118 t-124 308q0 64 15 133q23 108 78.5 201t138 163.5t196 110.5t244.5 40zM850 847q-150 0 -261 -97t-145 -260q-10 -46 -10 -90q0 -106 62 -164.5t176 -58.5q153 0 262 95t144 262q10 49 10 94q0 107 -62 163t-176 56z" />
<glyph unicode="&#xf6;" horiz-adv-x="1304" d="M701 1409q58 0 89.5 -30.5t31.5 -76.5q0 -48 -35 -85t-99 -37q-58 0 -89 30.5t-31 77.5q0 48 34.5 84.5t98.5 36.5zM1168 1409q58 0 89.5 -30.5t31.5 -76.5q0 -48 -35 -85t-99 -37q-58 0 -89.5 30.5t-31.5 77.5q0 48 35 84.5t99 36.5zM857 1049q231 0 355.5 -116 t124.5 -308q0 -65 -15 -135q-49 -227 -222 -371t-435 -144q-232 0 -356 118t-124 308q0 64 15 133q23 108 78.5 201t138 163.5t196 110.5t244.5 40zM850 847q-150 0 -261 -97t-145 -260q-10 -46 -10 -90q0 -106 62 -164.5t176 -58.5q153 0 262 95t144 262q10 49 10 94 q0 107 -62 163t-176 56z" />
<glyph unicode="&#xf7;" horiz-adv-x="1062" d="M760 1161q58 0 89.5 -30.5t31.5 -77.5q0 -48 -35 -84.5t-99 -36.5q-58 0 -89.5 30.5t-31.5 76.5q0 48 35 85t99 37zM1110 584h-909l44 206h908zM607 442q58 0 89.5 -31t31.5 -77q0 -48 -35 -85t-99 -37q-58 0 -89.5 30.5t-31.5 77.5q0 48 35 85t99 37z" />
<glyph unicode="&#xf8;" horiz-adv-x="1304" d="M1252 1126l-94 -152q88 -55 133.5 -144.5t45.5 -204.5q0 -65 -15 -135q-49 -227 -222 -371t-435 -144q-59 0 -121 10l-54 -87h-220l95 153q-89 56 -134.5 146.5t-45.5 203.5q0 64 15 133q23 108 78 201t137.5 163.5t196.5 110.5t245 40q59 0 122 -10l54 87h219zM859 847 h-9q-150 0 -261 -97t-145 -260q-10 -46 -10 -90q0 -97 52 -154zM663 177h9q153 0 262 95t144 262q10 49 10 94q0 96 -51 152z" />
<glyph unicode="&#xf9;" horiz-adv-x="1247" d="M1140 1256l-153 -151l-290 289l153 151zM1133 0h-224l22 126q-104 -78 -190 -115.5t-184 -37.5q-99 0 -181 33t-136.5 106t-54.5 174q0 49 9 89l139 649h253l-131 -619q-8 -38 -8 -66q0 -83 51.5 -122.5t133.5 -39.5q73 0 142 32t168 114l154 701h254z" />
<glyph unicode="&#xfa;" horiz-adv-x="1247" d="M1180 1394l-399 -289l-101 151l400 289zM1133 0h-224l22 126q-104 -78 -190 -115.5t-184 -37.5q-99 0 -181 33t-136.5 106t-54.5 174q0 49 9 89l139 649h253l-131 -619q-8 -38 -8 -66q0 -83 51.5 -122.5t133.5 -39.5q73 0 142 32t168 114l154 701h254z" />
<glyph unicode="&#xfb;" horiz-adv-x="1247" d="M1238 1227l-147 -127l-168 229l-265 -229l-107 127l411 351zM1133 0h-224l22 126q-104 -78 -190 -115.5t-184 -37.5q-99 0 -181 33t-136.5 106t-54.5 174q0 49 9 89l139 649h253l-131 -619q-8 -38 -8 -66q0 -83 51.5 -122.5t133.5 -39.5q73 0 142 32t168 114l154 701h254 z" />
<glyph unicode="&#xfc;" horiz-adv-x="1247" d="M682 1409q58 0 89.5 -30.5t31.5 -76.5q0 -48 -34.5 -85t-98.5 -37q-58 0 -89.5 30.5t-31.5 77.5q0 48 34.5 84.5t98.5 36.5zM1149 1409q58 0 89.5 -30.5t31.5 -76.5q0 -48 -35 -85t-99 -37q-58 0 -89.5 30.5t-31.5 77.5q0 48 35 84.5t99 36.5zM1133 0h-224l22 126 q-104 -78 -190 -115.5t-184 -37.5q-99 0 -181 33t-136.5 106t-54.5 174q0 49 9 89l139 649h253l-131 -619q-8 -38 -8 -66q0 -83 51.5 -122.5t133.5 -39.5q73 0 142 32t168 114l154 701h254z" />
<glyph unicode="&#xfd;" horiz-adv-x="1187" d="M1132 1394l-399 -289l-100 151l399 289zM1372 1024l-753 -1227q-106 -168 -263 -256q-138 -51 -341 -51l21 188q152 0 244 66q92 34 159 152l70 104h-26l-201 1024h253l124 -754l449 754h264z" />
<glyph unicode="&#xfe;" horiz-adv-x="1298" d="M701 1434l-117 -518q148 131 354 131q185 0 291.5 -100.5t106.5 -290.5q0 -79 -19 -168q-35 -164 -120 -281.5t-200 -174.5t-249 -57q-94 0 -168 33.5t-150 112.5l-128 -570h-254l400 1883h253zM547 687l-87 -371q55 -82 106 -110.5t124 -28.5q149 0 247.5 93t134.5 263 q12 54 12 99q0 103 -58 158.5t-170 55.5q-84 0 -164.5 -39t-144.5 -120z" />
<glyph unicode="&#xff;" horiz-adv-x="1187" d="M635 1409q58 0 89.5 -30.5t31.5 -76.5q0 -48 -35 -85t-99 -37q-58 0 -89 30.5t-31 77.5q0 48 34.5 84.5t98.5 36.5zM1101 1409q58 0 89.5 -30.5t31.5 -76.5q0 -48 -34.5 -85t-98.5 -37q-58 0 -89.5 30.5t-31.5 77.5q0 48 34.5 84.5t98.5 36.5zM1372 1024l-753 -1227 q-106 -168 -263 -256q-138 -51 -341 -51l21 188q152 0 244 66q92 34 159 152l70 104h-26l-200 1024h252l124 -754l449 754h264z" />
<glyph unicode="&#x131;" horiz-adv-x="518" d="M393 0h-254l218 1024h254z" />
<glyph unicode="&#x152;" horiz-adv-x="2387" d="M1325 0l54 209q-93 -110 -226 -171t-290 -61q-292 0 -452.5 157.5t-160.5 415.5q0 90 21 189q32 152 108 282.5t186 227.5t258.5 152t317.5 55q167 0 277.5 -65t158.5 -177l55 220h973l-46 -216h-711l-80 -373h652l-45 -215h-652l-89 -415h712l-46 -215h-975zM1131 1238 q-230 0 -392.5 -147t-215.5 -395q-17 -82 -17 -147q0 -167 95.5 -260t272.5 -93q232 0 394 146t216 397q17 80 17 147q0 166 -95.5 259t-274.5 93z" />
<glyph unicode="&#x153;" horiz-adv-x="2080" d="M1882 258l94 -141q-185 -140 -450 -140q-153 0 -250.5 61t-129.5 163q-179 -226 -481 -226q-232 0 -356 118t-124 308q0 64 15 133q23 108 78 201t137.5 163.5t196.5 110.5t245 40q156 0 257 -61t136 -163q177 225 462 225q158 0 263 -51t149 -138q32 -57 32 -130 q0 -59 -20 -119q-27 -65 -80 -110t-127 -67t-147 -30.5t-163 -8.5q-65 0 -174.5 5t-134.5 6q-10 -118 54 -180t185 -62q162 0 333 93zM1704 869q-139 0 -231 -76t-126 -197q-9 -26 -13 -43q98 -12 198 -12q58 0 109 5t104.5 18.5t91 35.5t61.5 59t24 86q0 63 -59 93.5 t-159 30.5zM850 847q-150 0 -261 -97t-145 -260q-10 -46 -10 -90q0 -106 62 -164.5t176 -58.5q153 0 262 95t144 262q10 49 10 94q0 107 -62 163t-176 56z" />
<glyph unicode="&#x178;" horiz-adv-x="1509" d="M889 1819q58 0 89.5 -30.5t31.5 -76.5q0 -48 -34.5 -85.5t-98.5 -37.5q-58 0 -89.5 31t-31.5 78q0 48 34.5 84.5t98.5 36.5zM1356 1819q58 0 89.5 -30.5t31.5 -76.5q0 -48 -35 -85.5t-99 -37.5q-58 0 -89.5 31t-31.5 78q0 48 35 84.5t99 36.5zM1010 570l-125 -570h-261 l124 570l-375 864h294l252 -629l527 629h307z" />
<glyph unicode="&#x192;" horiz-adv-x="798" d="M1113 1527l-21 -185q-163 5 -274 -79q-111 -82 -148 -252l-22 -101h286l-40 -190h-286l-160 -751q-50 -235 -181 -346q-116 -100 -316 -119l22 199q80 26 137 96q64 73 89 195l155 726h-154l40 190h154l27 123q33 153 93.5 254t152.5 160q133 85 339 85q45 0 107 -5z" />
<glyph unicode="&#x2c6;" horiz-adv-x="841" d="M1026 1227l-148 -127l-168 229l-265 -229l-107 127l412 351z" />
<glyph unicode="&#x2c7;" horiz-adv-x="841" d="M1072 1445l-412 -350l-276 350l148 127l168 -228l265 228z" />
<glyph unicode="&#x2d8;" horiz-adv-x="796" d="M864 1464l161 -24q-33 -129 -134.5 -209.5t-229.5 -80.5q-125 0 -201 73.5t-76 185.5q0 29 4 53l162 -20q-3 -18 -3 -34q0 -57 30.5 -84t78.5 -27q67 0 126.5 45t81.5 122z" />
<glyph unicode="&#x2d9;" horiz-adv-x="411" d="M487 1409q58 0 89.5 -30.5t31.5 -76.5q0 -48 -35 -85t-99 -37q-58 0 -89 30.5t-31 77.5q0 48 34.5 84.5t98.5 36.5z" />
<glyph unicode="&#x2da;" horiz-adv-x="700" d="M671 1594q106 0 172.5 -64t66.5 -158q0 -111 -93 -197.5t-217 -86.5q-106 0 -172.5 64t-66.5 158q0 111 93 197.5t217 86.5zM681 1469q-55 0 -111.5 -42.5t-69.5 -107.5q-2 -8 -2 -22q0 -39 28 -61.5t64 -22.5q55 0 111.5 42.5t69.5 107.5q2 8 2 22q0 39 -28 61.5 t-64 22.5z" />
<glyph unicode="&#x2db;" horiz-adv-x="647" d="M271 33l243 -13q-167 -101 -244 -185t-65 -142q16 -34 70 -34q62 0 154 48l57 -141q-126 -52 -231 -52q-87 0 -145 34t-75 92q-13 27 -13 63q0 74 62 160.5t187 169.5z" />
<glyph unicode="&#x2dc;" horiz-adv-x="862" d="M470 1193l-121 104q104 152 222 152q57 0 151 -51q69 -37 107 -37q64 0 122 80l122 -103q-97 -143 -213 -143q-55 0 -132 41q-76 39 -106 44q-10 2 -19 2q-66 0 -133 -89z" />
<glyph unicode="&#x2dd;" horiz-adv-x="1093" d="M844 1417l-382 -322l-121 146l383 321zM1319 1417l-382 -322l-121 146l382 321z" />
<glyph unicode="&#x2000;" horiz-adv-x="1002" />
<glyph unicode="&#x2001;" horiz-adv-x="2004" />
<glyph unicode="&#x2002;" horiz-adv-x="1002" />
<glyph unicode="&#x2003;" horiz-adv-x="2004" />
<glyph unicode="&#x2004;" horiz-adv-x="668" />
<glyph unicode="&#x2005;" horiz-adv-x="501" />
<glyph unicode="&#x2006;" horiz-adv-x="334" />
<glyph unicode="&#x2007;" horiz-adv-x="334" />
<glyph unicode="&#x2008;" horiz-adv-x="250" />
<glyph unicode="&#x2009;" horiz-adv-x="400" />
<glyph unicode="&#x200a;" horiz-adv-x="111" />
<glyph unicode="&#x2010;" horiz-adv-x="1001" d="M1056 622h-847l44 206h847z" />
<glyph unicode="&#x2011;" horiz-adv-x="1001" d="M1056 622h-847l44 206h847z" />
<glyph unicode="&#x2012;" horiz-adv-x="1001" d="M1056 622h-847l44 206h847z" />
<glyph unicode="&#x2013;" horiz-adv-x="1130" d="M1185 622h-976l44 206h975z" />
<glyph unicode="&#x2014;" horiz-adv-x="1374" d="M1429 622h-1220l44 206h1219z" />
<glyph unicode="&#x2018;" horiz-adv-x="432" d="M497 1415h13q58 0 89.5 -30.5t31.5 -77.5q0 -48 -35 -85t-99 -37q-72 0 -103 54q-23 39 -23 100q0 37 10 87q22 102 67.5 154t144.5 52h45l-37 -102h-10q-38 -3 -60 -29t-33 -80z" />
<glyph unicode="&#x2019;" horiz-adv-x="432" d="M535 1402h-13q-58 0 -89.5 30.5t-31.5 77.5q0 48 35 85t99 37q73 0 104 -54q22 -37 22 -100q0 -37 -10 -87q-22 -102 -67.5 -154t-144.5 -52h-45l37 102h10q38 3 60 29t33 80z" />
<glyph unicode="&#x201a;" horiz-adv-x="432" d="M231 -29l1 6q-6 -2 -13 -2q-58 0 -89.5 31t-31.5 78q0 48 35 85t99 37q72 0 103 -54q23 -39 23 -99q0 -38 -10 -88q-11 -50 -24.5 -84t-37 -63t-61 -43.5t-89.5 -14.5h-45l37 101h10q38 3 60 29t33 81z" />
<glyph unicode="&#x201c;" horiz-adv-x="815" d="M497 1415h13q58 0 89.5 -30.5t31.5 -77.5q0 -48 -35 -85t-99 -37q-72 0 -103 54q-23 39 -23 100q0 37 10 87q22 102 67.5 154t144.5 52h45l-37 -102h-10q-38 -3 -60 -29t-33 -80zM879 1416h14q58 0 89.5 -30.5t31.5 -77.5q0 -48 -35 -85t-99 -37q-73 0 -104 54 q-22 37 -22 99q0 38 10 88q22 102 67.5 153.5t144.5 51.5h45l-38 -101h-10q-38 -3 -59.5 -29t-32.5 -80z" />
<glyph unicode="&#x201d;" horiz-adv-x="815" d="M535 1402h-13q-58 0 -89.5 30.5t-31.5 77.5q0 48 35 85t99 37q73 0 104 -54q22 -37 22 -100q0 -37 -10 -87q-22 -102 -67.5 -154t-144.5 -52h-45l37 102h10q38 3 60 29t33 80zM918 1401h-13q-58 0 -89.5 30.5t-31.5 77.5q0 48 35 85t99 37q72 0 103 -54q23 -39 23 -99 q0 -38 -10 -88q-22 -102 -68 -153.5t-145 -51.5h-44l37 101h10q38 3 60 29t33 80z" />
<glyph unicode="&#x201e;" horiz-adv-x="815" d="M231 -29l1 6q-6 -2 -13 -2q-58 0 -89.5 31t-31.5 78q0 48 35 85t99 37q72 0 103 -54q23 -39 23 -99q0 -38 -10 -88q-11 -50 -24.5 -84t-37 -63t-61 -43.5t-89.5 -14.5h-45l37 101h10q38 3 60 29t33 81zM614 -29l1 6q-6 -2 -13 -2q-58 0 -89.5 31t-31.5 78q0 48 35 85 t99 37q72 0 103 -54q23 -39 23 -99q0 -38 -10 -88q-22 -102 -67.5 -153.5t-145.5 -51.5h-44l37 101h10q38 3 60 29t33 81z" />
<glyph unicode="&#x2020;" horiz-adv-x="1120" d="M907 1021h352l-44 -206h-351l-236 -1110h-262l236 1110h-352l44 206h352l95 447h262z" />
<glyph unicode="&#x2021;" horiz-adv-x="1120" d="M908 1021h352l-44 -206h-352l-97 -457h352l-44 -205h-352l-95 -448h-261l95 448h-352l43 205h353l97 457h-353l44 206h352l95 447h262z" />
<glyph unicode="&#x2022;" horiz-adv-x="661" d="M498 869q103 0 162.5 -59t59.5 -148q0 -106 -83.5 -188.5t-204.5 -82.5q-103 0 -162.5 59t-59.5 148q0 106 83.5 188.5t204.5 82.5z" />
<glyph unicode="&#x2026;" horiz-adv-x="1282" d="M234 215q58 0 89.5 -31t31.5 -77q0 -48 -35 -84.5t-99 -36.5q-58 0 -89.5 30.5t-31.5 76.5q0 48 35 85t99 37zM669 215q58 0 89.5 -31t31.5 -77q0 -48 -35 -84.5t-99 -36.5q-58 0 -89.5 30.5t-31.5 76.5q0 48 35 85t99 37zM1104 215q58 0 89.5 -31t31.5 -77 q0 -48 -35 -84.5t-99 -36.5q-58 0 -89 30.5t-31 76.5q0 48 34.5 85t98.5 37z" />
<glyph unicode="&#x202f;" horiz-adv-x="400" />
<glyph unicode="&#x2030;" horiz-adv-x="2725" d="M609 -35h-259l1266 1503h259zM723 1446q302 0 302 -276q0 -67 -18 -152q-18 -82 -46 -146t-75.5 -120.5t-123 -87t-176.5 -30.5q-301 0 -301 278q0 65 18 150q14 65 32.5 116.5t52 103.5t77 86.5t110 56t148.5 21.5zM718 1292q-95 0 -146 -65.5t-81 -207.5 q-16 -78 -16 -117q0 -58 27 -86.5t89 -28.5q93 0 145 66.5t83 208.5q16 78 16 117q0 56 -27 84.5t-90 28.5zM1641 800q302 0 302 -276q0 -66 -18 -151q-14 -65 -33.5 -117.5t-53 -104t-77.5 -86t-109.5 -56t-146.5 -21.5q-301 0 -301 279q0 69 17 149q14 65 32.5 116.5 t52 103.5t77 86.5t110 56t148.5 21.5zM2451 800q302 0 302 -276q0 -66 -18 -151q-14 -65 -33.5 -117.5t-53 -104t-77.5 -86t-109.5 -56t-146.5 -21.5q-301 0 -301 279q0 69 17 149q14 65 32.5 116.5t52 103.5t77 86.5t110 56t148.5 21.5zM1637 646q-95 0 -146.5 -65.5 t-81.5 -207.5q-15 -73 -15 -116q0 -58 26.5 -87t88.5 -29q93 0 145 66.5t83 208.5q16 78 16 117q0 57 -26.5 85t-89.5 28zM2447 646q-95 0 -146.5 -65.5t-81.5 -207.5q-15 -73 -15 -116q0 -58 26.5 -87t88.5 -29q93 0 145 66.5t83 208.5q16 78 16 117q0 57 -26.5 85 t-89.5 28z" />
<glyph unicode="&#x2039;" horiz-adv-x="729" d="M862 987l-373 -386l208 -385l-181 -126l-311 511l516 511z" />
<glyph unicode="&#x203a;" horiz-adv-x="729" d="M780 601l-517 -511l-141 126l374 385l-208 386l180 125z" />
<glyph unicode="&#x2044;" horiz-adv-x="1265" d="M313 -35h-259l1203 1503h259z" />
<glyph unicode="&#x205f;" horiz-adv-x="501" />
<glyph unicode="&#x20ac;" horiz-adv-x="1347" d="M279 951h149q43 116 101.5 204.5t142 159t200.5 107.5t263 37q276 0 413 -135l-163 -146q-89 69 -244 69q-312 0 -420 -296h553l-40 -188h-593l-13 -57q-5 -21 -12 -67h518l-40 -189h-494q-1 -128 60.5 -194.5t204.5 -66.5q167 0 306 77l128 -168q-172 -123 -444 -123 q-146 0 -249.5 35.5t-161.5 102t-83.5 149t-24.5 189.5h-163l40 188h132l17 89l8 35h-131z" />
<glyph unicode="&#x2122;" horiz-adv-x="1886" d="M1082 1281h-274l-144 -680h-185l144 680h-274l33 153h732zM1936 601h-185l92 417l-272 -416h-161l-94 417l-92 -418h-184l176 833h203l114 -593l372 593h208z" />
<glyph unicode="&#x25ca;" horiz-adv-x="1585" />
<glyph unicode="&#xe000;" horiz-adv-x="1024" d="M0 1024h1024v-1024h-1024v1024z" />
<glyph unicode="&#xfb03;" horiz-adv-x="2144" d="M1918 1527l-21 -185q-151 5 -263 -72q-121 -82 -156 -246h747l-217 -1024h-254l177 834h-494l-286 -1346h-254l286 1346h-547l-287 -1346h-253l286 1346h-154l40 190h154q64 297 239 417q136 92 347 92q52 0 109 -6l-21 -185q-160 5 -271 -76q-113 -80 -148 -242h546 q36 165 101.5 270t166.5 162q133 76 325 76q44 0 102 -5zM2168 1434q56 0 92 -34.5t36 -85.5q0 -13 -3 -28q-10 -44 -51 -74.5t-92 -30.5q-56 0 -92 34.5t-36 85.5q0 13 3 28q10 44 51 74.5t92 30.5z" />
<glyph unicode="&#xfb04;" horiz-adv-x="2314" d="M1117 1527l-21 -185q-168 5 -274 -74q-109 -79 -145 -244h545q67 310 262 426q137 83 344 83q49 0 75 -2h422l-238 -1118q-11 -48 -11 -94q0 -60 23 -99q60 -44 190 -42l-22 -192q-241 -13 -341 100q-101 75 -101 231q0 57 13 118l193 907h-134q-162 5 -270 -72 q-113 -78 -149 -246h285l-40 -190h-286l-286 -1346h-254l286 1346h-547l-287 -1346h-253l286 1346h-154l40 190h154q64 298 248 419q137 89 345 89q44 0 102 -5z" />
</font>
</defs>
</svg>
